<svg width="90" height="91" viewBox="0 0 90 91" fill="none" xmlns="http://www.w3.org/2000/svg">
<path d="M13.8709 80.7879C31.2859 93.0273 59.5245 93.0273 76.9434 80.7879C94.3623 68.5485 94.3603 48.7045 76.9434 36.4651C59.5264 24.2257 31.2898 24.2257 13.8709 36.4651C-3.54796 48.7045 -3.54407 68.5589 13.8709 80.7879Z" fill="#F5F5F5"/>
<path d="M12.882 60.3128C15.3527 60.3128 17.3555 59.0291 17.3555 57.4454C17.3555 55.8618 15.3527 54.5781 12.882 54.5781C10.4114 54.5781 8.40857 55.8618 8.40857 57.4454C8.40857 59.0291 10.4114 60.3128 12.882 60.3128Z" fill="#EBEBEB"/>
<path d="M63.9318 64.1414C67.2292 64.1414 69.9023 62.4273 69.9023 60.313C69.9023 58.1986 67.2292 56.4845 63.9318 56.4845C60.6344 56.4845 57.9613 58.1986 57.9613 60.313C57.9613 62.4273 60.6344 64.1414 63.9318 64.1414Z" fill="#EBEBEB"/>
<path d="M81.7809 44.5618C81.7809 44.5618 82.2423 42.645 83.7432 40.6025C84.405 39.7017 84.8372 39.0732 84.699 38.5364C84.5744 38.0624 84.1539 37.8162 83.5524 38.1986C82.6978 38.7432 82.1216 39.754 81.7809 41.7835V44.5618Z" fill="#90CAF9"/>
<path opacity="0.1" d="M81.7809 44.5618C81.7809 44.5618 82.2423 42.645 83.7432 40.6025C84.405 39.7017 84.8372 39.0732 84.699 38.5364C84.5744 38.0624 84.1539 37.8162 83.5524 38.1986C82.6978 38.7432 82.1216 39.754 81.7809 41.7835V44.5618Z" fill="black"/>
<path d="M81.6855 43.3574H81.668C81.6493 43.3506 81.6332 43.3342 81.6234 43.3116C81.6136 43.2891 81.6107 43.2623 81.6155 43.2369C82.1508 40.456 83.5349 38.7329 84.1208 38.3349C84.1385 38.3237 84.1586 38.3221 84.1771 38.3304C84.1956 38.3387 84.211 38.3562 84.2201 38.3794C84.2283 38.4027 84.2294 38.4294 84.2232 38.4538C84.2171 38.4783 84.2041 38.4985 84.187 38.5103C83.6205 38.8953 82.2793 40.5712 81.7576 43.2867C81.7529 43.3074 81.7434 43.3255 81.7304 43.3383C81.7174 43.351 81.7016 43.3577 81.6855 43.3574Z" fill="white"/>
<path d="M81.7809 46.9421C81.7809 46.9421 82.4213 45.2531 83.1942 44.3549C83.967 43.4567 84.9598 42.5402 84.1189 41.8384C83.2779 41.1367 81.8938 42.514 81.7828 43.8731L81.7809 46.9421Z" fill="#90CAF9"/>
<path d="M81.6855 45.7403H81.67C81.6513 45.734 81.6351 45.7183 81.6249 45.6962C81.6147 45.6742 81.6113 45.6478 81.6155 45.6224C81.9795 43.5275 83.2857 42.3439 83.7198 42.1475C83.7377 42.1425 83.7564 42.1466 83.7721 42.159C83.7879 42.1714 83.7997 42.1912 83.8053 42.2147C83.8109 42.2381 83.8098 42.2635 83.8023 42.2859C83.7947 42.3083 83.7813 42.3262 83.7646 42.3361C83.3753 42.5141 82.1021 43.6794 81.7576 45.667C81.7533 45.6882 81.7439 45.7068 81.7308 45.7201C81.7178 45.7334 81.7019 45.7405 81.6855 45.7403Z" fill="white"/>
<path d="M24.8483 63.9187C24.8483 63.9187 24.5524 63.0336 23.3163 62.6592C22.1132 62.2952 21.5156 62.6592 20.7038 62.4706C19.892 62.2821 20.1042 60.2422 22.2884 60.4543C24.2877 60.6481 24.8483 62.7639 24.8483 62.7639V63.9187Z" fill="#90CAF9"/>
<path d="M24.9671 63.4317C24.9529 63.4312 24.9391 63.4253 24.9274 63.4146C24.9157 63.4039 24.9065 63.3889 24.9009 63.3714C24.7062 62.7456 23.9859 61.7243 22.9717 61.4127C21.7122 61.0278 21.0425 61.4127 21.0367 61.4127C21.0193 61.4206 21.0003 61.4195 20.9835 61.4096C20.9666 61.3997 20.9531 61.3818 20.9456 61.3592C20.938 61.3366 20.937 61.3111 20.9427 61.2876C20.9484 61.2641 20.9604 61.2443 20.9764 61.232C21.0056 61.2163 21.6986 60.8104 23.0029 61.2111C24.13 61.5567 24.8483 62.667 25.0352 63.2876C25.039 63.2995 25.041 63.3122 25.0411 63.3251C25.0412 63.3381 25.0394 63.3509 25.0358 63.3628C25.0322 63.3748 25.0268 63.3856 25.02 63.3947C25.0132 63.4039 25.0051 63.4111 24.9962 63.416L24.9671 63.4317Z" fill="white"/>
<path d="M24.8483 62.9106C24.6019 62.317 24.2864 61.7804 23.9139 61.3211C22.7459 59.797 21.1885 59.3178 20.4099 58.4851C19.5533 57.5869 20.5909 56.5499 21.6927 56.6154C22.3235 56.6547 22.9892 57.2151 23.3552 57.6183C24.6439 59.035 24.8561 61.3211 24.8561 61.3211L24.8483 62.9106Z" fill="#90CAF9"/>
<path opacity="0.5" d="M24.8483 62.9106C24.6019 62.317 24.2864 61.7804 23.9139 61.3211C22.7459 59.797 21.1885 59.3178 20.4099 58.4851C19.5533 57.5869 20.5909 56.5499 21.6927 56.6154C22.3235 56.6547 22.9892 57.2151 23.3552 57.6183C24.6439 59.035 24.8561 61.3211 24.8561 61.3211L24.8483 62.9106Z" fill="white"/>
<path d="M24.967 62.7561C24.9496 62.7558 24.9329 62.7472 24.9197 62.7319C24.9065 62.7165 24.8978 62.6954 24.895 62.6723C24.7416 61.5714 24.3704 60.5464 23.8205 59.7054C22.9016 58.2992 21.3306 57.545 21.3131 57.5372C21.2954 57.5283 21.2808 57.5106 21.2725 57.4877C21.2642 57.4648 21.2627 57.4384 21.2684 57.4141C21.2714 57.4018 21.2763 57.3904 21.2827 57.3806C21.2891 57.3709 21.2969 57.3629 21.3056 57.3573C21.3143 57.3517 21.3238 57.3485 21.3334 57.3479C21.3431 57.3473 21.3527 57.3494 21.3618 57.3539C21.428 57.3827 22.9853 58.1395 23.9295 59.5745C24.502 60.4422 24.8865 61.5047 25.041 62.6461C25.0424 62.6591 25.0418 62.6722 25.0393 62.6848C25.0367 62.6975 25.0323 62.7093 25.0263 62.7195C25.0203 62.7298 25.0129 62.7384 25.0043 62.7446C24.9958 62.7509 24.9864 62.7548 24.9768 62.7561H24.967Z" fill="white"/>
<path d="M51.5645 79.1852C51.5645 79.1852 51.8955 78.3211 53.1452 78.0357C54.36 77.7581 54.942 78.1535 55.7616 78.0357C56.5811 77.9178 56.4488 75.8517 54.2587 75.9067C52.2556 75.9565 51.6113 78.0278 51.6113 78.0278L51.5645 79.1852Z" fill="#90CAF9"/>
<path opacity="0.1" d="M51.5645 79.1852C51.5645 79.1852 51.8955 78.3211 53.1452 78.0357C54.36 77.7581 54.942 78.1535 55.7616 78.0357C56.5811 77.9178 56.4488 75.8517 54.2587 75.9067C52.2556 75.9565 51.6113 78.0278 51.6113 78.0278L51.5645 79.1852Z" fill="black"/>
<path d="M51.4692 78.7715C51.4539 78.7706 51.4392 78.7643 51.4263 78.7532C51.4185 78.7459 51.4118 78.7365 51.4066 78.7257C51.4015 78.7148 51.398 78.7027 51.3964 78.69C51.3947 78.6774 51.395 78.6644 51.3971 78.6518C51.3993 78.6393 51.4032 78.6275 51.4088 78.617C51.8741 77.7214 52.7209 77.0458 53.6767 76.8206C54.9051 76.5247 55.6234 77.0485 55.6545 77.0825C55.6628 77.0887 55.6702 77.097 55.6761 77.107C55.682 77.117 55.6864 77.1285 55.689 77.1408C55.6916 77.153 55.6924 77.1659 55.6914 77.1786C55.6903 77.1913 55.6874 77.2036 55.6828 77.2147C55.6782 77.2259 55.672 77.2358 55.6645 77.2437C55.6571 77.2517 55.6486 77.2576 55.6395 77.2611C55.6303 77.2646 55.6208 77.2657 55.6113 77.2643C55.6019 77.2628 55.5928 77.2589 55.5845 77.2527C55.5845 77.2527 54.8778 76.7421 53.702 77.0249C52.7851 77.2449 51.9714 77.8864 51.5295 78.7401C51.5217 78.7508 51.5123 78.7592 51.5019 78.7646C51.4915 78.7701 51.4803 78.7724 51.4692 78.7715Z" fill="white"/>
<path d="M51.6521 77.9729C51.9348 77.4946 52.256 77.0598 52.6099 76.6767C53.8421 75.2417 55.4014 75.0086 56.2268 74.2335C57.1184 73.3982 56.1236 72.2879 55.0199 72.2748C54.3891 72.2748 53.702 72.7802 53.3185 73.1573C52.5013 73.9808 51.8901 75.1199 51.5665 76.4227L51.6521 77.9729Z" fill="#90CAF9"/>
<path opacity="0.5" d="M51.6521 77.9729C51.9348 77.4946 52.256 77.0598 52.6099 76.6767C53.8421 75.2417 55.4014 75.0086 56.2268 74.2335C57.1184 73.3982 56.1236 72.2879 55.0199 72.2748C54.3891 72.2748 53.702 72.7802 53.3185 73.1573C52.5013 73.9808 51.8901 75.1199 51.5665 76.4227L51.6521 77.9729Z" fill="white"/>
<path d="M51.4691 77.9519H51.4419C51.424 77.943 51.4093 77.9254 51.4007 77.9026C51.392 77.8798 51.3901 77.8535 51.3951 77.8288C51.6994 76.7048 52.1801 75.6822 52.8045 74.8305C53.4819 73.8908 54.3618 73.2615 55.3197 73.0315C55.329 73.0297 55.3386 73.0304 55.3477 73.0337C55.3568 73.0369 55.3654 73.0426 55.3729 73.0505C55.3803 73.0583 55.3865 73.0681 55.3911 73.0792C55.3957 73.0904 55.3985 73.1026 55.3995 73.1153C55.4008 73.1282 55.4002 73.1414 55.3977 73.154C55.3952 73.1666 55.3908 73.1784 55.3848 73.1887C55.3788 73.199 55.3713 73.2075 55.3628 73.2138C55.3543 73.2201 55.3449 73.224 55.3352 73.2253C54.413 73.4607 53.5661 74.0691 52.9077 74.9693C52.3029 75.7976 51.8381 76.7918 51.545 77.8838C51.5399 77.9049 51.5296 77.9231 51.5158 77.9355C51.502 77.9478 51.4856 77.9536 51.4691 77.9519Z" fill="white"/>
<path d="M32.7537 64.1387V44.355H24.8483V64.1413C24.8483 64.9269 25.2376 65.7125 26.0163 66.3096C27.56 67.5089 30.0634 67.5089 31.6071 66.3096C32.3858 65.7099 32.7635 64.9269 32.7654 64.1413L32.7537 64.1387Z" fill="#37474F"/>
<path d="M26.0066 46.6594C24.4609 45.4601 24.4609 43.5171 26.0066 42.3152C27.5522 41.1132 30.0537 41.1158 31.5975 42.3152C33.1412 43.5145 33.1412 45.4575 31.5975 46.6594C30.0537 47.8614 27.5503 47.8562 26.0066 46.6594Z" fill="#455A64"/>
<path d="M42.2438 71.5101V57.1077H34.3364V71.5101C34.3364 72.2957 34.7257 73.0813 35.5044 73.6783C37.0481 74.8776 39.5516 74.8776 41.0953 73.6783C41.874 73.0813 42.2536 72.2957 42.2536 71.5101H42.2438Z" fill="#37474F"/>
<path d="M35.4947 59.4147C33.951 58.2154 33.951 56.2723 35.4947 55.0704C37.0384 53.8685 39.5418 53.8711 41.0855 55.0704C42.6293 56.2697 42.6312 58.2127 41.0855 59.4147C39.5399 60.6166 37.0364 60.6245 35.4947 59.4147Z" fill="#455A64"/>
<path d="M51.7339 78.8789V67.6948H43.8265V78.8815C43.8265 79.6671 44.2158 80.4527 44.9945 81.0524C46.5382 82.2517 49.0416 82.2517 50.5854 81.0524C51.364 80.4527 51.7417 79.6671 51.7436 78.8815L51.7339 78.8789Z" fill="#37474F"/>
<path d="M47.7802 70.8947C49.9638 70.8947 51.7339 69.5195 51.7339 67.8231C51.7339 66.1267 49.9638 64.7514 47.7802 64.7514C45.5966 64.7514 43.8265 66.1267 43.8265 67.8231C43.8265 69.5195 45.5966 70.8947 47.7802 70.8947Z" fill="#455A64"/>
<path d="M24.3422 71.1147L22.4753 69.6666L23.509 67.865C23.6413 67.6345 23.5791 67.5088 23.3708 67.5795L20.8946 68.4384L19.0277 66.9877C18.8709 66.8805 18.6975 66.8247 18.5216 66.8247C18.3457 66.8247 18.1723 66.8805 18.0154 66.9877L15.074 69.2659C14.7937 69.4833 14.7937 69.8342 15.074 70.0515L20.3884 74.1785C20.5453 74.2856 20.7187 74.3415 20.8946 74.3415C21.0705 74.3415 21.2439 74.2856 21.4007 74.1785L24.3422 71.8924C24.6205 71.6829 24.6205 71.332 24.3422 71.1147Z" fill="#90CAF9"/>
<path d="M21.3559 70.227C21.3864 70.2229 21.417 70.2229 21.4474 70.227C21.4777 70.2321 21.5068 70.2454 21.5331 70.2662L21.7998 70.4731C21.8178 70.4849 21.8317 70.5055 21.8387 70.5307C21.8387 70.5517 21.8387 70.57 21.8115 70.5831C21.8051 70.5854 21.7984 70.5854 21.792 70.5831C21.7824 70.5861 21.7724 70.5861 21.7628 70.5831L18.0641 70.9759H17.959C17.9286 70.9698 17.8995 70.9555 17.8733 70.934L17.6066 70.7271C17.5886 70.7154 17.5747 70.6947 17.5677 70.6695C17.5677 70.6486 17.5677 70.6302 17.595 70.6171C17.6013 70.6148 17.6081 70.6148 17.6144 70.6171H17.6436L21.3559 70.227ZM20.1646 69.8944C20.0855 69.9655 20.0029 70.0294 19.9174 70.0856C19.8483 70.1327 19.7759 70.1705 19.7013 70.1982C19.623 70.2247 19.5426 70.2379 19.4618 70.2374C19.2816 70.238 19.1047 70.1728 18.9499 70.0489C18.876 70.0002 18.8098 69.9326 18.7552 69.8499C18.7197 69.7954 18.6997 69.7259 18.6987 69.6535C18.6995 69.5851 18.7181 69.5193 18.7513 69.4676C18.79 69.3999 18.8375 69.3423 18.8915 69.2974C18.9284 69.2614 18.9667 69.2282 19.0063 69.1978C19.0433 69.169 19.0881 69.1376 19.1367 69.1062C19.2068 69.0587 19.2806 69.0218 19.3567 68.9962C19.5184 68.9421 19.6875 68.9421 19.8492 68.9962C19.9392 69.029 20.0255 69.0774 20.1062 69.1402C20.1764 69.1895 20.2386 69.2572 20.2892 69.3393C20.3251 69.3936 20.3457 69.463 20.3476 69.5356C20.3451 69.6035 20.3267 69.6686 20.295 69.7216C20.2594 69.789 20.2152 69.8475 20.1646 69.8944ZM20.5325 71.9422C20.4571 72.0179 20.3777 72.0861 20.295 72.1464C20.2255 72.1934 20.1524 72.2303 20.077 72.2564C19.999 72.2853 19.9184 72.2994 19.8375 72.2983C19.7514 72.2978 19.6656 72.282 19.5825 72.2512C19.4924 72.2204 19.4059 72.1728 19.3256 72.1097C19.2561 72.0589 19.1941 71.9915 19.1426 71.9107C19.1067 71.8556 19.0866 71.785 19.0861 71.7117C19.0877 71.644 19.1054 71.5788 19.1367 71.5258C19.1764 71.4591 19.2245 71.4023 19.2788 71.3582C19.315 71.3208 19.3534 71.2875 19.3937 71.2587C19.4357 71.2244 19.4792 71.1938 19.5241 71.1671C19.5935 71.1196 19.6667 71.0827 19.7422 71.0571C19.8206 71.0312 19.9009 71.0172 19.9816 71.0152C20.1611 71.0151 20.3373 71.0802 20.4916 71.2037C20.5659 71.2516 20.6321 71.3193 20.6863 71.4027C20.7207 71.4557 20.7396 71.5236 20.7396 71.5939C20.7396 71.6642 20.7207 71.7321 20.6863 71.785C20.642 71.8488 20.59 71.9019 20.5325 71.9422ZM19.2925 69.5854C19.2538 69.6148 19.222 69.6584 19.201 69.7111C19.201 69.7478 19.201 69.7844 19.2574 69.8211C19.2995 69.8554 19.3485 69.871 19.3976 69.8656C19.4541 69.8536 19.5088 69.8288 19.5592 69.7923C19.6329 69.7447 19.7039 69.6895 19.7714 69.6273C19.811 69.5986 19.8435 69.5549 19.8648 69.5016C19.8648 69.4649 19.8551 69.4283 19.8083 69.3916C19.7657 69.357 19.7157 69.3422 19.6662 69.3497C19.6103 69.3603 19.5563 69.3843 19.5066 69.4204C19.4322 69.4641 19.3606 69.5157 19.2925 69.5749V69.5854ZM19.6623 71.6332C19.6227 71.6618 19.5902 71.7056 19.5689 71.7589C19.5689 71.7929 19.5689 71.8296 19.6253 71.8662C19.6674 71.9028 19.7177 71.9185 19.7675 71.9107C19.8232 71.8989 19.8771 71.875 19.9271 71.84C20.0017 71.793 20.0733 71.7379 20.1412 71.6751C20.1804 71.6465 20.2123 71.6027 20.2327 71.5494C20.2327 71.5127 20.2327 71.476 20.1763 71.4394C20.1342 71.4051 20.0851 71.3895 20.0361 71.3949C19.9801 71.4066 19.9261 71.4314 19.8765 71.4682C19.8021 71.5118 19.7305 71.5635 19.6623 71.6227V71.6332Z" fill="white"/>
<path d="M34.6245 79.0962L32.7538 77.6455L33.7875 75.8465C33.9179 75.616 33.8556 75.4877 33.6473 75.561L31.1711 76.4173L29.3043 74.9692C29.1478 74.8621 28.9747 74.8062 28.7991 74.8062C28.6235 74.8062 28.4504 74.8621 28.2939 74.9692L25.3564 77.2527C25.078 77.47 25.078 77.8235 25.3564 78.0382L30.6708 82.1678C30.8279 82.2738 31.0012 82.329 31.177 82.329C31.3527 82.329 31.526 82.2738 31.6831 82.1678L34.6245 79.8818C34.9049 79.6644 34.9049 79.3135 34.6245 79.0962Z" fill="#90CAF9"/>
<path d="M31.6383 78.2085H31.7317C31.762 78.215 31.7911 78.2293 31.8174 78.2504L32.0821 78.4573C32.1055 78.4756 32.1191 78.4939 32.1211 78.5149C32.123 78.5358 32.1211 78.5516 32.0958 78.5673C32.0893 78.5692 32.0827 78.5692 32.0763 78.5673H32.0471L28.3484 78.9601C28.3173 78.9641 28.286 78.9641 28.255 78.9601C28.2245 78.9543 28.1954 78.94 28.1693 78.9182L27.9046 78.7139C27.8812 78.6956 27.8676 78.6746 27.8656 78.6563C27.865 78.6447 27.8671 78.6331 27.8716 78.6233C27.8762 78.6134 27.8829 78.6057 27.8909 78.6013H27.9104H27.9396L31.6383 78.2085ZM30.4469 77.876C30.3687 77.9476 30.2867 78.0115 30.2016 78.0671C30.1321 78.1141 30.059 78.151 29.9836 78.1771C29.9056 78.2058 29.825 78.2199 29.7442 78.219C29.658 78.2185 29.5722 78.2027 29.4891 78.1719C29.399 78.1411 29.3125 78.0935 29.2322 78.0304C29.1622 77.9795 29.0996 77.9121 29.0473 77.8314C29.012 77.7786 28.9924 77.71 28.9924 77.639C28.9924 77.5679 29.012 77.4994 29.0473 77.4465C29.0866 77.3804 29.134 77.3237 29.1874 77.2789C29.2242 77.2427 29.2625 77.2094 29.3023 77.1794C29.3451 77.1457 29.3893 77.1151 29.4346 77.0877C29.5041 77.0403 29.5772 77.0034 29.6527 76.9778C29.7786 76.9346 29.9097 76.9254 30.0383 76.9505C30.1669 76.9757 30.2905 77.0348 30.4021 77.1244C30.4725 77.1745 30.5353 77.242 30.5871 77.3234C30.6228 77.3776 30.6429 77.4473 30.6435 77.5198C30.642 77.588 30.6235 77.6535 30.591 77.7057C30.5511 77.7738 30.5023 77.8315 30.4469 77.876ZM30.8168 79.9237C30.7377 79.995 30.6551 80.0588 30.5696 80.1149C30.5008 80.1623 30.4283 80.1992 30.3535 80.2249C30.2752 80.2514 30.1948 80.2646 30.114 80.2641C29.9338 80.2647 29.7569 80.1995 29.6021 80.0756C29.5318 80.0263 29.469 79.9597 29.4171 79.8792C29.3812 79.8241 29.3612 79.7535 29.3607 79.6802C29.3629 79.6122 29.3813 79.547 29.4132 79.4943C29.4525 79.4273 29.4999 79.3698 29.5534 79.324C29.5923 79.2874 29.6313 79.256 29.6682 79.2245C29.7052 79.1931 29.75 79.1643 29.7987 79.1329C29.8688 79.0854 29.9425 79.0485 30.0186 79.0229C30.0973 78.9989 30.1775 78.9857 30.2581 78.9836C30.3435 78.9833 30.4286 78.9982 30.5112 79.0281C30.6015 79.0593 30.688 79.1078 30.7681 79.1722C30.8385 79.2223 30.9013 79.2898 30.9531 79.3712C30.9882 79.4236 31.0077 79.4917 31.0077 79.5623C31.0077 79.633 30.9882 79.7011 30.9531 79.7535C30.915 79.82 30.8689 79.8775 30.8168 79.9237ZM29.5767 77.567C29.5371 77.5956 29.5046 77.6393 29.4833 77.6926C29.4833 77.7267 29.493 77.7633 29.5398 77.8C29.5819 77.8366 29.6321 77.8523 29.6819 77.8445C29.7375 77.8323 29.7913 77.8084 29.8415 77.7738C29.9166 77.7269 29.9882 77.6709 30.0556 77.6062C30.0945 77.5783 30.1264 77.5355 30.1471 77.4832C30.1471 77.4465 30.1374 77.4098 30.0907 77.3732C30.049 77.3376 29.9996 77.3219 29.9505 77.3287C29.8939 77.3403 29.8392 77.3651 29.7889 77.402C29.7152 77.4456 29.6442 77.4973 29.5767 77.5565V77.567ZM29.9447 79.6147C29.9066 79.6441 29.875 79.6866 29.8532 79.7378C29.8532 79.7744 29.8629 79.8111 29.9096 79.8478C29.9513 79.8833 30.0007 79.899 30.0498 79.8923C30.1061 79.8805 30.1607 79.8566 30.2114 79.8216C30.285 79.7727 30.3559 79.7167 30.4236 79.654C30.4625 79.6253 30.4949 79.5827 30.517 79.5309C30.5267 79.4943 30.517 79.4576 30.4605 79.4209C30.4181 79.3855 30.3682 79.3699 30.3184 79.3764C30.2628 79.3887 30.209 79.4125 30.1588 79.4471C30.085 79.4932 30.0134 79.5457 29.9447 79.6042V79.6147Z" fill="white"/>
<path d="M44.8991 87.0726L43.0322 85.6245L44.0678 83.8203C44.1983 83.5925 44.136 83.4642 43.9277 83.5375L41.4515 84.3938L39.5846 82.9457C39.4278 82.8385 39.2544 82.7827 39.0785 82.7827C38.9026 82.7827 38.7292 82.8385 38.5724 82.9457L35.6309 85.2396C35.3526 85.457 35.3526 85.8105 35.6309 86.0252L40.9454 90.1548C41.1025 90.2607 41.2758 90.3159 41.4515 90.3159C41.6272 90.3159 41.8006 90.2607 41.9576 90.1548L44.8991 87.8582C45.1794 87.6487 45.1794 87.2978 44.8991 87.0726Z" fill="#90CAF9"/>
<path d="M41.9129 86.1927H42.0043C42.0347 86.1988 42.0638 86.2131 42.09 86.2346L42.3567 86.4415C42.3801 86.4598 42.3937 86.4781 42.3956 86.4991C42.3976 86.52 42.3956 86.5357 42.3703 86.5514H42.3509H42.3217L38.623 86.9442C38.5925 86.9483 38.5619 86.9483 38.5315 86.9442C38.501 86.9389 38.4717 86.9246 38.4458 86.9023L38.1811 86.6981C38.1577 86.6798 38.1441 86.6588 38.1421 86.6405C38.1415 86.6289 38.1436 86.6173 38.1481 86.6075C38.1527 86.5976 38.1594 86.5899 38.1674 86.5855H38.1869C38.1965 86.5825 38.2065 86.5825 38.2161 86.5855L41.9129 86.1927ZM40.7215 85.8601C40.6429 85.9323 40.5602 85.9963 40.4743 86.0513C40.4055 86.0987 40.333 86.1356 40.2582 86.1613C40.1802 86.19 40.0996 86.2041 40.0187 86.2032C39.9319 86.2026 39.8455 86.1868 39.7618 86.156C39.6722 86.1254 39.5863 86.0778 39.5068 86.0146C39.4368 85.9637 39.3741 85.8963 39.3218 85.8156C39.2859 85.7605 39.2659 85.6899 39.2654 85.6166C39.2676 85.5486 39.286 85.4835 39.3179 85.4307C39.3577 85.3644 39.405 85.307 39.4581 85.2605C39.497 85.2238 39.536 85.1924 39.5729 85.1636C39.6099 85.1348 39.6547 85.1033 39.7034 85.0693C39.8466 84.975 40.0034 84.924 40.1628 84.92C40.3422 84.9208 40.5183 84.9859 40.6728 85.1086C40.7432 85.1587 40.806 85.2262 40.8578 85.3076C40.8929 85.3623 40.9129 85.4317 40.9142 85.504C40.9117 85.5719 40.8933 85.637 40.8616 85.6899C40.8229 85.7575 40.7754 85.8152 40.7215 85.8601ZM41.0894 87.9079C41.0108 87.9786 40.9288 88.0424 40.8441 88.0991C40.7753 88.1461 40.7028 88.1829 40.628 88.209C40.4652 88.2648 40.2945 88.2648 40.1316 88.209C40.042 88.1773 39.9562 88.1289 39.8766 88.065C39.8024 88.0171 39.7361 87.9494 39.682 87.866C39.6459 87.8121 39.6258 87.7422 39.6255 87.6696C39.6266 87.6018 39.6444 87.5364 39.6761 87.4837C39.7166 87.4173 39.7646 87.3599 39.8182 87.3135C39.8551 87.2775 39.8935 87.2443 39.9331 87.214C39.9701 87.1852 40.0148 87.1537 40.0635 87.1223C40.2056 87.0239 40.3631 86.9727 40.5229 86.973C40.6084 86.9727 40.6935 86.9877 40.776 87.0176C40.8656 87.0493 40.9514 87.0977 41.031 87.1616C41.1053 87.2095 41.1715 87.2772 41.2257 87.3606C41.2618 87.4145 41.2818 87.4844 41.2821 87.557C41.281 87.6248 41.2632 87.6902 41.2315 87.7429C41.1917 87.8086 41.1436 87.8645 41.0894 87.9079ZM39.8494 85.5511C39.8107 85.5806 39.7789 85.6242 39.7579 85.6768C39.7579 85.7109 39.7676 85.7475 39.8143 85.7842C39.8561 85.8194 39.9054 85.835 39.9545 85.8287C40.0108 85.8169 40.0654 85.793 40.1161 85.758C40.1909 85.7106 40.2625 85.6545 40.3302 85.5904C40.3691 85.5625 40.401 85.5197 40.4217 85.4673C40.4314 85.4307 40.4217 85.394 40.3652 85.3574C40.3228 85.322 40.2728 85.3063 40.2231 85.3128C40.1672 85.3249 40.1132 85.3497 40.0635 85.3862C39.9893 85.4304 39.9178 85.482 39.8494 85.5407V85.5511ZM40.2192 87.5989C40.1807 87.6284 40.1485 87.6708 40.1258 87.722C40.1258 87.7586 40.1258 87.7953 40.1842 87.832C40.2259 87.8675 40.2753 87.8832 40.3244 87.8765C40.3801 87.8646 40.434 87.8407 40.484 87.8058C40.5583 87.7569 40.6298 87.7009 40.6981 87.6382C40.7371 87.6095 40.7694 87.5669 40.7916 87.5151C40.8019 87.4784 40.7825 87.4418 40.7332 87.4051C40.6915 87.3695 40.6421 87.3539 40.593 87.3606C40.5373 87.3725 40.4834 87.3963 40.4334 87.4313C40.3592 87.4793 40.2876 87.5345 40.2192 87.5963V87.5989Z" fill="white"/>
<path d="M71.5024 43.8732L68.3391 41.4169V29.1329L71.5024 31.5892V43.8732Z" fill="#37474F"/>
<path d="M71.5024 43.8732L74.6658 41.4169V29.1329L71.5024 31.5892V43.8732Z" fill="#455A64"/>
<path d="M68.3391 29.1329L71.5024 31.5892L74.6658 29.1329L71.5024 26.6766L68.3391 29.1329Z" fill="#455A64"/>
<path d="M64.3854 38.3453L61.222 35.889V11.3237L64.3854 13.78V38.3453Z" fill="#37474F"/>
<path d="M64.3853 38.3453L67.5487 35.889V11.3237L64.3853 13.78V38.3453Z" fill="#455A64"/>
<path d="M61.222 11.3236L64.3854 13.7799L67.5487 11.3236L64.3854 8.86734L61.222 11.3236Z" fill="#455A64"/>
<path d="M57.2683 32.8173L54.105 30.3611V21.7641L57.2683 24.2204V32.8173Z" fill="#37474F"/>
<path d="M57.2683 32.8173L60.4316 30.3611V21.7641L57.2683 24.2204V32.8173Z" fill="#455A64"/>
<path d="M54.105 21.7642L57.2683 24.2204L60.4317 21.7642L57.2683 19.3079L54.105 21.7642Z" fill="#455A64"/>
<path d="M78.6194 49.4011L75.4561 46.9422V23.6076L78.6175 26.0639L78.6194 49.4011Z" fill="#37474F"/>
<path d="M78.6176 49.4011L81.7809 46.9422V23.6076L78.6176 26.0639V49.4011Z" fill="#455A64"/>
<path d="M75.4561 23.6075L78.6175 26.0638L81.7809 23.6075L78.6194 21.1487L75.4561 23.6075Z" fill="#455A64"/>
<g opacity="0.3">
<path d="M56.5033 47.6178L56.4702 20.4156C56.4633 20.2581 56.4291 20.105 56.3703 19.9686C56.3115 19.8321 56.2297 19.7162 56.1314 19.63L32.2729 1.1818C32.0783 1.03778 31.9362 1.15561 31.9362 1.44366L31.9751 28.6354C31.9815 28.793 32.0155 28.9464 32.0744 29.0829C32.1332 29.2194 32.2153 29.3353 32.3138 29.421L56.1743 47.8823C56.3553 48.0263 56.5033 47.9085 56.5033 47.6178Z" fill="white"/>
</g>
<path d="M56.3203 48.0735C56.2515 48.0699 56.1845 48.0428 56.1256 47.9949L32.2652 29.5336C32.1513 29.4372 32.0564 29.3052 31.9886 29.1488C31.9208 28.9924 31.8821 28.8163 31.8758 28.6354L31.8388 1.44367C31.8307 1.36392 31.8403 1.28272 31.8666 1.21039C31.8928 1.13805 31.9345 1.07784 31.9862 1.03743C32.038 0.997006 32.0975 0.978197 32.1572 0.98339C32.2169 0.988583 32.2742 1.01754 32.3216 1.06659L56.1821 19.5122C56.2957 19.6089 56.3904 19.741 56.4582 19.8974C56.526 20.0537 56.5648 20.2296 56.5714 20.4103L56.6045 47.6126C56.6092 47.692 56.5981 47.7716 56.5725 47.8433C56.5468 47.9151 56.5075 47.9764 56.4585 48.0211C56.4167 48.0549 56.369 48.0729 56.3203 48.0735ZM32.123 1.23942C32.1103 1.23487 32.0969 1.23487 32.0841 1.23942C32.0651 1.26144 32.0505 1.28951 32.0417 1.32108C32.0328 1.35265 32.03 1.3867 32.0335 1.4201L32.0666 28.6223C32.0721 28.76 32.102 28.8938 32.1539 29.0127C32.2057 29.1316 32.2779 29.2321 32.3644 29.3058L56.2249 47.7671C56.2833 47.8116 56.3339 47.8247 56.3651 47.7985C56.3962 47.7723 56.4157 47.7095 56.4157 47.6178L56.3826 20.4156C56.3763 20.2815 56.3471 20.1512 56.2971 20.0349C56.2471 19.9186 56.1777 19.8194 56.0945 19.7452L32.2243 1.28393C32.1939 1.25776 32.159 1.24244 32.123 1.23942Z" fill="#90CAF9"/>
<path d="M54.2373 41.6159C53.6046 41.011 53.2348 40.4637 52.9837 36.2582L52.9622 35.8994C52.7267 31.9479 52.5729 29.3398 51.2336 28.2635C50.5912 27.7398 50.0773 28.2635 49.5341 28.8318C49.0416 29.3372 48.5355 29.8556 47.9651 29.4183C46.9626 28.6327 46.7971 27.0773 46.4856 24.2387C46.4467 23.8878 46.4078 23.5186 46.363 23.131C46.2949 22.5261 46.2365 21.9631 46.182 21.4342C45.8744 18.4542 45.6875 16.6526 44.5545 15.7334C44.443 15.6271 44.3144 15.5572 44.1793 15.5295C44.0441 15.5018 43.9059 15.5169 43.7759 15.5737C42.9174 15.9769 42.2458 18.4201 41.5352 21.0099C41.4807 21.2011 41.4282 21.4027 41.3717 21.6044C40.8558 23.5133 40.2718 25.6789 39.464 26.0796C39.3497 26.1358 39.2275 26.1566 39.1065 26.1403C38.9855 26.1239 38.8688 26.071 38.7651 25.9853C37.9611 25.3726 37.8171 23.6966 37.6789 22.0731C37.5406 20.4496 37.4063 18.8181 36.6471 18.2028C36.5827 18.1468 36.5091 18.113 36.4327 18.1043C36.3563 18.0956 36.2795 18.1123 36.2091 18.153C35.2669 18.6453 34.4318 22.3952 34.424 22.4318L34.2293 22.3585C34.2644 22.1988 35.0995 18.4489 36.1293 17.9069C36.2276 17.8521 36.3343 17.8299 36.4404 17.8422C36.5464 17.8545 36.6487 17.9009 36.7386 17.9776C37.5776 18.6532 37.7236 20.3736 37.8657 22.0364C38.0078 23.6993 38.1363 25.205 38.8566 25.7523C38.9351 25.8194 39.0241 25.8612 39.1167 25.8743C39.2092 25.8875 39.3027 25.8717 39.39 25.8282C40.1122 25.4694 40.7059 23.275 41.1829 21.5101C41.2393 21.3058 41.2919 21.1068 41.3464 20.913C42.1056 18.1504 42.7616 15.7648 43.7058 15.3197C43.8623 15.2514 44.0283 15.2327 44.1911 15.265C44.3538 15.2972 44.5089 15.3796 44.6441 15.5056C45.8549 16.4902 46.0476 18.3363 46.363 21.3949C46.4175 21.9186 46.4759 22.4842 46.544 23.0865C46.5888 23.4767 46.6277 23.8459 46.6667 24.1942C46.9645 26.9542 47.13 28.473 48.0508 29.1853C48.5082 29.5388 48.9229 29.112 49.4037 28.6197C49.9488 28.0593 50.5717 27.4282 51.3212 28.0331C52.7442 29.18 52.9038 31.8432 53.1433 35.8732L53.1647 36.232C53.4217 40.5213 53.8071 40.8879 54.3327 41.3985L54.2373 41.6159Z" fill="#90CAF9"/>
<g opacity="0.4">
<path d="M54.2373 41.6159C53.6046 41.011 53.2348 40.4637 52.9837 36.2582L52.9622 35.8994C52.7267 31.9479 52.5729 29.3398 51.2336 28.2635C50.5912 27.7398 50.0773 28.2635 49.5341 28.8318C49.0416 29.3372 48.5355 29.8556 47.9651 29.4183C46.9626 28.6327 46.7971 27.0773 46.4856 24.2387C46.4467 23.8878 46.4078 23.5186 46.363 23.131C46.2949 22.5261 46.2365 21.9631 46.182 21.4342C45.8744 18.4542 45.6875 16.6526 44.5545 15.7334C44.443 15.6271 44.3144 15.5572 44.1793 15.5295C44.0441 15.5018 43.9059 15.5169 43.7759 15.5737C42.9174 15.9769 42.2458 18.4201 41.5352 21.0099C41.4807 21.2011 41.4282 21.4027 41.3717 21.6044C40.8558 23.5133 40.2718 25.6789 39.464 26.0796C39.3497 26.1358 39.2275 26.1566 39.1065 26.1403C38.9855 26.1239 38.8688 26.071 38.7651 25.9853C37.9611 25.3726 37.8171 23.6966 37.6789 22.0731C37.5406 20.4496 37.4063 18.8181 36.6471 18.2028C36.5827 18.1468 36.5091 18.113 36.4327 18.1043C36.3563 18.0956 36.2795 18.1123 36.2091 18.153C35.2669 18.6453 34.4318 22.3952 34.424 22.4318L34.2293 22.3585C34.2644 22.1988 35.0995 18.4489 36.1293 17.9069C36.2276 17.8521 36.3343 17.8299 36.4404 17.8422C36.5464 17.8545 36.6487 17.9009 36.7386 17.9776C37.5776 18.6532 37.7236 20.3736 37.8657 22.0364C38.0078 23.6993 38.1363 25.205 38.8566 25.7523C38.9351 25.8194 39.0241 25.8612 39.1167 25.8743C39.2092 25.8875 39.3027 25.8717 39.39 25.8282C40.1122 25.4694 40.7059 23.275 41.1829 21.5101C41.2393 21.3058 41.2919 21.1068 41.3464 20.913C42.1056 18.1504 42.7616 15.7648 43.7058 15.3197C43.8623 15.2514 44.0283 15.2327 44.1911 15.265C44.3538 15.2972 44.5089 15.3796 44.6441 15.5056C45.8549 16.4902 46.0476 18.3363 46.363 21.3949C46.4175 21.9186 46.4759 22.4842 46.544 23.0865C46.5888 23.4767 46.6277 23.8459 46.6667 24.1942C46.9645 26.9542 47.13 28.473 48.0508 29.1853C48.5082 29.5388 48.9229 29.112 49.4037 28.6197C49.9488 28.0593 50.5717 27.4282 51.3212 28.0331C52.7442 29.18 52.9038 31.8432 53.1433 35.8732L53.1647 36.232C53.4217 40.5213 53.8071 40.8879 54.3327 41.3985L54.2373 41.6159Z" fill="black"/>
</g>
<path d="M50.9455 27.1061C51.0902 27.2337 51.2109 27.405 51.2977 27.6064C51.3846 27.8078 51.4353 28.0337 51.4458 28.2661C51.4458 28.693 51.2219 28.8658 50.9474 28.6537C50.802 28.527 50.6809 28.3559 50.5939 28.1543C50.507 27.9527 50.4567 27.7264 50.4471 27.4937C50.4471 27.0773 50.6632 26.9045 50.9455 27.1061Z" fill="#90CAF9"/>
<g opacity="0.2">
<path d="M50.9455 27.1061C51.0902 27.2337 51.2109 27.405 51.2977 27.6064C51.3846 27.8078 51.4353 28.0337 51.4458 28.2661C51.4458 28.693 51.2219 28.8658 50.9474 28.6537C50.802 28.527 50.6809 28.3559 50.5939 28.1543C50.507 27.9527 50.4567 27.7264 50.4471 27.4937C50.4471 27.0773 50.6632 26.9045 50.9455 27.1061Z" fill="black"/>
</g>
<path d="M44.6051 14.8483C44.7501 14.9755 44.8707 15.1467 44.9573 15.3483C45.0439 15.5498 45.094 15.776 45.1035 16.0084C45.1035 16.4352 44.8816 16.6081 44.6071 16.3959C44.4616 16.2694 44.3404 16.0983 44.2534 15.8967C44.1664 15.6951 44.1162 15.4686 44.1068 15.2359C44.1068 14.7986 44.3287 14.6362 44.6051 14.8483Z" fill="#90CAF9"/>
<g opacity="0.5">
<path d="M44.6051 14.8483C44.7501 14.9755 44.8707 15.1467 44.9573 15.3483C45.0439 15.5498 45.094 15.776 45.1035 16.0084C45.1035 16.4352 44.8816 16.6081 44.6071 16.3959C44.4616 16.2694 44.3404 16.0983 44.2534 15.8967C44.1664 15.6951 44.1162 15.4686 44.1068 15.2359C44.1068 14.7986 44.3287 14.6362 44.6051 14.8483Z" fill="white"/>
</g>
<path d="M36.6997 17.323C36.8452 17.4489 36.9664 17.6195 37.0533 17.8207C37.1403 18.0219 37.1906 18.248 37.2 18.4804C37.2 18.9098 36.978 19.0827 36.7016 18.8706C36.5568 18.7433 36.4362 18.572 36.3496 18.3705C36.2631 18.1689 36.2129 17.9429 36.2033 17.7105C36.2013 17.2837 36.4252 17.1082 36.6997 17.323Z" fill="#90CAF9"/>
<path opacity="0.65" d="M43.8245 46.4184V19.2162C43.818 19.0589 43.7842 18.9059 43.7257 18.7694C43.6672 18.633 43.5857 18.5169 43.4877 18.4306L22.812 2.37321C22.6174 2.22918 22.4753 2.34702 22.4753 2.63507V29.8373C22.4816 29.9946 22.5154 30.1477 22.5739 30.2842C22.6324 30.4207 22.714 30.5367 22.812 30.6229L43.4877 46.6803C43.6746 46.8269 43.8245 46.7091 43.8245 46.4184Z" fill="white"/>
<path d="M43.6396 46.8741C43.5708 46.8705 43.5038 46.8434 43.4449 46.7955L22.7634 30.7381C22.6498 30.6406 22.5552 30.508 22.4874 30.3513C22.4197 30.1946 22.3808 30.0184 22.374 29.8373V2.63509C22.3664 2.55556 22.3764 2.47474 22.4028 2.40285C22.4292 2.33096 22.4709 2.27121 22.5225 2.23115C22.5742 2.19108 22.6335 2.1725 22.693 2.17775C22.7525 2.183 22.8095 2.21184 22.8568 2.26063L43.5325 18.318C43.6461 18.4149 43.7407 18.5471 43.8084 18.7034C43.8762 18.8597 43.9151 19.0355 43.9219 19.2162V46.4184C43.9265 46.4978 43.9155 46.5774 43.8898 46.6492C43.8642 46.721 43.8249 46.7823 43.7758 46.827C43.7343 46.8584 43.6873 46.8747 43.6396 46.8741ZM22.6622 2.44393C22.6494 2.43949 22.636 2.43949 22.6232 2.44393C22.6042 2.46595 22.5896 2.49402 22.5808 2.52559C22.5719 2.55716 22.5691 2.59121 22.5726 2.62461V29.8373C22.5787 29.9718 22.6079 30.1026 22.6579 30.2194C22.7079 30.3361 22.7773 30.4357 22.8607 30.5103L43.5364 46.5677C43.5562 46.5886 43.5796 46.6024 43.6045 46.6079C43.6293 46.6134 43.6548 46.6104 43.6785 46.5991C43.7097 46.5756 43.7272 46.5101 43.7272 46.4184V19.2162C43.7212 19.082 43.6921 18.9516 43.6421 18.8352C43.5921 18.7188 43.5225 18.6197 43.4391 18.5458L22.7634 2.49106C22.7336 2.46293 22.6985 2.4466 22.6622 2.44393Z" fill="#90CAF9"/>
<path d="M40.2679 40.2359V22.335C40.2646 22.2562 40.2475 22.1796 40.2181 22.1114C40.1887 22.0432 40.1477 21.9852 40.0986 21.9422L38.0643 20.371C37.9709 20.2977 37.8949 20.3553 37.8949 20.5019V38.3924C37.8978 38.4713 37.9147 38.5481 37.9442 38.6164C37.9736 38.6848 38.0148 38.7426 38.0643 38.7852L40.0986 40.3563C40.192 40.4401 40.2679 40.3799 40.2679 40.2359Z" fill="#90CAF9"/>
<g opacity="0.3">
<path d="M40.2679 40.2359V22.335C40.2646 22.2562 40.2475 22.1796 40.2181 22.1114C40.1887 22.0432 40.1477 21.9852 40.0986 21.9422L38.0643 20.371C37.9709 20.2977 37.8949 20.3553 37.8949 20.5019V38.3924C37.8978 38.4713 37.9147 38.5481 37.9442 38.6164C37.9736 38.6848 38.0148 38.7426 38.0643 38.7852L40.0986 40.3563C40.192 40.4401 40.2679 40.3799 40.2679 40.2359Z" fill="black"/>
</g>
<path d="M36.3142 37.1642V27.8628C36.3109 27.7841 36.2938 27.7075 36.2644 27.6393C36.235 27.571 36.194 27.5131 36.1449 27.4701L34.1087 25.8989C34.0172 25.8282 33.9412 25.8989 33.9412 26.0298V35.3338C33.9447 35.4122 33.9616 35.4885 33.9906 35.5566C34.0197 35.6248 34.0601 35.683 34.1087 35.7266L36.1449 37.2977C36.2383 37.3684 36.3142 37.3187 36.3142 37.1642Z" fill="#90CAF9"/>
<g opacity="0.2">
<path d="M36.3142 37.1642V27.8628C36.3109 27.7841 36.2938 27.7075 36.2644 27.6393C36.235 27.571 36.194 27.5131 36.1449 27.4701L34.1087 25.8989C34.0172 25.8282 33.9412 25.8989 33.9412 26.0298V35.3338C33.9447 35.4122 33.9616 35.4885 33.9906 35.5566C34.0197 35.6248 34.0601 35.683 34.1087 35.7266L36.1449 37.2977C36.2383 37.3684 36.3142 37.3187 36.3142 37.1642Z" fill="white"/>
</g>
<path d="M32.3644 34.0952V19.8787C32.361 19.7999 32.344 19.7233 32.3146 19.6551C32.2851 19.5869 32.2442 19.5289 32.195 19.4859L30.1588 17.9147C30.0673 17.8414 29.9914 17.899 29.9914 18.0456V32.2595C29.9945 32.338 30.0113 32.4145 30.0404 32.4827C30.0694 32.5509 30.11 32.609 30.1588 32.6523L32.195 34.2235C32.2846 34.2968 32.3644 34.2392 32.3644 34.0952Z" fill="#90CAF9"/>
<g opacity="0.2">
<path d="M32.3644 34.0952V19.8787C32.361 19.7999 32.344 19.7233 32.3146 19.6551C32.2851 19.5869 32.2442 19.5289 32.195 19.4859L30.1588 17.9147C30.0673 17.8414 29.9914 17.899 29.9914 18.0456V32.2595C29.9945 32.338 30.0113 32.4145 30.0404 32.4827C30.0694 32.5509 30.11 32.609 30.1588 32.6523L32.195 34.2235C32.2846 34.2968 32.3644 34.2392 32.3644 34.0952Z" fill="black"/>
</g>
<path d="M28.4048 31.034V10.6664C28.4019 10.5878 28.3852 10.5113 28.3561 10.4431C28.327 10.3748 28.2863 10.3168 28.2374 10.2736L26.2012 8.70244C26.1097 8.62912 26.0338 8.70244 26.0338 8.83338V29.1905C26.0372 29.269 26.0541 29.3453 26.0832 29.4134C26.1122 29.4816 26.1526 29.5397 26.2012 29.5833L28.2374 31.1545C28.3309 31.2278 28.4048 31.1676 28.4048 31.034Z" fill="#90CAF9"/>
<path d="M70.4473 34.2889C70.4201 34.0925 69.7056 31.8562 69.4117 30.9764L67.9225 31.9138L68.4928 33.6709L70.0346 35.2762C70.1846 35.2147 70.3113 35.0777 70.3881 34.8939C70.465 34.71 70.4862 34.4933 70.4473 34.2889Z" fill="#FFA8A7"/>
<path d="M67.4806 57.7125H66.3321V59.9645H67.4806V57.7125Z" fill="#FFA8A7"/>
<path d="M63.4346 54.9311L62.2868 54.9842L62.3443 57.2349L63.4922 57.1818L63.4346 54.9311Z" fill="#FFA8A7"/>
<path d="M63.7216 25.4616C63.3059 25.4746 62.8995 25.6288 62.54 25.9099C62.1806 26.191 61.8799 26.5899 61.6659 27.0694C61.0312 28.3394 59.9139 30.5103 59.9139 30.5103L62.0065 31.4032L63.7216 25.4616Z" fill="#90CAF9"/>
<g opacity="0.7">
<path d="M63.7216 25.4616C63.3059 25.4746 62.8995 25.6288 62.54 25.9099C62.1806 26.191 61.8799 26.5899 61.6659 27.0694C61.0312 28.3394 59.9139 30.5103 59.9139 30.5103L62.0065 31.4032L63.7216 25.4616Z" fill="white"/>
</g>
<path d="M67.4047 35.7476C67.4047 37.2245 67.5468 46.7746 67.5468 46.7746C67.574 47.1989 67.8699 47.9818 67.8057 49.6132C67.7181 51.8312 67.576 57.9928 67.576 57.9928C67.576 57.9928 67.0368 58.7129 66.2756 57.9928C66.2756 57.9928 65.2341 49.6263 65.0297 47.4293C64.8487 45.5125 64.545 40.3066 64.545 40.3066L63.4802 46.4368C63.4802 46.4368 63.6748 47.8771 63.7079 48.8931C63.741 49.9091 63.5133 55.7853 63.5133 55.7853C63.3269 55.9419 63.1134 56.0303 62.8939 56.0418C62.6743 56.0533 62.4564 55.9874 62.2615 55.8508C62.2615 55.8508 61.3388 47.2669 61.2201 46.3478C61.1013 45.4287 62.0299 35.7476 62.0299 35.7476H67.4047Z" fill="#90CAF9"/>
<path opacity="0.2" d="M67.4047 35.7476C67.4047 37.2245 67.5468 46.7746 67.5468 46.7746C67.574 47.1989 67.8699 47.9818 67.8057 49.6132C67.7181 51.8312 67.576 57.9928 67.576 57.9928C67.576 57.9928 67.0368 58.7129 66.2756 57.9928C66.2756 57.9928 65.2341 49.6263 65.0297 47.4293C64.8487 45.5125 64.545 40.3066 64.545 40.3066L63.4802 46.4368C63.4802 46.4368 63.6748 47.8771 63.7079 48.8931C63.741 49.9091 63.5133 55.7853 63.5133 55.7853C63.3269 55.9419 63.1134 56.0303 62.8939 56.0418C62.6743 56.0533 62.4564 55.9874 62.2615 55.8508C62.2615 55.8508 61.3388 47.2669 61.2201 46.3478C61.1013 45.4287 62.0299 35.7476 62.0299 35.7476H67.4047Z" fill="black"/>
<path d="M65.676 25.5088C66.7058 25.8414 68.012 26.4018 68.4714 27.6796C68.9309 28.9575 69.6394 31.0289 69.6394 31.0289L67.9342 32.3853L67.4047 31.1598V35.7476C66.5987 36.926 63.7877 37.4759 62.0279 35.7476V28.1955C62.0279 26.9936 62.5263 25.5455 63.8987 25.4381L65.676 25.5088Z" fill="#90CAF9"/>
<path opacity="0.7" d="M65.676 25.5088C66.7058 25.8414 68.012 26.4018 68.4714 27.6796C68.9309 28.9575 69.6394 31.0289 69.6394 31.0289L67.9342 32.3853L67.4047 31.1598V35.7476C66.5987 36.926 63.7877 37.4759 62.0279 35.7476V28.1955C62.0279 26.9936 62.5263 25.5455 63.8987 25.4381L65.676 25.5088Z" fill="white"/>
<path d="M66.0634 19.3446C66.1558 19.3303 66.2495 19.3445 66.3372 19.3863C66.4249 19.428 66.5044 19.4962 66.5695 19.5855C66.7876 19.884 66.7428 20.4391 66.5695 21.7118L65.896 21.8165L66.0634 19.3446Z" fill="#263238"/>
<path d="M62.1486 18.9883C62.0042 18.9907 61.8609 18.9524 61.7281 18.8757C61.5218 18.716 61.4673 19.0302 61.5802 19.3052C61.655 19.5013 61.7657 19.6685 61.902 19.7908C62.0383 19.9132 62.1955 19.9867 62.3589 20.0044C62.3589 19.9651 62.5535 19.2973 62.5535 19.2973L62.1486 18.9883Z" fill="#263238"/>
<path d="M65.748 21.8165C65.8473 21.8977 65.9894 21.6384 66.112 21.4656C66.1605 21.3913 66.2222 21.3347 66.2913 21.3012C66.3605 21.2677 66.4348 21.2583 66.5074 21.274C66.58 21.2898 66.6484 21.33 66.7062 21.391C66.7641 21.452 66.8095 21.5317 66.8382 21.6227C67.0426 22.2014 66.5793 22.9739 66.3067 23.2279C66.2305 23.3165 66.1355 23.3704 66.0352 23.3822C65.9349 23.394 65.8344 23.3629 65.748 23.2934L65.676 25.5088C65.5557 25.8638 65.3718 26.1731 65.1408 26.4089C64.9097 26.6447 64.6388 26.7997 64.3523 26.86C63.3789 27.0354 63.5833 25.9644 63.9006 25.4381V24.6315C63.659 24.702 63.4106 24.7196 63.1648 24.6839C63.0382 24.6394 62.7385 24.1602 62.5438 23.6024C62.3258 22.987 61.9598 21.8951 62.2868 20.0489C62.6333 18.0666 64.216 18.0064 65.1621 18.8051C66.1082 19.6038 65.748 21.8165 65.748 21.8165Z" fill="#FFA8A7"/>
<path d="M65.7483 22.0417C65.797 22.0417 65.9897 21.6175 66.1123 21.4656C66.2856 21.2535 66.0636 19.3445 66.0636 19.3445C66.0636 19.3445 66.2369 18.6217 65.8962 18.1399C65.5556 17.6581 64.8976 17.7419 64.4148 17.7183C63.8223 17.7223 63.2354 17.5637 62.6901 17.2522C62.0048 16.8516 61.9542 16.8044 61.8686 17.2103C61.7829 17.6162 61.7518 18.5406 62.1606 19.1612L62.5012 19.3314C62.5012 19.3314 62.6842 19.5487 63.3227 19.6535C63.9129 19.7138 64.5061 19.6989 65.0942 19.609C65.2791 19.5749 65.3181 19.8158 65.4174 20.4757C65.5069 21.0571 65.5789 22.039 65.7483 22.0417Z" fill="#263238"/>
<path d="M66.0615 19.4928L66.665 19.0561C66.6458 19.0016 66.6185 18.953 66.5849 18.9131C66.5513 18.8733 66.5119 18.843 66.4693 18.8242C66.4267 18.8054 66.3817 18.7984 66.337 18.8036C66.2924 18.8089 66.2489 18.8263 66.2094 18.8547C66.1284 18.9151 66.0678 19.0151 66.0402 19.1339C66.0127 19.2527 66.0203 19.3813 66.0615 19.4928Z" fill="#263238"/>
<path d="M63.9007 24.6316C64.3135 24.5269 64.7182 24.3709 65.1096 24.1655C65.2939 24.0372 65.4447 23.8362 65.5417 23.5894C65.4947 23.8361 65.4113 24.0677 65.2964 24.2702C65.0667 24.663 63.9007 24.9537 63.9007 24.9537V24.6316Z" fill="#F28F8F"/>
<path d="M64.1187 21.5149C64.1179 21.5471 64.1219 21.5793 64.1306 21.6094C64.1392 21.6395 64.1523 21.6669 64.169 21.6901C64.1857 21.7133 64.2057 21.7317 64.2278 21.7443C64.25 21.7569 64.2737 21.7633 64.2978 21.7633C64.3372 21.7675 64.3766 21.7555 64.4108 21.7288C64.4451 21.7021 64.4724 21.6621 64.4893 21.6141C64.5061 21.566 64.5117 21.5122 64.5052 21.4598C64.4987 21.4074 64.4805 21.3589 64.453 21.3207C64.4255 21.2826 64.39 21.2566 64.3512 21.2462C64.3124 21.2358 64.2722 21.2415 64.2359 21.2626C64.1996 21.2837 64.1689 21.3191 64.148 21.3642C64.127 21.4093 64.1168 21.4618 64.1187 21.5149Z" fill="#263238"/>
<path d="M64.3075 20.6038L64.6969 20.8888C64.7238 20.818 64.7296 20.736 64.7129 20.6596C64.6963 20.5833 64.6585 20.5184 64.6073 20.4783C64.5817 20.4586 64.5534 20.4462 64.5241 20.4419C64.4948 20.4376 64.4652 20.4414 64.437 20.4532C64.4089 20.465 64.3828 20.4844 64.3606 20.5103C64.3383 20.5363 64.3202 20.5681 64.3075 20.6038Z" fill="#263238"/>
<path d="M64.1323 23.1519L63.7215 23.3585C63.7308 23.3952 63.7453 23.4291 63.7643 23.4582C63.7833 23.4873 63.8064 23.511 63.8323 23.5281C63.8582 23.5451 63.8864 23.555 63.9151 23.5574C63.9439 23.5597 63.9727 23.5543 64 23.5416C64.055 23.5117 64.0994 23.4547 64.124 23.3822C64.1486 23.3097 64.1516 23.2273 64.1323 23.1519Z" fill="#F28F8F"/>
<path d="M62.5185 20.8051L62.867 20.4416C62.8506 20.4099 62.8295 20.3831 62.8051 20.3627C62.7808 20.3423 62.7535 20.3287 62.7251 20.3228C62.6967 20.317 62.6678 20.3189 62.6399 20.3285C62.6121 20.3382 62.586 20.3553 62.5633 20.3788C62.5164 20.4284 62.4855 20.5005 62.4772 20.5799C62.4688 20.6593 62.4836 20.74 62.5185 20.8051Z" fill="#263238"/>
<path d="M62.6256 21.4469C62.6256 21.4785 62.6302 21.5098 62.6392 21.539C62.6482 21.5681 62.6614 21.5947 62.678 21.617C62.6946 21.6393 62.7144 21.6571 62.7361 21.6692C62.7579 21.6812 62.7811 21.6875 62.8047 21.6875C62.8282 21.6875 62.8515 21.6812 62.8732 21.6692C62.8949 21.6571 62.9147 21.6393 62.9313 21.617C62.9479 21.5947 62.9611 21.5681 62.9701 21.539C62.9791 21.5098 62.9838 21.4785 62.9838 21.4469C62.9846 21.4147 62.9805 21.3825 62.9719 21.3524C62.9632 21.3223 62.9501 21.2949 62.9334 21.2717C62.9167 21.2485 62.8967 21.2301 62.8746 21.2175C62.8525 21.2049 62.8287 21.1985 62.8047 21.1985C62.7565 21.1999 62.7106 21.2267 62.6771 21.2732C62.6436 21.3197 62.625 21.3822 62.6256 21.4469Z" fill="#263238"/>
<path d="M63.5386 21.2168L63.4802 22.6702L62.9176 22.4109L63.5386 21.2168Z" fill="#F28F8F"/>
<path d="M58.8509 29.963L63.4412 31.5892L64.7961 39.2539L60.4316 37.5492L58.8509 29.963Z" fill="#90CAF9"/>
<path d="M60.8522 35.0353C60.7714 35.229 60.6491 35.3857 60.5012 35.485C60.3534 35.5843 60.1867 35.6217 60.0228 35.5923L59.9567 35.2759L60.8522 35.0353Z" fill="#90CAF9"/>
<path d="M61.8781 35.2762C61.8975 35.4804 62.2109 35.8575 62.7385 36.0932C63.3381 36.3551 64.2589 36.2215 64.2589 36.2215L64.1771 35.8392L61.8781 35.2762Z" fill="#90CAF9"/>
<path opacity="0.43" d="M60.202 31.0732L60.163 30.8375C60.1436 30.7066 60.4122 30.7014 60.7665 30.8245L61.442 31.0601C61.7963 31.1858 62.098 31.3901 62.1195 31.521L62.1584 31.7567L60.202 31.0732Z" fill="#455A64"/>
<path d="M59.8749 30.1855C59.8632 30.1044 59.9722 30.0834 60.1202 30.1384L60.3966 30.2484C60.3966 30.2484 60.3168 29.7247 60.9125 29.9158C61.0714 29.9473 61.2216 30.0336 61.3485 30.1662C61.4754 30.2988 61.5746 30.4732 61.6366 30.6726L61.9228 30.7826C62.0805 30.8428 62.2226 30.9554 62.2421 31.0444L62.2751 31.1911L59.9099 30.3531L59.8749 30.1855Z" fill="#37474F"/>
<path d="M60.2019 30.4395C60.418 30.5102 60.5076 30.5495 60.5407 30.7485C60.5738 30.9476 60.5932 31.1466 60.5932 31.1466L61.6386 31.5184C61.6386 31.5184 61.588 31.2277 61.5724 31.1151C61.5568 31.0025 61.5919 30.9345 61.7671 30.9921L61.7807 30.903L60.1396 30.3427L60.2019 30.4395Z" fill="#37474F"/>
<path d="M60.165 31.0969L60.128 30.8612C60.1066 30.7303 60.3752 30.725 60.7295 30.8481L61.405 31.0838C61.7593 31.2069 62.063 31.4111 62.0844 31.542L62.1214 31.7777L60.165 31.0969Z" fill="#37474F"/>
<path d="M70.0346 35.2762L68.4928 33.671C68.4928 33.671 65.2614 34.488 64.8973 34.5272C64.5333 34.5665 64.2452 34.0821 64.107 33.6002C63.9688 33.1184 63.6884 33.1786 63.6884 33.1786C63.6884 33.1786 63.7955 33.7914 63.8305 33.9852C63.8656 34.179 63.0227 34.3387 62.5379 34.1187C62.0532 33.8988 61.3505 34.2182 61.7846 35.1086C62.2187 35.9989 63.0674 36.0984 63.6553 36.101C63.9014 36.0978 64.1471 36.075 64.3912 36.0329C64.5859 36.0015 64.7805 35.9753 64.9616 35.957C66.1646 35.8418 69.4876 35.5066 70.0346 35.2762Z" fill="#FFA8A7"/>
<path d="M59.3162 32.2045L59.5206 33.1812C59.5595 33.3698 60.0929 33.705 60.4316 33.8359C60.7704 33.9668 61.1383 34.0978 60.9787 34.7446C60.8307 35.3285 60.2759 35.4621 59.9936 35.4463C59.8035 35.4031 59.6259 35.29 59.4806 35.1195C59.3353 34.9489 59.2278 34.7276 59.1702 34.4801C58.9755 33.7338 59.0806 32.9351 59.0028 32.4978C58.9249 32.0605 59.1488 31.9452 59.3162 32.2045Z" fill="#F28F8F"/>
<path d="M66.3321 59.2026V58.98C66.223 59.0454 65.9661 60.3574 65.5106 60.9151C65.1485 61.3603 64.654 61.8762 64.5372 62.3711C64.4204 62.866 65.2263 63.1724 65.5651 63.0912C65.9544 62.9969 66.6416 62.6251 66.8129 62.2794C66.9842 61.9338 67.064 61.4231 67.2022 61.1691C67.3404 60.9151 67.6616 60.6454 67.7376 60.3417C67.7602 60.0678 67.7376 59.7906 67.6714 59.5299C67.6188 59.2549 67.5604 58.9564 67.4923 58.98C67.4923 59.014 67.4923 59.1502 67.4923 59.1502C67.3253 59.3241 67.1194 59.4164 66.9083 59.4121C66.7389 59.4199 66.3301 59.3754 66.3321 59.2026Z" fill="#37474F"/>
<path d="M62.3433 56.7541C62.283 56.7541 62.2343 56.8693 62.1039 57.0605C61.9069 57.3282 61.6779 57.5495 61.4264 57.7151C60.9962 58.0058 60.1611 58.451 59.7815 58.6814C59.544 58.8254 59.5557 59.2051 59.801 59.4277C60.0462 59.6503 60.6361 59.8048 61.3447 59.5901C61.734 59.4749 62.2343 58.9956 62.5516 59.0192C62.8689 59.0428 63.4646 59.0402 63.7002 58.8228C63.9357 58.6055 63.8403 58.1394 63.7741 57.7387C63.7079 57.3381 63.5989 56.6363 63.4919 56.6651V56.8039C63.3536 57.0841 62.6489 57.1993 62.3453 56.9924L62.3433 56.7541Z" fill="#37474F"/>
<path d="M12.5686 55.814L13.287 57.1574C12.9595 57.3608 12.6023 57.4628 12.2416 57.4559C11.5992 57.4899 11.422 57.194 11.3987 57.1364C11.2897 56.8248 11.459 56.2592 11.5057 55.7721L12.5686 55.814Z" fill="#37474F"/>
<path d="M11.3987 54.4628C11.3987 54.4628 11.5077 55.6831 11.5155 55.945C11.5232 56.2068 12.4012 56.2932 12.5686 55.814L12.5939 54.3214L11.3987 54.4628Z" fill="#F28F8F"/>
<path d="M11.3987 30.4213C10.7991 31.6782 10.2307 32.778 10.1061 34.1973C9.84911 37.1799 10.6901 40.5894 10.8711 42.7943C10.5307 43.4234 10.3339 44.1722 10.3046 44.9494C10.3046 45.8607 11.3987 54.4628 11.3987 54.4628C11.3987 54.4628 12.1929 54.7902 12.5939 54.3214L13.3453 38.4971L12.956 36.5698L11.3987 30.4213Z" fill="#90CAF9"/>
<path opacity="0.5" d="M11.3987 30.4213C10.7991 31.6782 10.2307 32.778 10.1061 34.1973C9.84911 37.1799 10.6901 40.5894 10.8711 42.7943C10.5307 43.4234 10.3339 44.1722 10.3046 44.9494C10.3046 45.8607 11.3987 54.4628 11.3987 54.4628C11.3987 54.4628 12.1929 54.7902 12.5939 54.3214L13.3453 38.4971L12.956 36.5698L11.3987 30.4213Z" fill="white"/>
<path d="M16.9409 24.5266L20.8946 27.0798L18.5216 34.2574L14.8346 31.3953L16.9409 24.5266Z" fill="#90CAF9"/>
<path d="M20.4293 27.2109L18.3814 33.328L15.5431 31.1284L17.153 25.1082L20.4293 27.2109Z" fill="#90CAF9"/>
<path d="M17.153 25.1082L20.4293 27.2109L18.2179 33.3935L15.1188 31.0131L17.153 25.1082Z" fill="white"/>
<path d="M17.8655 25.9932L17.9415 25.7732C17.9843 25.6528 18.2549 25.7025 18.5469 25.8885L19.1056 26.2446C19.3976 26.4279 19.5981 26.6793 19.5572 26.7997L19.4793 27.0197L17.8655 25.9932Z" fill="#E0E0E0"/>
<path d="M10.0574 27.1061C9.76927 28.2111 9.19889 29.9656 9.38188 30.3191C9.56487 30.6726 10.6628 30.5967 11.2741 30.5653C12.0527 30.526 12.699 30.4841 12.699 30.4841L12.5686 28.6511H11.4629L11.9496 26.7971L10.0574 27.1061Z" fill="#F28F8F"/>
<path d="M11.1651 23.1781C10.7621 24.0684 9.94839 27.2108 9.94839 27.2108C10.1745 27.5557 10.4743 27.7981 10.8069 27.9047C11.0973 28.0246 11.4059 28.0408 11.7024 27.9518L12.6017 24.9404L11.1651 23.1781Z" fill="#90CAF9"/>
<path opacity="0.4" d="M11.1651 23.1781C10.7621 24.0684 9.94839 27.2108 9.94839 27.2108C10.1745 27.5557 10.4743 27.7981 10.8069 27.9047C11.0973 28.0246 11.4059 28.0408 11.7024 27.9518L12.6017 24.9404L11.1651 23.1781Z" fill="black"/>
<path d="M15.1888 23.7385C15.8955 24.0239 16.3257 24.0736 17.1063 25.6893C17.8869 27.305 19.5961 30.5102 19.7655 30.8952C20.001 31.4189 20.1023 32.0683 19.8998 32.5606C19.6974 33.0529 19.1581 32.8225 18.3834 31.9033C17.6086 30.9842 16.1486 28.5201 16.1486 28.5201C16.1486 28.5201 14.6263 26.2131 15.1888 23.7385Z" fill="#FFA8A7"/>
<path d="M14.6243 21.6437L14.4336 23.914L12.7672 24.1732L13.0086 21.1592L14.6243 21.6437Z" fill="#FFA8A7"/>
<path d="M11.0599 18.3259C11.1981 16.231 12.0333 15.3642 12.6971 15.1573C14.015 14.7383 15.1908 15.3825 15.7242 16.6264C15.8643 16.9537 16.0999 18.1792 15.6307 18.902C15.1616 19.6247 11.0599 18.3259 11.0599 18.3259Z" fill="#263238"/>
<path d="M15.8546 19.0643C15.8546 19.0643 16.2012 19.8499 16.1486 19.939C16.0565 20.0109 15.9557 20.0606 15.8508 20.0856L15.8546 19.0643Z" fill="#F28F8F"/>
<path d="M14.8034 16.5372C15.1616 16.8227 15.7768 17.3438 15.8605 19.1768C15.9481 21.0596 15.6814 21.6383 15.4711 21.8688C15.3368 22.0259 14.6477 21.9735 14.3031 21.8033C13.8807 21.5886 12.9404 21.0046 12.5355 20.0043C12.0683 18.8285 12.0275 17.3071 12.6465 16.7598C12.9621 16.4785 13.326 16.3104 13.7035 16.2714C14.081 16.2325 14.4596 16.324 14.8034 16.5372Z" fill="#FFA8A7"/>
<path d="M14.9085 16.6317C14.9085 16.6317 15.1558 18.3626 14.7275 19.41C14.7275 19.41 14.5328 18.7265 14.0968 18.8863C13.6607 19.046 13.6666 19.8159 13.9878 20.2349C14.0691 20.3541 14.1739 20.44 14.29 20.4826C14.406 20.5252 14.5287 20.5229 14.6438 20.4758C14.5833 21.0149 14.3964 21.514 14.1104 21.9003C13.6564 22.0416 13.182 22.0074 12.7418 21.8017C12.3016 21.596 11.9136 21.2271 11.6225 20.7376C10.6492 19.1822 10.9042 16.5479 12.4479 15.9822C13.9917 15.4166 14.9085 16.6317 14.9085 16.6317Z" fill="#263238"/>
<path d="M13.2461 56.5132C13.2461 56.5132 14.1182 56.4373 14.7197 56.3352C15.3212 56.233 15.7982 56.6285 15.6561 56.9636C15.514 57.2988 15.183 57.5738 14.6672 57.8068C14.2253 58.0085 13.6938 58.1525 13.2344 58.3306C12.775 58.5086 12.4557 58.7391 12.189 58.616C11.8912 58.4772 11.7627 58.3175 11.788 58.0242C11.853 57.607 11.9336 57.1945 12.0294 56.7882L13.2461 56.5132Z" fill="#37474F"/>
<path d="M12.2825 55.2144L11.9691 57.0658C11.9691 57.0658 11.9399 57.291 12.6563 57.435C13.3726 57.579 14.4978 56.9322 14.6905 56.7987C14.8833 56.6651 14.9047 56.4059 14.2 56.4582C13.4953 56.5106 13.2461 56.5132 13.2461 56.5132L13.4816 55.691L12.2825 55.2144Z" fill="#FFA8A7"/>
<path d="M13.3453 38.4971L12.956 36.5698C12.2106 36.3058 11.4916 35.9215 10.8147 35.4254C10.8147 35.4254 11.2196 36.4179 12.372 36.9599L12.9774 39.4371L13.03 45.1038L13.3453 38.4971Z" fill="#90CAF9"/>
<path d="M11.3986 30.4213C11.0774 31.1257 10.3104 32.3329 10.472 33.4903C10.6667 34.8965 11.2332 35.8811 12.9501 36.5698L14.562 44.4257C14.562 44.4257 13.723 45.4731 13.466 46.4865C13.2091 47.4999 12.2824 55.2222 12.2824 55.2222C12.2824 55.2222 12.5686 55.8507 13.4738 55.6988C13.4738 55.6988 16.6294 46.0099 16.8532 45.3788C17.1203 44.7434 17.2146 44.0027 17.1199 43.2839C17.0207 42.2653 15.9519 31.144 15.9519 31.144L11.3986 30.4213Z" fill="#90CAF9"/>
<path opacity="0.5" d="M11.3986 30.4213C11.0774 31.1257 10.3104 32.3329 10.472 33.4903C10.6667 34.8965 11.2332 35.8811 12.9501 36.5698L14.562 44.4257C14.562 44.4257 13.723 45.4731 13.466 46.4865C13.2091 47.4999 12.2824 55.2222 12.2824 55.2222C12.2824 55.2222 12.5686 55.8507 13.4738 55.6988C13.4738 55.6988 16.6294 46.0099 16.8532 45.3788C17.1203 44.7434 17.2146 44.0027 17.1199 43.2839C17.0207 42.2653 15.9519 31.144 15.9519 31.144L11.3986 30.4213Z" fill="white"/>
<path d="M11.1067 23.3405C11.2313 22.8954 11.6284 22.5235 11.9866 22.6544C13.1098 23.0656 14.856 23.6076 15.1889 23.7386C15.1889 23.7386 15.0409 27.1428 16.3335 28.1588C16.2732 28.8056 15.9442 31.1257 15.9442 31.1257C15.9442 31.1257 14.3868 32.1417 13.1098 31.6494C11.8328 31.1571 11.3987 30.4291 11.3987 30.4291L12.0391 29.0256C11.9029 28.5673 11.3734 27.0197 11.0327 25.5794C10.9074 24.8377 10.933 24.0644 11.1067 23.3405Z" fill="#90CAF9"/>
<path opacity="0.2" d="M11.1067 23.3405C11.2313 22.8954 11.6284 22.5235 11.9866 22.6544C13.1098 23.0656 14.856 23.6076 15.1889 23.7386C15.1889 23.7386 15.0409 27.1428 16.3335 28.1588C16.2732 28.8056 15.9442 31.1257 15.9442 31.1257C15.9442 31.1257 14.3868 32.1417 13.1098 31.6494C11.8328 31.1571 11.3987 30.4291 11.3987 30.4291L12.0391 29.0256C11.9029 28.5673 11.3734 27.0197 11.0327 25.5794C10.9074 24.8377 10.933 24.0644 11.1067 23.3405Z" fill="black"/>
<path opacity="0.25" d="M11.864 28.4651C12.3963 28.8958 12.9543 29.2663 13.5323 29.5728C13.0078 29.5592 12.4944 29.3683 12.0392 29.0176L11.864 28.4651Z" fill="#90CAF9"/>
<path d="M12.1949 15.6235C12.1949 15.6235 11.6615 14.4006 10.3552 14.7175C9.04902 15.0343 8.51953 16.8988 8.53899 18.0798C8.55846 19.2608 8.85241 20.0856 8.06595 21.484C7.91094 21.7597 7.80171 22.077 7.74564 22.4144C7.68956 22.7518 7.68795 23.1015 7.74091 23.4398C7.79386 23.7781 7.90015 24.0972 8.05261 24.3755C8.20506 24.6538 8.40013 24.8849 8.62465 25.0532C9.67391 25.8388 9.92892 24.4718 9.68559 23.3039C9.40527 21.9658 10.4467 21.7328 10.7251 20.7193C11.0035 19.7059 10.4565 17.577 10.8069 16.8543C11.1962 16.0687 11.7218 16.1787 11.9749 16.4458L12.1949 15.6235Z" fill="#263238"/>
<path d="M15.1889 23.7385C15.538 23.8383 15.879 23.9838 16.207 24.1732C16.6353 24.456 18.3055 27.9833 18.3055 27.9833C18.3055 27.9833 18.1868 29.3109 16.8202 29.8372L16.0123 28.4651C16.0123 28.4651 14.8248 26.0795 15.1889 23.7385Z" fill="#90CAF9"/>
<path opacity="0.1" d="M15.1889 23.7385C15.538 23.8383 15.879 23.9838 16.207 24.1732C16.6353 24.456 18.3055 27.9833 18.3055 27.9833C18.3055 27.9833 18.1868 29.3109 16.8202 29.8372L16.0123 28.4651C16.0123 28.4651 14.8248 26.0795 15.1889 23.7385Z" fill="black"/>
<path d="M16.2498 28.8789C15.8909 28.3169 15.62 27.6631 15.4536 26.9568C15.4536 26.9568 15.4536 28.4809 16.1992 29.2691L16.2498 28.8789Z" fill="#90CAF9"/>
<path opacity="0.4" d="M16.2498 28.8789C15.8909 28.3169 15.62 27.6631 15.4536 26.9568C15.4536 26.9568 15.4536 28.4809 16.1992 29.2691L16.2498 28.8789Z" fill="black"/>
<path d="M18.0076 25.0453C18.0329 24.9693 18.1517 24.9746 18.2724 25.0453L18.4904 25.1893C18.4904 25.1893 18.6598 24.7153 19.1659 25.0008C19.672 25.2862 19.5163 25.8335 19.5163 25.8335L19.748 25.9932C19.8764 26.0796 19.9621 26.2132 19.9426 26.2918L19.9037 26.4305L17.957 25.1736L18.0076 25.0453Z" fill="#455A64"/>
<path d="M18.2062 25.3437C18.3892 25.4537 18.4593 25.5061 18.4009 25.6946C18.3425 25.8832 18.2588 26.0639 18.2588 26.0639L19.1192 26.619C19.1192 26.619 19.2107 26.3571 19.2496 26.2419C19.2886 26.1267 19.3586 26.0822 19.4949 26.1712L19.5533 26.0927L18.1906 25.2416L18.2062 25.3437Z" fill="#455A64"/>
<path d="M17.85 25.9278L17.9278 25.7078C17.9707 25.5847 18.2412 25.6371 18.5332 25.823L19.0919 26.1792C19.382 26.3625 19.5845 26.6112 19.5416 26.7343L19.4638 26.9543L17.85 25.9278Z" fill="#455A64"/>
</svg>
