<svg width="14" height="12" viewBox="0 0 14 12" fill="none" xmlns="http://www.w3.org/2000/svg">
<g id="Australia (AU)">
<g clip-path="url(#clip0_220_3059)">
<path id="Vector" d="M0.453125 0.943848H13.9731V11.0838H0.453125V0.943848Z" fill="#000066"/>
<path id="Vector_2" fill-rule="evenodd" clip-rule="evenodd" d="M6.78639 9.23535L5.86323 9.31562L5.98998 10.2325L5.35412 9.56279L4.71826 10.2325L4.84501 9.31562L3.92184 9.23535L4.71826 8.76426L4.20492 7.9932L5.07104 8.32064L5.35412 7.43972L5.63931 8.32064L6.50543 7.9932L5.99209 8.76426M10.7325 10.0803L10.5086 9.74657L10.8846 9.88811L11.0072 9.50575L11.1297 9.88811L11.5057 9.74657L11.2839 10.0803L11.6304 10.2853L11.229 10.3212L11.2839 10.7204L11.0093 10.4268L10.7304 10.7204L10.7854 10.3212L10.384 10.2874M10.7304 4.12099L10.5086 3.78721L10.8846 3.92875L11.0072 3.54639L11.1297 3.92875L11.5057 3.78721L11.2839 4.12099L11.6304 4.32801L11.229 4.36181L11.2839 4.76107L11.0093 4.46955L10.7304 4.75896L10.7854 4.36181L10.384 4.32801M8.49752 6.54191L8.27571 6.20814L8.65173 6.34967L8.77426 5.96731L8.89889 6.34967L9.27492 6.20814L9.05099 6.54191L9.39745 6.74682L8.99607 6.78274L9.05311 7.182L8.77426 6.88836L8.49963 7.182L8.55244 6.78274L8.15107 6.74894M12.7204 5.94619L12.4944 5.61241L12.8704 5.75395L12.9929 5.37159L13.1176 5.75395L13.4936 5.61241L13.2718 5.94619L13.6161 6.1511L13.2147 6.18701L13.2697 6.58416L12.995 6.29264L12.7162 6.58416L12.7711 6.18701L12.3697 6.1511M11.9029 7.70379L11.6853 7.8411L11.7465 7.58971L11.5501 7.42494L11.8057 7.40381L11.9029 7.16721L12.0022 7.40592L12.2578 7.42494L12.0613 7.58971L12.1226 7.8411" fill="white"/>
<path id="Vector_3" d="M0.453125 0.943848H7.21313V6.01385H0.453125V0.943848Z" fill="#000066"/>
<path id="Vector_4" d="M1.24531 0.943848L3.82256 2.85566L6.38925 0.943848H7.21313V1.59872L4.67812 3.48941L7.21313 5.36953V6.01385H6.36812L3.83313 4.12316L1.30869 6.01385H0.453125V5.3801L2.97756 3.49997L0.453125 1.61985V0.943848H1.24531Z" fill="white"/>
<path id="Vector_5" d="M4.93162 3.91191L7.21313 5.59135V6.01385L4.35069 3.91191H4.93162ZM2.98813 4.12316L3.0515 4.49285L1.0235 6.01385H0.453125L2.98813 4.12316ZM7.21313 0.943848V0.975535L4.58306 2.96129L4.60419 2.49654L6.685 0.943848H7.21313ZM0.453125 0.943848L2.97756 2.80285H2.34381L0.453125 1.38747V0.943848Z" fill="#C8102E"/>
<path id="Vector_6" d="M2.99869 0.943848V6.01385H4.68869V0.943848H2.99869ZM0.453125 2.63385V4.32385H7.21313V2.63385H0.453125Z" fill="white"/>
<path id="Vector_7" d="M0.453125 2.98241V3.99641H7.21313V2.98241H0.453125ZM3.33669 0.943848V6.01385H4.35069V0.943848H3.33669Z" fill="#C8102E"/>
</g>
</g>
<defs>
<clipPath id="clip0_220_3059">
<rect x="0.453125" y="0.943848" width="13.52" height="10.14" rx="1" fill="white"/>
</clipPath>
</defs>
</svg>
