<svg width="98" height="90" viewBox="0 0 98 90" fill="none" xmlns="http://www.w3.org/2000/svg">
<g opacity="0.3">
<path d="M76.7609 17.333C77.2056 17.333 77.5661 16.9725 77.5661 16.5278C77.5661 16.0832 77.2056 15.7227 76.7609 15.7227C76.3162 15.7227 75.9557 16.0832 75.9557 16.5278C75.9557 16.9725 76.3162 17.333 76.7609 17.333Z" stroke="black" strokeWidth="0.0752053" strokeLinecap="round" strokeLinejoin="round"/>
<path d="M6.10815 31.0209C6.55283 31.0209 6.91332 30.6604 6.91332 30.2158C6.91332 29.7711 6.55283 29.4106 6.10815 29.4106C5.66347 29.4106 5.30298 29.7711 5.30298 30.2158C5.30298 30.6604 5.66347 31.0209 6.10815 31.0209Z" stroke="black" strokeWidth="0.0752053" strokeLinecap="round" strokeLinejoin="round"/>
<path d="M66.6963 72.6855C67.141 72.6855 67.5015 72.325 67.5015 71.8803C67.5015 71.4356 67.141 71.0751 66.6963 71.0751C66.2517 71.0751 65.8912 71.4356 65.8912 71.8803C65.8912 72.325 66.2517 72.6855 66.6963 72.6855Z" stroke="black" strokeWidth="0.0752053" strokeLinecap="round" strokeLinejoin="round"/>
<path d="M7.51825 66.0438C7.96293 66.0438 8.32342 65.6833 8.32342 65.2386C8.32342 64.7939 7.96293 64.4334 7.51825 64.4334C7.07356 64.4334 6.71307 64.7939 6.71307 65.2386C6.71307 65.6833 7.07356 66.0438 7.51825 66.0438Z" stroke="black" strokeWidth="0.0752053" strokeLinecap="round" strokeLinejoin="round"/>
<path d="M62.1161 30.5678L60.4067 32.2772" stroke="black" strokeWidth="0.0752053" strokeLinecap="round" strokeLinejoin="round"/>
<path d="M62.1161 32.2772L60.4067 30.5678" stroke="black" strokeWidth="0.0752053" strokeLinecap="round" strokeLinejoin="round"/>
<path d="M55.9782 79.6833L57.6877 81.3906" stroke="black" strokeWidth="0.0752053" strokeLinecap="round" strokeLinejoin="round"/>
<path d="M57.6877 79.6833L55.9782 81.3906" stroke="black" strokeWidth="0.0752053" strokeLinecap="round" strokeLinejoin="round"/>
<path d="M2.23611 41.2374L3.94342 42.9447" stroke="black" strokeWidth="0.0752053" strokeLinecap="round" strokeLinejoin="round"/>
<path d="M3.94342 41.2374L2.23611 42.9447" stroke="black" strokeWidth="0.0752053" strokeLinecap="round" strokeLinejoin="round"/>
<path d="M65.2378 1.38133L66.9472 3.09074" stroke="black" strokeWidth="0.0752053" strokeLinecap="round" strokeLinejoin="round"/>
<path d="M66.9472 1.38133L65.2378 3.09074" stroke="black" strokeWidth="0.0752053" strokeLinecap="round" strokeLinejoin="round"/>
<path d="M23.7735 2.79141L25.4808 4.49871" stroke="black" strokeWidth="0.0752053" strokeLinecap="round" strokeLinejoin="round"/>
<path d="M25.4808 2.79141L23.7735 4.49871" stroke="black" strokeWidth="0.0752053" strokeLinecap="round" strokeLinejoin="round"/>
</g>
<path opacity="0.3" d="M11.8645 77.7314L12.4146 76.1991L11.15 75.5035L10.1593 76.7977C9.87489 76.7304 9.58313 76.6993 9.29091 76.705L8.59535 75.2295L7.20421 75.6384L7.41499 77.253C7.16661 77.4073 6.93799 77.5913 6.73418 77.801L5.20182 77.2509L4.50625 78.5155L5.80043 79.5062C5.73341 79.79 5.70156 80.0809 5.70558 80.3725L4.23013 81.0681L4.63904 82.4592L6.2536 82.2484C6.40848 82.4958 6.59247 82.7236 6.80163 82.9271L6.25149 84.4595L7.5267 85.155L8.50893 83.8714C8.79344 83.9383 9.08508 83.9702 9.37733 83.9663L10.0729 85.4417L11.464 85.0328L11.2533 83.4182C11.5006 83.2634 11.7285 83.0794 11.932 82.8702L13.4643 83.4203L14.1599 82.1557L12.8657 81.165C12.9326 80.8805 12.9645 80.5889 12.9606 80.2966L14.436 79.6032L14.0271 78.2099L12.4125 78.4207C12.3767 78.3596 12.3367 78.3005 12.2945 78.2415M7.6089 81.85C7.241 81.431 7.03841 80.8922 7.03903 80.3345C7.03966 79.7769 7.24346 79.2386 7.6123 78.8203C7.98114 78.4021 8.48975 78.1325 9.04294 78.0622C9.59614 77.9918 10.156 78.1254 10.6178 78.438C11.0796 78.7506 11.4117 79.2208 11.5519 79.7605C11.6921 80.3003 11.6308 80.8726 11.3796 81.3704C11.1283 81.8683 10.7042 82.2575 10.1867 82.4653C9.66919 82.673 9.09371 82.6851 8.56794 82.4992" stroke="black" strokeWidth="0.0752053" strokeLinecap="round" strokeLinejoin="round"/>
<path opacity="0.3" d="M9.41107 72.7044C9.07078 72.8075 8.70527 72.7892 8.37698 72.6526C8.04869 72.5161 7.77801 72.2698 7.61118 71.9558C7.44436 71.6418 7.39175 71.2796 7.46234 70.9312C7.53293 70.5827 7.72235 70.2695 7.99822 70.0452C8.27408 69.8209 8.61929 69.6994 8.97483 69.7014C9.33038 69.7034 9.6742 69.8288 9.94754 70.0561C10.2209 70.2835 10.4068 70.5988 10.4735 70.948C10.5402 71.2972 10.4835 71.6588 10.3132 71.9709C10.27 72.0503 10.2199 72.1258 10.1635 72.1964M6.90281 74.0049L7.74592 74.4686L8.40987 73.6023C8.60024 73.6484 8.79579 73.6697 8.99162 73.6656L9.45533 74.652L10.387 74.378L10.2436 73.2967C10.4096 73.1932 10.5625 73.0701 10.6989 72.9299L11.7233 73.2988L12.1891 72.4451L11.3228 71.7833C11.3678 71.5927 11.389 71.3973 11.3861 71.2016L12.3725 70.7378L12.0985 69.8062L11.0172 69.9495C10.9137 69.7836 10.7906 69.6307 10.6504 69.4943L11.0383 68.472L10.1952 68.0083L9.53332 68.8725C9.34266 68.8282 9.14726 68.8077 8.95157 68.8113L8.48786 67.8249L7.53514 68.1031L7.67847 69.1844C7.51213 69.2874 7.3592 69.4106 7.22319 69.5512L6.19038 69.1781L5.72667 70.0212L6.59086 70.683C6.54682 70.8738 6.5256 71.0691 6.52762 71.2648L5.55804 71.739L5.83206 72.6707L6.91124 72.5273C7.01546 72.6934 7.13931 72.8462 7.2801 72.9826L6.90281 74.0049Z" stroke="black" strokeWidth="0.0752053" strokeLinecap="round" strokeLinejoin="round"/>
<path opacity="0.3" d="M64.1943 18.5576L64.7466 17.0253L63.4714 16.3297L62.4807 17.6239C62.1962 17.5567 61.9046 17.5249 61.6123 17.529L60.9188 16.0536L59.5277 16.4625L59.7385 18.077C59.4911 18.2319 59.2633 18.4159 59.0598 18.6251L57.5274 18.0749L56.8318 19.3396L58.126 20.3282C58.0591 20.6127 58.0273 20.9043 58.0312 21.1966L56.5557 21.8921L56.9667 23.2833L58.5792 23.0725C58.7348 23.3199 58.9195 23.5477 59.1293 23.7512L58.5792 25.2835L59.8439 25.9791L60.8345 24.6849C61.119 24.7518 61.4107 24.7837 61.7029 24.7798L62.3964 26.2552L63.7896 25.8463L63.5788 24.2318C63.8269 24.078 64.0549 23.8939 64.2576 23.6837L65.792 24.2339L66.4855 22.9692L65.1934 21.9785C65.2586 21.6938 65.2897 21.4023 65.2861 21.1101L66.7616 20.4167L66.3527 19.0234L64.7381 19.2342C64.7002 19.1731 64.6601 19.1141 64.6201 19.0551M59.9387 22.6762C59.5715 22.2572 59.3695 21.7187 59.3707 21.1615C59.3718 20.6043 59.5759 20.0667 59.9448 19.6491C60.3138 19.2316 60.8222 18.9628 61.375 18.893C61.9278 18.8233 62.487 18.9573 62.9481 19.2702C63.4092 19.583 63.7405 20.0531 63.88 20.5925C64.0195 21.1319 63.9577 21.7037 63.7061 22.2008C63.4545 22.6979 63.0303 23.0863 62.513 23.2933C61.9957 23.5003 61.4207 23.5117 60.8956 23.3254" stroke="black" strokeWidth="0.0752053" strokeLinecap="round" strokeLinejoin="round"/>
<path opacity="0.3" d="M61.743 13.5348C61.4023 13.6388 61.0361 13.6213 60.7069 13.4851C60.3778 13.349 60.1062 13.1027 59.9385 12.7885C59.7708 12.4742 59.7176 12.1115 59.7878 11.7623C59.858 11.4131 60.0473 11.0991 60.3235 10.8741C60.5996 10.6491 60.9453 10.527 61.3015 10.5286C61.6576 10.5303 62.0022 10.6557 62.2761 10.8833C62.5501 11.1109 62.7365 11.4267 62.8034 11.7765C62.8703 12.1264 62.8136 12.4886 62.643 12.8013C62.6008 12.8813 62.5506 12.9568 62.4933 13.0268M59.2326 14.8332L60.0862 15.299L60.7481 14.4327C60.9385 14.4787 61.134 14.4999 61.3298 14.4959L61.7957 15.4824L62.7273 15.2084L62.584 14.1271C62.7496 14.0241 62.9019 13.9009 63.0371 13.7603L64.0636 14.1292L64.5294 13.2755L63.6632 12.6137C63.7089 12.4245 63.7322 12.2307 63.7327 12.0361L64.717 11.5724L64.443 10.6408L63.3638 10.7841C63.2602 10.6177 63.1363 10.4648 62.995 10.3288L63.3575 9.29603L62.5144 8.83232L61.8357 9.69861C61.6458 9.65435 61.4511 9.63382 61.2561 9.63749L60.7902 8.65105L59.8586 8.92506L60.0019 10.0042C59.8367 10.1086 59.6845 10.2325 59.5488 10.3731L58.5223 10.0042L58.0565 10.8474L58.9228 11.5092C58.8787 11.6999 58.8575 11.8952 58.8595 12.0909L57.8752 12.5547L58.1492 13.4863L59.2284 13.343C59.3325 13.5085 59.4556 13.6612 59.5951 13.7982L59.2326 14.8332Z" stroke="black" strokeWidth="0.0752053" strokeLinecap="round" strokeLinejoin="round"/>
<path d="M3.06659 87.7202H95.4295" stroke="#263238" strokeWidth="0.0752053" strokeLinecap="round" strokeLinejoin="round"/>
<path d="M11.3965 14.3272L11.3965 82.2357C11.3965 84.6221 13.331 86.5566 15.7174 86.5566H46.5564C48.9428 86.5566 50.8773 84.6221 50.8773 82.2357L50.8773 14.3272C50.8773 11.9408 48.9428 10.0063 46.5564 10.0063H15.7174C13.331 10.0063 11.3965 11.9408 11.3965 14.3272Z" fill="white"/>
<path d="M50.8753 14.1312C50.8764 13.1824 50.5487 12.2625 49.9479 11.5281C47.975 12.485 45.1506 14.5148 41.4936 18.7704C33.6337 27.914 31.2266 50.052 21.9208 59.6719C17.9392 63.7926 14.2801 66.3241 11.3945 67.8733V82.417C11.3945 83.5115 11.8293 84.5613 12.6033 85.3352C13.3772 86.1092 14.427 86.544 15.5215 86.544H44.4656C44.6553 86.3093 44.8415 86.0662 45.0241 85.8147C47.1952 82.8196 49.1891 80.2965 50.8753 78.2836V14.1312Z" fill="#D6D6D6"/>
<path d="M11.3945 14.1313V31.7881C14.6089 30.3527 18.4956 27.6295 21.28 22.4591C24.1065 17.2213 27.7298 12.9551 30.6406 10.0063H15.5215C14.4273 10.0063 13.3779 10.4409 12.604 11.2144C11.8301 11.9879 11.3951 13.0371 11.3945 14.1313Z" fill="#D6D6D6"/>
<path d="M14.4465 11.6631C14.4465 12.131 13.9196 12.2954 13.9175 12.6558V12.6811H14.4275V12.8371H13.7467V12.7043C13.7467 12.2027 14.2737 12.1057 14.2737 11.6694C14.2737 11.5092 14.2189 11.4249 14.0903 11.4249C13.9617 11.4249 13.909 11.5155 13.909 11.6525V11.7916H13.7467V11.6652C13.7467 11.427 13.8563 11.2689 14.0945 11.2689C14.3327 11.2689 14.4465 11.4249 14.4465 11.6631Z" fill="#263238"/>
<path d="M15.2959 11.6588V11.6989C15.303 11.7653 15.2887 11.8323 15.2549 11.89C15.2211 11.9477 15.1697 11.993 15.1083 12.0193C15.1705 12.0451 15.2226 12.0906 15.2565 12.1489C15.2904 12.2071 15.3042 12.2749 15.2959 12.3418V12.4577C15.2959 12.6959 15.1841 12.8518 14.946 12.8518C14.7078 12.8518 14.5961 12.6959 14.5961 12.4577V12.3523H14.7584V12.4703C14.7584 12.6095 14.8174 12.6938 14.9417 12.6938C15.0661 12.6938 15.123 12.6116 15.123 12.4535V12.3333C15.123 12.1816 15.0577 12.1078 14.927 12.1036H14.8321V11.9476H14.9333C14.9601 11.9482 14.9868 11.9429 15.0113 11.9322C15.0359 11.9214 15.0579 11.9055 15.0757 11.8855C15.0936 11.8654 15.1068 11.8418 15.1146 11.8161C15.1224 11.7905 15.1246 11.7634 15.1209 11.7368V11.6673C15.1209 11.5071 15.0661 11.4249 14.9396 11.4249C14.8132 11.4249 14.7563 11.5113 14.7563 11.6504V11.7305H14.594V11.6588C14.594 11.4228 14.7057 11.2689 14.9439 11.2689C15.182 11.2689 15.2959 11.4228 15.2959 11.6588Z" fill="#263238"/>
<path d="M15.6311 11.7769V11.9876H15.4646V11.7769H15.6311ZM15.6311 12.62V12.8307H15.4646V12.62H15.6311Z" fill="#263238"/>
<path d="M15.9809 11.9181C16.0037 11.8771 16.0375 11.8434 16.0785 11.8206C16.1195 11.7979 16.166 11.7871 16.2128 11.7895C16.4109 11.7895 16.4995 11.9349 16.4995 12.1562V12.4576C16.4995 12.6958 16.3878 12.8518 16.1496 12.8518C15.9114 12.8518 15.8018 12.6979 15.8018 12.4576V12.3544H15.9641V12.4703C15.9641 12.6094 16.021 12.6937 16.1454 12.6937C16.2697 12.6937 16.3266 12.6094 16.3266 12.4703V12.171C16.3266 12.0298 16.2697 11.9455 16.1454 11.9455C16.1228 11.9443 16.1002 11.9478 16.079 11.9556C16.0579 11.9635 16.0385 11.9756 16.0221 11.9911C16.0058 12.0067 15.9927 12.0255 15.9838 12.0462C15.975 12.067 15.9704 12.0894 15.9704 12.112V12.1478H15.8081L15.8503 11.2857H16.4636V11.4396H16.0062L15.9809 11.9181Z" fill="#263238"/>
<path d="M17.3616 11.6567V11.6862H17.1993V11.6462C17.1993 11.5071 17.1424 11.4249 17.0159 11.4249C16.8895 11.4249 16.8262 11.5092 16.8262 11.6757V12.0235C16.8444 11.9723 16.8786 11.9284 16.9239 11.8984C16.9691 11.8684 17.0228 11.8538 17.077 11.857C17.2878 11.857 17.3658 12.0024 17.3658 12.2258V12.4577C17.3658 12.6959 17.2478 12.8518 17.0117 12.8518C16.7756 12.8518 16.6534 12.6959 16.6534 12.4577V11.6694C16.6534 11.4228 16.7651 11.2689 17.0117 11.2689C17.2583 11.2689 17.3616 11.4207 17.3616 11.6567ZM16.8283 12.2469V12.4809C16.8283 12.62 16.8873 12.7043 17.0138 12.7043C17.1403 12.7043 17.1972 12.62 17.1972 12.4809V12.2469C17.1972 12.1078 17.1382 12.0235 17.0138 12.0235C16.8895 12.0235 16.8283 12.0994 16.8283 12.2469Z" fill="#263238"/>
<path d="M41.6032 11.7263H41.1647V12.8223H41.6032V11.7263Z" fill="#263238"/>
<path d="M42.187 11.5071H41.7486V12.8224H42.187V11.5071Z" fill="#263238"/>
<path d="M42.773 11.3511H42.3346V12.8223H42.773V11.3511Z" fill="#263238"/>
<path d="M43.3569 11.0792H42.9185V12.8223H43.3569V11.0792Z" fill="#263238"/>
<path d="M48.7822 12.7928H46.1517V11.193H48.7822V12.7928ZM46.2972 12.6453H48.6368V11.33H46.2972V12.6453Z" fill="#263238"/>
<path d="M47.9055 11.4902H46.5164V12.4872H47.9055V11.4902Z" fill="#263238"/>
<path d="M49.0226 11.798H48.6917V12.1774H49.0226V11.798Z" fill="#263238"/>
<path d="M45.1843 12.4429C45.1664 12.443 45.1488 12.4379 45.1337 12.4282C44.5984 12.1099 44.2464 12.405 44.2316 12.4282C44.2117 12.4425 44.1872 12.4489 44.1628 12.4461C44.1384 12.4434 44.1159 12.4317 44.0997 12.4134C44.0834 12.395 44.0745 12.3713 44.0748 12.3468C44.075 12.3222 44.0843 12.2987 44.1009 12.2806C44.1199 12.2638 44.5731 11.8759 45.2349 12.2806C45.2461 12.2871 45.2559 12.2958 45.2637 12.3062C45.2715 12.3166 45.2771 12.3284 45.2803 12.3409C45.2834 12.3535 45.284 12.3666 45.282 12.3794C45.28 12.3922 45.2755 12.4045 45.2686 12.4155C45.2579 12.4266 45.2446 12.4349 45.2299 12.4397C45.2152 12.4445 45.1995 12.4456 45.1843 12.4429Z" fill="#263238"/>
<path d="M45.395 12.112C45.3771 12.1121 45.3595 12.107 45.3445 12.0972C44.5709 11.6377 44.0503 12.0825 44.0461 12.0867C44.0367 12.0969 44.0253 12.105 44.0125 12.1105C43.9998 12.116 43.9861 12.1188 43.9722 12.1187C43.9584 12.1186 43.9447 12.1155 43.9321 12.1098C43.9194 12.104 43.9082 12.0957 43.899 12.0853C43.8898 12.0749 43.8829 12.0628 43.8787 12.0495C43.8745 12.0363 43.8732 12.0224 43.8747 12.0086C43.8762 11.9948 43.8807 11.9815 43.8877 11.9696C43.8947 11.9576 43.9041 11.9472 43.9154 11.9392C43.9154 11.9392 44.5477 11.3975 45.4456 11.9286C45.4568 11.9351 45.4666 11.9438 45.4744 11.9542C45.4822 11.9645 45.4878 11.9764 45.491 11.9889C45.4941 12.0015 45.4947 12.0146 45.4927 12.0274C45.4907 12.0402 45.4862 12.0525 45.4793 12.0635C45.471 12.0785 45.4587 12.0909 45.4439 12.0994C45.429 12.1079 45.4122 12.1123 45.395 12.112Z" fill="#263238"/>
<path d="M45.5658 11.7305C45.5479 11.7301 45.5305 11.725 45.5152 11.7157C44.5351 11.1319 43.8817 11.682 43.8543 11.7157C43.8361 11.7339 43.8115 11.7441 43.7858 11.7441C43.7601 11.7441 43.7355 11.7339 43.7173 11.7157C43.699 11.6972 43.6888 11.6722 43.6888 11.6462C43.6888 11.6201 43.699 11.5952 43.7173 11.5766C43.7173 11.5766 44.4993 10.9063 45.6143 11.5766C45.6257 11.583 45.6357 11.5915 45.6437 11.6018C45.6517 11.6121 45.6575 11.6239 45.6609 11.6365C45.6642 11.649 45.665 11.6622 45.6631 11.6751C45.6613 11.688 45.6569 11.7004 45.6501 11.7115C45.6382 11.7205 45.6245 11.7268 45.61 11.73C45.5955 11.7333 45.5804 11.7335 45.5658 11.7305Z" fill="#263238"/>
<path d="M44.8913 12.6073C44.8913 12.6561 44.8768 12.7038 44.8497 12.7443C44.8226 12.7849 44.7841 12.8165 44.739 12.8352C44.694 12.8538 44.6444 12.8587 44.5965 12.8492C44.5487 12.8397 44.5048 12.8162 44.4703 12.7817C44.4358 12.7472 44.4123 12.7033 44.4028 12.6554C44.3933 12.6076 44.3981 12.558 44.4168 12.5129C44.4355 12.4679 44.4671 12.4294 44.5076 12.4023C44.5482 12.3752 44.5959 12.3607 44.6447 12.3607C44.7101 12.3607 44.7728 12.3867 44.819 12.4329C44.8653 12.4792 44.8913 12.5419 44.8913 12.6073Z" fill="#263238"/>
<path d="M51.9292 12.7275V15.0798H52.6585V21.7614H51.9292V23.279H52.6585V29.9628H51.9292V31.4804H52.6585V38.1726H51.9292V83.8334C51.9292 84.9878 51.4706 86.0949 50.6544 86.9112C49.8381 87.7274 48.731 88.186 47.5766 88.186H14.6847C14.1132 88.186 13.5473 88.0734 13.0194 87.8546C12.4914 87.6359 12.0117 87.3152 11.6077 86.911C11.2037 86.5068 10.8833 86.027 10.6648 85.4989C10.4463 84.9709 10.334 84.4049 10.3343 83.8334V27.1067H9.81152V20.4251H10.3343V12.7275C10.3343 11.5737 10.7926 10.4671 11.6085 9.65123C12.4243 8.83537 13.5309 8.37701 14.6847 8.37701H47.585C48.7376 8.37925 49.8422 8.83852 50.6566 9.65408C51.471 10.4696 51.9286 11.5749 51.9292 12.7275ZM40.5472 10.0063L39.2825 11.916C39.0927 12.1983 38.8363 12.4296 38.536 12.5895C38.2357 12.7494 37.9007 12.833 37.5604 12.8329H24.7156C24.3757 12.8328 24.0411 12.7492 23.7411 12.5893C23.4412 12.4294 23.1852 12.1982 22.9957 11.916L21.7099 10.0063H15.747C14.5934 10.0063 13.4869 10.4643 12.6708 11.2797C11.8546 12.095 11.3956 13.201 11.3945 14.3547V82.2041C11.395 83.3581 11.8538 84.4647 12.67 85.2805C13.4863 86.0963 14.593 86.5546 15.747 86.5546H46.5206C47.0921 86.5551 47.6581 86.4431 48.1863 86.2248C48.7144 86.0066 49.1944 85.6864 49.5988 85.2826C50.0032 84.8788 50.3241 84.3993 50.5431 83.8714C50.7621 83.3436 50.875 82.7777 50.8753 82.2062V14.3547C50.8753 13.2009 50.4169 12.0943 49.6011 11.2784C48.7852 10.4626 47.6786 10.0042 46.5248 10.0042L40.5472 10.0063Z" fill="#263238"/>
<path d="M47.4607 31.4277H47.7621C48.0556 31.4277 48.3371 31.5443 48.5446 31.7518C48.7521 31.9593 48.8687 32.2408 48.8687 32.5343V53.6795C48.8687 55.3299 49.5242 56.9128 50.691 58.08C51.8578 59.2472 53.4405 59.9032 55.0909 59.9038C56.7419 59.9038 58.3252 59.2481 59.4929 58.0809C60.6605 56.9137 61.3167 55.3305 61.3173 53.6795V45.9145" stroke="#263238" strokeWidth="0.0752053" strokeLinecap="round" strokeLinejoin="round"/>
<path d="M46.5375 31.4235H47.4607" stroke="#263238" strokeWidth="0.225616" strokeLinecap="round" strokeLinejoin="round"/>
<path d="M24.5407 44.3926C24.712 44.3926 24.8762 44.4605 24.9975 44.5814C25.1188 44.7023 25.1872 44.8664 25.1878 45.0376V53.7006C25.1875 56.0284 25.6458 58.3334 26.5364 60.4841C27.427 62.6347 28.7325 64.5889 30.3784 66.235C32.0243 67.881 33.9783 69.1868 36.1288 70.0776C38.2794 70.9685 40.5844 71.427 42.9121 71.427V71.427C47.3804 71.427 51.6656 69.652 54.8251 66.4925C57.9846 63.333 59.7596 59.0478 59.7596 54.5795V45.9714" stroke="#263238" strokeWidth="0.0752053" strokeLinecap="round" strokeLinejoin="round"/>
<path d="M23.5227 44.3926H24.5408" stroke="#263238" strokeWidth="0.225616" strokeLinecap="round" strokeLinejoin="round"/>
<path d="M48.0003 57.9857C48.2973 57.9857 48.5822 58.1036 48.7925 58.3134C49.0027 58.5232 49.1211 58.8079 49.1216 59.105V69.2223C49.1216 71.0671 49.8545 72.8363 51.1589 74.1407C52.4634 75.4451 54.2326 76.178 56.0773 76.178V76.178C57.9221 76.178 59.6913 75.4451 60.9957 74.1407C62.3002 72.8363 63.033 71.0671 63.033 69.2223V46.2074" stroke="#263238" strokeWidth="0.0752053" strokeLinecap="round" strokeLinejoin="round"/>
<path d="M46.6871 57.9879H48.0003" stroke="#263238" strokeWidth="0.225616" strokeLinecap="round" strokeLinejoin="round"/>
<path d="M45.5384 26.8412H38.6017C38.0033 26.8412 37.5183 27.3263 37.5183 27.9246V34.8613C37.5183 35.4596 38.0033 35.9447 38.6017 35.9447H45.5384C46.1367 35.9447 46.6218 35.4596 46.6218 34.8613V27.9246C46.6218 27.3263 46.1367 26.8412 45.5384 26.8412Z" fill="#90CAF9" stroke="#263238" strokeWidth="0.0752053" strokeLinecap="round" strokeLinejoin="round"/>
<path d="M45.0051 31.1917V30.5024L44.3095 30.3844C44.2508 30.1022 44.14 29.8334 43.9828 29.5918L44.4044 29.0122L43.9154 28.5232L43.3378 28.9448C43.0979 28.7874 42.8304 28.6766 42.5495 28.6181L42.4315 27.9098H41.7422L41.6242 28.6181C41.3463 28.6755 41.0817 28.7849 40.8443 28.9405L40.252 28.519L39.7651 29.008L40.1867 29.5961C40.0308 29.832 39.9207 30.0951 39.8621 30.3717L39.1433 30.4919V31.1811L39.8579 31.3013C39.9137 31.5711 40.0187 31.8283 40.1677 32.0601L39.7462 32.6545L40.2331 33.1413L40.8211 32.7198C41.0571 32.8784 41.321 32.9906 41.5989 33.0507L41.7169 33.761H42.4062L42.5242 33.057C42.806 33.0026 43.0745 32.8938 43.3146 32.7367L43.8964 33.1582L44.3854 32.6713L43.9744 32.0959C44.135 31.8554 44.248 31.5864 44.3074 31.3034L45.0051 31.1917ZM42.0795 32.528C41.746 32.528 41.42 32.4291 41.1427 32.2438C40.8654 32.0585 40.6492 31.7952 40.5216 31.487C40.394 31.1789 40.3606 30.8399 40.4257 30.5128C40.4907 30.1857 40.6513 29.8852 40.8871 29.6494C41.123 29.4136 41.4234 29.253 41.7505 29.1879C42.0776 29.1229 42.4167 29.1563 42.7248 29.2839C43.0329 29.4115 43.2962 29.6276 43.4815 29.9049C43.6668 30.1822 43.7657 30.5083 43.7657 30.8418C43.7657 31.289 43.588 31.7179 43.2718 32.0341C42.9556 32.3503 42.5267 32.528 42.0795 32.528Z" fill="white" stroke="#263238" strokeWidth="0.0752053" strokeLinecap="round" strokeLinejoin="round"/>
<path d="M44.8007 34.4819H39.116V34.9477H44.8007V34.4819Z" fill="white" stroke="#263238" strokeWidth="0.0752053" strokeLinecap="round" strokeLinejoin="round"/>
<path d="M41.9594 34.4819H39.116V34.9477H41.9594V34.4819Z" fill="#263238" stroke="#263238" strokeWidth="0.0752053" strokeLinecap="round" strokeLinejoin="round"/>
<path d="M33.9013 26.8475H27.0953C26.4713 26.8475 25.9655 27.3533 25.9655 27.9773V34.7833C25.9655 35.4073 26.4713 35.9131 27.0953 35.9131H33.9013C34.5252 35.9131 35.031 35.4073 35.031 34.7833V27.9773C35.031 27.3533 34.5252 26.8475 33.9013 26.8475Z" fill="white" stroke="#263238" strokeWidth="0.0752053" strokeLinecap="round" strokeLinejoin="round"/>
<path d="M31.2128 34.4212C32.8924 34.0273 33.9346 32.3463 33.5407 30.6667C33.1467 28.9871 31.4658 27.9449 29.7862 28.3388C28.1066 28.7328 27.0644 30.4137 27.4583 32.0934C27.8522 33.773 29.5332 34.8152 31.2128 34.4212Z" fill="#263238" stroke="#263238" strokeWidth="0.0752053" strokeLinecap="round" strokeLinejoin="round"/>
<path d="M29.5129 32.6586L30.4972 31.3813V29.0923" stroke="white" strokeWidth="0.0752053" strokeLinecap="round" strokeLinejoin="round"/>
<path d="M22.3295 26.8476H15.5235C14.8996 26.8476 14.3937 27.3535 14.3937 27.9774V34.7834C14.3937 35.4074 14.8996 35.9132 15.5235 35.9132H22.3295C22.9535 35.9132 23.4593 35.4074 23.4593 34.7834V27.9774C23.4593 27.3535 22.9535 26.8476 22.3295 26.8476Z" fill="white" stroke="#263238" strokeWidth="0.0752053" strokeLinecap="round" strokeLinejoin="round"/>
<path d="M17.9412 32.6586L18.9276 31.3813V29.0923" stroke="white" strokeWidth="0.0752053" strokeLinecap="round" strokeLinejoin="round"/>
<path d="M21.4654 31.1769L17.3489 28.7993V33.5523L21.4654 31.1769Z" fill="#263238" stroke="#263238" strokeWidth="0.0752053" strokeLinecap="round" strokeLinejoin="round"/>
<path d="M45.5384 40.1665H38.6017C38.0033 40.1665 37.5183 40.6516 37.5183 41.2499V48.1867C37.5183 48.785 38.0033 49.27 38.6017 49.27H45.5384C46.1367 49.27 46.6218 48.785 46.6218 48.1867V41.2499C46.6218 40.6516 46.1367 40.1665 45.5384 40.1665Z" fill="white" stroke="#263238" strokeWidth="0.0752053" strokeLinecap="round" strokeLinejoin="round"/>
<path d="M41.9382 42.0172C40.3195 42.0172 39.0063 43.0711 39.0063 44.361C39.0063 45.2042 39.5564 45.9313 40.3806 46.3466L39.8853 47.586L41.4535 46.6712C41.6141 46.6932 41.7761 46.7045 41.9382 46.7049C43.5549 46.7049 44.8681 45.651 44.8681 44.361C44.8681 43.0711 43.5549 42.0172 41.9382 42.0172Z" fill="#263238" stroke="#263238" strokeWidth="0.0752053" strokeLinecap="round" strokeLinejoin="round"/>
<path d="M45.5384 53.492H38.6017C38.0033 53.492 37.5183 53.977 37.5183 54.5754V61.5121C37.5183 62.1104 38.0033 62.5955 38.6017 62.5955H45.5384C46.1367 62.5955 46.6218 62.1104 46.6218 61.5121V54.5754C46.6218 53.977 46.1367 53.492 45.5384 53.492Z" fill="#90CAF9" stroke="#263238" strokeWidth="0.0752053" strokeLinecap="round" strokeLinejoin="round"/>
<path d="M45.0051 57.8424V57.1532L44.3095 57.0372C44.2511 56.7543 44.1403 56.4848 43.9828 56.2426L44.4044 55.663L43.9154 55.1761L43.3378 55.5976C43.0984 55.4387 42.8309 55.3271 42.5495 55.2688L42.4315 54.5606H41.7422L41.6242 55.2688C41.3461 55.327 41.0816 55.4372 40.8443 55.5934L40.252 55.1719L39.7651 55.6588L40.1867 56.2489C40.0305 56.4839 39.9203 56.7464 39.8621 57.0225L39.1433 57.1426V57.8319L39.8579 57.952C39.9135 58.2285 40.0216 58.4918 40.1762 58.7277L39.7546 59.3221L40.2415 59.8111L40.8296 59.3895C41.0661 59.5466 41.3299 59.6581 41.6073 59.7183L41.7254 60.4308H42.4146L42.5327 59.7268C42.8139 59.6705 43.082 59.5618 43.3231 59.4064L43.9048 59.8279L44.3938 59.3389L43.9828 58.7635C44.143 58.5236 44.2561 58.2553 44.3158 57.9731L45.0051 57.8424ZM42.0795 59.1788C41.746 59.1788 41.42 59.0799 41.1427 58.8946C40.8654 58.7093 40.6492 58.4459 40.5216 58.1378C40.394 57.8297 40.3606 57.4907 40.4257 57.1636C40.4907 56.8365 40.6513 56.536 40.8871 56.3002C41.123 56.0644 41.4234 55.9038 41.7505 55.8387C42.0776 55.7736 42.4167 55.807 42.7248 55.9347C43.0329 56.0623 43.2962 56.2784 43.4815 56.5557C43.6668 56.833 43.7657 57.159 43.7657 57.4925C43.7657 57.9397 43.588 58.3686 43.2718 58.6849C42.9556 59.0011 42.5267 59.1788 42.0795 59.1788Z" fill="white" stroke="#263238" strokeWidth="0.0752053" strokeLinecap="round" strokeLinejoin="round"/>
<path d="M44.8007 61.1327H39.116V61.5985H44.8007V61.1327Z" fill="white" stroke="#263238" strokeWidth="0.0752053" strokeLinecap="round" strokeLinejoin="round"/>
<path d="M40.0561 61.1327H39.116V61.5985H40.0561V61.1327Z" fill="#263238" stroke="#263238" strokeWidth="0.0752053" strokeLinecap="round" strokeLinejoin="round"/>
<path d="M22.3296 40.175H15.5235C14.8996 40.175 14.3938 40.6808 14.3938 41.3048V48.1108C14.3938 48.7347 14.8996 49.2406 15.5235 49.2406H22.3296C22.9535 49.2406 23.4593 48.7347 23.4593 48.1108V41.3048C23.4593 40.6808 22.9535 40.175 22.3296 40.175Z" fill="#90CAF9" stroke="#263238" strokeWidth="0.0752053" strokeLinecap="round" strokeLinejoin="round"/>
<path d="M21.9291 44.5171V43.8278L21.2314 43.7119C21.1748 43.4284 21.0639 43.1586 20.9047 42.9173L21.3263 42.3376L20.8394 41.8507L20.2618 42.2723C20.0219 42.1149 19.7544 42.0041 19.4735 41.9456L19.3555 41.2374H18.6662L18.5482 41.9456C18.2698 42.0036 18.0046 42.113 17.7662 42.2681L17.176 41.8465L16.6891 42.3355L17.1107 42.9257C16.956 43.1612 16.8467 43.4236 16.7882 43.6992L16.0674 43.8194V44.496L16.7819 44.6161C16.8389 44.8922 16.9468 45.1553 17.1002 45.3918L16.6786 45.9862L17.1508 46.4752L17.7367 46.0536C17.9734 46.2103 18.2371 46.3218 18.5145 46.3824L18.6346 47.0949H19.3239L19.4419 46.3909C19.7234 46.3344 19.9916 46.2249 20.2323 46.0684L20.8141 46.4899L21.301 46.003L20.89 45.4276C21.0514 45.1876 21.1645 44.9184 21.223 44.6351L21.9291 44.5171ZM19.0014 45.8534C18.6679 45.8534 18.3419 45.7545 18.0646 45.5692C17.7873 45.3839 17.5711 45.1206 17.4435 44.8125C17.3159 44.5043 17.2825 44.1653 17.3476 43.8382C17.4126 43.5111 17.5732 43.2106 17.809 42.9748C18.0449 42.739 18.3453 42.5784 18.6724 42.5133C18.9995 42.4483 19.3386 42.4817 19.6467 42.6093C19.9548 42.7369 20.2181 42.9531 20.4034 43.2304C20.5887 43.5076 20.6876 43.8337 20.6876 44.1672C20.6876 44.6144 20.51 45.0433 20.1937 45.3595C19.8775 45.6757 19.4486 45.8534 19.0014 45.8534Z" fill="white" stroke="#263238" strokeWidth="0.0752053" strokeLinecap="round" strokeLinejoin="round"/>
<path d="M21.7246 47.8073H16.0399V48.2731H21.7246V47.8073Z" fill="white" stroke="#263238" strokeWidth="0.0752053" strokeLinecap="round" strokeLinejoin="round"/>
<path d="M21.1787 47.8073H16.0399V48.2731H21.1787V47.8073Z" fill="#263238" stroke="#263238" strokeWidth="0.0752053" strokeLinecap="round" strokeLinejoin="round"/>
<path d="M22.3296 53.5004H15.5235C14.8996 53.5004 14.3938 54.0062 14.3938 54.6302V61.4362C14.3938 62.0602 14.8996 62.566 15.5235 62.566H22.3296C22.9535 62.566 23.4593 62.0602 23.4593 61.4362V54.6302C23.4593 54.0062 22.9535 53.5004 22.3296 53.5004Z" fill="white" stroke="#263238" strokeWidth="0.0752053" strokeLinecap="round" strokeLinejoin="round"/>
<path d="M17.9412 59.3115L18.9276 58.0321V55.7431" stroke="white" strokeWidth="0.0752053" strokeLinecap="round" strokeLinejoin="round"/>
<path d="M21.9818 56.0719H15.8713V59.9924H21.9818V56.0719Z" fill="#263238" stroke="#263238" strokeWidth="0.0752053" strokeLinecap="round" strokeLinejoin="round"/>
<path d="M15.8713 56.0719L18.877 58.6181L21.9396 56.1078" stroke="white" strokeWidth="0.0752053" strokeLinecap="round" strokeLinejoin="round"/>
<path d="M15.8713 59.9924L18.0613 58.0068" stroke="white" strokeWidth="0.0752053" strokeLinecap="round" strokeLinejoin="round"/>
<path d="M21.9817 59.9924L19.6905 58.0068" stroke="white" strokeWidth="0.0752053" strokeLinecap="round" strokeLinejoin="round"/>
<path d="M86.2882 57.1026L88.7016 80.2439" stroke="#263238" strokeWidth="0.150411" stroke-miterlimit="10"/>
<path d="M88.3138 75.8154L87.2177 74.6583" stroke="#263238" strokeWidth="0.150411" stroke-miterlimit="10"/>
<path d="M87.5507 75.004C87.5486 74.8272 87.5086 74.6529 87.4333 74.4929C87.3581 74.3329 87.2493 74.1909 87.1144 74.0766C86.8341 73.8258 85.3544 73.204 85.2174 73.7246C85.0615 74.2895 86.5748 75.4024 87.5507 75.004Z" fill="#90CAF9" stroke="#263238" strokeWidth="0.0752053" stroke-miterlimit="10"/>
<path d="M87.5507 75.004L86.1427 74.1272" stroke="#263238" strokeWidth="0.0376026" stroke-miterlimit="10"/>
<path d="M88.5878 78.4459L87.4938 77.2909" stroke="#263238" strokeWidth="0.150411" stroke-miterlimit="10"/>
<path d="M87.8248 77.6366C87.8228 77.4597 87.7831 77.2852 87.7082 77.1249C87.6333 76.9646 87.525 76.8222 87.3906 76.7071C87.1081 76.4563 85.6306 75.8345 85.4936 76.3551C85.3376 76.9221 86.851 78.035 87.8248 77.6366Z" fill="#90CAF9" stroke="#263238" strokeWidth="0.0752053" stroke-miterlimit="10"/>
<path d="M87.8248 77.6366L86.4168 76.7598" stroke="#263238" strokeWidth="0.0376026" stroke-miterlimit="10"/>
<path d="M87.6434 69.3931L86.5474 68.2359" stroke="#263238" strokeWidth="0.150411" stroke-miterlimit="10"/>
<path d="M86.8805 68.5837C86.8784 68.4065 86.8384 68.2319 86.7631 68.0716C86.6879 67.9112 86.5791 67.7689 86.4442 67.6541C86.1638 67.4033 84.6842 66.7815 84.5472 67.3021C84.3891 67.8691 85.9046 68.9799 86.8805 68.5837Z" fill="#90CAF9" stroke="#263238" strokeWidth="0.0752053" stroke-miterlimit="10"/>
<path d="M86.8804 68.5837L85.4724 67.7047" stroke="#263238" strokeWidth="0.0376026" stroke-miterlimit="10"/>
<path d="M87.9175 72.0236L86.8235 70.8685" stroke="#263238" strokeWidth="0.150411" stroke-miterlimit="10"/>
<path d="M87.1545 71.2142C87.1526 71.0376 87.1129 70.8634 87.038 70.7034C86.9631 70.5434 86.8548 70.4013 86.7203 70.2868C86.4378 70.0338 84.9603 69.412 84.8233 69.9327C84.6673 70.4997 86.1807 71.6126 87.1545 71.2142Z" fill="#90CAF9" stroke="#263238" strokeWidth="0.0752053" stroke-miterlimit="10"/>
<path d="M87.1545 71.2142L85.7465 70.3373" stroke="#263238" strokeWidth="0.0376026" stroke-miterlimit="10"/>
<path d="M87.1966 65.1185L86.1027 63.9613" stroke="#263238" strokeWidth="0.150411" stroke-miterlimit="10"/>
<path d="M86.4336 64.3091C86.4315 64.1325 86.3916 63.9584 86.3167 63.7985C86.2419 63.6385 86.1337 63.4964 85.9994 63.3817C85.7169 63.1309 84.2394 62.507 84.1024 63.0297C83.9464 63.5925 85.4598 64.7054 86.4336 64.3091Z" fill="#90CAF9" stroke="#263238" strokeWidth="0.0752053" stroke-miterlimit="10"/>
<path d="M86.4336 64.307L85.0256 63.4301" stroke="#263238" strokeWidth="0.0376026" stroke-miterlimit="10"/>
<path d="M86.7477 60.8228L85.6538 59.6678" stroke="#263238" strokeWidth="0.150411" stroke-miterlimit="10"/>
<path d="M85.9868 60.0134C85.9848 59.8366 85.9448 59.6622 85.8695 59.5022C85.7943 59.3422 85.6854 59.2002 85.5505 59.086C85.2701 58.833 83.7905 58.2113 83.6535 58.7319C83.4975 59.2989 85.0214 60.4118 85.9868 60.0134Z" fill="#90CAF9" stroke="#263238" strokeWidth="0.0752053" stroke-miterlimit="10"/>
<path d="M85.9867 60.0134L84.5787 59.1366" stroke="#263238" strokeWidth="0.0376026" stroke-miterlimit="10"/>
<path d="M88.1284 74.2578L88.9609 72.9004" stroke="#263238" strokeWidth="0.150411" stroke-miterlimit="10"/>
<path d="M88.7079 73.3072C88.6749 73.1353 88.6786 72.9583 88.719 72.7879C88.7593 72.6175 88.8353 72.4576 88.9419 72.3187C89.1653 72.0152 90.4848 71.1025 90.7293 71.5831C90.9948 72.0953 89.7428 73.4969 88.7079 73.3072Z" fill="#90CAF9" stroke="#263238" strokeWidth="0.0752053" stroke-miterlimit="10"/>
<path d="M88.7079 73.3072L89.9747 72.0952" stroke="#263238" strokeWidth="0.0376026" stroke-miterlimit="10"/>
<path d="M87.4053 67.3316L88.2378 65.9742" stroke="#263238" strokeWidth="0.150411" stroke-miterlimit="10"/>
<path d="M87.9849 66.3831C87.9502 66.2096 87.9531 66.0306 87.9935 65.8582C88.0338 65.6858 88.1107 65.5242 88.2189 65.3841C88.4423 65.0805 89.7618 64.1658 90.0063 64.6463C90.2719 65.1691 89.0262 66.5707 87.9849 66.3831Z" fill="#90CAF9" stroke="#263238" strokeWidth="0.0752053" stroke-miterlimit="10"/>
<path d="M87.9849 66.3831L89.2517 65.1712" stroke="#263238" strokeWidth="0.0376026" stroke-miterlimit="10"/>
<path d="M87.0891 64.288L87.9217 62.9306" stroke="#263238" strokeWidth="0.150411" stroke-miterlimit="10"/>
<path d="M87.6667 63.3395C87.6327 63.1658 87.6361 62.9868 87.6768 62.8145C87.7175 62.6422 87.7946 62.4806 87.9028 62.3404C88.1241 62.0369 89.4436 61.1221 89.6881 61.6027C89.9557 62.1254 88.7037 63.5271 87.6667 63.3395Z" fill="#90CAF9" stroke="#263238" strokeWidth="0.0752053" stroke-miterlimit="10"/>
<path d="M87.6667 63.3395L88.9355 62.1276" stroke="#263238" strokeWidth="0.0376026" stroke-miterlimit="10"/>
<path d="M86.6234 59.8259L87.456 58.4685" stroke="#263238" strokeWidth="0.150411" stroke-miterlimit="10"/>
<path d="M87.2008 58.8774C87.1668 58.7037 87.1703 58.5246 87.211 58.3524C87.2517 58.1801 87.3287 58.0184 87.4369 57.8783C87.6582 57.5748 88.9777 56.66 89.2222 57.1406C89.4899 57.6633 88.2379 59.065 87.2008 58.8774Z" fill="#90CAF9" stroke="#263238" strokeWidth="0.0752053" stroke-miterlimit="10"/>
<path d="M87.2008 58.8773L88.4697 57.6654" stroke="#263238" strokeWidth="0.0376026" stroke-miterlimit="10"/>
<path d="M86.2671 56.9741C86.2325 56.8005 86.2355 56.6215 86.2759 56.4492C86.3162 56.2768 86.393 56.1151 86.5011 55.975C86.7245 55.6714 88.044 54.7567 88.2885 55.2372C88.5541 55.76 87.3021 57.1616 86.2671 56.9741Z" fill="#90CAF9" stroke="#263238" strokeWidth="0.0752053" stroke-miterlimit="10"/>
<path d="M86.2671 56.974L87.5339 55.762" stroke="#263238" strokeWidth="0.0376026" stroke-miterlimit="10"/>
<path d="M86.3409 57.0267C86.1644 57.0422 85.9867 57.0199 85.8195 56.9614C85.6524 56.9029 85.4996 56.8095 85.3713 56.6873C85.0931 56.4344 84.3174 55.0264 84.8254 54.8346C85.3734 54.6238 86.636 56.015 86.3409 57.0267Z" fill="#90CAF9" stroke="#263238" strokeWidth="0.0752053" stroke-miterlimit="10"/>
<path d="M86.3409 57.0267L85.268 55.6376" stroke="#263238" strokeWidth="0.0376026" stroke-miterlimit="10"/>
<path d="M92.6579 60.2895L90.255 83.4309" stroke="#263238" strokeWidth="0.150411" stroke-miterlimit="10"/>
<path d="M90.7862 79.0172L89.9536 77.6598" stroke="#263238" strokeWidth="0.150411" stroke-miterlimit="10"/>
<path d="M90.2066 78.0687C90.2413 77.8951 90.2384 77.7161 90.198 77.5437C90.1577 77.3714 90.0808 77.2097 89.9726 77.0696C89.7492 76.7661 88.4297 75.8534 88.1852 76.334C87.9196 76.8567 89.1716 78.2563 90.2066 78.0687Z" fill="#90CAF9" stroke="#263238" strokeWidth="0.0752053" stroke-miterlimit="10"/>
<path d="M90.2066 78.0687L89.0093 76.9199" stroke="#263238" strokeWidth="0.0376026" stroke-miterlimit="10"/>
<path d="M91.4522 72.5947L90.6197 71.2373" stroke="#263238" strokeWidth="0.150411" stroke-miterlimit="10"/>
<path d="M90.8747 71.6462C90.9087 71.4725 90.9053 71.2935 90.8645 71.1212C90.8238 70.9489 90.7468 70.7873 90.6386 70.6471C90.4152 70.3436 89.0957 69.4309 88.8512 69.9115C88.5856 70.4342 89.8376 71.8338 90.8747 71.6462Z" fill="#90CAF9" stroke="#263238" strokeWidth="0.0752053" stroke-miterlimit="10"/>
<path d="M90.8747 71.6463L89.6775 70.4975" stroke="#263238" strokeWidth="0.0376026" stroke-miterlimit="10"/>
<path d="M91.1804 75.2274L90.3457 73.87" stroke="#263238" strokeWidth="0.150411" stroke-miterlimit="10"/>
<path d="M90.6007 74.2768C90.6347 74.1034 90.6313 73.9247 90.5905 73.7528C90.5498 73.5808 90.4728 73.4195 90.3647 73.2798C90.1412 72.9763 88.8239 72.0615 88.5794 72.5442C88.3117 73.0669 89.5637 74.4665 90.6007 74.2768Z" fill="#90CAF9" stroke="#263238" strokeWidth="0.0752053" stroke-miterlimit="10"/>
<path d="M90.6007 74.2768L89.4035 73.1302" stroke="#263238" strokeWidth="0.0376026" stroke-miterlimit="10"/>
<path d="M91.897 68.3202L91.0623 66.9628" stroke="#263238" strokeWidth="0.150411" stroke-miterlimit="10"/>
<path d="M91.3174 67.3696C91.3519 67.1962 91.3487 67.0174 91.308 66.8454C91.2673 66.6733 91.1899 66.5121 91.0813 66.3726C90.8579 66.0691 89.5405 65.1543 89.296 65.6349C89.0262 66.1597 90.2909 67.5593 91.3174 67.3696Z" fill="#90CAF9" stroke="#263238" strokeWidth="0.0752053" stroke-miterlimit="10"/>
<path d="M91.3173 67.3696L90.1201 66.2209" stroke="#263238" strokeWidth="0.0376026" stroke-miterlimit="10"/>
<path d="M92.3417 64.0267L91.5092 62.6693" stroke="#263238" strokeWidth="0.150411" stroke-miterlimit="10"/>
<path d="M91.7663 63.076C91.8009 62.9024 91.7979 62.7234 91.7575 62.5511C91.7172 62.3788 91.6404 62.2171 91.5323 62.0769C91.3089 61.7734 89.9894 60.8607 89.7449 61.3413C89.4751 61.864 90.7271 63.2657 91.7663 63.076Z" fill="#90CAF9" stroke="#263238" strokeWidth="0.0752053" stroke-miterlimit="10"/>
<path d="M91.7621 63.076L90.5648 61.9273" stroke="#263238" strokeWidth="0.0376026" stroke-miterlimit="10"/>
<path d="M90.9274 77.4553L92.0213 76.2981" stroke="#263238" strokeWidth="0.150411" stroke-miterlimit="10"/>
<path d="M91.6884 76.6459C91.6904 76.4688 91.7305 76.2941 91.8057 76.1338C91.881 75.9735 91.9897 75.8311 92.1247 75.7164C92.405 75.4655 93.8826 74.8416 94.0217 75.3644C94.1776 75.9292 92.6643 77.0443 91.6884 76.6459Z" fill="#90CAF9" stroke="#263238" strokeWidth="0.0752053" stroke-miterlimit="10"/>
<path d="M91.6884 76.6459L93.1786 75.7206" stroke="#263238" strokeWidth="0.0376026" stroke-miterlimit="10"/>
<path d="M91.6462 70.5292L92.7401 69.372" stroke="#263238" strokeWidth="0.150411" stroke-miterlimit="10"/>
<path d="M92.3986 69.7198C92.4007 69.5427 92.4407 69.368 92.516 69.2077C92.5912 69.0473 92.7 68.905 92.8349 68.7902C93.1153 68.5394 94.5928 67.9155 94.7319 68.4382C94.8963 69.0031 93.383 70.1181 92.3986 69.7198Z" fill="#90CAF9" stroke="#263238" strokeWidth="0.0752053" stroke-miterlimit="10"/>
<path d="M92.407 69.7198L93.8972 68.7945" stroke="#263238" strokeWidth="0.0376026" stroke-miterlimit="10"/>
<path d="M91.9623 67.4855L93.0562 66.3283" stroke="#263238" strokeWidth="0.150411" stroke-miterlimit="10"/>
<path d="M92.7233 66.6761C92.7252 66.4992 92.765 66.3247 92.8399 66.1644C92.9147 66.0041 93.023 65.8617 93.1575 65.7466C93.4399 65.4958 94.9175 64.8719 95.0545 65.3946C95.2126 65.9595 93.6992 67.0745 92.7233 66.6761Z" fill="#90CAF9" stroke="#263238" strokeWidth="0.0752053" stroke-miterlimit="10"/>
<path d="M92.7233 66.6761L94.2135 65.7508" stroke="#263238" strokeWidth="0.0376026" stroke-miterlimit="10"/>
<path d="M92.424 63.0234L93.5179 61.8662" stroke="#263238" strokeWidth="0.150411" stroke-miterlimit="10"/>
<path d="M93.187 62.214C93.1889 62.037 93.2287 61.8626 93.3035 61.7022C93.3784 61.5419 93.4867 61.3995 93.6212 61.2844C93.9015 61.0336 95.3811 60.4097 95.5182 60.9324C95.6741 61.4973 94.1607 62.6229 93.187 62.214Z" fill="#90CAF9" stroke="#263238" strokeWidth="0.0752053" stroke-miterlimit="10"/>
<path d="M93.187 62.214L94.6772 61.2887" stroke="#263238" strokeWidth="0.0376026" stroke-miterlimit="10"/>
<path d="M92.6642 60.1589C92.6663 59.982 92.7061 59.8075 92.781 59.6472C92.8559 59.4869 92.9641 59.3445 93.0984 59.2293C93.3788 58.9785 94.8584 58.3567 94.9954 58.8773C95.1514 59.4443 93.638 60.5572 92.6642 60.1589Z" fill="#90CAF9" stroke="#263238" strokeWidth="0.0752053" stroke-miterlimit="10"/>
<path d="M92.6642 60.1589L94.1544 59.2336" stroke="#263238" strokeWidth="0.0376026" stroke-miterlimit="10"/>
<path d="M92.7253 60.2263C92.5494 60.2054 92.3801 60.1471 92.2285 60.0555C92.077 59.964 91.9467 59.8411 91.8463 59.6952C91.625 59.3895 91.1613 57.853 91.6946 57.7687C92.2742 57.6759 93.2227 59.2968 92.7253 60.2263Z" fill="#90CAF9" stroke="#263238" strokeWidth="0.0752053" stroke-miterlimit="10"/>
<path d="M92.7253 60.2263L91.9602 58.6476" stroke="#263238" strokeWidth="0.0376026" stroke-miterlimit="10"/>
<path d="M89.9051 50.8657V80.1301" stroke="#263238" strokeWidth="0.150411" stroke-miterlimit="10"/>
<path d="M89.9284 75.7311L88.9588 74.4664" stroke="#263238" strokeWidth="0.150411" stroke-miterlimit="10"/>
<path d="M89.2538 74.848C89.27 74.6717 89.2483 74.4939 89.1901 74.3267C89.1319 74.1595 89.0387 74.0066 88.9166 73.8784C88.6636 73.6002 87.2577 72.8245 87.0638 73.3304C86.853 73.8763 88.2442 75.141 89.2538 74.848Z" fill="#90CAF9" stroke="#263238" strokeWidth="0.0752053" stroke-miterlimit="10"/>
<path d="M89.2538 74.8458L87.9449 73.8278" stroke="#263238" strokeWidth="0.0376026" stroke-miterlimit="10"/>
<path d="M89.9284 70.2299L88.9588 68.9673" stroke="#263238" strokeWidth="0.150411" stroke-miterlimit="10"/>
<path d="M89.2538 69.3467C89.27 69.1704 89.2483 68.9926 89.1901 68.8254C89.1319 68.6582 89.0387 68.5053 88.9166 68.3771C88.6636 68.0989 87.2577 67.3232 87.0638 67.8291C86.853 68.3771 88.2442 69.6418 89.2538 69.3467Z" fill="#90CAF9" stroke="#263238" strokeWidth="0.0752053" stroke-miterlimit="10"/>
<path d="M89.2538 69.3467L87.9449 68.3265" stroke="#263238" strokeWidth="0.0376026" stroke-miterlimit="10"/>
<path d="M89.9284 63.7737L88.9588 62.509" stroke="#263238" strokeWidth="0.150411" stroke-miterlimit="10"/>
<path d="M89.2538 62.8885C89.2701 62.7125 89.2484 62.535 89.1902 62.3681C89.1321 62.2012 89.0387 62.0487 88.9166 61.921C88.6636 61.6407 87.2577 60.8671 87.0638 61.373C86.853 61.921 88.2442 63.1836 89.2538 62.8885Z" fill="#90CAF9" stroke="#263238" strokeWidth="0.0752053" stroke-miterlimit="10"/>
<path d="M89.2538 62.8885L87.9449 61.8704" stroke="#263238" strokeWidth="0.0376026" stroke-miterlimit="10"/>
<path d="M89.9284 59.476L88.9588 58.2113" stroke="#263238" strokeWidth="0.150411" stroke-miterlimit="10"/>
<path d="M89.2538 58.5907C89.27 58.4144 89.2483 58.2367 89.1901 58.0694C89.1319 57.9022 89.0387 57.7494 88.9166 57.6211C88.6636 57.3429 87.2577 56.5672 87.0638 57.0752C86.853 57.6211 88.2442 58.8858 89.2538 58.5907Z" fill="#90CAF9" stroke="#263238" strokeWidth="0.0752053" stroke-miterlimit="10"/>
<path d="M89.2538 58.5907L87.9449 57.5727" stroke="#263238" strokeWidth="0.0376026" stroke-miterlimit="10"/>
<path d="M89.9284 55.1592L88.9588 53.8945" stroke="#263238" strokeWidth="0.150411" stroke-miterlimit="10"/>
<path d="M89.2538 54.274C89.27 54.0977 89.2483 53.9199 89.1901 53.7527C89.1319 53.5855 89.0387 53.4326 88.9166 53.3044C88.6636 53.0262 87.2577 52.2505 87.0638 52.7564C86.853 53.3044 88.2442 54.5691 89.2538 54.274Z" fill="#90CAF9" stroke="#263238" strokeWidth="0.0752053" stroke-miterlimit="10"/>
<path d="M89.2538 54.274L87.9449 53.2538" stroke="#263238" strokeWidth="0.0376026" stroke-miterlimit="10"/>
<path d="M89.9072 77.409L90.8768 76.1464" stroke="#263238" strokeWidth="0.150411" stroke-miterlimit="10"/>
<path d="M90.5817 76.5342C90.5655 76.3579 90.5872 76.1801 90.6454 76.0129C90.7035 75.8457 90.7968 75.6928 90.9189 75.5646C91.1718 75.2864 92.5777 74.5107 92.7717 75.0166C92.9824 75.5562 91.5913 76.8209 90.5817 76.5342Z" fill="#90CAF9" stroke="#263238" strokeWidth="0.0752053" stroke-miterlimit="10"/>
<path d="M90.5818 76.5258L91.9687 75.4508" stroke="#263238" strokeWidth="0.0376026" stroke-miterlimit="10"/>
<path d="M89.9072 68.6638L90.8768 67.3991" stroke="#263238" strokeWidth="0.150411" stroke-miterlimit="10"/>
<path d="M90.5817 67.7785C90.5655 67.6022 90.5872 67.4244 90.6454 67.2572C90.7035 67.09 90.7968 66.9371 90.9189 66.8089C91.1718 66.5307 92.5777 65.755 92.7717 66.2609C92.9824 66.8089 91.5913 68.0736 90.5817 67.7785Z" fill="#90CAF9" stroke="#263238" strokeWidth="0.0752053" stroke-miterlimit="10"/>
<path d="M90.5818 67.7785L91.9687 66.7036" stroke="#263238" strokeWidth="0.0376026" stroke-miterlimit="10"/>
<path d="M89.9072 64.3449L90.8768 63.0824" stroke="#263238" strokeWidth="0.150411" stroke-miterlimit="10"/>
<path d="M90.5817 63.466C90.5655 63.2897 90.5872 63.112 90.6454 62.9447C90.7035 62.7775 90.7968 62.6246 90.9189 62.4964C91.1718 62.2182 92.5777 61.4425 92.7717 61.9484C92.9824 62.4922 91.5913 63.7569 90.5817 63.466Z" fill="#90CAF9" stroke="#263238" strokeWidth="0.0752053" stroke-miterlimit="10"/>
<path d="M90.5818 63.4618L91.9687 62.3868" stroke="#263238" strokeWidth="0.0376026" stroke-miterlimit="10"/>
<path d="M89.9072 58.6392L90.8768 57.3766" stroke="#263238" strokeWidth="0.150411" stroke-miterlimit="10"/>
<path d="M90.5817 57.7539C90.5656 57.5779 90.5873 57.4005 90.6455 57.2336C90.7037 57.0667 90.7969 56.9142 90.919 56.7864C91.1719 56.5082 92.5778 55.7325 92.7717 56.2384C92.9825 56.7864 91.5913 58.049 90.5817 57.7539Z" fill="#90CAF9" stroke="#263238" strokeWidth="0.0752053" stroke-miterlimit="10"/>
<path d="M90.5818 57.7539L91.9687 56.681" stroke="#263238" strokeWidth="0.0376026" stroke-miterlimit="10"/>
<path d="M89.9072 54.1539L90.8768 52.8892" stroke="#263238" strokeWidth="0.150411" stroke-miterlimit="10"/>
<path d="M90.5817 53.2685C90.5655 53.0912 90.5876 52.9125 90.6465 52.7445C90.7054 52.5765 90.7998 52.4231 90.9232 52.2947C91.1761 52.0165 92.582 51.2408 92.7759 51.7488C92.9825 52.2947 91.5913 53.5594 90.5817 53.2685Z" fill="#90CAF9" stroke="#263238" strokeWidth="0.0752053" stroke-miterlimit="10"/>
<path d="M90.5818 53.2686L91.9687 52.1957" stroke="#263238" strokeWidth="0.0376026" stroke-miterlimit="10"/>
<path d="M89.8482 51.2788C89.8319 51.1028 89.8536 50.9253 89.9118 50.7584C89.97 50.5915 90.0633 50.439 90.1855 50.3113C90.4384 50.031 91.8464 49.2574 92.0403 49.7633C92.249 50.3113 90.8599 51.5739 89.8482 51.2788Z" fill="#90CAF9" stroke="#263238" strokeWidth="0.0752053" stroke-miterlimit="10"/>
<path d="M89.8482 51.2788L91.2352 50.2059" stroke="#263238" strokeWidth="0.0376026" stroke-miterlimit="10"/>
<path d="M89.9157 51.3378C89.7389 51.3357 89.5646 51.2956 89.4046 51.2204C89.2446 51.1451 89.1026 51.0364 88.9883 50.9015C88.7374 50.6212 88.1178 49.1415 88.6384 49.0045C89.2054 48.8485 90.3162 50.364 89.9157 51.3378Z" fill="#90CAF9" stroke="#263238" strokeWidth="0.0752053" stroke-miterlimit="10"/>
<path d="M89.9157 51.3379L88.9946 49.8477" stroke="#263238" strokeWidth="0.0376026" stroke-miterlimit="10"/>
<path d="M91.1086 87.7202H88.0102L87.6223 79.894H91.4964L91.1086 87.7202Z" fill="#263238" stroke="#263238" strokeWidth="0.0752053" stroke-miterlimit="10"/>
<path d="M83.6197 30.8544C82.3445 29.7816 82.5911 28.0722 82.5911 28.0722C82.5911 28.0722 77.3807 32.802 77.1109 34.3449C76.8411 35.8878 80.7342 41.4566 81.3264 42.3292C81.4014 42.4354 81.4994 42.5233 81.6131 42.5863C81.4255 43.0471 81.3338 43.5412 81.3433 44.0386C81.3581 45.7501 83.2909 45.1431 84.0708 44.6246C84.2951 44.467 84.4695 44.2484 84.5733 43.9948C84.6772 43.7411 84.7061 43.463 84.6567 43.1934C84.6567 43.1934 83.6808 43.5833 83.6808 43.1301C83.6808 42.677 84.5998 41.9666 84.5998 41.9666L84.5766 41.9498C84.7661 41.8069 84.9393 41.6436 85.093 41.4629C86.0985 40.2551 84.4207 38.9125 84.0855 38.1747C83.7504 37.437 84.3532 36.7668 85.561 35.7592C86.7687 34.7517 84.8949 31.9294 83.6197 30.8544Z" fill="#263238" stroke="#263238" strokeWidth="0.0752053" strokeLinecap="round" strokeLinejoin="round"/>
<path d="M64.5063 41.2437C64.5337 41.8315 64.5168 42.4205 64.4558 43.0058C64.4358 43.354 64.4906 43.7025 64.6164 44.0279C64.7422 44.3532 64.9361 44.6479 65.185 44.8922C65.4633 45.103 66.846 45.5456 66.846 45.5456L67.0736 44.3379L66.8628 43.8362L67.139 41.9982C67.0192 41.6583 66.8682 41.3302 66.6879 41.0181C66.435 40.6155 65.7563 40.1877 65.7057 40.1118C65.6551 40.0359 64.8246 40.213 64.7487 40.213C64.5949 40.2516 64.4441 40.3016 64.2977 40.3626L64.5063 41.2437Z" fill="white" stroke="#263238" strokeWidth="0.0752053" strokeLinecap="round" strokeLinejoin="round"/>
<path d="M64.0785 40.0148C64.0785 40.0148 63.6464 40.0507 63.5937 40.2256C63.541 40.4006 63.7223 41.387 63.8298 41.4776C63.9373 41.5683 64.2302 41.4776 64.2323 41.0772C64.2345 40.6767 64.1923 40.1729 64.0785 40.0148Z" fill="white" stroke="#263238" strokeWidth="0.0752053" strokeLinecap="round" strokeLinejoin="round"/>
<path d="M64.5759 39.8968C64.5759 39.8968 64.1038 39.8968 64.0321 40.078C63.9604 40.2593 64.0679 41.3427 64.1775 41.4544C64.2871 41.5661 64.6117 41.4902 64.6476 41.056C64.6834 40.6218 64.6771 40.0696 64.5759 39.8968Z" fill="white" stroke="#263238" strokeWidth="0.0752053" strokeLinecap="round" strokeLinejoin="round"/>
<path d="M65.0713 39.7134C65.0713 39.7134 64.5401 39.7134 64.4579 39.9242C64.3757 40.135 64.5 41.3554 64.6223 41.4776C64.7445 41.5999 65.1113 41.5177 65.1535 41.0287C65.1956 40.5397 65.1935 39.9179 65.0713 39.7134Z" fill="white" stroke="#263238" strokeWidth="0.0752053" strokeLinecap="round" strokeLinejoin="round"/>
<path d="M65.5539 39.7176C65.5539 39.7176 65.0228 39.7176 64.9406 39.9284C64.8584 40.1392 64.9806 41.3575 65.1029 41.4797C65.2251 41.602 65.594 41.5219 65.634 41.0308C65.6741 40.5397 65.6762 39.9221 65.5539 39.7176Z" fill="white" stroke="#263238" strokeWidth="0.0752053" strokeLinecap="round" strokeLinejoin="round"/>
<path d="M66.8945 43.4421C66.8945 43.4421 67.1053 42.3882 67.1411 41.8065C67.1769 41.2247 66.5277 40.5418 66.3633 40.331C66.1989 40.1202 66.201 39.3931 65.9144 39.3931C65.6277 39.3931 65.5476 39.7198 65.5476 39.7198C65.5476 39.7198 65.3832 40.2509 65.6699 40.5355C65.8815 40.7635 66.0726 41.0096 66.2411 41.2711C66.2411 41.2711 65.3832 42.9067 65.3832 43.3557C65.3832 43.8046 66.201 44.3358 66.201 44.3358" fill="white"/>
<path d="M66.8945 43.4421C66.8945 43.4421 67.1053 42.3882 67.1411 41.8065C67.1769 41.2247 66.5277 40.5418 66.3633 40.331C66.1989 40.1202 66.201 39.3931 65.9144 39.3931C65.6277 39.3931 65.5476 39.7198 65.5476 39.7198C65.5476 39.7198 65.3832 40.2509 65.6699 40.5355C65.8815 40.7634 66.0726 41.0096 66.2411 41.2711C66.2411 41.2711 65.3832 42.9067 65.3832 43.3557C65.3832 43.8046 66.201 44.3358 66.201 44.3358" stroke="#263238" strokeWidth="0.0752053" strokeLinecap="round" strokeLinejoin="round"/>
<path d="M67.0231 44.2388L66.7955 46.2011L72.1808 47.9611L72.1303 45.0187L67.0231 44.2388Z" fill="#90CAF9" stroke="#263238" strokeWidth="0.0752053" strokeLinecap="round" strokeLinejoin="round"/>
<path d="M75.9053 34.9793C75.9053 34.9793 72.9059 35.8773 72.7035 36.8152C72.5012 37.7532 71.8794 40.6092 71.8794 40.6092C71.8794 40.6092 71.1396 42.5547 71.207 43.5601C71.2745 44.5655 71.8794 46.5806 71.5421 47.9211C71.2049 49.2617 70.0667 53.2896 69.799 54.6323C69.5313 55.9749 69.3964 56.778 69.3964 56.778L70.4693 56.9888L71.9447 57.189C71.9447 57.189 72.5497 53.1632 73.0197 49.6748C73.4897 46.1864 72.282 43.773 73.4223 41.4882C74.5626 39.2033 77.3132 36.9269 77.113 35.9869C76.9128 35.0468 75.9053 34.9793 75.9053 34.9793Z" fill="#90CAF9" stroke="#263238" strokeWidth="0.0752053" strokeLinecap="round" strokeLinejoin="round"/>
<path d="M70.4778 54.3688C70.4778 54.3688 70.0752 59.2673 70.8803 62.8906C71.3295 64.9636 71.9125 67.0054 72.6256 69.0031C72.6256 69.0031 73.5635 74.9049 74.2359 76.9874C74.8476 78.8232 75.0981 80.76 74.9736 82.6911C74.8387 84.2993 73.6984 86.3797 73.161 86.7823C72.6235 87.1848 71.5506 88.1249 72.8933 88.4685C74.2359 88.8121 75.9685 88.0322 76.7842 87.9985C78.3946 87.931 78.5969 86.8581 78.5969 85.8527C78.5969 84.8473 77.6569 81.4264 77.9266 79.679C78.1964 77.9317 78.2618 72.1648 77.992 70.6156C77.7222 69.0664 77.5894 67.6647 77.5894 67.6647L77.3892 55.1171L70.7454 54.1791L70.4778 54.3688Z" fill="#263238" stroke="#263238" strokeWidth="0.0752053" strokeLinecap="round" strokeLinejoin="round"/>
<path d="M77.876 80.7161C76.3268 81.3863 75.4584 81.2641 74.9799 80.988C75.0143 81.5532 75.0094 82.1202 74.9652 82.6847C74.8303 84.293 73.69 86.3733 73.1525 86.7759C72.615 87.1785 71.5421 88.1186 72.8848 88.4622C74.2274 88.8057 75.96 88.0258 76.7757 87.9921C78.3861 87.9247 78.5884 86.8518 78.5884 85.8464C78.5884 85.0075 77.9498 82.5351 77.876 80.7161Z" fill="white" stroke="#263238" strokeWidth="0.0752053" strokeLinecap="round" strokeLinejoin="round"/>
<path d="M78.5821 85.6799C78.5811 85.6694 78.5811 85.6588 78.5821 85.6483C78.5821 85.5913 78.5716 85.5302 78.5631 85.467C78.5642 85.453 78.5642 85.4389 78.5631 85.4248C78.5547 85.363 78.5463 85.2977 78.5378 85.2288C78.5378 85.2288 78.5378 85.2141 78.5378 85.2056C78.5273 85.134 78.5168 85.056 78.5041 84.978L78.4915 84.9042C78.4788 84.8325 78.4662 84.7567 78.4535 84.6787C78.4535 84.6365 78.4388 84.5944 78.4325 84.5522V84.5248C78.3397 84.6197 78.2406 84.7187 78.1353 84.8304C77.0624 85.9707 75.5848 87.246 74.0419 87.246C73.3063 87.246 73.1208 87.0352 73.1272 86.8096C72.5792 87.2312 71.5948 88.127 72.9016 88.4537C74.2443 88.7888 75.9769 88.0174 76.7926 87.9837C78.4029 87.9162 78.6053 86.8434 78.6053 85.838C78.5941 85.7902 78.5863 85.7375 78.5821 85.6799Z" fill="#90CAF9" stroke="#263238" strokeWidth="0.0752053" strokeLinecap="round" strokeLinejoin="round"/>
<path d="M77.2458 87.0457C75.9706 88.0511 74.63 88.186 73.4897 88.186C72.6066 88.186 72.3684 87.8256 72.3052 87.6612C72.1513 87.9816 72.2293 88.2935 72.8848 88.4537C74.2275 88.7888 75.96 88.0174 76.7758 87.9837C78.2934 87.9204 78.5589 86.9656 78.5863 86.0129C78.2638 86.2532 77.8149 86.5946 77.2458 87.0457Z" fill="white" stroke="#263238" strokeWidth="0.0752053" strokeLinecap="round" strokeLinejoin="round"/>
<path d="M74.7628 61.8177C74.7628 61.8177 75.4352 70.3373 75.9706 72.62C76.506 74.9028 77.6568 82.8175 77.6568 83.8924C77.6568 84.9674 76.9191 86.5082 76.5165 87.1785C76.1139 87.8487 75.0411 87.9836 75.0411 88.5886C75.0411 89.1935 77.1868 89.1914 77.5894 89.2589C77.992 89.3263 80.751 88.5886 80.8101 88.2534C80.8691 87.9183 80.8775 86.5082 80.8775 86.5082C80.9148 86.129 80.9148 85.7471 80.8775 85.3679C80.8101 84.8979 80.0049 83.4899 80.0049 83.4899C80.0049 83.4899 80.7447 76.9136 80.945 75.8407C81.1452 74.7679 81.0799 72.5526 81.0124 71.5451C80.945 70.5375 80.3337 68.5246 80.3337 68.5246L81.6743 57.8572L81.5415 54.4341C81.5415 54.4341 79.6613 54.6449 77.5809 54.6449H74.0251L74.16 57.1932" fill="#263238"/>
<path d="M74.7628 61.8177C74.7628 61.8177 75.4352 70.3373 75.9706 72.62C76.506 74.9028 77.6568 82.8175 77.6568 83.8924C77.6568 84.9674 76.9191 86.5082 76.5165 87.1785C76.1139 87.8487 75.0411 87.9836 75.0411 88.5886C75.0411 89.1935 77.1868 89.1914 77.5894 89.2589C77.992 89.3263 80.751 88.5886 80.8101 88.2534C80.8691 87.9183 80.8775 86.5082 80.8775 86.5082C80.9148 86.129 80.9148 85.7471 80.8775 85.3679C80.8101 84.8979 80.0049 83.4899 80.0049 83.4899C80.0049 83.4899 80.7447 76.9136 80.945 75.8407C81.1452 74.7679 81.0799 72.5526 81.0124 71.5451C80.945 70.5375 80.3337 68.5246 80.3337 68.5246L81.6743 57.8572L81.5415 54.4341C81.5415 54.4341 79.6613 54.6449 77.5809 54.6449H74.0251L74.16 57.1932" stroke="#263238" strokeWidth="0.0752053" strokeLinecap="round" strokeLinejoin="round"/>
<path d="M80.8058 88.2535C80.8733 87.9163 80.8733 86.5083 80.8733 86.5083C80.9106 86.1291 80.9106 85.7471 80.8733 85.368C80.8058 84.8979 80.0007 83.4899 80.0007 83.4899C80.0007 83.4899 80.1124 82.5098 80.2578 81.2451C79.7865 81.4276 79.2807 81.5034 78.7766 81.467C78.2726 81.4305 77.7829 81.2828 77.3427 81.0344C77.5282 82.4276 77.6526 83.5279 77.6526 83.882C77.6526 84.9548 76.9149 86.4977 76.5123 87.168C76.1097 87.8383 75.0368 87.9732 75.0368 88.5781C75.0368 89.183 77.1826 89.1809 77.5851 89.2484C77.9877 89.3158 80.7363 88.5886 80.8058 88.2535Z" fill="white" stroke="#263238" strokeWidth="0.0752053" strokeLinecap="round" strokeLinejoin="round"/>
<path d="M80.8058 88.2535C80.8733 87.9163 80.8733 86.5083 80.8733 86.5083C80.9106 86.1291 80.9106 85.7472 80.8733 85.368C80.8353 85.0961 80.5508 84.5122 80.3168 84.0675C80.3 84.0991 80.2852 84.1265 80.2704 84.1602C79.8679 84.9654 78.1437 87.0605 77.3385 87.5327C76.5334 88.0048 76.312 87.4505 76.312 87.4505H76.291C75.8104 87.9015 75.0832 88.0828 75.0368 88.5908C74.9483 89.5477 77.5662 89.4845 77.9561 89.3601C78.346 89.2357 80.7363 88.5887 80.8058 88.2535Z" fill="#90CAF9" stroke="#263238" strokeWidth="0.0752053" strokeLinecap="round" strokeLinejoin="round"/>
<path d="M80.8058 88.2535C80.8525 87.8138 80.8743 87.3719 80.8712 86.9298C79.5469 87.9694 77.9426 88.5902 76.2636 88.713C75.49 88.7614 75.1738 88.4179 75.119 88.3483C75.0737 88.4211 75.0456 88.5033 75.0368 88.5886C74.9483 89.5455 77.5662 89.4823 77.9561 89.3579C78.346 89.2336 80.7363 88.5886 80.8058 88.2535Z" fill="white" stroke="#263238" strokeWidth="0.0752053" strokeLinecap="round" strokeLinejoin="round"/>
<path d="M75.5027 35.3145C75.5027 35.3145 72.8848 40.4132 72.282 41.8233C71.6792 43.2334 71.9447 45.5119 71.9447 46.3171C71.9447 47.1223 70.4693 54.3688 70.4693 54.3688C70.4693 54.3688 71.812 55.7789 75.3678 55.644C78.9236 55.5091 81.0714 54.6386 81.0714 54.6386C81.0714 54.6386 80.2663 47.9949 80.2663 46.5869C80.2663 45.1789 82.0094 39.138 81.8092 37.5234C81.6089 35.9089 79.1913 36.048 78.5885 35.9131C77.9856 35.7782 75.5027 35.3145 75.5027 35.3145Z" fill="white" stroke="#263238" strokeWidth="0.0752053" strokeLinecap="round" strokeLinejoin="round"/>
<path d="M72.4991 25.7957C72.4991 25.7957 71.7424 28.3693 72.0164 28.6876C72.2398 29.021 72.4197 29.3815 72.5518 29.7605C72.5518 29.7605 71.7487 31.316 71.9616 31.531C72.1699 31.6968 72.4062 31.8238 72.6593 31.9062C72.6593 31.9062 73.142 34.2248 73.5719 34.3217C74.0019 34.4187 76.5228 33.7315 76.5228 33.7315C76.5228 33.7315 78.0257 32.3889 77.4355 29.9755C76.8453 27.5621 74.4846 25.8442 74.0631 25.6292C73.6415 25.4142 72.4991 25.7957 72.4991 25.7957Z" fill="white" stroke="#263238" strokeWidth="0.0752053" strokeLinecap="round" strokeLinejoin="round"/>
<path d="M73.8501 29.6572V30.2474C73.8501 30.2474 74.5162 30.2895 74.8387 30.0745" stroke="#263238" strokeWidth="0.0752053" strokeLinecap="round" strokeLinejoin="round"/>
<path d="M73.6162 29.3853C73.7962 29.2901 73.9974 29.2422 74.201 29.2463C74.4045 29.2503 74.6037 29.3061 74.7797 29.4085" stroke="#263238" strokeWidth="0.0752053" strokeLinecap="round" strokeLinejoin="round"/>
<path d="M73.0218 29.3853C73.0218 29.3853 73.26 28.8879 74.1853 28.8879C75.1106 28.8879 75.6354 29.1724 75.705 29.3389C75.7265 29.3842 75.7357 29.4344 75.7317 29.4843C75.7276 29.5343 75.7104 29.5823 75.6818 29.6235C75.6818 29.6235 75.6818 30.5973 75.4204 30.8586C75.1591 31.12 74.2106 31.3814 73.7342 31.1664C73.2579 30.9514 72.9986 30.0261 72.9986 29.8132C72.9986 29.6003 73.0218 29.3853 73.0218 29.3853Z" stroke="#263238" strokeWidth="0.0752053" strokeLinecap="round" strokeLinejoin="round"/>
<path d="M75.705 29.3389H76.0866" stroke="#263238" strokeWidth="0.0752053" strokeLinecap="round" strokeLinejoin="round"/>
<path d="M73.0218 29.3853C73.0218 29.3853 72.6192 29.0523 72.4527 29.457" stroke="#263238" strokeWidth="0.0752053" strokeLinecap="round" strokeLinejoin="round"/>
<path d="M72.2862 29.3853C72.0459 29.3233 71.7988 29.2915 71.5506 29.2905C71.1459 29.2905 71.0279 29.457 71.0511 29.5286C71.1298 29.7509 71.178 29.9827 71.1944 30.2179C71.1944 30.4771 71.2176 30.8818 71.4558 30.9999C71.6206 31.0769 71.7974 31.1253 71.9785 31.1432" stroke="#263238" strokeWidth="0.0752053" strokeLinecap="round" strokeLinejoin="round"/>
<path d="M77.7158 35.717C77.7158 35.717 75.9053 40.2783 75.4352 42.8287C74.9652 45.3791 75.1654 58.597 75.1654 58.597C76.3791 59.1704 77.7192 59.4244 79.0585 59.3347C81.3391 59.1998 83.6956 57.7244 83.6956 57.7244C83.6956 57.7244 83.1581 53.8334 82.2876 51.0806C81.4171 48.3279 81.0799 47.0569 81.0799 47.0569C81.0799 47.0569 82.823 38.1326 82.6902 37.1925C82.5574 36.2524 77.7158 35.717 77.7158 35.717Z" fill="#90CAF9" stroke="#263238" strokeWidth="0.0752053" strokeLinecap="round" strokeLinejoin="round"/>
<path d="M74.2717 23.2727C74.2717 23.2727 71.6433 24.0252 71.6433 24.4531C71.6433 24.881 71.5358 25.4733 73.3064 26.7063C75.0769 27.9394 76.3648 29.067 76.468 30.5699C76.5713 32.0727 75.0727 36.0501 74.7502 37.3295C74.4277 38.609 74.59 40.4912 75.6081 40.7631C76.6261 41.035 76.3057 40.8706 76.1982 40.2804C76.0907 39.6902 76.6809 37.222 78.4514 36.419C80.222 35.6159 82.1422 34.3238 82.53 31.9104C82.9347 29.3937 82.7724 25.7515 80.1693 23.7554C77.5662 21.7594 74.2717 23.2727 74.2717 23.2727Z" fill="#263238" stroke="#263238" strokeWidth="0.0752053" strokeLinecap="round" strokeLinejoin="round"/>
<path d="M79.1197 40.6809L78.4473 46.8546L78.0447 46.9895V47.3246L77.6421 47.5248L77.4419 47.7946L68.1149 46.922C68.1149 46.922 65.9671 46.6543 65.5645 46.6543C65.1619 46.6543 63.619 46.4435 63.619 46.4435C63.619 46.4435 63.8298 47.0485 64.1565 47.1138C64.4832 47.1792 66.2369 47.7862 66.2369 47.7862C66.2369 47.7862 67.3772 48.389 68.1149 48.389C68.8527 48.389 69.993 48.4565 69.993 48.4565C69.993 48.4565 74.8915 49.7991 76.4344 50.0668C77.9773 50.3345 79.2525 50.9394 79.7899 50.7371C80.1199 50.6119 80.4177 50.4144 80.6613 50.1591C80.905 49.9038 81.0883 49.5971 81.1979 49.2616C81.4087 48.5239 82.2729 43.9606 82.2729 43.9606C82.2729 43.9606 83.3458 39.3235 83.3458 38.1916C83.3458 37.0597 81.8029 36.4463 80.3949 37.1841" fill="#90CAF9"/>
<path d="M79.1197 40.6809L78.4473 46.8546L78.0447 46.9895V47.3246L77.6421 47.5248L77.4419 47.7946L68.1149 46.922C68.1149 46.922 65.9671 46.6543 65.5645 46.6543C65.1619 46.6543 63.619 46.4435 63.619 46.4435C63.619 46.4435 63.8298 47.0485 64.1565 47.1138C64.4832 47.1792 66.2369 47.7862 66.2369 47.7862C66.2369 47.7862 67.3772 48.389 68.1149 48.389C68.8527 48.389 69.993 48.4565 69.993 48.4565C69.993 48.4565 74.8915 49.7991 76.4344 50.0668C77.9773 50.3345 79.2525 50.9394 79.7899 50.7371C80.1199 50.6119 80.4177 50.4144 80.6613 50.1591C80.905 49.9038 81.0883 49.5971 81.1979 49.2616C81.4087 48.5239 82.2729 43.9606 82.2729 43.9606C82.2729 43.9606 83.3458 39.3235 83.3458 38.1916C83.3458 37.0597 81.8029 36.4463 80.3949 37.1841" stroke="#263238" strokeWidth="0.0752053" strokeLinecap="round" strokeLinejoin="round"/>
<path d="M77.6632 50.3535L76.9486 47.7462L68.1212 46.922C68.1212 46.922 65.9734 46.6544 65.5708 46.6544C65.1682 46.6544 63.6253 46.4436 63.6253 46.4436C63.6253 46.4436 63.8361 47.0485 64.1628 47.1139C64.4895 47.1792 66.2432 47.7862 66.2432 47.7862C66.2432 47.7862 67.3835 48.3891 68.1212 48.3891C68.859 48.3891 69.9993 48.4565 69.9993 48.4565C69.9993 48.4565 74.8977 49.7992 76.4406 50.0668C76.8727 50.1512 77.2838 50.2523 77.6632 50.3535Z" fill="white" stroke="#263238" strokeWidth="0.0752053" strokeLinecap="round" strokeLinejoin="round"/>
<path d="M78.6475 49.5652L78.8561 49.8729" stroke="#263238" strokeWidth="0.0752053" strokeLinecap="round" strokeLinejoin="round"/>
<path d="M77.4481 47.7946L78.3924 49.1879" stroke="#263238" strokeWidth="0.0752053" strokeLinecap="round" strokeLinejoin="round"/>
<path d="M78.051 47.3246L79.3936 48.2647" stroke="#263238" strokeWidth="0.0752053" strokeLinecap="round" strokeLinejoin="round"/>
<path d="M64.0342 46.5511C64.0633 46.6486 64.1199 46.7357 64.1973 46.8019C64.2747 46.8681 64.3696 46.9105 64.4705 46.9241C64.812 46.9536 65.8047 47.5122 65.8975 47.5122" stroke="#263238" strokeWidth="0.0752053" strokeLinecap="round" strokeLinejoin="round"/>
<path d="M65.1535 46.6438C65.3234 46.7976 65.5238 46.9139 65.7415 46.9853C66.143 47.1193 66.5371 47.2748 66.9219 47.4511" stroke="#263238" strokeWidth="0.0752053" strokeLinecap="round" strokeLinejoin="round"/>
<path d="M69.8707 47.2024C69.8707 47.2024 68.4838 46.7344 68.3699 46.7661C68.0428 46.8028 67.7121 46.7929 67.3877 46.7366C66.9219 46.6754 66.6416 47.2024 67.0146 47.3583C67.2721 47.4546 67.5493 47.4864 67.8219 47.4511C67.9463 47.4511 68.3172 47.5754 68.4121 47.5754" fill="white"/>
<path d="M69.8707 47.2024C69.8707 47.2024 68.4838 46.7344 68.3699 46.7661C68.0428 46.8028 67.7121 46.7929 67.3877 46.7366C66.9219 46.6754 66.6416 47.2024 67.0146 47.3583C67.2721 47.4546 67.5493 47.4864 67.8219 47.4511C67.9463 47.4511 68.3172 47.5754 68.4121 47.5754" stroke="#263238" strokeWidth="0.0752053" strokeLinecap="round" strokeLinejoin="round"/>
<path d="M58.9756 45.7648L72.0502 47.2361L72.008 46.785L58.8934 45.396L58.9756 45.7648Z" fill="white" stroke="#263238" strokeWidth="0.0752053" strokeLinecap="round" strokeLinejoin="round"/>
<path d="M58.8934 45.396L56.3177 38.6131L63.6738 39.2265L66.0851 46.2138L58.8934 45.396Z" fill="white" stroke="#263238" strokeWidth="0.0752053" strokeLinecap="round" strokeLinejoin="round"/>
<path d="M66.0851 46.2138V46.5637L72.0501 47.2361L72.008 46.785L66.0788 46.1569L66.0851 46.2138Z" fill="#263238" stroke="#263238" strokeWidth="0.0752053" strokeLinecap="round" strokeLinejoin="round"/>
</svg>
