<svg width="528" height="1098" viewBox="0 0 528 1098" fill="none" xmlns="http://www.w3.org/2000/svg">
<g opacity="0.16">
<path d="M134.412 686.289C60.7569 528.336 129.094 340.581 287.047 266.926C445 193.271 632.755 261.609 706.41 419.562C780.064 577.514 711.727 765.27 553.774 838.924C395.821 912.579 208.066 844.242 134.412 686.289Z" stroke="#707070" stroke-width="1.11507"/>
<path d="M192.611 811.097C119.087 653.424 187.528 465.895 345.482 392.24C503.436 318.585 691.085 386.697 764.609 544.37C838.133 702.043 769.692 889.572 611.738 963.227C453.784 1036.88 266.135 968.77 192.611 811.097Z" stroke="#707070" stroke-width="1.11507"/>
<path d="M476.589 678.676C403.064 521.003 471.506 333.474 629.46 259.819C787.414 186.164 975.063 254.276 1048.59 411.949C1122.11 569.622 1053.67 757.151 895.716 830.806C737.762 904.461 550.113 836.349 476.589 678.676Z" stroke="#707070" stroke-width="1.11507"/>
</g>
</svg>
