<svg width="90" height="90" viewBox="0 0 90 90" fill="none" xmlns="http://www.w3.org/2000/svg">
<path d="M42.2966 1.39282H38.4509C37.275 1.39282 36.3218 2.34683 36.3218 3.52366V7.37476C36.3218 8.55159 37.275 9.5056 38.4509 9.5056H42.2966C43.4725 9.5056 44.4257 8.55159 44.4257 7.37476V3.52366C44.4257 2.34683 43.4725 1.39282 42.2966 1.39282Z" fill="white"/>
<path d="M42.3048 9.50566C42.3048 9.50566 42.4073 9.50566 42.594 9.47076C42.8698 9.4335 43.1347 9.33837 43.3713 9.19157C43.75 8.96675 44.0484 8.62852 44.2246 8.22469C44.3321 7.97391 44.3912 7.70507 44.3989 7.4323C44.3989 7.1408 44.3989 6.83082 44.3989 6.50442C44.3989 5.85368 44.3989 5.14134 44.3989 4.37564C44.3989 4.18473 44.3989 3.98971 44.3989 3.79058C44.401 3.59197 44.3866 3.39353 44.3559 3.19732C44.3261 2.99744 44.2652 2.80348 44.1754 2.62252C44.0864 2.43391 43.968 2.26067 43.8246 2.10932C43.5282 1.79508 43.1421 1.58001 42.7191 1.49347C42.498 1.45885 42.2741 1.44511 42.0504 1.45241H38.4528C37.9775 1.45249 37.5166 1.6155 37.1468 1.9143C36.7769 2.21311 36.5205 2.62969 36.4202 3.09467C36.3808 3.32028 36.365 3.54938 36.373 3.77827V4.45981C36.373 4.91143 36.373 5.35279 36.373 5.78388C36.373 6.21497 36.373 6.63375 36.373 7.04226C36.3671 7.24085 36.3725 7.43962 36.3895 7.63758C36.4137 7.82633 36.462 8.01121 36.533 8.18774C36.6688 8.50963 36.8826 8.79254 37.1551 9.01084C37.4277 9.22913 37.7504 9.37593 38.0939 9.43791C38.3989 9.47231 38.706 9.48466 39.0128 9.47486H39.8332H41.1582H41.9971H42.2145C42.2391 9.47217 42.2638 9.47217 42.2884 9.47486H42.2145H41.9971L41.1582 9.48513H39.8332H39.0128C38.7021 9.49887 38.3907 9.48857 38.0816 9.45434C37.722 9.39435 37.3833 9.24485 37.0966 9.01957C36.8099 8.7943 36.5843 8.50049 36.4407 8.16516C36.3639 7.98134 36.3122 7.78801 36.2869 7.59037C36.2684 7.38564 36.2616 7.18003 36.2664 6.97452C36.2664 6.56395 36.2664 6.15339 36.2664 5.71614C36.2664 5.27888 36.2664 4.84368 36.2664 4.39206V3.77416C36.2568 3.53844 36.2726 3.30237 36.3136 3.07004C36.4174 2.58039 36.6862 2.1413 37.0749 1.82628C37.4636 1.51125 37.9486 1.33941 38.4487 1.33951H42.0422C42.2729 1.32992 42.5039 1.34506 42.7314 1.38467C43.1759 1.47784 43.5803 1.70747 43.8882 2.04157C44.0375 2.19968 44.1607 2.38053 44.2533 2.57736C44.3468 2.76747 44.4098 2.97115 44.4399 3.18089C44.4671 3.38498 44.4767 3.59101 44.4687 3.79674C44.4687 4.00202 44.4687 4.19088 44.4687 4.3818C44.4687 5.1475 44.4687 5.85983 44.4687 6.51058C44.4687 6.83698 44.4687 7.14696 44.4687 7.44051C44.4602 7.72397 44.3961 8.00299 44.28 8.26164C44.0914 8.67206 43.7775 9.01203 43.3836 9.23263C43.1406 9.37576 42.8701 9.466 42.5899 9.49745C42.4952 9.50793 42.3999 9.51067 42.3048 9.50566Z" fill="#263238"/>
<path d="M40.7256 5.40607C40.9042 5.32787 41.0559 5.19876 41.1616 5.03485C41.2674 4.87093 41.3226 4.67947 41.3204 4.48435C41.3263 4.35787 41.3065 4.23151 41.2623 4.1129C41.218 3.99429 41.1501 3.8859 41.0628 3.79429C40.9754 3.70269 40.8704 3.62977 40.7541 3.57995C40.6378 3.53013 40.5126 3.50444 40.3861 3.50444C40.2596 3.50444 40.1344 3.53013 40.0181 3.57995C39.9018 3.62977 39.7968 3.70269 39.7095 3.79429C39.6221 3.8859 39.5543 3.99429 39.51 4.1129C39.4657 4.23151 39.4459 4.35787 39.4519 4.48435C39.448 4.68086 39.5024 4.8741 39.6083 5.03963C39.7142 5.20516 39.8667 5.33554 40.0467 5.41429C38.6109 5.63189 38.6765 7.19409 38.6765 7.19409L42.0731 7.21051C42.0731 7.21051 42.1511 5.62162 40.7256 5.40607Z" fill="#455A64"/>
<path d="M42.0771 7.20646L38.6744 7.19209C38.6722 6.91157 38.7223 6.63311 38.8221 6.37096C38.9097 6.14043 39.0502 5.93371 39.2323 5.76742C39.4585 5.56875 39.7381 5.44098 40.0363 5.39997C39.8594 5.3192 39.7101 5.18821 39.6069 5.02326C39.5037 4.85831 39.4512 4.66665 39.4558 4.47209C39.4547 4.20995 39.5537 3.95728 39.7327 3.76592C39.8171 3.6777 39.9183 3.60735 40.0303 3.55904C40.1424 3.51073 40.263 3.48544 40.385 3.48468C40.642 3.49484 40.8845 3.60629 41.0597 3.79473C41.2349 3.98316 41.3286 4.23329 41.3203 4.49057C41.3228 4.68364 41.2693 4.8733 41.1663 5.03654C41.0633 5.19979 40.9151 5.3296 40.7398 5.41023C41.0364 5.45193 41.314 5.58049 41.5377 5.77974C41.7158 5.95133 41.8514 6.16223 41.9336 6.39559C42.0312 6.6581 42.0785 6.93667 42.073 7.21672L42.0771 7.20646ZM38.6805 7.17977L42.0689 7.19414C42.0699 6.91846 42.0227 6.64472 41.9294 6.38533C41.8478 6.15172 41.7121 5.94072 41.5336 5.76948C41.308 5.56698 41.0261 5.43809 40.7255 5.39997H40.707H40.7234C40.9011 5.32208 41.0519 5.1935 41.157 5.03029C41.262 4.86708 41.3167 4.67649 41.3141 4.48235C41.3235 4.22731 41.2314 3.97895 41.0579 3.79187C40.8845 3.60479 40.6439 3.4943 40.3891 3.48468C40.2665 3.48516 40.1453 3.51092 40.033 3.56037C39.9208 3.60982 39.82 3.68189 39.7368 3.77208C39.559 3.96153 39.4606 4.21212 39.462 4.47209C39.4558 4.66801 39.5083 4.86129 39.6129 5.02704C39.7175 5.19278 39.8692 5.32339 40.0486 5.40202H40.0671H40.0486C39.7445 5.43954 39.4587 5.56755 39.2282 5.76948C39.0462 5.93419 38.9057 6.13957 38.818 6.3689C38.7233 6.62858 38.6767 6.90337 38.6805 7.17977Z" fill="#263238"/>
<path d="M43.1212 35.9481H38.1534C36.9776 35.9481 36.0244 36.9021 36.0244 38.0789V43.0529C36.0244 44.2297 36.9776 45.1837 38.1534 45.1837H43.1212C44.297 45.1837 45.2502 44.2297 45.2502 43.0529V38.0789C45.2502 36.9021 44.297 35.9481 43.1212 35.9481Z" fill="white"/>
<path d="M43.1253 45.1837C43.1253 45.1837 43.2422 45.1837 43.4596 45.1427C43.8691 45.0736 44.2492 44.8853 44.5523 44.6012C44.8555 44.3172 45.0683 43.95 45.1641 43.5456C45.2209 43.2336 45.2395 42.9158 45.2195 42.5992C45.2195 42.2605 45.2195 41.9013 45.2195 41.5256C45.2195 40.7722 45.2195 39.949 45.2195 39.0622V38.3827C45.2288 38.1535 45.2164 37.924 45.1825 37.6971C45.0924 37.2147 44.8354 36.7795 44.4565 36.4679C44.0777 36.1563 43.6013 35.9882 43.111 35.9932H38.1678C37.8947 35.9935 37.6243 36.0476 37.3721 36.1525C37.1199 36.2573 36.8907 36.4109 36.6978 36.6044C36.5049 36.7978 36.3519 37.0275 36.2476 37.2801C36.1434 37.5328 36.0898 37.8035 36.0901 38.0768C36.0901 39.1607 36.0901 40.2056 36.0901 41.2013C36.0901 41.698 36.0901 42.1846 36.0901 42.6547C36.0826 42.8849 36.0909 43.1153 36.1147 43.3444C36.1426 43.5633 36.2078 43.7758 36.3075 43.9726C36.4951 44.3501 36.7917 44.6627 37.1587 44.8697C37.4992 45.0574 37.884 45.1496 38.2725 45.1365L41.8352 45.155L42.8033 45.1653H43.0556H43.1417C43.1131 45.1683 43.0842 45.1683 43.0556 45.1653H42.8033H41.8352L38.2725 45.1817C37.8701 45.1976 37.471 45.1039 37.1177 44.9107C36.7348 44.6974 36.4252 44.3733 36.2296 43.9808C36.1247 43.7757 36.0553 43.5543 36.0245 43.3259C35.9998 43.0928 35.9916 42.8582 35.9999 42.6239C35.9999 42.1538 35.9999 41.6672 35.9999 41.1705C35.9999 40.1748 35.9999 39.13 35.9999 38.0461C35.9993 37.7588 36.0554 37.4742 36.1648 37.2086C36.2742 36.943 36.4348 36.7016 36.6375 36.4982C36.8402 36.2948 37.0809 36.1333 37.346 36.0231C37.611 35.9128 37.8952 35.856 38.1822 35.8557H43.1253C43.6511 35.8543 44.1602 36.0406 44.5611 36.3812C44.9407 36.707 45.197 37.1534 45.2871 37.6458C45.3209 37.8781 45.3326 38.1132 45.322 38.3478V39.0232C45.322 39.908 45.322 40.7312 45.322 41.4866C45.322 41.8623 45.322 42.2215 45.322 42.5602C45.3388 42.882 45.316 43.2047 45.2543 43.521C45.1289 44.0282 44.8235 44.4726 44.3949 44.7711C44.1262 44.9574 43.818 45.079 43.4945 45.1263C43.4111 45.1399 43.3267 45.1461 43.2422 45.1447L43.1253 45.1837Z" fill="#263238"/>
<path d="M41.0394 40.5177C41.2422 40.4283 41.4143 40.2812 41.5343 40.0947C41.6543 39.9082 41.7168 39.6905 41.7142 39.4687C41.7232 39.3235 41.7024 39.178 41.6531 39.0411C41.6038 38.9043 41.527 38.779 41.4274 38.673C41.3279 38.5669 41.2077 38.4825 41.0743 38.4247C40.9409 38.367 40.7971 38.3372 40.6517 38.3372C40.5063 38.3372 40.3625 38.367 40.2291 38.4247C40.0957 38.4825 39.9755 38.5669 39.876 38.673C39.7764 38.779 39.6996 38.9043 39.6503 39.0411C39.601 39.178 39.5802 39.3235 39.5892 39.4687C39.5844 39.6925 39.6462 39.9127 39.7667 40.1013C39.8872 40.2899 40.0611 40.4384 40.2661 40.5279C38.6252 40.7743 38.7052 42.5541 38.7052 42.5541L42.5715 42.5726C42.5715 42.5726 42.6597 40.764 41.0394 40.5177Z" fill="#90CAF9"/>
<path d="M72.2671 47.2531C72.2958 47.2531 72.3204 48.2795 72.3204 49.5645C72.3204 50.8496 72.2958 51.876 72.2671 51.876C72.2384 51.876 72.2137 50.8496 72.2137 49.5645C72.2137 48.2795 72.2363 47.2531 72.2671 47.2531Z" fill="#263238"/>
<path d="M71.5534 56.8623H66.3518V62.0682H71.5534V56.8623Z" fill="#E0E0E0"/>
<path d="M78.2214 57.1784H72.864V57.6239H78.2214V57.1784Z" fill="#E0E0E0"/>
<path d="M78.2214 58.2069H72.864V58.6523H78.2214V58.2069Z" fill="#E0E0E0"/>
<path d="M78.2214 59.2374H72.864V59.6829H78.2214V59.2374Z" fill="#E0E0E0"/>
<path d="M78.2214 60.268H72.864V60.7134H78.2214V60.268Z" fill="#E0E0E0"/>
<path d="M78.2214 61.2964H72.864V61.7419H78.2214V61.2964Z" fill="#E0E0E0"/>
<path d="M66.4091 51.9683H77.7434C78.1269 51.9683 78.4947 52.1208 78.7658 52.3922C79.037 52.6636 79.1894 53.0317 79.1894 53.4156V55.4499H64.9836V53.3971C64.9857 53.0192 65.1365 52.6573 65.4033 52.3899C65.6702 52.1225 66.0315 51.971 66.4091 51.9683Z" fill="#E0E0E0"/>
<path d="M77.8645 64.4803C78.0371 64.4716 78.2069 64.4342 78.3671 64.3695C78.5592 64.287 78.7293 64.1604 78.8634 63.9999C79.0464 63.7815 79.1523 63.5088 79.1649 63.224C79.1649 61.9266 79.1649 60.0544 79.1526 57.7429C79.1526 56.5851 79.1526 55.3185 79.1526 53.9575C79.1526 53.7871 79.1526 53.6147 79.1526 53.4422C79.1622 53.272 79.1435 53.1014 79.0972 52.9373C79.021 52.6862 78.8703 52.4642 78.6652 52.3007C78.4601 52.1372 78.2102 52.0399 77.9486 52.0217C77.7722 52.0114 77.5815 52.0217 77.3969 52.0217H76.2647H66.317C66.1027 52.0203 65.8913 52.0718 65.7016 52.1716C65.5166 52.2725 65.3594 52.4178 65.2442 52.5944C65.1271 52.7688 65.0565 52.9702 65.0391 53.1795C65.0289 53.3848 65.0391 53.6106 65.0391 53.822V56.3634C65.0391 58.0283 65.0391 59.6356 65.0391 61.167V62.8545C65.0295 63.0341 65.0378 63.2143 65.0637 63.3923C65.0993 63.5614 65.1677 63.7219 65.2652 63.8646C65.3627 64.0072 65.4873 64.1293 65.6319 64.2237C65.7734 64.3158 65.9316 64.3793 66.0975 64.4105C66.2645 64.4353 66.4335 64.4436 66.6021 64.4351H70.3843L75.8627 64.4536L77.3518 64.4639H77.7394H77.8707C77.8707 64.4639 77.8256 64.4639 77.7394 64.4639H77.3518L75.8627 64.4742L70.3843 64.4906H66.6021C66.4281 64.4993 66.2537 64.4917 66.0811 64.468C65.8097 64.4153 65.5598 64.2838 65.3625 64.09C65.1651 63.8962 65.0292 63.6485 64.9715 63.3779C64.9437 63.1939 64.934 63.0076 64.9427 62.8216V62.2674C64.9427 61.8937 64.9427 61.516 64.9427 61.1342C64.9427 59.6028 64.9427 57.9954 64.9427 56.3306V53.822C64.9427 53.6167 64.9427 53.395 64.9427 53.1713C64.9603 52.9445 65.0343 52.7257 65.1581 52.5349C65.2837 52.344 65.4542 52.1869 65.6545 52.0771C65.8582 51.9702 66.0849 51.9146 66.3149 51.9149H76.2627H77.3948C77.5835 51.9149 77.762 51.9149 77.9527 51.9149C78.1421 51.9273 78.3267 51.9798 78.4942 52.0689C78.6575 52.1532 78.8024 52.2692 78.9204 52.4102C79.0384 52.5512 79.1271 52.7143 79.1813 52.89C79.2303 53.0628 79.2504 53.2424 79.2408 53.4217V53.937C79.2408 55.298 79.2408 56.5646 79.2408 57.7224C79.2408 60.038 79.2408 61.9102 79.2203 63.2055C79.2032 63.4982 79.0908 63.7772 78.9003 63.9999C78.7608 64.1618 78.5852 64.2884 78.3876 64.3695C78.2668 64.4173 78.1396 64.447 78.0102 64.4577L77.8645 64.4803Z" fill="#263238"/>
<path d="M72.866 51.9684C72.8664 52.0871 72.8316 52.2033 72.7659 52.3022C72.7002 52.4011 72.6067 52.4782 72.4972 52.5238C72.3877 52.5695 72.2671 52.5815 72.1507 52.5584C72.0344 52.5354 71.9275 52.4782 71.8436 52.3943C71.7597 52.3103 71.7026 52.2033 71.6796 52.0869C71.6565 51.9704 71.6686 51.8497 71.7141 51.7401C71.7597 51.6305 71.8368 51.5369 71.9356 51.4712C72.0344 51.4055 72.1505 51.3706 72.2691 51.371C72.4274 51.371 72.5792 51.4339 72.6912 51.546C72.8031 51.658 72.866 51.8099 72.866 51.9684Z" fill="#263238"/>
<path d="M48.9422 31.7213C48.8951 31.7243 48.8478 31.7243 48.8007 31.7213L48.3904 31.7316L46.8932 31.748L41.9521 31.7644H41.2383C41.1192 31.7684 41 31.7643 40.8814 31.7521C40.763 31.7354 40.6476 31.7015 40.5389 31.6515C40.3345 31.5538 40.1531 31.4138 40.0067 31.2408C39.8604 31.0677 39.7523 30.8656 39.6898 30.6477C39.6297 30.448 39.6 30.2404 39.6016 30.0318C39.6016 29.8266 39.6016 29.6418 39.6016 29.455C39.6016 29.0855 39.6016 28.7386 39.6159 28.4286C39.6159 27.8127 39.6364 27.2975 39.6426 26.93C39.6426 26.7617 39.6467 26.6248 39.6549 26.5195C39.6535 26.4719 39.6576 26.4244 39.6672 26.3778C39.6717 26.4249 39.6717 26.4723 39.6672 26.5195C39.6672 26.6221 39.6672 26.7589 39.6672 26.93C39.6672 27.2975 39.6672 27.8066 39.6672 28.4286C39.6672 28.7468 39.6672 29.0937 39.6672 29.4653C39.6672 29.8368 39.6241 30.2412 39.7554 30.6292C39.8153 30.8325 39.9171 31.021 40.0541 31.1826C40.1912 31.3441 40.3605 31.4752 40.5512 31.5674C40.6519 31.6117 40.7582 31.6421 40.8671 31.6577C40.9809 31.6691 41.0953 31.6732 41.2096 31.67H41.9234L46.8644 31.6844L48.3617 31.7008L48.7719 31.7111C48.8289 31.7069 48.8861 31.7104 48.9422 31.7213Z" fill="#263238"/>
<path d="M41.5952 12.8846H33.3519C32.176 12.8846 31.2228 13.8386 31.2228 15.0154V23.2657C31.2228 24.4425 32.176 25.3965 33.3519 25.3965H41.5952C42.771 25.3965 43.7242 24.4425 43.7242 23.2657V15.0154C43.7242 13.8386 42.771 12.8846 41.5952 12.8846Z" fill="white"/>
<path d="M41.5932 25.3945C41.7488 25.3824 41.9036 25.3611 42.0568 25.3309C42.495 25.2281 42.8893 24.9887 43.1828 24.6473C43.3951 24.4035 43.5469 24.1131 43.6258 23.7995C43.6969 23.4207 43.719 23.0343 43.6915 22.6499C43.6915 21.8164 43.6915 20.866 43.6915 19.819C43.6915 18.7721 43.6915 17.6205 43.6915 16.3867V15.4445C43.7095 15.1253 43.686 14.8051 43.6217 14.4919C43.5378 14.1713 43.3786 13.8754 43.1574 13.6286C42.9363 13.3819 42.6595 13.1916 42.3501 13.0734C42.1915 13.0106 42.0253 12.9692 41.8557 12.9503C41.6818 12.9354 41.5072 12.9299 41.3327 12.9338H33.352C32.9633 12.9365 32.5831 13.0482 32.2546 13.2561C32.0909 13.3569 31.943 13.4814 31.8157 13.6256C31.6864 13.7656 31.5785 13.924 31.4957 14.0957C31.4113 14.2659 31.3505 14.4469 31.3152 14.6336C31.2853 14.8202 31.273 15.0092 31.2783 15.1981V16.3415C31.2783 17.8504 31.2783 19.3079 31.2783 20.6956C31.2783 21.3894 31.2783 22.0648 31.2783 22.7217C31.2638 23.0426 31.2775 23.364 31.3193 23.6825C31.3829 23.9835 31.511 24.2672 31.6947 24.5138C31.8699 24.7473 32.0924 24.9411 32.3476 25.0826C32.6028 25.2241 32.8849 25.3101 33.1756 25.335C33.7396 25.3555 34.2934 25.335 34.8164 25.3493L39.7821 25.3658L41.1317 25.376H41.4825H41.6035H41.4825H41.1317L39.7821 25.3863L34.8164 25.4048C34.2914 25.4048 33.7458 25.415 33.1756 25.4048C32.8725 25.3791 32.5782 25.2894 32.3123 25.1415C32.0464 24.9935 31.8149 24.7908 31.6332 24.5467C31.4394 24.2899 31.3049 23.9934 31.2394 23.6783C31.1935 23.3548 31.1784 23.0276 31.1942 22.7012C31.1942 22.0443 31.1942 21.3689 31.1942 20.6751C31.1942 19.2873 31.1942 17.8298 31.1942 16.321V15.1776C31.1873 14.9818 31.1996 14.7859 31.2311 14.5925C31.2685 14.3968 31.332 14.2069 31.4198 14.028C31.5081 13.8481 31.6214 13.6815 31.7562 13.5333C31.8905 13.3823 32.0459 13.2516 32.2177 13.1453C32.5652 12.9277 32.9667 12.8118 33.3766 12.8107H41.343C41.5216 12.8066 41.7004 12.8128 41.8783 12.8291C42.0553 12.8503 42.229 12.8938 42.3952 12.9585C42.719 13.0825 43.0085 13.2824 43.2393 13.5413C43.4702 13.8002 43.6358 14.1107 43.7222 14.4468C43.7888 14.7672 43.8123 15.0952 43.792 15.4219V16.3641C43.792 17.5958 43.792 18.7454 43.792 19.7964C43.792 20.8475 43.792 21.7938 43.792 22.6273C43.8152 23.0163 43.789 23.4068 43.714 23.7892C43.6313 24.1094 43.4731 24.4051 43.2525 24.6514C42.9521 24.9966 42.5474 25.2344 42.0998 25.3288C41.9852 25.3543 41.8685 25.3687 41.7511 25.3719C41.6322 25.3966 41.5932 25.3945 41.5932 25.3945Z" fill="#263238"/>
<path d="M34.7918 21.6317H33.2145V22.8408H34.7918V21.6317Z" fill="#90CAF9"/>
<path d="M36.7874 18.8439H35.2101V22.8408H36.7874V18.8439Z" fill="#90CAF9"/>
<path d="M38.982 20.5642H37.4047V22.8387H38.982V20.5642Z" fill="#90CAF9"/>
<path d="M41.0763 17.6841H39.499V22.8387H41.0763V17.6841Z" fill="#90CAF9"/>
<path d="M33.8954 20.3856C33.7401 20.3856 33.5882 20.3395 33.459 20.2531C33.3298 20.1667 33.2291 20.0439 33.1697 19.9002C33.1102 19.7566 33.0946 19.5985 33.125 19.446C33.1553 19.2935 33.2301 19.1534 33.3399 19.0434C33.4498 18.9335 33.5898 18.8586 33.7422 18.8282C33.8946 18.7979 34.0525 18.8135 34.1961 18.873C34.3396 18.9325 34.4623 19.0333 34.5486 19.1626C34.6349 19.2918 34.681 19.4439 34.681 19.5994C34.681 19.8079 34.5982 20.0079 34.4509 20.1553C34.3036 20.3028 34.1038 20.3856 33.8954 20.3856ZM33.8954 19.0205C33.7805 19.0205 33.6682 19.0546 33.5727 19.1185C33.4772 19.1824 33.4028 19.2733 33.359 19.3796C33.3151 19.4858 33.3037 19.6028 33.3263 19.7155C33.3488 19.8283 33.4043 19.9318 33.4857 20.0129C33.5671 20.0941 33.6707 20.1493 33.7834 20.1714C33.8962 20.1936 34.013 20.1818 34.119 20.1376C34.225 20.0933 34.3155 20.0185 34.3791 19.9227C34.4426 19.8269 34.4763 19.7143 34.4759 19.5994C34.4753 19.4456 34.4139 19.2984 34.3051 19.1899C34.1964 19.0814 34.049 19.0205 33.8954 19.0205Z" fill="#90CAF9"/>
<path d="M36.1516 17.3967C35.9962 17.3967 35.8443 17.3505 35.7152 17.2642C35.586 17.1778 35.4853 17.055 35.4258 16.9113C35.3664 16.7676 35.3508 16.6095 35.3811 16.457C35.4114 16.3045 35.4863 16.1644 35.5961 16.0545C35.706 15.9445 35.846 15.8696 35.9983 15.8393C36.1507 15.809 36.3087 15.8245 36.4522 15.884C36.5958 15.9435 36.7184 16.0443 36.8048 16.1736C36.8911 16.3029 36.9372 16.4549 36.9372 16.6104C36.9366 16.8188 36.8537 17.0184 36.7065 17.1658C36.5593 17.3131 36.3598 17.3961 36.1516 17.3967ZM36.1516 16.0295C36.0368 16.0295 35.9246 16.0635 35.8291 16.1274C35.7337 16.1912 35.6593 16.2819 35.6153 16.3881C35.5714 16.4943 35.5599 16.6111 35.5823 16.7238C35.6047 16.8365 35.66 16.94 35.7411 17.0212C35.8223 17.1025 35.9258 17.1578 36.0384 17.1802C36.1509 17.2026 36.2677 17.1911 36.3737 17.1472C36.4798 17.1032 36.5704 17.0287 36.6342 16.9332C36.698 16.8376 36.732 16.7253 36.732 16.6104C36.732 16.5341 36.717 16.4586 36.6879 16.3881C36.6587 16.3176 36.6159 16.2536 36.562 16.1996C36.5081 16.1457 36.4441 16.1029 36.3737 16.0737C36.3033 16.0445 36.2278 16.0295 36.1516 16.0295Z" fill="#90CAF9"/>
<path d="M38.2027 19.2914C38.0473 19.2914 37.8954 19.2453 37.7662 19.1589C37.6371 19.0725 37.5364 18.9497 37.4769 18.8061C37.4175 18.6624 37.4019 18.5043 37.4322 18.3518C37.4625 18.1993 37.5373 18.0592 37.6472 17.9492C37.7571 17.8393 37.897 17.7644 38.0494 17.7341C38.2018 17.7037 38.3598 17.7193 38.5033 17.7788C38.6468 17.8383 38.7695 17.9391 38.8559 18.0684C38.9422 18.1977 38.9882 18.3497 38.9882 18.5052C38.9877 18.7136 38.9048 18.9132 38.7576 19.0606C38.6104 19.2079 38.4109 19.2909 38.2027 19.2914ZM38.2027 17.9263C38.0878 17.9263 37.9755 17.9604 37.88 18.0244C37.7845 18.0883 37.7101 18.1791 37.6662 18.2854C37.6223 18.3917 37.611 18.5086 37.6335 18.6213C37.6561 18.7341 37.7116 18.8376 37.793 18.9188C37.8743 18.9999 37.978 19.0551 38.0907 19.0773C38.2034 19.0995 38.3202 19.0877 38.4262 19.0434C38.5323 18.9991 38.6228 18.9243 38.6863 18.8285C38.7498 18.7327 38.7835 18.6202 38.7831 18.5052C38.7831 18.3511 38.722 18.2034 38.6131 18.0944C38.5043 17.9855 38.3566 17.9242 38.2027 17.9242V17.9263Z" fill="#90CAF9"/>
<path d="M40.3748 16.5448C40.2194 16.5448 40.0675 16.4987 39.9384 16.4123C39.8092 16.3259 39.7085 16.2031 39.649 16.0594C39.5896 15.9158 39.574 15.7577 39.6043 15.6052C39.6346 15.4526 39.7095 15.3125 39.8193 15.2026C39.9292 15.0926 40.0692 15.0177 40.2215 14.9874C40.3739 14.9571 40.5319 14.9726 40.6754 15.0322C40.819 15.0917 40.9417 15.1924 41.028 15.3217C41.1143 15.451 41.1604 15.603 41.1604 15.7585C41.1598 15.9669 41.0769 16.1666 40.9297 16.3139C40.7825 16.4612 40.583 16.5442 40.3748 16.5448ZM40.3748 15.1776C40.26 15.1776 40.1478 15.2117 40.0523 15.2755C39.9569 15.3393 39.8825 15.4301 39.8385 15.5362C39.7946 15.6424 39.7831 15.7592 39.8055 15.8719C39.8279 15.9846 39.8832 16.0881 39.9644 16.1693C40.0455 16.2506 40.149 16.3059 40.2616 16.3283C40.3742 16.3507 40.4909 16.3392 40.5969 16.2953C40.703 16.2513 40.7936 16.1768 40.8574 16.0813C40.9212 15.9858 40.9553 15.8734 40.9553 15.7585C40.9531 15.6059 40.891 15.4602 40.7824 15.353C40.6737 15.2459 40.5273 15.1858 40.3748 15.1858V15.1776Z" fill="#90CAF9"/>
<path d="M39.8276 16.1983L38.5609 18.0021L38.7287 18.1202L39.9954 16.3164L39.8276 16.1983Z" fill="#90CAF9"/>
<path d="M36.7526 17.091L36.6044 17.2329L37.5683 18.2418L37.7166 18.0999L36.7526 17.091Z" fill="#90CAF9"/>
<path d="M35.6141 17.1348L34.1929 18.9672L34.3549 19.0931L35.7761 17.2606L35.6141 17.1348Z" fill="#90CAF9"/>
<path d="M40.5082 25.5423C40.5086 25.6611 40.4738 25.7772 40.4081 25.8761C40.3425 25.975 40.2489 26.0522 40.1394 26.0978C40.0299 26.1434 39.9093 26.1554 39.7929 26.1324C39.6766 26.1093 39.5697 26.0522 39.4858 25.9682C39.4019 25.8843 39.3448 25.7773 39.3218 25.6608C39.2987 25.5443 39.3108 25.4237 39.3563 25.314C39.4019 25.2044 39.479 25.1108 39.5778 25.0451C39.6766 24.9794 39.7927 24.9445 39.9113 24.9449C40.0696 24.9449 40.2214 25.0079 40.3334 25.1199C40.4453 25.2319 40.5082 25.3839 40.5082 25.5423Z" fill="#263238"/>
<path d="M54.8903 22.5903C54.8616 22.5903 54.837 20.866 54.837 18.7392C54.837 16.6125 54.8616 14.8881 54.8903 14.8881C54.919 14.8881 54.9436 16.6125 54.9436 18.7392C54.9436 20.866 54.919 22.5903 54.8903 22.5903Z" fill="#263238"/>
<path d="M58.6584 2.33531H50.4151C49.2393 2.33531 48.2861 3.28932 48.2861 4.46615V12.7165C48.2861 13.8933 49.2393 14.8473 50.4151 14.8473H58.6584C59.8342 14.8473 60.7874 13.8933 60.7874 12.7165V4.46615C60.7874 3.28932 59.8342 2.33531 58.6584 2.33531Z" fill="white"/>
<path d="M58.6561 14.8451C58.8132 14.8311 58.9694 14.8078 59.1237 14.7753C59.5619 14.6725 59.9562 14.4331 60.2498 14.0917C60.4621 13.8479 60.6139 13.5574 60.6928 13.2439C60.7649 12.8694 60.789 12.4872 60.7646 12.1066C60.7646 11.2731 60.7646 10.3227 60.7646 9.27574C60.7646 8.2288 60.7646 7.07716 60.7646 5.84341V4.89501C60.7826 4.57582 60.7592 4.25564 60.6949 3.9425C60.6107 3.6217 60.4515 3.32556 60.2304 3.07855C60.0093 2.83153 59.7326 2.64074 59.4232 2.52194C59.2642 2.46071 59.0981 2.42001 58.9289 2.40082C58.755 2.38494 58.5804 2.37945 58.4058 2.3844H50.4148C50.0252 2.3851 49.6435 2.49535 49.3134 2.70259C49.1473 2.80349 48.9973 2.92874 48.8683 3.07415C48.739 3.21411 48.6311 3.37254 48.5483 3.54425C48.4639 3.71441 48.4031 3.89538 48.3679 4.08209C48.3379 4.2687 48.3256 4.4577 48.3309 4.64662V5.79004C48.3309 7.29887 48.3309 8.75638 48.3309 10.1441C48.3309 10.8359 48.3309 11.5133 48.3309 12.1702C48.3164 12.4904 48.3301 12.8112 48.372 13.1289C48.4351 13.4307 48.5632 13.7151 48.7473 13.9623C48.9229 14.1954 49.1455 14.3889 49.4006 14.5304C49.6557 14.6718 49.9377 14.7581 50.2282 14.7835C50.7922 14.804 51.346 14.7835 51.8691 14.7978L56.8347 14.8143L58.1843 14.8245H58.5351H58.6561H58.5351H58.1843H56.8347L51.8691 14.841C51.344 14.841 50.7984 14.8533 50.2282 14.841C49.7632 14.7989 49.324 14.6084 48.9754 14.2975C48.6268 13.9867 48.3872 13.572 48.292 13.1145C48.2462 12.791 48.231 12.4638 48.2468 12.1374C48.2468 11.4805 48.2468 10.803 48.2468 10.1112C48.2468 8.72353 48.2468 7.26602 48.2468 5.7572V4.64867C48.2399 4.45291 48.2523 4.25694 48.2838 4.06361C48.3212 3.86784 48.3846 3.67797 48.4725 3.49908C48.5608 3.31915 48.674 3.15259 48.8088 3.00435C48.9431 2.85337 49.0986 2.72268 49.2703 2.61637C49.6179 2.3988 50.0193 2.28289 50.4292 2.28176H58.3956C58.5742 2.27773 58.753 2.2839 58.9309 2.30023C59.108 2.32143 59.2816 2.36488 59.4478 2.42956C59.7699 2.55516 60.0575 2.75592 60.2865 3.01513C60.5156 3.27435 60.6795 3.58454 60.7646 3.91991C60.8312 4.24038 60.8546 4.56832 60.8343 4.89501V5.83726C60.8343 7.06895 60.8343 8.21854 60.8343 9.26958C60.8343 10.3206 60.8343 11.267 60.8343 12.1004C60.8575 12.4895 60.8313 12.8799 60.7564 13.2623C60.6737 13.5825 60.5154 13.8782 60.2949 14.1245C59.9944 14.4697 59.5898 14.7075 59.1422 14.802C59.0276 14.8274 58.9108 14.8418 58.7935 14.8451H58.6561Z" fill="#263238"/>
<path d="M55.4769 14.845C55.4769 14.9631 55.4419 15.0786 55.3763 15.1769C55.3107 15.2751 55.2175 15.3517 55.1084 15.3969C54.9994 15.4421 54.8793 15.4539 54.7636 15.4309C54.6478 15.4078 54.5414 15.3509 54.458 15.2674C54.3745 15.1839 54.3176 15.0774 54.2946 14.9615C54.2716 14.8457 54.2834 14.7255 54.3286 14.6164C54.3738 14.5072 54.4503 14.4139 54.5484 14.3483C54.6466 14.2827 54.762 14.2476 54.88 14.2476C55.0383 14.2476 55.1901 14.3106 55.3021 14.4226C55.414 14.5346 55.4769 14.6866 55.4769 14.845Z" fill="#263238"/>
<path d="M54.0637 10.1872C53.7328 10.1899 53.4053 10.1205 53.1039 9.98371C52.8025 9.84695 52.5345 9.64614 52.3185 9.39524C52.1025 9.14434 51.9437 8.84936 51.8531 8.53082C51.7626 8.21228 51.7424 7.87782 51.794 7.55068C51.8457 7.22355 51.9679 6.9116 52.1521 6.63651C52.3364 6.36143 52.5783 6.12981 52.8611 5.95775C53.1438 5.7857 53.4606 5.67735 53.7894 5.64023C54.1183 5.6031 54.4512 5.6381 54.7652 5.74279C55.0504 5.83454 55.3148 5.98175 55.5431 6.17597C55.7714 6.3702 55.9592 6.60762 56.0956 6.87462C56.232 7.14162 56.3145 7.43295 56.3382 7.7319C56.3619 8.03086 56.3264 8.33155 56.2337 8.61675C56.0834 9.0739 55.7926 9.47186 55.4029 9.75386C55.0133 10.0359 54.5446 10.1875 54.0637 10.1872ZM54.0637 6.03429C53.719 6.03433 53.381 6.12981 53.0871 6.31018C52.7932 6.49054 52.5549 6.74876 52.3986 7.05626C52.2422 7.36376 52.1739 7.70855 52.2012 8.05249C52.2285 8.39643 52.3503 8.72611 52.5532 9.00505C52.7561 9.28399 53.0321 9.50132 53.3508 9.633C53.6694 9.76467 54.0182 9.80555 54.3587 9.75113C54.6991 9.6967 55.0178 9.54908 55.2796 9.3246C55.5414 9.10012 55.736 8.80753 55.842 8.47921C55.9937 8.0069 55.9519 7.49363 55.7257 7.05215C55.4996 6.61066 55.1076 6.27706 54.6359 6.12461C54.4518 6.06476 54.2594 6.03428 54.0657 6.03429H54.0637Z" fill="#263238"/>
<path d="M57.0727 11.5564C57.0444 11.556 57.0165 11.5498 56.9907 11.5382C56.965 11.5265 56.9419 11.5096 56.9229 11.4886L55.2267 9.64313C55.194 9.60252 55.178 9.55098 55.1818 9.49897C55.1857 9.44696 55.2093 9.39839 55.2476 9.36311C55.286 9.32783 55.3364 9.30849 55.3885 9.30903C55.4406 9.30957 55.4906 9.32994 55.5282 9.366L57.2224 11.2135C57.259 11.2536 57.2783 11.3066 57.276 11.3608C57.2736 11.4151 57.25 11.4662 57.2101 11.503C57.1725 11.5372 57.1235 11.5562 57.0727 11.5564Z" fill="#263238"/>
<path d="M74.0905 6.62762H65.8472C64.6713 6.62762 63.7181 7.58163 63.7181 8.75846V17.0088C63.7181 18.1856 64.6713 19.1396 65.8472 19.1396H74.0905C75.2663 19.1396 76.2195 18.1856 76.2195 17.0088V8.75846C76.2195 7.58163 75.2663 6.62762 74.0905 6.62762Z" fill="white"/>
<path d="M74.0965 19.1396C74.2529 19.1275 74.4083 19.1063 74.5621 19.0759C75.0003 18.9732 75.3946 18.7338 75.6882 18.3923C75.9003 18.1477 76.052 17.8566 76.1312 17.5425C76.2013 17.1642 76.2233 16.7787 76.1968 16.3949C76.1968 15.5594 76.1968 14.611 76.1968 13.562C76.1968 12.513 76.1968 11.3635 76.1968 10.1318V9.18951C76.2152 8.87022 76.1911 8.54991 76.1251 8.237C76.0421 7.91599 75.8835 7.61953 75.6626 7.3724C75.4418 7.12526 75.165 6.93463 74.8554 6.81644C74.6963 6.75569 74.5303 6.715 74.3611 6.69532C74.1873 6.67845 74.0126 6.67296 73.8381 6.6789H65.8491C65.4594 6.68109 65.078 6.79199 64.7477 6.99914C64.584 7.09917 64.4361 7.22301 64.3088 7.3666C64.1792 7.50713 64.0713 7.66628 63.9888 7.83875C63.9037 8.00795 63.843 8.18833 63.8083 8.37454C63.7785 8.56184 63.7661 8.75152 63.7714 8.94112V10.0845C63.7714 11.5934 63.7714 13.0488 63.7714 14.4365C63.7714 15.1304 63.7714 15.8078 63.7714 16.4647C63.7558 16.7849 63.7696 17.1058 63.8124 17.4234C63.8756 17.7252 64.0037 18.0096 64.1878 18.2569C64.3631 18.4897 64.5854 18.683 64.8401 18.8245C65.0949 18.9659 65.3764 19.0523 65.6666 19.078C66.2327 19.0985 66.7865 19.078 67.3075 19.0924L72.2731 19.1088L73.6227 19.119H73.9735C74.0535 19.119 74.0924 19.119 74.0924 19.119C74.0924 19.119 74.0535 19.119 73.9735 19.119H73.6227L72.2731 19.1293L67.3075 19.1457C66.7824 19.1457 66.2368 19.158 65.6666 19.1457C65.3635 19.1198 65.0694 19.03 64.8035 18.8821C64.5377 18.7342 64.3062 18.5316 64.1242 18.2876C63.9301 18.0308 63.795 17.7343 63.7283 17.4193C63.6845 17.0955 63.6694 16.7686 63.6832 16.4422C63.6832 15.7852 63.6832 15.1078 63.6832 14.414C63.6832 13.0262 63.6832 11.5708 63.6832 10.062V8.94317C63.6763 8.74741 63.6886 8.55144 63.7201 8.35811C63.7575 8.16234 63.821 7.97247 63.9088 7.79359C63.9971 7.61365 64.1104 7.44709 64.2452 7.29886C64.3795 7.14787 64.5349 7.01718 64.7067 6.91087C65.0541 6.69268 65.4555 6.57607 65.8656 6.57421H73.832C74.0106 6.57051 74.1892 6.57599 74.3673 6.59063C74.5441 6.61281 74.7177 6.65623 74.8842 6.71996C75.2042 6.84682 75.4897 7.04758 75.7175 7.30586C75.9452 7.56415 76.1088 7.87264 76.1948 8.2062C76.2613 8.52738 76.2847 8.85598 76.2645 9.18335C76.2645 9.50154 76.2645 9.81562 76.2645 10.1256C76.2645 11.3573 76.2645 12.5069 76.2645 13.5559C76.2645 14.6049 76.2645 15.5533 76.2645 16.3888C76.2894 16.7777 76.2639 17.1683 76.1886 17.5507C76.087 17.931 75.8826 18.276 75.5978 18.5476C75.313 18.8192 74.9589 19.007 74.5744 19.0903C74.4597 19.1146 74.343 19.129 74.2258 19.1334C74.1294 19.1416 74.0965 19.1396 74.0965 19.1396Z" fill="#263238"/>
<path d="M70.7226 19.2279C70.723 19.3465 70.6882 19.4626 70.6227 19.5614C70.5571 19.6603 70.4637 19.7374 70.3543 19.7831C70.2449 19.8288 70.1244 19.841 70.0081 19.8181C69.8918 19.7952 69.7849 19.7383 69.7009 19.6545C69.617 19.5708 69.5597 19.464 69.5364 19.3476C69.5132 19.2313 69.5249 19.1107 69.5702 19.001C69.6154 18.8914 69.6922 18.7976 69.7907 18.7317C69.8893 18.6657 70.0052 18.6305 70.1237 18.6305C70.2822 18.6305 70.4342 18.6934 70.5465 18.8053C70.6587 18.9173 70.7221 19.0692 70.7226 19.2279Z" fill="#263238"/>
<path d="M74.6955 13.3773C75.0093 14.4777 74.2853 15.5533 73.1675 15.5533H67.2439C67.0166 15.5544 66.7921 15.503 66.5879 15.4032C66.3836 15.3033 66.2051 15.1577 66.0662 14.9776C65.9273 14.7975 65.8318 14.5877 65.7871 14.3647C65.7423 14.1416 65.7495 13.9112 65.8082 13.6914C65.8219 13.6424 65.839 13.5944 65.8595 13.5477C65.998 13.2254 66.2408 12.9591 66.5488 12.7916C66.8568 12.624 67.2122 12.565 67.5577 12.624C67.631 12.0212 67.9056 11.4609 68.3369 11.034C68.7683 10.6071 69.3311 10.3386 69.9341 10.272C70.5371 10.2054 71.1449 10.3448 71.6588 10.6674C72.1728 10.99 72.5627 11.4769 72.7654 12.0492C72.7654 12.0492 74.3017 11.967 74.6955 13.3773Z" fill="#90CAF9"/>
<path d="M69.6847 16.6044V14.3298H68.7946C68.7708 14.3298 68.7474 14.3233 68.7271 14.3108C68.7068 14.2983 68.6903 14.2805 68.6795 14.2593C68.6686 14.238 68.6639 14.2142 68.6657 14.1904C68.6676 14.1667 68.676 14.1439 68.69 14.1246L70.1565 12.0533C70.1683 12.0371 70.1838 12.024 70.2016 12.015C70.2194 12.0059 70.2391 12.0012 70.2591 12.0012C70.279 12.0012 70.2987 12.0059 70.3165 12.015C70.3344 12.024 70.3498 12.0371 70.3616 12.0533L71.8261 14.1061C71.8401 14.1254 71.8485 14.1482 71.8503 14.172C71.8522 14.1957 71.8474 14.2196 71.8366 14.2408C71.8258 14.262 71.8093 14.2799 71.789 14.2923C71.7687 14.3048 71.7453 14.3114 71.7215 14.3114H70.8539V16.6023L69.6847 16.6044Z" fill="white"/>
<path d="M87.6871 21.7365H79.4438C78.268 21.7365 77.3148 22.6905 77.3148 23.8673V32.1176C77.3148 33.2945 78.268 34.2485 79.4438 34.2485H87.6871C88.863 34.2485 89.8162 33.2945 89.8162 32.1176V23.8673C89.8162 22.6905 88.863 21.7365 87.6871 21.7365Z" fill="white"/>
<path d="M87.685 34.2464C87.8408 34.2355 87.9957 34.2143 88.1486 34.1827C88.5868 34.08 88.9811 33.8406 89.2746 33.4991C89.4869 33.2554 89.6387 32.9649 89.7176 32.6513C89.7887 32.2725 89.8108 31.8861 89.7833 31.5017C89.7833 30.6683 89.7833 29.7199 89.7833 28.6709C89.7833 27.6219 89.7833 26.4723 89.7833 25.2385V24.2983C89.8013 23.9785 89.7779 23.6576 89.7135 23.3438C89.6296 23.0232 89.4704 22.7272 89.2492 22.4805C89.0281 22.2338 88.7513 22.0434 88.4419 21.9253C88.2833 21.8624 88.1171 21.821 87.9476 21.8021C87.7736 21.7872 87.599 21.7818 87.4245 21.7857H79.4438C79.0541 21.7864 78.6725 21.8966 78.3423 22.1039C78.179 22.2053 78.0312 22.3297 77.9034 22.4734C77.7741 22.6133 77.6662 22.7718 77.5834 22.9435C77.4993 23.1138 77.4386 23.2947 77.4029 23.4813C77.373 23.6686 77.3607 23.8583 77.366 24.0479V25.1893C77.366 26.6981 77.366 28.1556 77.366 29.5433C77.366 30.2372 77.366 30.9126 77.366 31.5695C77.3515 31.8903 77.3652 32.2118 77.4071 32.5302C77.4702 32.8314 77.5983 33.1151 77.7824 33.3616C77.9571 33.5964 78.1793 33.7918 78.4344 33.9351C78.6895 34.0783 78.972 34.1662 79.2633 34.193C79.8273 34.2115 80.3811 34.193 80.9041 34.2053L85.8698 34.2217L87.2194 34.232H87.5702C87.6502 34.232 87.6912 34.232 87.6912 34.232H87.5702H87.2194H85.8698L80.9041 34.2505C80.3791 34.2505 79.8335 34.2628 79.2633 34.2505C78.7982 34.2076 78.3592 34.0166 78.0107 33.7055C77.6621 33.3943 77.4225 32.9795 77.3271 32.522C77.2813 32.1984 77.2661 31.8712 77.2819 31.5448C77.2819 30.8879 77.2819 30.2125 77.2819 29.5187C77.2819 28.131 77.2819 26.6735 77.2819 25.1646V24.0233C77.2749 23.8268 77.2873 23.6302 77.3189 23.4362C77.3563 23.2404 77.4197 23.0505 77.5076 22.8716C77.5958 22.6917 77.7091 22.5251 77.8439 22.3769C77.9782 22.2259 78.1337 22.0952 78.3054 21.9889C78.653 21.7713 79.0544 21.6554 79.4643 21.6543H87.4307C87.6093 21.6503 87.7881 21.6564 87.966 21.6728C88.1431 21.694 88.3167 21.7374 88.4829 21.8021C88.8067 21.9262 89.0962 22.126 89.327 22.3849C89.5579 22.6438 89.7235 22.9543 89.8099 23.2904C89.8766 23.6116 89.9001 23.9402 89.8797 24.2676V25.2447C89.8797 26.4764 89.8797 27.626 89.8797 28.677C89.8797 29.7281 89.8797 30.6744 89.8797 31.5079C89.903 31.8969 89.8768 32.2873 89.8017 32.6698C89.719 32.99 89.5608 33.2857 89.3402 33.532C89.0392 33.8769 88.6349 34.1152 88.1875 34.2114C88.0727 34.2354 87.9561 34.2491 87.8389 34.2525C87.724 34.2484 87.685 34.2464 87.685 34.2464Z" fill="#263238"/>
<path d="M83.7244 31.7913C82.9722 31.7917 82.2367 31.5688 81.611 31.1507C80.9853 30.7327 80.4976 30.1383 80.2095 29.4427C79.9215 28.7472 79.846 27.9818 79.9926 27.2433C80.1393 26.5049 80.5015 25.8265 81.0335 25.2941C81.5654 24.7617 82.2432 24.3992 82.981 24.2524C83.7189 24.1056 84.4836 24.1812 85.1786 24.4695C85.8735 24.7578 86.4674 25.2459 86.8851 25.8721C87.3028 26.4983 87.5255 27.2345 87.5251 27.9874C87.5235 28.9957 87.1225 29.9623 86.4101 30.6753C85.6977 31.3884 84.7319 31.7896 83.7244 31.7913ZM83.7244 24.3867C83.0128 24.3863 82.317 24.5971 81.7252 24.9925C81.1333 25.3879 80.6718 25.9501 80.3992 26.608C80.1266 27.2659 80.0551 27.99 80.1937 28.6886C80.3322 29.3872 80.6747 30.0289 81.1778 30.5327C81.6808 31.0365 82.3218 31.3796 83.0198 31.5187C83.7177 31.6578 84.4412 31.5866 85.0986 31.3142C85.7561 31.0417 86.3181 30.5802 86.7135 29.988C87.1089 29.3958 87.32 28.6996 87.32 27.9874C87.3189 27.0331 86.9398 26.1182 86.2658 25.4433C85.5918 24.7683 84.6779 24.3884 83.7244 24.3867Z" fill="#90CAF9"/>
<path d="M83.6096 31.779C83.2318 31.5425 82.9014 31.2376 82.6354 30.8798C81.9965 30.028 81.6809 28.9767 81.7452 27.9135C81.7554 26.8585 82.1227 25.8381 82.7871 25.019C83.0577 24.6859 83.389 24.4073 83.7634 24.1979L83.8537 24.3826C83.8352 24.3826 82.0467 25.3085 81.9503 27.9238C81.8539 30.5391 83.6917 31.5942 83.7101 31.6045L83.6096 31.779Z" fill="#90CAF9"/>
<path d="M83.7777 31.7769L83.6711 31.6024C83.6875 31.5901 85.4678 30.4549 85.3714 27.8375C85.275 25.2202 83.5624 24.3847 83.546 24.3765L83.6321 24.1917C83.708 24.2266 85.4781 25.0867 85.5765 27.8314C85.675 30.576 83.7962 31.7646 83.7777 31.7769Z" fill="#90CAF9"/>
<path d="M83.7736 26.7803C82.2353 26.7803 81.2426 26.2568 80.6806 25.8175L80.8078 25.6554C81.3431 26.0762 82.2928 26.575 83.7736 26.575C85.2094 26.575 86.116 26.0782 86.6267 25.6615L86.7559 25.8196C86.2206 26.2589 85.2689 26.7803 83.7736 26.7803Z" fill="#90CAF9"/>
<path d="M86.635 30.2044C86.0996 29.7939 85.15 29.3135 83.667 29.3135C82.2313 29.3135 81.3247 29.7939 80.814 30.2003L80.6868 30.0382C81.2222 29.6132 82.1739 29.1082 83.667 29.1082C85.2074 29.1082 86.1981 29.6153 86.7601 30.0402L86.635 30.2044Z" fill="#90CAF9"/>
<path d="M87.4266 27.895H80.1166V28.1003H87.4266V27.895Z" fill="#90CAF9"/>
<path d="M77.8665 28.246C77.8665 28.3647 77.8313 28.4807 77.7654 28.5793C77.6995 28.6779 77.6058 28.7547 77.4963 28.8C77.3867 28.8453 77.2662 28.8571 77.15 28.8338C77.0337 28.8105 76.927 28.7532 76.8433 28.6692C76.7597 28.5851 76.7028 28.4781 76.6799 28.3617C76.657 28.2453 76.6692 28.1247 76.7148 28.0152C76.7605 27.9057 76.8376 27.8123 76.9363 27.7466C77.0351 27.681 77.1511 27.6462 77.2696 27.6466C77.3482 27.6466 77.4259 27.6621 77.4985 27.6923C77.571 27.7224 77.6369 27.7666 77.6924 27.8223C77.7478 27.878 77.7918 27.9441 77.8216 28.0168C77.8515 28.0895 77.8667 28.1674 77.8665 28.246Z" fill="#263238"/>
<path d="M77.6041 28.246C77.6041 28.2748 76.1847 28.2994 74.4352 28.2994C72.6856 28.2994 71.2662 28.2748 71.2662 28.246C71.2662 28.2173 72.6856 28.1927 74.4352 28.1927C76.1847 28.1927 77.6041 28.2152 77.6041 28.246Z" fill="#263238"/>
<path d="M85.2382 38.0196H80.2704C79.0946 38.0196 78.1414 38.9736 78.1414 40.1505V45.1224C78.1414 46.2992 79.0946 47.2532 80.2704 47.2532H85.2382C86.414 47.2532 87.3672 46.2992 87.3672 45.1224V40.1505C87.3672 38.9736 86.414 38.0196 85.2382 38.0196Z" fill="white"/>
<path d="M85.238 47.2531C85.238 47.2531 85.357 47.2531 85.5723 47.2141C85.8894 47.159 86.19 47.0334 86.4522 46.8467C86.8641 46.5476 87.1552 46.1106 87.2727 45.615C87.3294 45.3029 87.348 44.9852 87.3281 44.6686C87.3281 44.3299 87.3281 43.9707 87.3281 43.595C87.3281 42.8416 87.3281 42.0164 87.3281 41.1316V40.4562C87.3377 40.2269 87.3246 39.9973 87.2891 39.7706C87.2029 39.3003 86.9564 38.8744 86.5917 38.5656C86.2084 38.241 85.7216 38.0647 85.2195 38.0688H80.2764C80.003 38.0691 79.7322 38.1233 79.4797 38.2284C79.2272 38.3335 78.9979 38.4874 78.8049 38.6814C78.612 38.8753 78.4591 39.1054 78.355 39.3585C78.251 39.6116 78.1979 39.8828 78.1987 40.1565C78.1987 41.2384 78.1987 42.2832 78.1987 43.2789C78.1987 43.7784 78.1987 44.2635 78.1987 44.7343C78.1906 44.9638 78.1981 45.1936 78.2212 45.422C78.2508 45.6408 78.3167 45.8531 78.4161 46.0502C78.6024 46.428 78.8984 46.7406 79.2653 46.9473C79.6064 47.1354 79.9918 47.2283 80.381 47.2162L83.9438 47.2326L84.9119 47.2429H85.1642H85.2483C85.2203 47.2455 85.1921 47.2455 85.1642 47.2429H84.9119H83.9438L80.381 47.2613C79.9787 47.2751 79.58 47.1808 79.2263 46.9883C78.8433 46.7754 78.5332 46.4521 78.3361 46.0604C78.2324 45.8549 78.1631 45.6336 78.131 45.4056C78.1068 45.1724 78.0979 44.9379 78.1043 44.7035C78.1043 44.2314 78.1043 43.7462 78.1043 43.2481C78.1043 42.2524 78.1043 41.2076 78.1043 40.1257C78.1129 39.5544 78.3446 39.0092 78.7498 38.6067C79.155 38.2043 79.7015 37.9765 80.2723 37.9723H85.2154C85.7409 37.9707 86.2499 38.1562 86.6512 38.4958C87.0319 38.8207 87.2884 39.2675 87.3773 39.7603C87.4128 39.9925 87.4251 40.2277 87.4142 40.4624C87.4142 40.6923 87.4142 40.9161 87.4142 41.1378C87.4142 42.0225 87.4142 42.8478 87.4142 43.6012C87.4142 43.9768 87.4142 44.3361 87.4142 44.6748C87.4326 44.9958 87.4106 45.3179 87.3486 45.6335C87.2231 46.1413 86.9177 46.5862 86.4892 46.8857C86.2207 47.0721 85.9123 47.1931 85.5887 47.2388C85.5053 47.2518 85.4209 47.2587 85.3365 47.2593C85.3035 47.2601 85.2706 47.2581 85.238 47.2531Z" fill="#263238"/>
<path d="M80.494 44.2374C80.9525 44.5317 81.4831 44.6941 82.0277 44.7068C82.5723 44.7195 83.1099 44.5821 83.5817 44.3095C84.0535 44.037 84.4413 43.6398 84.7027 43.1615C84.9641 42.6832 85.089 42.1421 85.0638 41.5975C85.2671 41.447 85.4427 41.2622 85.5827 41.0515C85.3919 41.1365 85.1892 41.1919 84.9817 41.2157C85.1999 41.0857 85.3632 40.8806 85.4412 40.6388C85.2362 40.7599 85.0122 40.8453 84.7787 40.8913C84.621 40.7239 84.4126 40.613 84.1857 40.576C83.9588 40.5389 83.726 40.5778 83.5233 40.6864C83.3207 40.7951 83.1594 40.9675 83.0645 41.1771C82.9696 41.3867 82.9464 41.6217 82.9983 41.8459C82.5832 41.8252 82.1771 41.7172 81.8064 41.529C81.4357 41.3409 81.1087 41.0767 80.8467 40.7538C80.7126 40.9837 80.6712 41.2563 80.7311 41.5157C80.7909 41.7751 80.9475 42.0019 81.1688 42.1497C81.0027 42.1436 80.8405 42.0986 80.695 42.0183C80.6928 42.262 80.7753 42.4987 80.9284 42.6882C81.0814 42.8777 81.2954 43.0081 81.5339 43.0571C81.3799 43.0987 81.2185 43.1043 81.0621 43.0735C81.1285 43.2816 81.2584 43.4636 81.4336 43.5939C81.6087 43.7242 81.8202 43.7964 82.0384 43.8002C81.6018 44.145 81.0463 44.3023 80.494 44.2374Z" fill="#455A64"/>
<path d="M74.9705 46.7502L72.2938 37.3195H48.891L45.841 46.7194C45.7979 46.8505 45.7862 46.9898 45.8068 47.1262C45.8274 47.2626 45.8797 47.3922 45.9595 47.5047C46.0394 47.6171 46.1445 47.7093 46.2664 47.7736C46.3883 47.838 46.5236 47.8727 46.6614 47.8752H57.3517L57.7845 47.442H62.8322L63.2649 47.8752H74.1357C74.2713 47.8739 74.4048 47.8413 74.5258 47.7797C74.6467 47.7182 74.7517 47.6294 74.8326 47.5204C74.9135 47.4115 74.968 47.2852 74.9919 47.1515C75.0158 47.0179 75.0085 46.8805 74.9705 46.7502Z" fill="#E0E0E0"/>
<g opacity="0.3">
<path d="M74.9705 46.7502L72.2938 37.3195H48.891L45.841 46.7194C45.7979 46.8505 45.7862 46.9898 45.8068 47.1262C45.8274 47.2626 45.8797 47.3922 45.9595 47.5047C46.0394 47.6171 46.1445 47.7093 46.2664 47.7736C46.3883 47.838 46.5236 47.8727 46.6614 47.8752H57.3517L57.7845 47.442H62.8322L63.2649 47.8752H74.1357C74.2713 47.8739 74.4048 47.8413 74.5258 47.7797C74.6467 47.7182 74.7517 47.6294 74.8326 47.5204C74.9135 47.4115 74.968 47.2852 74.9919 47.1515C75.0158 47.0179 75.0085 46.8805 74.9705 46.7502Z" fill="black"/>
</g>
<path d="M48.8806 37.0751V23.237C48.8801 23.1069 48.9052 22.9779 48.9545 22.8576C49.0038 22.7372 49.0764 22.6277 49.168 22.5354C49.2596 22.4431 49.3686 22.3698 49.4885 22.3197C49.6085 22.2696 49.7372 22.2437 49.8672 22.2434H71.3728C71.5028 22.2437 71.6315 22.2696 71.7514 22.3197C71.8714 22.3698 71.9803 22.4431 72.072 22.5354C72.1636 22.6277 72.2362 22.7372 72.2855 22.8576C72.3348 22.9779 72.3599 23.1069 72.3594 23.237V37.0751H48.8806Z" fill="#E0E0E0"/>
<path d="M70.9401 23.6127H50.3V35.9194H70.9401V23.6127Z" fill="white"/>
<path d="M70.9401 35.9194C70.9401 35.9194 70.9401 35.8414 70.9401 35.6957C70.9401 35.5499 70.9401 35.3303 70.9401 35.049C70.9401 34.4804 70.9401 33.649 70.9278 32.5856C70.9278 30.4527 70.9155 27.3817 70.9073 23.6168L70.9483 23.6579L50.3042 23.6661L50.3575 23.6127C50.3575 27.9709 50.3575 32.132 50.3575 35.9194L50.3083 35.8702L65.154 35.8927L69.4161 35.9071H70.5524H70.8457H70.9483H70.8519H70.5647H69.4366L65.1868 35.9194L50.3083 35.9441H50.259V35.9194C50.259 32.132 50.259 27.9709 50.259 23.6127V23.5593H50.3042L70.9421 23.5717H70.9832V23.6127C70.9832 27.3899 70.9667 30.4692 70.9606 32.6082C70.9606 33.6716 70.9606 34.4989 70.9503 35.0716C70.9503 35.3487 70.9503 35.5622 70.9503 35.71C70.9503 35.8578 70.9401 35.9194 70.9401 35.9194Z" fill="#263238"/>
<path d="M61.0005 22.964C61.0021 23.04 60.9811 23.1147 60.9401 23.1786C60.899 23.2425 60.8399 23.2927 60.7703 23.3228C60.7006 23.3529 60.6235 23.3615 60.5489 23.3476C60.4743 23.3336 60.4056 23.2977 60.3515 23.2444C60.2974 23.1912 60.2604 23.123 60.2452 23.0485C60.2301 22.9741 60.2374 22.8969 60.2664 22.8267C60.2953 22.7564 60.3445 22.6965 60.4077 22.6544C60.4709 22.6123 60.5451 22.59 60.621 22.5904C60.6705 22.5899 60.7196 22.5991 60.7654 22.6176C60.8113 22.6361 60.8531 22.6635 60.8884 22.6983C60.9236 22.733 60.9517 22.7743 60.9709 22.8199C60.9902 22.8656 61.0002 22.9145 61.0005 22.964Z" fill="#263238"/>
<path d="M74.9705 46.4012L72.2938 36.9705H48.891L45.841 46.3704C45.7979 46.5014 45.7862 46.6407 45.8068 46.7771C45.8274 46.9135 45.8797 47.0432 45.9595 47.1557C46.0394 47.2681 46.1445 47.3602 46.2664 47.4246C46.3883 47.4889 46.5236 47.5237 46.6614 47.5261H57.3517L57.7845 47.093H62.8322L63.2649 47.5261H74.1357C74.2713 47.5249 74.4048 47.4922 74.5258 47.4307C74.6467 47.3692 74.7517 47.2804 74.8326 47.1714C74.9135 47.0624 74.968 46.9361 74.9919 46.8025C75.0158 46.6689 75.0085 46.5315 74.9705 46.4012Z" fill="#E0E0E0"/>
<path d="M70.6323 37.574L50.2384 37.5063C50.1418 37.5007 50.0458 37.5248 49.9633 37.5755C49.8808 37.6261 49.8157 37.7008 49.7769 37.7896L48.1361 42.4331C48.0479 42.6856 48.2755 42.936 48.5955 42.936H72.2014C72.5193 42.936 72.749 42.6876 72.6609 42.4351L71.0918 37.8614C71.053 37.7728 70.9884 37.6979 70.9064 37.6466C70.8245 37.5954 70.7289 37.5701 70.6323 37.574Z" fill="#EBEBEB"/>
<g opacity="0.1">
<path d="M64.2986 46.4813H56.2522C56.1713 46.4764 56.0926 46.4534 56.0217 46.414C55.9509 46.3746 55.8898 46.3198 55.8429 46.2536C55.7961 46.1874 55.7647 46.1115 55.751 46.0315C55.7374 45.9516 55.7418 45.8696 55.7641 45.7915L56.2194 43.8845C56.2425 43.7709 56.3034 43.6686 56.392 43.594C56.4806 43.5195 56.5919 43.4771 56.7076 43.4739H63.8987C64.0172 43.4777 64.1308 43.5223 64.2205 43.6C64.3101 43.6778 64.3703 43.784 64.3909 43.9009L64.8012 45.8059C64.8211 45.8841 64.8233 45.9658 64.8077 46.0449C64.792 46.1241 64.7589 46.1988 64.7108 46.2635C64.6626 46.3282 64.6006 46.3814 64.5293 46.419C64.458 46.4567 64.3792 46.478 64.2986 46.4813Z" fill="black"/>
</g>
<path d="M64.272 39.0439L64.0669 38.0708C64.0598 38.0386 64.0419 38.0098 64.0161 37.9892C63.9903 37.9687 63.9583 37.9576 63.9253 37.9579H62.6701C62.6494 37.9577 62.6288 37.962 62.6099 37.9704C62.591 37.9789 62.5742 37.9914 62.5605 38.007C62.5469 38.0226 62.5368 38.0409 62.5309 38.0608C62.5251 38.0807 62.5235 38.1016 62.5265 38.1221L62.666 39.0952C62.6709 39.1298 62.6881 39.1615 62.7145 39.1845C62.7408 39.2075 62.7746 39.2203 62.8095 39.2204H64.1366C64.1577 39.2194 64.1784 39.2138 64.1972 39.204C64.2159 39.1941 64.2323 39.1804 64.2452 39.1636C64.2581 39.1467 64.2672 39.1273 64.2718 39.1067C64.2764 39.086 64.2765 39.0646 64.272 39.0439Z" fill="#263238"/>
<path d="M60.4877 39.0665L60.3975 38.0893C60.3949 38.0532 60.3785 38.0194 60.3518 37.995C60.3251 37.9706 60.2901 37.9573 60.2539 37.9579H58.972C58.9525 37.9579 58.9332 37.9618 58.9153 37.9694C58.8973 37.977 58.8811 37.9881 58.8675 38.0021C58.854 38.016 58.8433 38.0326 58.8362 38.0507C58.8292 38.0689 58.8258 38.0883 58.8264 38.1078L58.8612 39.0849C58.8628 39.1225 58.8788 39.158 58.906 39.184C58.9331 39.21 58.9693 39.2246 59.0068 39.2245H60.3544C60.3736 39.223 60.3922 39.2176 60.4093 39.2088C60.4264 39.2 60.4416 39.188 60.4539 39.1733C60.4663 39.1586 60.4757 39.1416 60.4815 39.1232C60.4873 39.1049 60.4894 39.0856 60.4877 39.0665Z" fill="#263238"/>
<path d="M62.4793 39.0562L62.3398 38.0811C62.3349 38.0466 62.3176 38.0151 62.2912 37.9925C62.2648 37.9698 62.2311 37.9576 62.1963 37.9579H60.7195C60.6994 37.9578 60.6794 37.9619 60.661 37.97C60.6426 37.9781 60.6261 37.99 60.6125 38.0049C60.599 38.0198 60.5887 38.0374 60.5824 38.0566C60.5761 38.0757 60.5739 38.0959 60.5759 38.116L60.6641 39.0911C60.6681 39.127 60.6852 39.1602 60.712 39.1844C60.7388 39.2086 60.7736 39.2222 60.8097 39.2225H62.3357C62.3567 39.2227 62.3774 39.2184 62.3965 39.2098C62.4155 39.2012 62.4325 39.1886 62.4462 39.1727C62.4598 39.1569 62.4699 39.1383 62.4756 39.1181C62.4813 39.098 62.4826 39.0768 62.4793 39.0562Z" fill="#263238"/>
<path d="M53.1141 39.0808L53.3192 38.194C53.3236 38.1657 53.3219 38.1369 53.3145 38.1093C53.3071 38.0817 53.2939 38.056 53.276 38.0338C53.258 38.0115 53.2356 37.9933 53.2102 37.9802C53.1848 37.9672 53.157 37.9596 53.1285 37.9579H51.9122C51.8703 37.9596 51.83 37.9741 51.7967 37.9994C51.7633 38.0248 51.7385 38.0597 51.7255 38.0995L51.4712 38.9864C51.4649 39.0154 51.465 39.0453 51.4714 39.0743C51.4778 39.1032 51.4905 39.1305 51.5084 39.1541C51.5263 39.1777 51.5492 39.1971 51.5753 39.211C51.6015 39.225 51.6303 39.2331 51.6599 39.2348H52.9316C52.9742 39.2314 53.0148 39.2147 53.0475 39.1871C53.0803 39.1595 53.1035 39.1223 53.1141 39.0808Z" fill="#263238"/>
<path d="M70.8313 39.0131L70.4621 38.0503C70.4516 38.0229 70.4331 37.9994 70.4089 37.9829C70.3847 37.9664 70.356 37.9576 70.3267 37.9579H67.9434C67.92 37.9577 67.8969 37.9632 67.8761 37.974C67.8554 37.9847 67.8375 38.0004 67.8242 38.0196C67.8108 38.0388 67.8024 38.061 67.7996 38.0843C67.7968 38.1075 67.7996 38.1311 67.808 38.1529L68.1669 39.1178C68.1768 39.1457 68.1952 39.1698 68.2194 39.1868C68.2437 39.2037 68.2727 39.2126 68.3023 39.2122H70.7C70.7234 39.2115 70.7462 39.2052 70.7667 39.1938C70.7871 39.1824 70.8045 39.1663 70.8173 39.1468C70.8302 39.1272 70.8382 39.1049 70.8406 39.0816C70.8431 39.0583 70.8399 39.0348 70.8313 39.0131Z" fill="#263238"/>
<path d="M58.5084 37.9579H57.1219C57.0846 37.9578 57.0488 37.9721 57.0217 37.9976C56.9946 38.0232 56.9784 38.0582 56.9763 38.0954L56.9291 39.0767C56.9283 39.0963 56.9314 39.116 56.9384 39.1344C56.9453 39.1528 56.9559 39.1696 56.9695 39.1838C56.9831 39.198 56.9994 39.2092 57.0175 39.2169C57.0356 39.2247 57.0551 39.2286 57.0747 39.2286H58.5453C58.5647 39.2286 58.5839 39.2247 58.6017 39.2171C58.6196 39.2095 58.6357 39.1984 58.6491 39.1844C58.6625 39.1704 58.673 39.1538 58.6798 39.1356C58.6866 39.1175 58.6897 39.0981 58.6889 39.0787L58.654 38.0995C58.653 38.0616 58.6372 38.0256 58.61 37.9991C58.5828 37.9727 58.5463 37.9579 58.5084 37.9579Z" fill="#263238"/>
<path d="M51.3296 37.9579H50.3636C50.3235 37.9591 50.2847 37.9719 50.2519 37.9949C50.2191 38.0179 50.1938 38.05 50.179 38.0872L49.861 38.9782C49.8527 39.0075 49.8511 39.0383 49.8561 39.0684C49.8612 39.0984 49.8729 39.127 49.8904 39.1519C49.9079 39.1769 49.9307 39.1976 49.9572 39.2127C49.9837 39.2277 50.0132 39.2367 50.0436 39.2389H51.0691C51.111 39.2371 51.1513 39.2227 51.1846 39.1973C51.218 39.172 51.2428 39.1371 51.2558 39.0972L51.5101 38.2083C51.5167 38.1799 51.5171 38.1503 51.5113 38.1216C51.5055 38.093 51.4937 38.0659 51.4766 38.0422C51.4595 38.0185 51.4375 37.9987 51.4122 37.9841C51.3868 37.9696 51.3587 37.9607 51.3296 37.9579Z" fill="#263238"/>
<path d="M54.9088 39.1054L55.038 38.1201C55.0407 38.0997 55.0389 38.079 55.0329 38.0594C55.0269 38.0398 55.0167 38.0217 55.0031 38.0063C54.9895 37.9909 54.9728 37.9787 54.954 37.9703C54.9353 37.962 54.915 37.9577 54.8945 37.9579H53.6638C53.6309 37.958 53.5991 37.9692 53.5734 37.9897C53.5477 38.0102 53.5297 38.0388 53.5223 38.0708L53.3028 39.0562C53.2978 39.0774 53.2977 39.0995 53.3026 39.1208C53.3074 39.142 53.317 39.1619 53.3306 39.179C53.3442 39.196 53.3616 39.2096 53.3813 39.219C53.401 39.2283 53.4225 39.233 53.4443 39.2327H54.7714C54.8059 39.2319 54.8388 39.2185 54.8641 39.1951C54.8894 39.1716 54.9053 39.1398 54.9088 39.1054Z" fill="#263238"/>
<path d="M55.2266 38.0831L55.0974 39.0664C55.0947 39.0871 55.0965 39.108 55.1027 39.1279C55.1088 39.1478 55.1191 39.1661 55.1329 39.1817C55.1467 39.1972 55.1637 39.2096 55.1826 39.2181C55.2016 39.2265 55.2222 39.2308 55.243 39.2306H56.6152C56.6524 39.2307 56.6883 39.2165 56.7153 39.1909C56.7424 39.1653 56.7587 39.1303 56.7608 39.0931L56.808 38.1119C56.8091 38.0921 56.8062 38.0724 56.7993 38.0539C56.7925 38.0353 56.7819 38.0184 56.7682 38.0041C56.7546 37.9899 56.7381 37.9786 56.7199 37.971C56.7017 37.9634 56.6821 37.9596 56.6623 37.9599H55.3702C55.3355 37.96 55.302 37.9725 55.2757 37.995C55.2494 38.0176 55.232 38.0488 55.2266 38.0831Z" fill="#263238"/>
<path d="M66.159 39.0295L65.8718 38.0606C65.8629 38.0306 65.8445 38.0044 65.8193 37.9858C65.7941 37.9673 65.7636 37.9575 65.7323 37.9579H64.395C64.3735 37.9577 64.3521 37.9624 64.3326 37.9716C64.3131 37.9808 64.2959 37.9943 64.2823 38.011C64.2687 38.0278 64.259 38.0474 64.2541 38.0684C64.2491 38.0894 64.2489 38.1113 64.2535 38.1324L64.4586 39.1034C64.4656 39.1358 64.4835 39.1649 64.5092 39.1858C64.5349 39.2067 64.567 39.2182 64.6002 39.2184H66.0154C66.0386 39.2191 66.0616 39.2142 66.0825 39.2042C66.1035 39.1942 66.1217 39.1794 66.1358 39.1609C66.1498 39.1424 66.1593 39.1209 66.1633 39.098C66.1673 39.0752 66.1658 39.0517 66.159 39.0295Z" fill="#263238"/>
<path d="M67.9434 39.0172L67.5845 38.0523C67.5741 38.0247 67.5556 38.0009 67.5315 37.9841C67.5073 37.9672 67.4786 37.9581 67.4491 37.9579H66.2185C66.1961 37.9579 66.1741 37.9632 66.1541 37.9732C66.1342 37.9833 66.1168 37.9979 66.1035 38.0158C66.0901 38.0337 66.0812 38.0545 66.0773 38.0766C66.0734 38.0986 66.0747 38.1212 66.0811 38.1427L66.3662 39.1116C66.3754 39.1414 66.3939 39.1674 66.419 39.1859C66.4441 39.2044 66.4745 39.2143 66.5056 39.2142H67.8081C67.8314 39.2136 67.8542 39.2075 67.8747 39.1964C67.8952 39.1853 67.9127 39.1694 67.9259 39.1502C67.9391 39.131 67.9476 39.1089 67.9506 39.0858C67.9537 39.0627 67.9512 39.0391 67.9434 39.0172Z" fill="#263238"/>
<path d="M58.5617 39.4462H57.048C57.0107 39.4461 56.9749 39.4603 56.9478 39.4859C56.9207 39.5115 56.9044 39.5465 56.9023 39.5837L56.8531 40.5978C56.8523 40.6175 56.8554 40.6371 56.8624 40.6555C56.8693 40.6739 56.8799 40.6907 56.8935 40.7049C56.9071 40.7191 56.9235 40.7304 56.9415 40.7381C56.9596 40.7458 56.9791 40.7497 56.9987 40.7497H58.5986C58.6181 40.7494 58.6375 40.7453 58.6554 40.7375C58.6734 40.7297 58.6896 40.7184 58.7031 40.7043C58.7167 40.6901 58.7273 40.6734 58.7343 40.6552C58.7414 40.6369 58.7447 40.6174 58.7442 40.5978L58.7073 39.5878C58.7062 39.5499 58.6904 39.5138 58.6632 39.4874C58.636 39.4609 58.5996 39.4462 58.5617 39.4462Z" fill="#263238"/>
<path d="M68.5074 40.5383L68.1361 39.5427C68.126 39.5149 68.1076 39.491 68.0833 39.4741C68.0591 39.4572 68.0303 39.4482 68.0008 39.4483H66.6593C66.6367 39.4483 66.6145 39.4536 66.5942 39.4638C66.574 39.4739 66.5565 39.4886 66.5429 39.5068C66.5294 39.5249 66.5203 39.5459 66.5163 39.5682C66.5123 39.5905 66.5135 39.6134 66.5199 39.6351L66.8152 40.641C66.8244 40.6707 66.843 40.6968 66.8681 40.7153C66.8932 40.7337 66.9235 40.7437 66.9547 40.7436H68.372C68.3965 40.744 68.4207 40.7382 68.4424 40.7268C68.4641 40.7153 68.4825 40.6986 68.496 40.6781C68.5095 40.6577 68.5176 40.6341 68.5196 40.6097C68.5216 40.5852 68.5174 40.5607 68.5074 40.5383Z" fill="#263238"/>
<path d="M66.6102 40.5506L66.3127 39.5509C66.3042 39.5211 66.2862 39.4949 66.2613 39.4764C66.2365 39.4578 66.2063 39.448 66.1753 39.4483H64.717C64.6954 39.4481 64.6741 39.4527 64.6546 39.4619C64.635 39.4711 64.6178 39.4846 64.6042 39.5014C64.5906 39.5182 64.581 39.5378 64.576 39.5588C64.571 39.5798 64.5709 39.6017 64.5755 39.6228L64.7908 40.6245C64.7982 40.6568 64.8161 40.6856 64.8418 40.7065C64.8674 40.7273 64.8993 40.7389 64.9324 40.7395H66.4707C66.4935 40.7395 66.5161 40.7342 66.5365 40.724C66.5569 40.7137 66.5746 40.6988 66.5882 40.6804C66.6017 40.662 66.6108 40.6407 66.6146 40.6181C66.6184 40.5956 66.6169 40.5725 66.6102 40.5506Z" fill="#263238"/>
<path d="M55.0359 40.7518H56.5352C56.5721 40.7513 56.6074 40.7369 56.6341 40.7114C56.6607 40.6858 56.6767 40.6511 56.6788 40.6143L56.728 39.6002C56.7289 39.5805 56.7257 39.5609 56.7188 39.5425C56.7118 39.5241 56.7012 39.5073 56.6876 39.4931C56.674 39.4789 56.6577 39.4676 56.6396 39.4599C56.6215 39.4522 56.602 39.4482 56.5824 39.4483H55.1671C55.1319 39.4485 55.0979 39.4615 55.0715 39.4849C55.0451 39.5083 55.028 39.5405 55.0236 39.5755L54.8923 40.5896C54.8897 40.61 54.8914 40.6307 54.8974 40.6503C54.9035 40.6699 54.9136 40.688 54.9272 40.7034C54.9408 40.7188 54.9576 40.731 54.9763 40.7394C54.9951 40.7477 55.0154 40.752 55.0359 40.7518Z" fill="#263238"/>
<path d="M59.0622 40.7456H60.4836C60.5037 40.7457 60.5237 40.7416 60.5421 40.7335C60.5605 40.7254 60.577 40.7135 60.5906 40.6986C60.6041 40.6837 60.6144 40.6661 60.6207 40.647C60.627 40.6279 60.6292 40.6076 60.6272 40.5876L60.5349 39.5817C60.5318 39.5456 60.5154 39.5119 60.4889 39.4872C60.4623 39.4625 60.4275 39.4486 60.3913 39.4483H59.0253C59.0058 39.4485 58.9866 39.4527 58.9687 39.4605C58.9509 39.4683 58.9348 39.4797 58.9214 39.4938C58.908 39.508 58.8976 39.5247 58.8908 39.543C58.884 39.5612 58.8809 39.5807 58.8817 39.6002L58.9186 40.6081C58.9202 40.6451 58.9361 40.6801 58.9628 40.7058C58.9896 40.7314 59.0252 40.7457 59.0622 40.7456Z" fill="#263238"/>
<path d="M60.7114 39.6145L60.8037 40.6204C60.8077 40.6563 60.8247 40.6895 60.8515 40.7138C60.8784 40.738 60.9132 40.7515 60.9493 40.7518H62.5512C62.5719 40.752 62.5924 40.7477 62.6113 40.7392C62.6302 40.7308 62.6471 40.7183 62.6607 40.7027C62.6743 40.6871 62.6844 40.6687 62.6903 40.6489C62.6962 40.629 62.6977 40.6081 62.6948 40.5875L62.5512 39.5817C62.5467 39.5474 62.5298 39.5159 62.5037 39.4932C62.4777 39.4706 62.4442 39.4582 62.4097 39.4585H60.857C60.837 39.4584 60.8172 39.4625 60.7988 39.4705C60.7804 39.4784 60.7639 39.4901 60.7502 39.5047C60.7365 39.5194 60.726 39.5367 60.7194 39.5556C60.7127 39.5745 60.71 39.5945 60.7114 39.6145Z" fill="#263238"/>
<path d="M64.6001 40.5629L64.3827 39.5612C64.3757 39.529 64.3577 39.5001 64.332 39.4796C64.3062 39.459 64.2742 39.448 64.2412 39.4483H62.8772C62.8565 39.4481 62.836 39.4523 62.8171 39.4608C62.7982 39.4693 62.7813 39.4817 62.7677 39.4973C62.7541 39.5129 62.744 39.5313 62.7381 39.5512C62.7322 39.5711 62.7307 39.592 62.7337 39.6125L62.8772 40.6163C62.8821 40.651 62.8994 40.6827 62.9257 40.7057C62.9521 40.7287 62.9858 40.7414 63.0208 40.7415H64.4566C64.4786 40.7418 64.5004 40.737 64.5204 40.7276C64.5403 40.7182 64.5579 40.7044 64.5717 40.6872C64.5855 40.67 64.5953 40.6499 64.6002 40.6283C64.6051 40.6068 64.6051 40.5845 64.6001 40.5629Z" fill="#263238"/>
<path d="M52.8516 39.4462H49.8283C49.7992 39.4465 49.7708 39.4554 49.7467 39.4718C49.7226 39.4883 49.7039 39.5115 49.693 39.5385L49.2991 40.565C49.2908 40.5868 49.2879 40.6104 49.2907 40.6336C49.2935 40.6569 49.302 40.6791 49.3153 40.6983C49.3287 40.7175 49.3465 40.7332 49.3673 40.7439C49.3881 40.7547 49.4111 40.7602 49.4345 40.76H52.6239C52.6577 40.7596 52.6902 40.7475 52.716 40.7258C52.7418 40.7041 52.7593 40.6741 52.7655 40.6409L52.9931 39.6145C52.9964 39.5939 52.9951 39.5728 52.9896 39.5528C52.984 39.5327 52.9741 39.514 52.9607 39.4981C52.9473 39.4821 52.9306 39.4692 52.9118 39.4603C52.893 39.4513 52.8725 39.4465 52.8516 39.4462Z" fill="#263238"/>
<path d="M53.0998 40.7539H54.5683C54.6033 40.7537 54.6371 40.741 54.6634 40.718C54.6898 40.695 54.707 40.6633 54.7119 40.6287L54.8432 39.6022C54.8461 39.5817 54.8446 39.5608 54.8388 39.5409C54.8329 39.521 54.8228 39.5027 54.8091 39.4871C54.7955 39.4715 54.7786 39.459 54.7597 39.4505C54.7408 39.4421 54.7203 39.4378 54.6996 39.438H53.3274C53.2946 39.4381 53.2627 39.4493 53.237 39.4698C53.2113 39.4903 53.1933 39.5189 53.1859 39.5509L52.9582 40.5773C52.9537 40.5985 52.9539 40.6205 52.9588 40.6416C52.9638 40.6627 52.9734 40.6824 52.987 40.6993C53.0006 40.7163 53.0177 40.7299 53.0372 40.7394C53.0567 40.7488 53.0781 40.7538 53.0998 40.7539Z" fill="#263238"/>
<path d="M70.3124 40.7313H71.2559C71.2804 40.7317 71.3046 40.7259 71.3263 40.7145C71.3479 40.703 71.3664 40.6863 71.3799 40.6658C71.3934 40.6454 71.4015 40.6218 71.4035 40.5974C71.4055 40.5729 71.4013 40.5484 71.3913 40.526L70.9933 39.5345C70.9824 39.5074 70.9637 39.4842 70.9396 39.4678C70.9155 39.4513 70.8871 39.4424 70.858 39.4421H69.9945C69.9715 39.4424 69.949 39.448 69.9286 39.4585C69.9082 39.469 69.8906 39.4841 69.877 39.5027C69.8635 39.5212 69.8545 39.5426 69.8506 39.5652C69.8468 39.5879 69.8483 39.6111 69.855 39.633L70.177 40.6245C70.1856 40.6543 70.2032 40.6806 70.2275 40.6997C70.2518 40.7189 70.2815 40.7299 70.3124 40.7313Z" fill="#263238"/>
<path d="M69.9617 40.5424L69.6396 39.5488C69.6302 39.5198 69.6118 39.4944 69.5872 39.4764C69.5625 39.4583 69.5328 39.4485 69.5022 39.4483H68.4951C68.4719 39.4485 68.4491 39.4543 68.4286 39.4652C68.4081 39.4761 68.3905 39.4918 68.3772 39.5108C68.364 39.5299 68.3555 39.5519 68.3524 39.5749C68.3494 39.598 68.3519 39.6214 68.3598 39.6433L68.729 40.6389C68.7395 40.6668 68.7583 40.6909 68.7828 40.7077C68.8074 40.7246 68.8366 40.7336 68.8664 40.7333H69.8242C69.8473 40.7336 69.8701 40.7283 69.8907 40.718C69.9113 40.7076 69.9291 40.6924 69.9426 40.6736C69.956 40.6549 69.9648 40.6332 69.9681 40.6104C69.9715 40.5875 69.9692 40.5642 69.9617 40.5424Z" fill="#263238"/>
<path d="M54.8965 42.4577H56.3815C56.4372 42.4583 56.491 42.4373 56.5316 42.399C56.5721 42.3607 56.5963 42.3082 56.5989 42.2524L56.6502 41.1952C56.6519 41.1657 56.6475 41.1362 56.6373 41.1085C56.6271 41.0807 56.6113 41.0554 56.5909 41.034C56.5705 41.0127 56.546 40.9957 56.5188 40.9842C56.4916 40.9728 56.4623 40.967 56.4328 40.9674H55.0339C54.9809 40.9669 54.9296 40.9858 54.8895 41.0206C54.8495 41.0554 54.8235 41.1036 54.8165 41.1562L54.6791 42.2114C54.675 42.2423 54.6775 42.2737 54.6866 42.3035C54.6957 42.3333 54.711 42.3608 54.7317 42.3842C54.7523 42.4075 54.7777 42.4262 54.8061 42.4389C54.8345 42.4516 54.8654 42.458 54.8965 42.4577Z" fill="#263238"/>
<path d="M71.4466 40.9673H69.174C69.1388 40.9671 69.1041 40.9755 69.0728 40.9916C69.0416 41.0078 69.0147 41.0314 68.9945 41.0602C68.9743 41.0891 68.9615 41.1225 68.957 41.1574C68.9526 41.1924 68.9566 41.2279 68.9689 41.2609L69.3792 42.3386C69.3944 42.3808 69.4223 42.4173 69.459 42.443C69.4957 42.4687 69.5394 42.4824 69.5843 42.4823H71.8876C71.9232 42.4823 71.9582 42.4737 71.9896 42.4571C72.0211 42.4406 72.0481 42.4167 72.0682 42.3874C72.0884 42.3581 72.1012 42.3243 72.1055 42.289C72.1097 42.2537 72.1054 42.2179 72.0927 42.1847L71.6702 41.1008C71.6523 41.0574 71.6209 41.0209 71.5806 40.9969C71.5403 40.9728 71.4933 40.9625 71.4466 40.9673Z" fill="#263238"/>
<path d="M52.8331 41.1378L52.5972 42.1888C52.5902 42.22 52.5902 42.2524 52.5972 42.2837C52.6042 42.3149 52.618 42.3442 52.6376 42.3695C52.6572 42.3948 52.6821 42.4154 52.7105 42.43C52.739 42.4445 52.7703 42.4526 52.8023 42.4536H54.2729C54.3258 42.4531 54.3767 42.4335 54.4162 42.3984C54.4558 42.3634 54.4814 42.3152 54.4883 42.2627L54.6257 41.2096C54.6301 41.1788 54.6279 41.1475 54.6191 41.1177C54.6103 41.0878 54.5951 41.0603 54.5746 41.0369C54.5542 41.0135 54.5289 40.9948 54.5005 40.9821C54.4722 40.9694 54.4414 40.963 54.4103 40.9633H53.0382C52.9894 40.9651 52.9426 40.9833 52.9054 41.0149C52.8682 41.0466 52.8427 41.0899 52.8331 41.1378Z" fill="#263238"/>
<path d="M50.8374 41.1254L50.5277 42.2114C50.5198 42.2394 50.5185 42.2688 50.5238 42.2974C50.5292 42.326 50.5411 42.353 50.5585 42.3762C50.576 42.3995 50.5986 42.4184 50.6246 42.4314C50.6505 42.4445 50.6792 42.4514 50.7082 42.4516H52.2096C52.2524 42.4516 52.2938 42.4369 52.327 42.41C52.3602 42.3831 52.3832 42.3456 52.3922 42.3038L52.6403 41.1973C52.6469 41.1696 52.6471 41.1408 52.6408 41.113C52.6346 41.0853 52.622 41.0593 52.6042 41.0371C52.5864 41.015 52.5638 40.9971 52.5381 40.9851C52.5123 40.973 52.4842 40.9669 52.4557 40.9674L51.02 40.9858C50.9785 40.9858 50.9381 40.9994 50.905 41.0246C50.872 41.0499 50.8483 41.0853 50.8374 41.1254Z" fill="#263238"/>
<path d="M64.9222 41.2301L65.1539 42.3038C65.1641 42.3511 65.1898 42.3936 65.227 42.4245C65.2642 42.4554 65.3107 42.4729 65.359 42.4742H66.881C66.9146 42.4733 66.9475 42.4647 66.9773 42.4491C67.0071 42.4335 67.0329 42.4112 67.0527 42.3841C67.0725 42.3569 67.0858 42.3255 67.0916 42.2924C67.0974 42.2592 67.0955 42.2252 67.0861 42.1929L66.7661 41.1193C66.7533 41.0746 66.7264 41.0353 66.6894 41.0072C66.6525 40.9791 66.6074 40.9637 66.561 40.9633H65.1252C65.0931 40.9642 65.0616 40.9723 65.033 40.987C65.0044 41.0016 64.9795 41.0226 64.96 41.0481C64.9405 41.0737 64.927 41.1034 64.9205 41.1349C64.9139 41.1663 64.9145 41.1989 64.9222 41.2301Z" fill="#263238"/>
<path d="M56.8265 41.1747L56.7753 42.2319C56.7736 42.2615 56.778 42.2911 56.7881 42.319C56.7983 42.3468 56.8141 42.3723 56.8344 42.3938C56.8548 42.4153 56.8793 42.4325 56.9065 42.4442C56.9337 42.4559 56.963 42.4619 56.9927 42.4618L64.7417 42.4742C64.7735 42.4728 64.8046 42.4644 64.8329 42.4498C64.8612 42.4351 64.886 42.4145 64.9055 42.3893C64.925 42.3641 64.9388 42.3349 64.9459 42.3039C64.9531 42.2728 64.9533 42.2405 64.9468 42.2093L64.715 41.1378C64.7045 41.0906 64.6787 41.0483 64.6416 41.0174C64.6045 40.9866 64.5581 40.969 64.5099 40.9674H57.0439C56.988 40.9673 56.9342 40.9888 56.8937 41.0274C56.8532 41.0661 56.8292 41.1188 56.8265 41.1747Z" fill="#263238"/>
<path d="M49.1432 41.0803L48.733 42.2155C48.7234 42.2416 48.7203 42.2696 48.7238 42.2972C48.7274 42.3248 48.7376 42.3511 48.7535 42.3738C48.7694 42.3966 48.7906 42.4152 48.8152 42.428C48.8399 42.4409 48.8673 42.4475 48.895 42.4475H50.1544C50.1918 42.4469 50.228 42.4345 50.2579 42.412C50.2877 42.3895 50.3097 42.3581 50.3205 42.3223L50.6446 41.185C50.6519 41.1593 50.6532 41.1323 50.6482 41.106C50.6433 41.0797 50.6324 41.055 50.6163 41.0337C50.6002 41.0124 50.5793 40.9951 50.5554 40.9833C50.5315 40.9714 50.5052 40.9653 50.4785 40.9653H49.3114C49.2748 40.9641 49.2388 40.9746 49.2085 40.9953C49.1783 41.0159 49.1554 41.0457 49.1432 41.0803Z" fill="#263238"/>
<path d="M66.9978 41.2568L67.3158 42.3325C67.3292 42.3768 67.3562 42.4158 67.393 42.4438C67.4299 42.4718 67.4746 42.4875 67.5209 42.4885H68.9094C68.9447 42.4887 68.9794 42.4804 69.0107 42.4642C69.0419 42.448 69.0688 42.4245 69.089 42.3956C69.1092 42.3668 69.122 42.3334 69.1265 42.2985C69.1309 42.2635 69.1268 42.228 69.1146 42.195L68.7043 41.1172C68.6888 41.0754 68.6608 41.0394 68.6241 41.0141C68.5874 40.9887 68.5438 40.9753 68.4992 40.9756H67.1927C67.1598 40.9776 67.1278 40.987 67.0991 41.0031C67.0704 41.0193 67.0457 41.0417 67.027 41.0688C67.0082 41.0959 66.9958 41.1269 66.9908 41.1595C66.9857 41.192 66.9882 41.2253 66.9978 41.2568Z" fill="#263238"/>
<path d="M72.3779 37.0054C72.3779 37.0342 67.1312 37.0588 60.66 37.0588C54.1889 37.0588 48.9422 37.0342 48.9422 37.0054C48.9422 36.9767 54.1868 36.952 60.66 36.952C67.1332 36.952 72.3779 36.9746 72.3779 37.0054Z" fill="#263238"/>
<path d="M56.082 27.1477C56.2967 26.9692 56.5348 26.8207 56.7896 26.7064L56.8327 25.9325L58.0941 25.7272L58.3874 26.4436C58.6679 26.4697 58.9437 26.5325 59.2078 26.6304L59.7842 26.1172L60.8261 26.8603L60.5267 27.5727C60.7051 27.788 60.8541 28.0262 60.9697 28.2809L61.7409 28.324L61.946 29.5865L61.2302 29.8801C61.2062 30.1611 61.1434 30.4374 61.0435 30.7012L61.5584 31.278L60.8159 32.3209L60.1 32.0191C59.8852 32.1966 59.648 32.345 59.3945 32.4605L59.3493 33.2323L58.0879 33.4376L57.7946 32.7212C57.5138 32.6971 57.2377 32.6343 56.9742 32.5344L56.406 33.0455L55.3641 32.3024L55.6636 31.5901C55.486 31.3741 55.3371 31.136 55.2205 30.8818L54.4493 30.8367L54.2442 29.5742L54.96 29.2806C54.9861 28.9999 55.0488 28.7239 55.1467 28.4595L54.6319 27.8827L55.3743 26.8398L56.0881 27.1395L56.082 27.1477ZM57.007 28.7325C56.8496 28.9537 56.7612 29.2165 56.753 29.4879C56.7448 29.7593 56.8172 30.0271 56.961 30.2573C57.1048 30.4876 57.3135 30.67 57.5609 30.7815C57.8082 30.893 58.083 30.9287 58.3506 30.884C58.6182 30.8392 58.8665 30.7161 59.0642 30.5302C59.2619 30.3443 59.4001 30.1038 59.4613 29.8393C59.5226 29.5748 59.5041 29.2981 59.4082 29.0441C59.3123 28.7901 59.1434 28.5702 58.9227 28.4123C58.7759 28.3074 58.6098 28.2325 58.4339 28.1919C58.2581 28.1513 58.076 28.1458 57.8981 28.1757C57.7201 28.2057 57.5498 28.2705 57.3969 28.3663C57.244 28.4622 57.1115 28.5874 57.007 28.7346V28.7325Z" fill="#F5F5F5"/>
<path d="M63.0331 30.3625C63.1784 30.2423 63.3392 30.1422 63.511 30.0648L63.5418 29.5413L64.395 29.3976L64.6001 29.8821C64.7882 29.9 64.973 29.9428 65.1498 30.0094L65.5395 29.6604L66.2451 30.1633L66.04 30.6457C66.16 30.7919 66.2601 30.9535 66.3374 31.1261L66.8604 31.1548L67.004 32.0109L66.52 32.2162C66.5016 32.4043 66.4588 32.5892 66.3928 32.7663L66.7415 33.1564L66.2369 33.8666L65.7529 33.6614C65.6079 33.7826 65.4471 33.8834 65.2749 33.9611L65.2462 34.4845L64.3909 34.6282L64.1858 34.1417C63.9979 34.1242 63.8131 34.0821 63.6361 34.0165L63.2464 34.3634L62.5409 33.8605L62.746 33.3781C62.6246 33.2332 62.5238 33.0722 62.4465 32.8998L61.9235 32.869L61.7799 32.015L62.266 31.8097C62.2822 31.6214 62.3243 31.4363 62.3911 31.2595L62.0424 30.8695L62.547 30.1633L63.029 30.3686L63.0331 30.3625ZM63.6607 31.4361C63.5539 31.5858 63.4938 31.764 63.4881 31.9479C63.4825 32.1318 63.5315 32.3133 63.6289 32.4694C63.7263 32.6254 63.8678 32.749 64.0355 32.8246C64.2032 32.9001 64.3894 32.9241 64.5708 32.8937C64.7521 32.8632 64.9203 32.7795 65.0541 32.6533C65.1879 32.5271 65.2813 32.364 65.3224 32.1846C65.3636 32.0053 65.3506 31.8177 65.2852 31.6457C65.2198 31.4738 65.1049 31.3251 64.955 31.2185C64.7544 31.0759 64.5055 31.0187 64.2629 31.0595C64.0203 31.1003 63.8037 31.2357 63.6607 31.4361Z" fill="#F5F5F5"/>
<path d="M62.6331 25.3638C62.7622 25.258 62.9042 25.169 63.0556 25.099L63.0823 24.6371L63.8392 24.5098L64.0135 24.9388C64.1804 24.9554 64.3444 24.9933 64.5017 25.0517L64.8462 24.7418L65.4616 25.1872L65.2831 25.6163C65.3902 25.7444 65.4793 25.8867 65.5477 26.0392L66.0112 26.0658L66.1364 26.8233L65.7077 26.9978C65.6931 27.165 65.6558 27.3293 65.5969 27.4864L65.9046 27.8313L65.4595 28.4574L65.0329 28.2767C64.904 28.3839 64.7612 28.473 64.6083 28.5415L64.5816 29.0055L63.8268 29.1328L63.6505 28.7037C63.4842 28.6874 63.3208 28.6494 63.1644 28.5908L62.8177 28.8987L62.2024 28.4533L62.3808 28.0263C62.2744 27.8969 62.1854 27.754 62.1162 27.6014L61.6548 27.5747L61.5276 26.8192L61.9563 26.6427C61.9717 26.4761 62.0096 26.3125 62.0691 26.1562L61.7594 25.8092L62.2044 25.1934L62.6331 25.372V25.3638ZM63.1869 26.3142C63.0929 26.4464 63.0401 26.6035 63.0352 26.7658C63.0303 26.928 63.0735 27.088 63.1594 27.2256C63.2453 27.3632 63.3701 27.4723 63.5179 27.539C63.6657 27.6058 63.8299 27.6271 63.9899 27.6005C64.1498 27.5739 64.2983 27.5004 64.4165 27.3894C64.5348 27.2784 64.6175 27.1348 64.6543 26.9767C64.6911 26.8186 64.6802 26.6532 64.6231 26.5013C64.566 26.3495 64.4652 26.2179 64.3335 26.1233C64.2457 26.0603 64.1464 26.0153 64.0413 25.9908C63.9361 25.9663 63.8271 25.9628 63.7206 25.9805C63.6141 25.9983 63.5121 26.0369 63.4205 26.0941C63.3289 26.1514 63.2495 26.2262 63.1869 26.3142Z" fill="#F5F5F5"/>
<path d="M53.6227 29.9785L53.7704 29.648C53.9269 29.7475 54.108 29.8016 54.2934 29.804C54.48 29.804 54.5518 29.7527 54.5518 29.6746C54.5518 29.4221 53.6493 29.6069 53.6493 29.0157C53.6493 28.7324 53.8811 28.5004 54.3529 28.5004C54.5534 28.4974 54.7516 28.5447 54.9292 28.638L54.7897 28.9726C54.6559 28.8958 54.5051 28.8535 54.3508 28.8494C54.1621 28.8494 54.0944 28.913 54.0944 28.9931C54.0944 29.2353 54.9949 29.0547 54.9949 29.6397C54.9949 29.9169 54.7631 30.153 54.2913 30.153C54.0565 30.159 53.8247 30.0985 53.6227 29.9785Z" fill="#263238"/>
<path d="M55.12 29.3278C55.1068 29.15 55.1474 28.9724 55.2366 28.818C55.3258 28.6637 55.4594 28.5399 55.6199 28.4627C55.7805 28.3855 55.9606 28.3585 56.1367 28.3853C56.3128 28.4121 56.4767 28.4913 56.6071 28.6128C56.7375 28.7342 56.8284 28.8921 56.8678 29.066C56.9071 29.2398 56.8933 29.4215 56.8279 29.5874C56.7626 29.7532 56.6488 29.8955 56.5015 29.9957C56.3541 30.0958 56.1801 30.1492 56.002 30.1489C55.8891 30.1574 55.7758 30.1424 55.6691 30.105C55.5623 30.0676 55.4644 30.0084 55.3816 29.9313C55.2988 29.8542 55.2328 29.7608 55.1878 29.6569C55.1427 29.553 55.1197 29.441 55.12 29.3278ZM56.4306 29.3278C56.4258 29.2441 56.3967 29.1637 56.3467 29.0965C56.2968 29.0292 56.2283 28.9781 56.1497 28.9494C56.071 28.9207 55.9857 28.9156 55.9042 28.9348C55.8228 28.9541 55.7487 28.9967 55.6912 29.0576C55.6337 29.1185 55.5952 29.1949 55.5806 29.2774C55.566 29.3598 55.5758 29.4448 55.6088 29.5218C55.6418 29.5988 55.6967 29.6644 55.7665 29.7105C55.8364 29.7566 55.9182 29.7813 56.002 29.7814C56.0606 29.7821 56.1187 29.7707 56.1726 29.7478C56.2266 29.7249 56.2752 29.6911 56.3155 29.6485C56.3558 29.6059 56.3868 29.5554 56.4066 29.5002C56.4264 29.445 56.4346 29.3863 56.4306 29.3278Z" fill="#263238"/>
<path d="M57.571 28.8802V29.2292H58.2725V29.5761H57.571V30.1221H57.1218V28.5291H58.3668V28.8761L57.571 28.8802Z" fill="#263238"/>
<path d="M58.9288 28.8884H58.4406V28.5291H59.862V28.8843H59.378V30.116H58.9288V28.8884Z" fill="#263238"/>
<path d="M62.4834 28.5291L61.9686 30.118H61.4886L61.1748 29.1553L60.8569 30.1221H60.3769L59.8703 28.5291H60.3318L60.6518 29.5432L60.9881 28.5291H61.3984L61.7163 29.5556L62.0506 28.5291H62.4834Z" fill="#263238"/>
<path d="M63.6545 29.8121H62.9838L62.8587 30.1221H62.4054L63.1048 28.5332H63.5478L64.2514 30.1221H63.7796L63.6545 29.8121ZM63.5232 29.4816L63.3181 28.9725L63.113 29.4816H63.5232Z" fill="#263238"/>
<path d="M65.0718 29.6993H64.8257V30.1221H64.3745V28.5291H65.1005C65.5333 28.5291 65.8061 28.7529 65.8061 29.1163C65.8102 29.2214 65.783 29.3254 65.7278 29.415C65.6727 29.5045 65.5921 29.5756 65.4964 29.6192L65.8389 30.118H65.3569L65.0718 29.6993ZM65.0718 28.8781H64.8216V29.3503H65.0718C65.2585 29.3503 65.3508 29.2641 65.3508 29.1183C65.3508 28.9726 65.2605 28.8863 65.0718 28.8863V28.8781Z" fill="#263238"/>
<path d="M67.328 29.7752V30.1221H66.0522V28.5291H67.2972V28.8761H66.5075V29.145H67.2131V29.4817H66.5075V29.7732L67.328 29.7752Z" fill="#263238"/>
<path d="M53.2885 30.5163H53.5038V32.0333H53.2885V30.5163Z" fill="#263238"/>
<path d="M55.2615 30.5163V32.0333H55.0851L54.1745 30.9022V32.0333H53.9591V30.5163H54.1355L55.0462 31.6474V30.5163H55.2615Z" fill="#263238"/>
<path d="M56.0163 30.7052H55.4974V30.5163H56.7506V30.7052H56.2317V32.0333H56.0266L56.0163 30.7052Z" fill="#263238"/>
<path d="M58.0858 31.8445V32.0333H56.9865V30.5163H58.0571V30.7052H57.2039V31.1711H57.9628V31.3539H57.2039V31.8445H58.0858Z" fill="#263238"/>
<path d="M59.4805 31.2656H59.6857V31.8568C59.5234 31.9862 59.3209 32.0545 59.1134 32.0498C58.987 32.0445 58.8639 32.0084 58.7546 31.9445C58.6454 31.8806 58.5535 31.791 58.4868 31.6834C58.4202 31.5758 58.3809 31.4535 58.3723 31.3272C58.3637 31.2009 58.3861 31.0744 58.4376 30.9587C58.4891 30.8431 58.568 30.7418 58.6676 30.6637C58.7671 30.5856 58.8843 30.5331 59.0088 30.5107C59.1333 30.4884 59.2614 30.4968 59.3818 30.5354C59.5023 30.5739 59.6116 30.6414 59.7 30.7319L59.5646 30.8674C59.5072 30.8098 59.4387 30.7644 59.3633 30.7341C59.2878 30.7037 59.207 30.689 59.1257 30.6908C58.9712 30.6908 58.8231 30.7522 58.7138 30.8616C58.6046 30.9709 58.5432 31.1192 58.5432 31.2738C58.5432 31.4284 58.6046 31.5767 58.7138 31.6861C58.8231 31.7954 58.9712 31.8568 59.1257 31.8568C59.2509 31.8602 59.3743 31.8267 59.4805 31.7603V31.2656Z" fill="#263238"/>
<path d="M61.1153 32.0334L60.7871 31.5674H60.6928H60.3174V32.0293H60.1021V30.5122H60.6928C61.0866 30.5122 61.3245 30.7175 61.3245 31.0398C61.3296 31.1453 61.2998 31.2495 61.2397 31.3364C61.1797 31.4232 61.0927 31.4878 60.9922 31.5202L61.3512 32.0293L61.1153 32.0334ZM61.1153 31.0439C61.1153 30.8284 60.9697 30.7052 60.6928 30.7052H60.3236V31.3867H60.6928C60.9697 31.3867 61.1091 31.2615 61.1091 31.0439H61.1153Z" fill="#263238"/>
<path d="M62.6413 31.6536H61.8353L61.6691 32.0333H61.4456L62.1327 30.5163H62.3378L63.0269 32.0333H62.8157L62.6413 31.6536ZM62.5654 31.4811L62.2373 30.736L61.9111 31.4811H62.5654Z" fill="#263238"/>
<path d="M63.4843 30.7052H62.9653V30.5163H64.2185V30.7052H63.6996V32.0333H63.4843V30.7052Z" fill="#263238"/>
<path d="M64.4565 30.5163H64.6616V32.0333H64.4565V30.5163Z" fill="#263238"/>
<path d="M65.0021 31.2738C64.9959 31.1131 65.0379 30.9542 65.1227 30.8175C65.2075 30.6809 65.3311 30.5727 65.4777 30.5069C65.6244 30.4411 65.7873 30.4206 65.9457 30.4482C66.104 30.4758 66.2505 30.5501 66.3663 30.6616C66.4822 30.7731 66.562 30.9167 66.5957 31.074C66.6294 31.2313 66.6153 31.395 66.5553 31.5442C66.4953 31.6935 66.3921 31.8213 66.259 31.9114C66.1258 32.0015 65.9688 32.0497 65.8081 32.0498C65.7035 32.0548 65.599 32.0384 65.501 32.0016C65.4029 31.9648 65.3134 31.9084 65.238 31.8357C65.1625 31.7631 65.1027 31.6757 65.0621 31.5791C65.0215 31.4825 65.0011 31.3786 65.0021 31.2738ZM66.3968 31.2738C66.3984 31.1565 66.3651 31.0413 66.3011 30.943C66.2371 30.8446 66.1453 30.7676 66.0374 30.7216C65.9295 30.6757 65.8104 30.6629 65.6952 30.6849C65.58 30.707 65.474 30.7628 65.3906 30.8454C65.3073 30.9279 65.2504 31.0335 65.2271 31.1485C65.2039 31.2635 65.2154 31.3829 65.2602 31.4914C65.3049 31.5998 65.381 31.6925 65.4785 31.7576C65.5761 31.8227 65.6909 31.8572 65.8081 31.8568C65.8856 31.8594 65.9628 31.8461 66.0349 31.8177C66.1071 31.7894 66.1727 31.7467 66.2278 31.6921C66.2829 31.6375 66.3263 31.5723 66.3553 31.5004C66.3844 31.4285 66.3985 31.3514 66.3968 31.2738Z" fill="#263238"/>
<path d="M68.2469 30.5163V32.0333H68.0684L67.1598 30.9022V32.0333H66.9424V30.5163H67.1229L68.0315 31.6474V30.5163H68.2469Z" fill="#263238"/>
<path d="M16.3772 26.4764C15.4398 25.8996 15.1958 24.5344 15.6839 23.5491C16.1721 22.5637 17.2345 21.952 18.3175 21.759C19.1054 21.6276 19.9131 21.6845 20.6748 21.925C21.4365 22.1654 22.1307 22.5826 22.7007 23.1426C23.316 23.7585 23.8082 24.5508 24.6246 24.8218C25.3425 25.0599 26.1301 24.8218 26.8808 24.9101C27.8899 25.0271 28.7616 25.7312 29.2908 26.5955C29.82 27.4597 30.0456 28.4779 30.1789 29.4838C30.302 30.4076 30.384 31.4217 31.0404 32.0888C31.6967 32.756 32.6648 32.8627 33.4504 33.3205C34.9272 34.1807 35.4317 36.3567 34.4882 37.7813C34.1867 38.235 33.7498 38.6538 33.7232 39.1978C33.6965 39.6946 34.0247 40.1318 34.1806 40.604C34.5908 41.8192 33.6083 43.285 32.3346 43.3773C31.6885 43.4245 30.9952 43.1823 30.4209 43.48C29.8466 43.7776 29.6477 44.4715 29.2867 45.0032C28.9174 45.5182 28.3826 45.8906 27.7717 46.058C27.1608 46.2255 26.511 46.1777 25.9311 45.9228C25.4532 45.697 24.9999 45.3193 24.4728 45.3624C23.9457 45.4055 23.5396 45.8613 23.0247 45.9783C22.3479 46.1199 21.6977 45.6293 21.2854 45.075C20.8731 44.5208 20.5839 43.8639 20.0548 43.4122C19.3697 42.819 18.4139 42.6855 17.5586 42.4022C16.6046 42.0898 15.7291 41.5754 14.9914 40.8941C14.2538 40.2128 13.6713 39.3805 13.2837 38.4538C12.8961 37.5271 12.7123 36.5278 12.745 35.5237C12.7776 34.5197 13.0259 33.5344 13.4728 32.6349" fill="#263238"/>
<path d="M26.3845 38.4833C26.5875 38.2559 26.8421 38.0806 27.127 37.9722H27.0695C27.122 37.958 27.1755 37.9477 27.2295 37.9414C27.3273 37.9118 27.4301 37.9023 27.5316 37.9136C27.6331 37.9249 27.7313 37.9567 27.8202 38.0071C28.1507 38.121 28.4265 38.3546 28.5935 38.6619C28.7244 38.9341 28.7778 39.2372 28.7478 39.5378C28.7178 39.8384 28.6055 40.1249 28.4232 40.3658C28.2929 40.5854 28.0992 40.7603 27.8675 40.8674C27.6358 40.9745 27.3771 41.0087 27.1255 40.9656C26.874 40.9224 26.6414 40.8039 26.4586 40.6258C26.2757 40.4476 26.1512 40.218 26.1014 39.9675C26.0193 39.7164 26.0022 39.4485 26.0517 39.1889C26.1012 38.9293 26.2157 38.6866 26.3845 38.4833Z" fill="#455A64"/>
<path d="M14.2955 48.8522L13.0443 30.7298C13.0201 30.3448 13.1411 29.9648 13.3834 29.6649C13.6257 29.3649 13.9717 29.1669 14.3529 29.1101L22.4198 26.696C25.0206 26.306 26.8953 29.4509 27.1742 32.0682C27.4819 34.975 27.7444 38.5367 27.4942 40.725C26.9876 45.1283 23.392 45.8468 23.392 45.8468C23.392 45.8468 23.431 50.324 23.4802 51.9129L24.5509 56.8294L14.2955 48.8522Z" fill="#FFBF9D"/>
<path d="M25.5886 35.829C25.5955 35.9751 25.5454 36.1181 25.449 36.228C25.3526 36.3379 25.2174 36.4061 25.0717 36.4182C25.0007 36.427 24.9287 36.4215 24.8598 36.402C24.791 36.3825 24.7268 36.3493 24.6709 36.3046C24.6151 36.2598 24.5688 36.2042 24.5348 36.1413C24.5007 36.0783 24.4797 36.0091 24.4728 35.9378C24.4648 35.7916 24.5142 35.648 24.6103 35.5376C24.7064 35.4272 24.8418 35.3587 24.9876 35.3466C25.0588 35.3383 25.1309 35.3443 25.1998 35.3641C25.2687 35.384 25.3329 35.4173 25.3888 35.4622C25.4447 35.507 25.4912 35.5626 25.5254 35.6255C25.5597 35.6885 25.5812 35.7577 25.5886 35.829Z" fill="#263238"/>
<path d="M26.4542 33.6613C26.3885 33.7372 25.9517 33.4416 25.3486 33.4704C24.7456 33.4991 24.3231 33.8173 24.2472 33.7475C24.2144 33.7147 24.278 33.5812 24.4646 33.4314C24.7182 33.2394 25.0247 33.1304 25.3425 33.1193C25.6562 33.1049 25.9664 33.1905 26.2285 33.3636C26.4193 33.493 26.487 33.6223 26.4542 33.6613Z" fill="#263238"/>
<path d="M20.1533 36.0138C20.1612 36.1598 20.1118 36.3031 20.0156 36.4132C19.9194 36.5233 19.7841 36.5914 19.6384 36.6029C19.5674 36.6115 19.4953 36.6058 19.4264 36.5862C19.3576 36.5666 19.2933 36.5335 19.2374 36.4888C19.1815 36.4441 19.135 36.3887 19.1007 36.3258C19.0663 36.2629 19.0448 36.1938 19.0375 36.1226C19.03 35.9762 19.0798 35.8326 19.1763 35.7222C19.2728 35.6119 19.4083 35.5434 19.5543 35.5314C19.6255 35.5228 19.6976 35.5286 19.7664 35.5484C19.8353 35.5681 19.8995 35.6014 19.9553 35.6464C20.0111 35.6913 20.0573 35.747 20.0913 35.8101C20.1253 35.8732 20.1464 35.9424 20.1533 36.0138Z" fill="#263238"/>
<path d="M20.5326 34.0246C20.4649 34.1005 20.026 33.8049 19.425 33.8316C18.8241 33.8583 18.3995 34.1806 18.3236 34.1087C18.2908 34.078 18.3544 33.9425 18.5431 33.7947C18.795 33.6008 19.1013 33.4909 19.4189 33.4806C19.7326 33.4662 20.0428 33.5517 20.305 33.7249C20.4957 33.8665 20.5634 33.9897 20.5326 34.0246Z" fill="#263238"/>
<path d="M22.914 38.4054C22.914 38.3725 23.2811 38.2904 23.8841 38.1857C24.038 38.1631 24.1836 38.1262 24.2041 38.0215C24.2104 37.8612 24.1675 37.7029 24.081 37.5678L23.5765 36.4141C22.8709 34.7719 22.3458 33.417 22.4217 33.3883C22.4976 33.3595 23.1129 34.6713 23.8165 36.3135L24.3046 37.4754C24.4093 37.6573 24.4464 37.8703 24.4092 38.0769C24.3892 38.1323 24.3568 38.1824 24.3145 38.2233C24.2722 38.2642 24.2211 38.2949 24.1651 38.313C24.0815 38.3404 23.9946 38.357 23.9067 38.3623C23.2955 38.4218 22.916 38.4403 22.914 38.4054Z" fill="#263238"/>
<path d="M23.3735 45.5471C23.3735 45.5471 20.7071 45.8468 17.7186 44.2189C17.7186 44.2189 19.0313 47.4562 23.3858 46.8589L23.3735 45.5471Z" fill="#FF9A6C"/>
<path d="M22.8853 39.8444C22.7411 39.651 22.552 39.4957 22.3343 39.392C22.1167 39.2882 21.877 39.2392 21.6362 39.249C21.4788 39.2577 21.3259 39.3047 21.1908 39.3859C21.0557 39.4671 20.9424 39.5801 20.8609 39.715C20.7704 39.8711 20.7297 40.051 20.7441 40.2308C20.7585 40.4106 20.8274 40.5818 20.9415 40.7214C21.0556 40.861 21.2095 40.9625 21.3827 41.0123C21.556 41.0621 21.7403 41.0579 21.911 41.0001C22.2425 40.877 22.5395 40.6756 22.7766 40.413C22.8527 40.3479 22.9142 40.2675 22.9571 40.1769C22.9777 40.1274 22.9852 40.0734 22.9787 40.0201C22.9722 39.9669 22.952 39.9162 22.9201 39.8731" fill="#FF9A6C"/>
<path d="M21.1561 38.9001C21.2546 38.8898 21.2833 39.5447 21.8638 39.986C22.4442 40.4274 23.1375 40.3247 23.1477 40.4151C23.158 40.4561 22.998 40.5506 22.7027 40.5711C22.3198 40.5919 21.9417 40.4779 21.634 40.2488C21.3381 40.0279 21.1402 39.7001 21.0823 39.3353C21.0454 39.0643 21.111 38.898 21.1561 38.9001Z" fill="#263238"/>
<path d="M20.6927 31.5284C20.6393 31.6947 20.0343 31.6433 19.3307 31.7583C18.6272 31.8733 18.0632 32.0909 17.9627 31.9492C17.9176 31.8794 18.0099 31.7213 18.2334 31.553C18.5332 31.3454 18.8761 31.2085 19.2363 31.1526C19.5966 31.0968 19.9648 31.1235 20.3132 31.2307C20.5778 31.3251 20.7132 31.4483 20.6927 31.5284Z" fill="#263238"/>
<path d="M26.1527 31.5879C26.0543 31.7295 25.6317 31.6043 25.1272 31.6207C24.6226 31.6372 24.2083 31.7521 24.1016 31.6207C24.0565 31.553 24.116 31.4155 24.3067 31.2759C24.5475 31.1104 24.832 31.0202 25.1241 31.0165C25.4161 31.0128 25.7027 31.096 25.9476 31.2553C26.1342 31.3806 26.1978 31.5181 26.1527 31.5879Z" fill="#263238"/>
<path d="M30.0825 30.8057C29.8908 30.1389 29.4749 29.5588 28.9051 29.1635C28.5872 28.9582 28.218 28.8432 27.9227 28.6113C27.2848 28.1104 27.1248 27.2236 26.7248 26.5174C26.4624 26.061 26.0949 25.674 25.6529 25.3883C25.2109 25.1027 24.7071 24.9268 24.1836 24.8751C23.3159 24.7992 22.4278 25.0804 21.5807 24.8751C20.9531 24.7253 20.4034 24.3291 19.7696 24.2182C18.539 24.0006 17.4027 24.9018 16.5228 25.7968C16.5228 26.6775 17.2427 27.2585 17.9257 27.8148C18.2712 28.0908 18.6722 28.2888 19.1013 28.3951C19.5304 28.5014 19.9774 28.5135 20.4116 28.4306C21.0823 28.2972 21.8146 27.9462 22.4032 28.2951C22.9919 28.6441 23.0596 29.5884 23.6093 30.0524C24.3948 30.7154 25.6214 30.0647 26.61 30.3418C27.375 30.5574 27.8611 31.2779 28.376 31.8835C28.8908 32.4891 29.6558 33.0598 30.4127 32.8216C30.3807 32.1392 30.2699 31.4627 30.0825 30.8057Z" fill="#263238"/>
<path d="M20.7808 27.2113C20.2271 27.0614 19.0908 26.7206 18.7892 26.2444C18.1309 25.218 16.9863 24.52 15.8275 24.6021C15.2287 24.6576 14.664 24.9058 14.218 25.3096C13.772 25.7134 13.4688 26.251 13.3539 26.8418C12.6351 26.8768 11.939 27.105 11.3388 27.5023C10.7386 27.8997 10.2564 28.4515 9.94294 29.0999C9.86323 29.2676 9.79471 29.4404 9.73783 29.6172C9.5259 30.0065 9.40126 30.4374 9.37257 30.8798C9.34388 31.3222 9.41183 31.7656 9.57169 32.1791C9.7768 32.6759 10.105 33.226 9.85474 33.6982C9.60451 34.1703 8.93996 34.2052 8.41898 34.39C7.98007 34.5659 7.61662 34.8902 7.3918 35.3065C7.16697 35.7228 7.09498 36.2047 7.18833 36.6686C7.26422 37.0012 7.42831 37.3297 7.36268 37.6622C7.29704 37.9948 7.00374 38.2596 6.78017 38.5326C6.5017 38.8749 6.31781 39.2843 6.24687 39.7199C6.17594 40.1555 6.22043 40.6022 6.37592 41.0152C6.5314 41.4282 6.79244 41.7932 7.13295 42.0737C7.47346 42.3542 7.88154 42.5404 8.31643 42.6136C8.71024 42.6793 9.13686 42.6567 9.47939 42.86C9.8732 43.094 10.0496 43.562 10.3306 43.9233C10.6071 44.2667 10.9812 44.5179 11.4036 44.6437C11.8259 44.7694 12.2764 44.7638 12.6955 44.6275C12.862 44.566 13.0199 44.4832 13.1652 44.3811C13.4339 44.7424 13.8502 44.9846 14.5558 44.9744L14.2584 35.751C14.3108 35.8629 14.3894 35.9603 14.4877 36.035C14.5859 36.1098 14.7008 36.1595 14.8225 36.1801C16.3074 36.4942 16.4797 33.4395 16.1372 32.6164C16.6893 32.1525 17.1806 31.6207 17.5996 31.0336C17.9975 30.4178 18.3339 28.7755 18.2355 28.0303C18.7646 28.0611 21.0249 27.277 20.7808 27.2113Z" fill="#263238"/>
<path d="M14.6706 36.5024C14.6091 35.5663 13.4605 35.3815 12.6544 35.8639C12.2134 36.1288 11.8791 36.6522 11.9345 37.6478C12.0842 40.3001 14.7137 39.6042 14.7137 39.5282C14.7137 39.4523 14.7404 37.6006 14.6706 36.5024Z" fill="#FFBF9D"/>
<path d="M13.8481 38.5675C13.8358 38.5675 13.805 38.6024 13.7291 38.6435C13.6211 38.696 13.4972 38.7055 13.3825 38.6702C13.0974 38.5819 12.8369 38.1508 12.7979 37.6725C12.7779 37.4453 12.8095 37.2165 12.8902 37.0033C12.9103 36.9192 12.9505 36.8413 13.0073 36.7762C13.0641 36.7112 13.1358 36.6609 13.2164 36.6297C13.2688 36.6127 13.3254 36.6145 13.3767 36.6347C13.4279 36.6549 13.4706 36.6923 13.4974 36.7405C13.5363 36.8144 13.522 36.8678 13.5363 36.8719C13.5507 36.876 13.5917 36.8226 13.563 36.7159C13.5457 36.6502 13.5058 36.5927 13.4502 36.5537C13.374 36.5036 13.2813 36.4852 13.1918 36.5024C13.0835 36.5303 12.9842 36.5859 12.9037 36.6636C12.8232 36.7413 12.7642 36.8385 12.7323 36.9458C12.6319 37.182 12.591 37.4393 12.6133 37.6951C12.6605 38.2288 12.962 38.7215 13.3497 38.8015C13.4206 38.8171 13.4942 38.8169 13.565 38.801C13.6359 38.785 13.7024 38.7537 13.7599 38.7092C13.8481 38.6332 13.8584 38.5716 13.8481 38.5675Z" fill="#FF9A6C"/>
<path d="M17.1175 26.5482C16.9118 26.658 16.7332 26.8122 16.5945 26.9998C16.3381 27.3652 16.2499 28.0591 16.4263 28.8371L16.4427 28.9048L16.3771 28.9212C15.997 29.0295 15.647 29.2242 15.3546 29.4903C15.0621 29.7563 14.835 30.0863 14.6911 30.4547C14.612 30.6622 14.5684 30.8814 14.5619 31.1034C14.572 31.3391 14.6036 31.5734 14.6562 31.8034C14.7108 32.0516 14.7478 32.3034 14.767 32.5568C14.7888 32.8351 14.7166 33.1127 14.5619 33.3451C14.2399 33.8521 13.7127 34.1067 13.2615 34.353C12.8086 34.5565 12.3927 34.834 12.0309 35.1742C11.4386 35.7716 11.0961 36.5725 11.073 37.4138C11.0608 37.9836 11.1891 38.5476 11.4463 39.0561C11.6288 39.4173 11.7786 39.5877 11.7642 39.598C11.7499 39.6083 11.7191 39.5631 11.6494 39.481C11.5491 39.3591 11.4599 39.2286 11.3827 39.091C11.092 38.5822 10.94 38.006 10.9417 37.4199C10.9478 36.5384 11.2939 35.6934 11.9078 35.0613C12.2798 34.7016 12.7097 34.4074 13.1795 34.1909C13.6307 33.9445 14.1271 33.692 14.4101 33.2445C14.6973 32.8339 14.5598 32.3125 14.4757 31.8383C14.4213 31.5969 14.3904 31.3508 14.3834 31.1034C14.3903 30.8602 14.4389 30.6199 14.527 30.3931C14.6832 30.0022 14.9287 29.6533 15.2439 29.3745C15.5592 29.0957 15.9353 28.8948 16.3422 28.7878L16.293 28.872C16.1228 28.0508 16.2376 27.3365 16.533 26.9546C16.6395 26.8079 16.7804 26.6895 16.9432 26.6098C16.998 26.5809 17.0568 26.5602 17.1175 26.5482Z" fill="#455A64"/>
<path d="M12.8718 39.5754C13.0772 39.3498 13.333 39.1761 13.6184 39.0684H13.561C13.6141 39.054 13.6683 39.0437 13.723 39.0376C13.8208 39.0081 13.9236 38.9987 14.0251 39.01C14.1266 39.0213 14.2248 39.053 14.3137 39.1033C14.6439 39.2157 14.9193 39.4489 15.0849 39.7561C15.2162 40.0281 15.2699 40.3311 15.2402 40.6317C15.2106 40.9323 15.0986 41.2189 14.9167 41.4599C14.7866 41.6818 14.5918 41.8586 14.3584 41.9666C14.1251 42.0746 13.8643 42.1087 13.6111 42.0643C13.3579 42.0198 13.1243 41.899 12.9415 41.718C12.7588 41.537 12.6357 41.3044 12.5888 41.0514C12.5093 40.8013 12.4935 40.5352 12.543 40.2774C12.5924 40.0197 12.7054 39.7783 12.8718 39.5754Z" fill="#455A64"/>
<path d="M51.3152 59.5926L53.1222 58.8988C53.1222 58.8988 53.6166 57.3201 53.9427 56.8582C54.2688 56.3964 56.0143 54.9758 56.1168 54.9388C56.2194 54.9019 57.3659 52.3276 57.889 52.4098C58.412 52.4919 58.7709 52.8614 58.6253 53.5593C58.4797 54.2573 57.3208 55.6512 57.6408 55.8811C57.8989 56.0397 58.1851 56.147 58.4838 56.1972C58.4838 56.1972 58.6274 55.3946 59.0663 55.1359C59.5052 54.8773 60.0077 55.3063 60.0077 55.3063L60.02 55.6532L60.4549 55.255C60.4549 55.255 60.9123 53.6435 61.6035 53.6517C61.7658 53.3016 61.9983 52.9886 62.2865 52.7321C62.3607 52.676 62.447 52.6381 62.5385 52.6214C62.63 52.6046 62.7241 52.6095 62.8134 52.6356C62.9026 52.6618 62.9846 52.7084 63.0526 52.7718C63.1207 52.8353 63.173 52.9137 63.2054 53.001L61.9645 56.653L58.5453 60.4219C58.5453 60.4219 56.9434 61.0378 56.5353 61.2267C56.1271 61.4155 54.2791 62.7006 53.4586 62.9757C52.6382 63.2507 51.6844 63.6675 51.6844 63.6675L51.3152 59.5926Z" fill="#FFBF9D"/>
<path d="M56.1107 58.4676C55.8991 58.4139 55.6807 58.3917 55.4626 58.4019C54.9252 58.3752 54.3906 58.4929 53.914 58.7427C53.6538 58.8936 53.4336 59.1048 53.272 59.3586C53.1452 59.5621 53.0427 59.7798 52.9664 60.0073C52.8816 60.2095 52.8317 60.4247 52.8187 60.6436C52.9267 60.456 53.0153 60.2579 53.0833 60.0524C53.2392 59.6973 53.4935 59.1841 54.0022 58.8926C54.455 58.659 54.9553 58.5326 55.4646 58.5231C55.6814 58.5305 55.8983 58.5119 56.1107 58.4676Z" fill="#FF9A6C"/>
<path d="M57.688 55.9735C57.7147 55.9365 57.5281 55.7682 57.2368 55.6799C56.9455 55.5917 56.6974 55.6307 56.6994 55.6799C56.7015 55.7292 56.923 55.7702 57.1876 55.8503C57.4522 55.9304 57.6634 56.0166 57.688 55.9735Z" fill="#FF9A6C"/>
<path d="M61.5625 56.6529C61.5605 56.3867 61.5873 56.121 61.6425 55.8605C61.7142 55.3679 61.825 54.6802 61.9624 53.8898L62.0137 53.9925C61.8927 53.937 61.7471 53.8508 61.6384 53.8159C61.5778 53.7989 61.5144 53.7944 61.452 53.8025C61.3896 53.8106 61.3295 53.8312 61.2753 53.8631C61.0832 53.9836 60.9351 54.1629 60.8528 54.3743C60.7587 54.5771 60.6832 54.788 60.6272 55.0045C60.5287 55.4274 60.4631 55.8256 60.4036 56.1459C60.3573 56.5028 60.2832 56.8556 60.1821 57.201C60.1554 57.201 60.1821 56.7905 60.2641 56.1233C60.3072 55.7928 60.3585 55.4007 60.4508 54.9635C60.5043 54.733 60.5799 54.5082 60.6764 54.2922C60.7743 54.0401 60.9523 53.8273 61.183 53.6866C61.3387 53.5999 61.5223 53.5784 61.6937 53.6271C61.8344 53.6827 61.9714 53.7472 62.1039 53.82L62.1696 53.8508L62.1552 53.9227C62.0075 54.713 61.8722 55.3966 61.7676 55.8831C61.727 56.1463 61.6582 56.4044 61.5625 56.6529Z" fill="#FF9A6C"/>
<path d="M57.0728 59.7711C57.0728 59.7711 57.0728 59.7157 57.0892 59.6151C57.1236 59.4737 57.1724 59.3361 57.2348 59.2046C57.4681 58.7261 57.7708 58.2847 58.1332 57.8949L58.1127 57.9277C58.3506 57.2277 58.1352 56.2136 58.769 55.3083C58.8492 55.2124 58.9502 55.1362 59.0643 55.0853C59.1784 55.0344 59.3026 55.0103 59.4274 55.0147C59.6571 55.0264 59.8786 55.1041 60.0653 55.2385L60.1104 55.2693V55.3247C59.9832 56.3511 59.8663 57.2359 59.774 57.8641C59.7539 58.1175 59.6752 58.3627 59.5443 58.5805C59.4561 58.7324 59.3925 58.8022 59.3823 58.7858C59.4085 58.7003 59.4436 58.6177 59.4869 58.5395C59.591 58.3182 59.6483 58.0778 59.6551 57.8333C59.7125 57.2031 59.8048 56.3162 59.9197 55.2939L59.9586 55.3822C59.8014 55.2745 59.6176 55.212 59.4274 55.2016C59.3315 55.1984 59.2361 55.2173 59.1487 55.2568C59.0612 55.2963 58.9839 55.3554 58.9228 55.4294C58.7784 55.6092 58.6773 55.82 58.6275 56.0453C58.5673 56.2655 58.5194 56.4889 58.4839 56.7145C58.447 56.9382 58.4367 57.1435 58.4101 57.3652C58.3827 57.5698 58.3381 57.7717 58.2767 57.9688V57.9872L58.2644 58.0016C57.9032 58.3711 57.5903 58.785 57.3332 59.2333C57.1363 59.5638 57.0953 59.7773 57.0728 59.7711Z" fill="#FF9A6C"/>
<path d="M13.1302 48.4026C13.241 48.2466 13.965 46.8445 13.965 46.8445L18.0795 50.3938C18.0795 50.3938 22.1119 53.7728 22.1119 53.5552L22.756 50.3035L23.5477 47.3454L25.0265 49.583C25.0265 49.583 29.6763 58.7037 29.6763 58.8207C29.6763 58.9377 32.5478 68.3705 32.5478 68.3705L31.9325 72.199L31.8587 85.7579L23.1929 85.3925L21.4823 82.6602L18.5328 65.2748L13.1302 48.4026Z" fill="white"/>
<path d="M23.9436 83.0667H33.1776L34.64 89.2785H20.4404L23.9436 83.0667Z" fill="#263238"/>
<path d="M23.6524 80.4452C23.3632 75.9926 23.4842 67.5904 21.7818 63.2014C20.0794 58.8125 13.2411 48.0557 13.2411 48.0557L11.5613 50.6669L7.16168 52.3194L13.1303 76.5428C13.1303 76.5428 10.8331 81.9622 9.73784 85.1277C9.40967 86.074 8.96868 87.6794 8.48463 89.2826H23.5929C23.7262 85.7559 23.7898 82.5493 23.6524 80.4452Z" fill="#90CAF9"/>
<path d="M52.5808 58.2603L40.9348 64.739L32.8699 53.2124L32.8002 53.12C31.8813 51.9027 30.9788 50.5642 29.4939 50.2296L29.2682 50.1783L29.699 63.9754C29.699 63.9754 35.442 70.3063 38.656 72.9237C39.6139 73.7037 42.0424 73.2172 43.1992 72.5767C47.8326 70.0168 55.7498 63.454 55.7498 63.454L52.5808 58.2603Z" fill="#90CAF9"/>
<path d="M33.0956 76.6433C33.0956 76.6433 33.9447 70.0579 34.2236 68.4033C35.6799 59.7486 29.2641 50.1783 29.2641 50.1783L26.3311 49.6918L23.8 47.602L24.9179 50.7264C24.9179 50.7264 28.5934 61.0152 29.3236 64.3038C30.0538 67.5924 30.4189 77.6964 30.5317 77.4521C30.5994 77.3105 31.0404 83.5552 31.5962 89.2785H37.8212L33.0956 76.6433Z" fill="#90CAF9"/>
<path d="M32.5541 69.3107C32.5468 69.239 32.5468 69.1668 32.5541 69.0951C32.5541 68.9432 32.5725 68.74 32.5869 68.4793C32.5869 68.3438 32.6033 68.198 32.6136 68.0379C32.6238 67.8778 32.6136 67.6992 32.6136 67.5124C32.6136 67.1347 32.6136 66.7056 32.5849 66.2314C32.4444 63.7603 31.9612 61.3207 31.1491 58.9829C30.8186 58.0018 30.4281 57.042 29.98 56.1089C29.5837 55.2058 29.133 54.3277 28.6304 53.4792C28.1853 52.7033 27.7751 52.0299 27.4305 51.4716L26.6101 50.1701C26.5219 50.0264 26.4501 49.9114 26.3926 49.8211C26.365 49.7823 26.3423 49.7402 26.325 49.6959C26.3582 49.7303 26.3878 49.7682 26.4131 49.8088C26.4726 49.895 26.5506 50.0141 26.649 50.1434C26.8541 50.439 27.1392 50.8742 27.4941 51.4264C27.8489 51.9786 28.2694 52.6581 28.7247 53.4197C29.2371 54.2696 29.6961 55.1506 30.0989 56.0576C30.5547 56.9959 30.9493 57.9628 31.2804 58.9521C32.1004 61.3014 32.5744 63.7577 32.6874 66.2437C32.7182 66.72 32.7018 67.1511 32.6874 67.5288C32.6874 67.7177 32.6874 67.8942 32.6751 68.0564C32.6628 68.2185 32.6484 68.3643 32.6361 68.4998C32.6095 68.7523 32.591 68.9555 32.5746 69.1156C32.5725 69.1811 32.5657 69.2462 32.5541 69.3107Z" fill="#263238"/>
<path d="M22.0361 53.6045C21.9786 53.5875 21.9235 53.5634 21.872 53.5326L21.429 53.2986L19.862 52.4302L19.9543 52.3851C19.8784 53.0892 19.7491 53.9124 19.6199 54.7889C19.5666 55.1461 19.5174 55.4931 19.4764 55.8277L19.462 55.9549L19.3635 55.8728C18.5267 55.1585 17.7965 54.5303 17.2817 54.0787L16.6787 53.5408C16.6036 53.4794 16.5349 53.4106 16.4736 53.3355C16.5596 53.3814 16.6396 53.438 16.7115 53.5039L17.3412 54.0089C17.8724 54.4441 18.6128 55.0579 19.4558 55.7661L19.341 55.8112C19.38 55.4746 19.4271 55.1256 19.4805 54.7684C19.6097 53.8898 19.7471 53.0687 19.8332 52.3707L19.8456 52.2763L19.9255 52.3235L21.4659 53.2349L21.8946 53.4998C21.9992 53.5614 22.0402 53.5983 22.0361 53.6045Z" fill="#263238"/>
<path d="M24.4297 49.583C24.447 49.7054 24.4511 49.8292 24.442 49.9525C24.442 50.2194 24.442 50.5581 24.4236 50.9625C24.403 51.8165 24.362 52.9927 24.3107 54.2942C24.3107 54.325 24.3107 54.3579 24.3107 54.3887L24.3005 54.6165L24.1795 54.4236C23.5908 53.4936 23.0514 52.6417 22.6227 51.9602L22.7212 51.9478L22.2945 53.12C22.248 53.2674 22.1882 53.4103 22.1161 53.547C22.1427 53.3951 22.1832 53.246 22.2371 53.1015C22.3356 52.7916 22.4627 52.3913 22.6166 51.913L22.6514 51.8042L22.715 51.9006L24.2984 54.3394L24.1692 54.3743C24.1692 54.3435 24.1692 54.3107 24.1692 54.2799C24.2205 52.9804 24.2759 51.8021 24.3231 50.9502C24.3497 50.5396 24.3702 50.2091 24.3866 49.9422C24.3887 49.8213 24.4031 49.7009 24.4297 49.583Z" fill="#263238"/>
<path d="M7.16172 52.3194C6.79541 52.5478 6.45197 52.8111 6.13618 53.1056C5.32707 53.8843 4.71774 54.847 4.35994 55.9118C3.94972 57.1004 3.53951 58.562 3.29338 59.4817L2.18169 76.3867C2.08197 77.888 2.32464 79.3923 2.89137 80.7859L6.33923 89.2785H13.7765L9.76249 77.9161L11.1285 65.3815L7.16172 52.3194Z" fill="#90CAF9"/>
<path d="M11.7438 50.3857L13.3785 55.296H15.122L13.9898 56.0166L22.9345 73.1228" fill="#90CAF9"/>
<path d="M22.9345 73.1228C22.9345 73.1228 22.9181 73.1043 22.8935 73.0632L22.791 72.8826C22.6987 72.7101 22.5694 72.472 22.4074 72.1764L21.0188 69.5693L16.4859 60.9474L13.9323 56.0473L13.9036 55.994L13.9549 55.9611L15.0871 55.2426L15.122 55.3576H13.3785H13.3375L13.3252 55.3186C12.8371 53.82 12.4371 52.5924 12.1541 51.7282C12.0228 51.3176 11.9182 50.9789 11.8423 50.7408C11.8095 50.634 11.7849 50.5499 11.7643 50.4821C11.7531 50.4532 11.7462 50.4227 11.7438 50.3918C11.7582 50.4189 11.7706 50.447 11.7808 50.476C11.8033 50.5416 11.8341 50.6258 11.8731 50.7305L12.2156 51.7076C12.5068 52.5698 12.9232 53.7913 13.4319 55.2837L13.3785 55.2467H15.122H15.3271L15.1466 55.3617L14.0164 56.0863L14.041 56.0001C14.8205 57.4905 15.6819 59.1471 16.6049 60.892C18.3565 64.2627 19.9441 67.3153 21.1009 69.5365C21.6649 70.6388 22.1264 71.5339 22.4484 72.1641L22.8197 72.8703L22.9099 73.0591C22.9197 73.0797 22.928 73.1009 22.9345 73.1228Z" fill="#263238"/>
<path d="M8.4436 54.7131C9.52695 55.9751 10.3077 57.4684 10.7261 59.0787C11.1445 60.689 11.1895 62.3738 10.8577 64.0042" fill="#90CAF9"/>
<path d="M10.8577 64.0042C10.829 64.0042 10.95 63.452 11.0013 62.5672C11.0298 62.0438 11.0223 61.5191 10.9787 60.9968C10.9203 60.3585 10.8126 59.7257 10.6567 59.1041C10.4895 58.4852 10.2755 57.8799 10.0168 57.2935C9.80447 56.8137 9.55912 56.3494 9.28246 55.9037C8.80251 55.1483 8.42921 54.7315 8.46203 54.7131C8.5609 54.7989 8.65091 54.8945 8.73072 54.9984C8.83423 55.1114 8.93146 55.2299 9.02198 55.3535C9.12863 55.4972 9.25785 55.6574 9.37681 55.8483C9.67084 56.2893 9.93138 56.7518 10.1562 57.2319C10.4255 57.8222 10.645 58.434 10.8126 59.061C10.9717 59.69 11.0774 60.3314 11.1284 60.9783C11.17 61.5064 11.17 62.037 11.1284 62.5651C11.1182 62.7909 11.0833 62.9921 11.0608 63.1707C11.0419 63.3232 11.0152 63.4746 10.9808 63.6244C10.951 63.7544 10.9098 63.8815 10.8577 64.0042Z" fill="#263238"/>
<path d="M13.7765 89.2785C13.7656 89.2604 13.7567 89.2411 13.7498 89.2211C13.7334 89.1779 13.7129 89.1225 13.6842 89.0527C13.6268 88.8947 13.5468 88.675 13.4422 88.3958C13.2371 87.8169 12.9355 86.9917 12.5684 85.9735C11.8382 83.9207 10.8291 81.0795 9.71124 77.9346V77.9223V77.91C9.71124 77.8238 9.73175 77.7293 9.74201 77.6328C10.1194 74.2518 10.4599 71.1911 10.7081 68.9679C10.8352 67.8655 10.9398 66.9705 11.0137 66.3423C11.0506 66.0385 11.0793 65.8003 11.1019 65.63L11.1265 65.4452C11.1282 65.4236 11.1323 65.4022 11.1388 65.3816C11.1421 65.4026 11.1421 65.4241 11.1388 65.4452C11.1388 65.4945 11.1388 65.5561 11.1244 65.632C11.108 65.8024 11.0855 66.0426 11.0568 66.3484C10.9911 66.9766 10.8988 67.8716 10.784 68.9761C10.544 71.2013 10.2138 74.2621 9.85072 77.6452C9.85072 77.7396 9.82816 77.834 9.81995 77.9223V77.8977L12.6484 85.9488L13.4893 88.3815C13.5857 88.6647 13.6596 88.8864 13.7129 89.0445L13.7683 89.219C13.7732 89.2385 13.7759 89.2584 13.7765 89.2785Z" fill="#263238"/>
<path d="M31.2291 54.5673C31.691 55.301 32.0949 56.0697 32.4372 56.8664C32.6094 57.2298 32.753 57.6465 32.9294 58.0838C33.1058 58.521 33.2535 59.0055 33.3889 59.5208C33.5242 60.036 33.6596 60.5739 33.7991 61.1384C33.8503 61.4237 33.9037 61.7132 33.957 62.0067C34.0103 62.3003 34.0431 62.602 34.0883 62.9038C34.3421 64.9831 34.3696 67.0838 34.1703 69.169C34.1252 69.5652 34.0862 69.9265 34.0493 70.2447C34.0124 70.5629 33.9652 70.8318 33.9344 71.0535L33.8524 71.5647C33.8437 71.6241 33.8321 71.683 33.8175 71.7412C33.8163 71.6807 33.8211 71.6202 33.8319 71.5606C33.8462 71.4354 33.8668 71.2629 33.8934 71.0494C33.9201 70.8359 33.9632 70.5547 33.9898 70.2386C34.0165 69.9224 34.0575 69.5591 34.0944 69.1629C34.2699 67.0829 34.2321 64.9904 33.9816 62.9182C33.9365 62.6164 33.9057 62.3147 33.8524 62.0231C33.7991 61.7316 33.7478 61.4422 33.6965 61.1589C33.5693 60.5985 33.4545 60.0545 33.3027 59.5474C33.1509 59.0404 32.9991 58.5621 32.8556 58.1105C32.712 57.6588 32.5459 57.2565 32.3777 56.8931L32.15 56.3676C32.0782 56.2034 31.9982 56.0535 31.9305 55.9098C31.7911 55.6224 31.6741 55.3761 31.5613 55.1811C31.4485 54.9861 31.3788 54.8382 31.3173 54.7274C31.2844 54.676 31.255 54.6225 31.2291 54.5673Z" fill="#263238"/>
<path d="M41.0496 68.3356C40.9572 68.1781 40.8881 68.008 40.8445 67.8306C40.5744 66.9796 40.5348 66.0722 40.7296 65.2009C40.7599 65.0198 40.8165 64.8441 40.8978 64.6795C40.9142 64.6795 40.8588 64.8848 40.8035 65.2153C40.6526 66.0783 40.6918 66.9638 40.9183 67.8101C40.9922 68.1344 41.0742 68.3294 41.0496 68.3356Z" fill="#263238"/>
<path d="M87.962 89.2786C87.962 89.3073 68.6203 89.3319 44.7683 89.3319C20.9163 89.3319 1.5705 89.3073 1.5705 89.2786C1.5705 89.2498 20.9081 89.2252 44.7683 89.2252C68.6285 89.2252 87.962 89.2498 87.962 89.2786Z" fill="#263238"/>
</svg>
