<svg width="115" height="86" viewBox="0 0 115 86" fill="none" xmlns="http://www.w3.org/2000/svg">
<path d="M57.8068 85.7252C82.1773 85.7252 101.933 84.5708 101.933 83.1466C101.933 81.7225 82.1773 80.5681 57.8068 80.5681C33.4363 80.5681 13.6801 81.7225 13.6801 83.1466C13.6801 84.5708 33.4363 85.7252 57.8068 85.7252Z" fill="#F5F5F5"/>
<path d="M94.3343 27.9528H22.1349C21.3376 27.9528 20.5729 28.2698 20.0091 28.8341C19.4453 29.3985 19.1285 30.1638 19.1285 30.9619V76.7479C19.1285 77.5462 19.4452 78.3118 20.0089 78.8765C20.5727 79.4412 21.3374 79.7587 22.1349 79.7593H31.7186V78.2924C31.7186 78.0851 31.8008 77.8864 31.9472 77.7399C32.0936 77.5934 32.2922 77.511 32.4992 77.511H83.9792C84.0818 77.5107 84.1834 77.5307 84.2783 77.5699C84.3731 77.6091 84.4593 77.6666 84.5318 77.7392C84.6044 77.8118 84.6618 77.8981 84.701 77.993C84.7401 78.0879 84.7601 78.1897 84.7598 78.2924V79.7593H94.3343C94.7293 79.7593 95.1205 79.6814 95.4854 79.5301C95.8503 79.3787 96.1818 79.1568 96.461 78.8772C96.7402 78.5975 96.9616 78.2655 97.1125 77.9002C97.2635 77.5348 97.341 77.1433 97.3407 76.7479V30.9619C97.341 30.5667 97.2635 30.1752 97.1125 29.81C96.9615 29.4448 96.7401 29.113 96.4608 28.8335C96.1816 28.554 95.8501 28.3324 95.4852 28.1812C95.1203 28.0301 94.7292 27.9525 94.3343 27.9528Z" fill="#263238"/>
<path opacity="0.2" d="M94.3343 27.9528H22.1349C21.3376 27.9528 20.5729 28.2698 20.0091 28.8341C19.4453 29.3985 19.1285 30.1638 19.1285 30.9619V76.7479C19.1285 77.5462 19.4452 78.3118 20.0089 78.8765C20.5727 79.4412 21.3374 79.7587 22.1349 79.7593H31.7186V78.2924C31.7186 78.0851 31.8008 77.8864 31.9472 77.7399C32.0936 77.5934 32.2922 77.511 32.4992 77.511H83.9792C84.0818 77.5107 84.1834 77.5307 84.2783 77.5699C84.3731 77.6091 84.4593 77.6666 84.5318 77.7392C84.6044 77.8118 84.6618 77.8981 84.701 77.993C84.7401 78.0879 84.7601 78.1897 84.7598 78.2924V79.7593H94.3343C94.7293 79.7593 95.1205 79.6814 95.4854 79.5301C95.8503 79.3787 96.1818 79.1568 96.461 78.8772C96.7402 78.5975 96.9616 78.2655 97.1125 77.9002C97.2635 77.5348 97.341 77.1433 97.3407 76.7479V30.9619C97.341 30.5667 97.2635 30.1752 97.1125 29.81C96.9615 29.4448 96.7401 29.113 96.4608 28.8335C96.1816 28.554 95.8501 28.3324 95.4852 28.1812C95.1203 28.0301 94.7292 27.9525 94.3343 27.9528Z" fill="white"/>
<path d="M58.8672 29.9231C58.8672 30.0484 58.8301 30.1708 58.7606 30.2749C58.6911 30.3791 58.5923 30.4602 58.4767 30.5082C58.3611 30.5561 58.2339 30.5686 58.1111 30.5442C57.9884 30.5198 57.8757 30.4595 57.7872 30.3709C57.6987 30.2823 57.6384 30.1695 57.614 30.0467C57.5896 29.9238 57.6021 29.7965 57.65 29.6808C57.6979 29.5651 57.779 29.4662 57.8831 29.3966C57.9871 29.327 58.1094 29.2899 58.2346 29.2899C58.3177 29.2896 58.4001 29.3057 58.477 29.3375C58.5539 29.3692 58.6238 29.4158 58.6826 29.4747C58.7414 29.5335 58.788 29.6035 58.8197 29.6804C58.8514 29.7574 58.8675 29.8399 58.8672 29.9231Z" fill="#90CAF9"/>
<path d="M103.251 78.634H13.2204V80.8892H103.251V78.634Z" fill="#263238"/>
<path opacity="0.5" d="M103.251 78.634H13.2204V80.8892H103.251V78.634Z" fill="white"/>
<path d="M13.2204 80.8892L14.6133 82.0053C15.5319 82.7427 16.6743 83.1445 17.8518 83.1443H98.6175C99.7951 83.1445 100.937 82.7427 101.856 82.0053L103.251 80.8892H13.2204Z" fill="#263238"/>
<path opacity="0.3" d="M13.2204 80.8892L14.6133 82.0053C15.5319 82.7427 16.6743 83.1445 17.8518 83.1443H98.6175C99.7951 83.1445 100.937 82.7427 101.856 82.0053L103.251 80.8892H13.2204Z" fill="white"/>
<path opacity="0.4" d="M49.5841 78.7069C49.5838 78.8453 49.6108 78.9824 49.6635 79.1104C49.7162 79.2383 49.7936 79.3546 49.8912 79.4526C49.9889 79.5505 50.1049 79.6282 50.2326 79.6813C50.3603 79.7343 50.4973 79.7616 50.6355 79.7616H65.8337C65.972 79.7616 66.1089 79.7343 66.2366 79.6813C66.3643 79.6282 66.4803 79.5505 66.578 79.4526C66.6757 79.3546 66.7531 79.2383 66.8058 79.1104C66.8585 78.9824 66.8855 78.8453 66.8852 78.7069C66.8852 78.6819 66.8852 78.6591 66.8852 78.634H49.5886C49.5886 78.6591 49.5841 78.6819 49.5841 78.7069Z" fill="white"/>
<path d="M93.8245 32.561H22.4376V73.2263H93.8245V32.561Z" fill="#90CAF9"/>
<g opacity="0.9">
<path d="M93.8245 32.561H22.4376V73.2263H93.8245V32.561Z" fill="white"/>
</g>
<path d="M83.5172 39.0645H31.9325V40.7729H83.5172V39.0645Z" fill="#90CAF9"/>
<g opacity="0.8">
<path d="M83.5172 39.0645H31.9325V40.7729H83.5172V39.0645Z" fill="white"/>
</g>
<path d="M85.3629 39.0645H83.5149V40.7729H85.3629V39.0645Z" fill="#90CAF9"/>
<g opacity="0.5">
<path d="M85.3629 39.0645H83.5149V40.7729H85.3629V39.0645Z" fill="white"/>
</g>
<path d="M93.8245 32.561H22.4376V34.4927H93.8245V32.561Z" fill="#90CAF9"/>
<path d="M88.6925 33.5268C88.6929 33.637 88.6607 33.7447 88.5998 33.8365C88.539 33.9282 88.4523 33.9998 88.3507 34.0422C88.2492 34.0845 88.1373 34.0957 88.0294 34.0744C87.9215 34.053 87.8223 34 87.7445 33.9221C87.6667 33.8443 87.6138 33.745 87.5924 33.637C87.5711 33.529 87.5822 33.417 87.6246 33.3154C87.6669 33.2137 87.7384 33.1269 87.8301 33.066C87.9217 33.0051 88.0294 32.9729 88.1394 32.9733C88.2861 32.9733 88.4268 33.0316 88.5305 33.1354C88.6342 33.2392 88.6925 33.38 88.6925 33.5268Z" fill="white"/>
<path d="M90.8181 33.5268C90.8186 33.6369 90.7864 33.7445 90.7256 33.8362C90.6649 33.9279 90.5783 33.9995 90.4769 34.042C90.3755 34.0844 90.2637 34.0957 90.1559 34.0745C90.048 34.0533 89.9488 34.0006 89.8709 33.9229C89.793 33.8453 89.7399 33.7463 89.7183 33.6384C89.6967 33.5305 89.7076 33.4186 89.7495 33.3169C89.7915 33.2152 89.8627 33.1283 89.954 33.0671C90.0454 33.006 90.1529 32.9733 90.2628 32.9733C90.3356 32.973 90.4078 32.9871 90.4751 33.0148C90.5425 33.0425 90.6037 33.0832 90.6553 33.1346C90.7069 33.1861 90.7479 33.2472 90.7758 33.3145C90.8037 33.3818 90.8181 33.454 90.8181 33.5268Z" fill="white"/>
<path d="M92.9414 33.5268C92.9423 33.6369 92.9103 33.7448 92.8496 33.8367C92.7889 33.9286 92.7021 34.0002 92.6005 34.0424C92.4989 34.0847 92.387 34.0956 92.2791 34.0738C92.1712 34.052 92.0723 33.9985 91.9949 33.9202C91.9176 33.8418 91.8654 33.7421 91.845 33.6339C91.8246 33.5256 91.8369 33.4138 91.8804 33.3126C91.9238 33.2114 91.9965 33.1255 92.089 33.0658C92.1816 33.0062 92.2898 32.9755 92.3998 32.9778C92.5437 32.9808 92.6808 33.0398 92.7819 33.1423C92.8831 33.2448 92.9403 33.3827 92.9414 33.5268Z" fill="white"/>
<path d="M24.0353 40.6317C23.9375 40.6104 23.8437 40.5735 23.7577 40.5223L23.9124 40.1692C23.984 40.2105 24.0605 40.2426 24.14 40.2649C24.219 40.2888 24.301 40.3011 24.3835 40.3014C24.433 40.3043 24.4825 40.2973 24.5292 40.2809C24.5414 40.2771 24.5522 40.2695 24.5599 40.2593C24.5677 40.2491 24.572 40.2367 24.5724 40.2239C24.5718 40.2078 24.5659 40.1924 24.5556 40.18C24.5453 40.1677 24.5312 40.1591 24.5155 40.1556C24.4548 40.1338 24.3924 40.117 24.3289 40.1055C24.2346 40.0872 24.1418 40.0621 24.0512 40.0303C23.9777 40.0036 23.912 39.959 23.8601 39.9004C23.8026 39.8309 23.7734 39.7423 23.7781 39.6522C23.7771 39.5643 23.8033 39.4784 23.8532 39.4061C23.9099 39.3262 23.9891 39.2651 24.0808 39.2307C24.1973 39.1845 24.322 39.1628 24.4472 39.167C24.5444 39.1673 24.6413 39.1779 24.7363 39.1988C24.8247 39.2171 24.9099 39.2486 24.9889 39.2922L24.8432 39.643C24.7197 39.577 24.5827 39.5404 24.4427 39.536C24.3175 39.536 24.2561 39.5679 24.2561 39.6271C24.2561 39.6863 24.2743 39.6772 24.3107 39.6909C24.3696 39.7129 24.4306 39.7289 24.4928 39.7387C24.587 39.7549 24.6799 39.7785 24.7704 39.8093C24.8452 39.8361 24.9123 39.8807 24.9661 39.9392C25.0241 40.0077 25.0541 40.0955 25.0503 40.1852C25.0517 40.2734 25.0245 40.3597 24.973 40.4312C24.9155 40.5103 24.8365 40.5712 24.7454 40.6066C24.6287 40.6522 24.5041 40.6739 24.379 40.6704C24.2634 40.67 24.1481 40.657 24.0353 40.6317Z" fill="#263238"/>
<path d="M25.4896 39.5838H25.0685V39.2057H26.3999V39.5838H25.9812V40.6453H25.4896V39.5838Z" fill="#263238"/>
<path d="M26.8323 40.5747C26.7137 40.5126 26.6138 40.4197 26.5432 40.3059C26.4747 40.1884 26.4385 40.0547 26.4385 39.9187C26.4385 39.7826 26.4747 39.6489 26.5432 39.5314C26.6138 39.4176 26.7137 39.3247 26.8323 39.2626C26.9621 39.1997 27.1045 39.167 27.2488 39.167C27.393 39.167 27.5354 39.1997 27.6652 39.2626C27.7863 39.3241 27.8879 39.418 27.9589 39.5338C28.0299 39.6496 28.0675 39.7828 28.0675 39.9187C28.0675 40.0545 28.0299 40.1877 27.9589 40.3035C27.8879 40.4193 27.7863 40.5132 27.6652 40.5747C27.5354 40.6376 27.393 40.6703 27.2488 40.6703C27.1045 40.6703 26.9621 40.6376 26.8323 40.5747ZM27.4126 40.233C27.4617 40.2032 27.5018 40.1607 27.5287 40.11C27.5589 40.0508 27.5738 39.9851 27.5719 39.9187C27.5741 39.8529 27.5592 39.7878 27.5287 39.7296C27.5018 39.6782 27.4618 39.635 27.4126 39.6043C27.3635 39.5745 27.3073 39.5588 27.2499 39.5588C27.1925 39.5588 27.1362 39.5745 27.0872 39.6043C27.0369 39.6336 26.9965 39.6772 26.9711 39.7296C26.9406 39.7878 26.9257 39.8529 26.9279 39.9187C26.926 39.9851 26.9409 40.0508 26.9711 40.11C26.9967 40.1617 27.0371 40.2045 27.0872 40.233C27.1362 40.2628 27.1925 40.2785 27.2499 40.2785C27.3073 40.2785 27.3635 40.2628 27.4126 40.233Z" fill="#263238"/>
<path d="M28.8532 40.2672H28.7212V40.6294H28.2365V39.1897H28.9192C29.0379 39.1874 29.1557 39.2099 29.2652 39.2558C29.359 39.2949 29.4388 39.3615 29.4941 39.4469C29.5493 39.5323 29.5774 39.6325 29.5747 39.7342C29.5789 39.8283 29.5554 39.9215 29.5073 40.0025C29.4592 40.0834 29.3885 40.1485 29.3039 40.1897L29.6043 40.6339H29.0877L28.8532 40.2672ZM29.0444 39.6089C29.0017 39.5845 28.9518 39.5757 28.9033 39.5838H28.7281V39.9209H28.9033C28.9566 39.9248 29.0093 39.9085 29.0512 39.8754C29.0683 39.86 29.0817 39.8409 29.0903 39.8196C29.099 39.7983 29.1028 39.7753 29.1013 39.7524C29.1036 39.727 29.0996 39.7015 29.0897 39.6781C29.0797 39.6546 29.0642 39.634 29.0444 39.618V39.6089Z" fill="#263238"/>
<path d="M30.9517 40.2672V40.634H29.7568V39.1943H30.9244V39.5611H30.2416V39.7296H30.8492V40.0782H30.2416V40.2672H30.9517Z" fill="#263238"/>
<path d="M87.1653 40.7706C87.1653 40.8193 87.1509 40.8669 87.1239 40.9073C87.0969 40.9478 87.0585 40.9793 87.0136 40.9979C86.9687 41.0165 86.9193 41.0214 86.8716 41.0119C86.8239 41.0024 86.7801 40.979 86.7457 40.9446C86.7114 40.9102 86.6879 40.8664 86.6785 40.8186C86.669 40.7709 86.6738 40.7214 86.6924 40.6765C86.7111 40.6315 86.7426 40.5931 86.783 40.5661C86.8234 40.5391 86.8709 40.5246 86.9195 40.5246C86.9847 40.5246 87.0472 40.5505 87.0933 40.5967C87.1394 40.6428 87.1653 40.7054 87.1653 40.7706Z" fill="#263238"/>
<path d="M88.6924 40.7707C88.6929 40.82 88.6787 40.8683 88.6516 40.9094C88.6245 40.9506 88.5858 40.9828 88.5404 41.0019C88.4949 41.0209 88.4449 41.0261 88.3966 41.0165C88.3482 41.007 88.3038 40.9834 88.269 40.9485C88.2341 40.9136 88.2105 40.8692 88.201 40.8208C88.1915 40.7724 88.1966 40.7223 88.2156 40.6769C88.2347 40.6314 88.2668 40.5926 88.308 40.5655C88.3491 40.5384 88.3974 40.5242 88.4467 40.5246C88.5117 40.5252 88.5738 40.5513 88.6198 40.5973C88.6658 40.6434 88.6919 40.7056 88.6924 40.7707Z" fill="#263238"/>
<path d="M86.7102 39.0258L86.544 38.4927H85.9204V38.6727H86.4189L86.8877 40.1943H88.524L88.6697 39.1875L86.7102 39.0258ZM88.3966 40.0622L87.0015 40.0463L86.7375 39.1602L88.5104 39.29L88.3966 40.0622Z" fill="#263238"/>
<path d="M93.8245 34.4926H22.4376V38.1646H93.8245V34.4926Z" fill="#90CAF9"/>
<g opacity="0.7">
<path d="M93.8245 34.4926H22.4376V38.1646H93.8245V34.4926Z" fill="white"/>
</g>
<path d="M69.3135 35.3219H27.8519C27.427 35.3219 27.0826 35.6666 27.0826 36.0918V36.5634C27.0826 36.9886 27.427 37.3333 27.8519 37.3333H69.3135C69.7383 37.3333 70.0827 36.9886 70.0827 36.5634V36.0918C70.0827 35.6666 69.7383 35.3219 69.3135 35.3219Z" fill="#263238"/>
<path opacity="0.7" d="M69.3135 35.3219H27.8519C27.427 35.3219 27.0826 35.6666 27.0826 36.0918V36.5634C27.0826 36.9886 27.427 37.3333 27.8519 37.3333H69.3135C69.7383 37.3333 70.0827 36.9886 70.0827 36.5634V36.0918C70.0827 35.6666 69.7383 35.3219 69.3135 35.3219Z" fill="white"/>
<path d="M68.7582 35.5565L69.0085 36.0645L69.5684 36.1465L69.1633 36.5406L69.2589 37.0987L68.7582 36.8367L68.2575 37.0987L68.3531 36.5406L67.948 36.1465L68.5079 36.0645L68.7582 35.5565Z" fill="#90CAF9"/>
<path d="M25.0548 35.2739L23.9488 36.381H24.2719V37.381H25.8377V36.381H26.1609L25.0548 35.2739Z" fill="#90CAF9"/>
<path d="M65.5151 48.6955H66.1273C66.2543 48.693 66.3802 48.7187 66.496 48.7706C66.5989 48.8202 66.6846 48.8995 66.7418 48.9984C66.8027 49.0976 66.8336 49.2124 66.8306 49.3287C66.8332 49.4458 66.8024 49.5612 66.7418 49.6613C66.6827 49.7553 66.5972 49.8298 66.496 49.8754C66.3807 49.9292 66.2546 49.9557 66.1273 49.9529H65.5151V48.6955ZM66.1114 49.6066C66.1703 49.6052 66.2275 49.5866 66.2761 49.5533C66.3247 49.5199 66.3627 49.4732 66.3853 49.4187C66.4079 49.3643 66.4143 49.3044 66.4037 49.2464C66.393 49.1884 66.3658 49.1347 66.3253 49.0918C66.2667 49.0396 66.1898 49.0125 66.1114 49.0167H65.9339V49.6066H66.1114Z" fill="#90CAF9"/>
<path d="M68.0003 49.5359H67.3176C67.3305 49.5713 67.3555 49.6012 67.3881 49.6201C67.4261 49.6419 67.4696 49.6521 67.5133 49.6498C67.5496 49.6513 67.5859 49.6459 67.6203 49.6338C67.6544 49.6199 67.6865 49.6015 67.7159 49.5791L67.9252 49.791C67.87 49.8458 67.8036 49.8881 67.7305 49.9148C67.6575 49.9416 67.5795 49.9522 67.5019 49.9459C67.3952 49.9486 67.2893 49.9268 67.1924 49.8821C67.108 49.8426 67.0363 49.7803 66.9853 49.7022C66.9377 49.6235 66.9125 49.5333 66.9125 49.4413C66.9125 49.3494 66.9377 49.2592 66.9853 49.1805C67.0331 49.1045 67.1008 49.0431 67.181 49.0028C67.2684 48.9584 67.3652 48.9357 67.4632 48.9368C67.5568 48.9361 67.6493 48.9563 67.7341 48.996C67.8134 49.0345 67.8804 49.0945 67.9275 49.1691C67.9768 49.2515 68.0013 49.3465 67.9981 49.4425C67.9981 49.4425 68.0049 49.4789 68.0003 49.5359ZM67.3654 49.2466C67.3383 49.2722 67.32 49.3056 67.313 49.3422H67.6271C67.6203 49.3051 67.601 49.2713 67.5725 49.2466C67.5435 49.2232 67.5072 49.2111 67.4701 49.2124C67.4322 49.2112 67.3952 49.2233 67.3654 49.2466Z" fill="#90CAF9"/>
<path d="M68.1323 48.6089H68.5328V49.93H68.1323V48.6089Z" fill="#90CAF9"/>
<path d="M68.7309 48.8207C68.7093 48.8027 68.6922 48.78 68.6807 48.7543C68.6693 48.7287 68.6639 48.7007 68.6648 48.6727C68.6639 48.6449 68.6693 48.6173 68.6808 48.592C68.6922 48.5667 68.7094 48.5444 68.7309 48.5269C68.7798 48.4859 68.8423 48.4647 68.9061 48.4677C68.9692 48.4643 69.0313 48.4837 69.0813 48.5223C69.1024 48.5398 69.1192 48.5617 69.1307 48.5865C69.1421 48.6114 69.1478 48.6385 69.1473 48.6658C69.1479 48.6945 69.1423 48.723 69.1309 48.7493C69.1195 48.7756 69.1026 48.7992 69.0813 48.8185C69.0324 48.8595 68.9699 48.8806 68.9061 48.8777C68.8428 48.8802 68.7806 48.86 68.7309 48.8207ZM68.7058 48.9551H69.1064V49.9301H68.7058V48.9551Z" fill="#90CAF9"/>
<path d="M70.3741 48.9551L69.9827 49.93H69.5662L69.1861 48.9551H69.5981L69.7938 49.4767L70.0032 48.9551H70.3741Z" fill="#90CAF9"/>
<path d="M71.4392 49.5359H70.7565C70.7694 49.5713 70.7944 49.6012 70.827 49.6201C70.865 49.6419 70.9085 49.6521 70.9522 49.6498C70.9885 49.6513 71.0248 49.6459 71.0591 49.6338C71.0933 49.6199 71.1254 49.6015 71.1547 49.5791L71.3641 49.791C71.309 49.846 71.2426 49.8883 71.1695 49.915C71.0964 49.9418 71.0184 49.9523 70.9408 49.9459C70.8341 49.9486 70.7282 49.9268 70.6313 49.8821C70.5469 49.8426 70.4751 49.7803 70.4242 49.7022C70.3766 49.6235 70.3514 49.5333 70.3514 49.4413C70.3514 49.3494 70.3766 49.2592 70.4242 49.1805C70.472 49.1045 70.5397 49.0431 70.6199 49.0028C70.7073 48.9584 70.8041 48.9357 70.9021 48.9368C70.9957 48.9358 71.0883 48.9561 71.1729 48.996C71.2523 49.0345 71.3193 49.0945 71.3664 49.1691C71.4157 49.2515 71.4402 49.3465 71.4369 49.4425C71.4369 49.4425 71.4438 49.4789 71.4392 49.5359ZM70.8111 49.2466C70.7825 49.2713 70.7633 49.3051 70.7565 49.3422H71.0705C71.0637 49.3051 71.0444 49.2713 71.0159 49.2466C70.9864 49.2244 70.9504 49.2124 70.9135 49.2124C70.8766 49.2124 70.8406 49.2244 70.8111 49.2466Z" fill="#90CAF9"/>
<path d="M72.2675 48.937V49.2946H72.1788C72.1505 49.2908 72.1217 49.2936 72.0946 49.3028C72.0676 49.312 72.0431 49.3274 72.023 49.3477C72.0029 49.368 71.9878 49.3927 71.9789 49.4199C71.97 49.447 71.9675 49.4759 71.9717 49.5042V49.937H71.5711V48.962H71.9534V49.0668C71.9927 49.023 72.0413 48.9885 72.0957 48.966C72.15 48.9435 72.2088 48.9336 72.2675 48.937Z" fill="#90CAF9"/>
<path d="M73.492 48.9551L73.0915 49.9482C73.0569 50.0548 72.9901 50.1479 72.9003 50.2148C72.818 50.2687 72.721 50.2958 72.6226 50.2922C72.5663 50.2927 72.5102 50.2842 72.4565 50.2672C72.4098 50.255 72.3657 50.2342 72.3268 50.2056L72.4611 49.93C72.4817 49.9458 72.5048 49.9581 72.5293 49.9665C72.5527 49.975 72.5773 49.9796 72.6022 49.9801C72.6207 49.9817 72.6393 49.979 72.6567 49.9723C72.674 49.9656 72.6896 49.955 72.7023 49.9414L72.2926 48.9551H72.7046L72.9071 49.4767L73.1097 48.9551H73.492Z" fill="#90CAF9"/>
<path d="M74.9485 49.7114H74.4751L74.3909 49.9392H73.9653L74.5093 48.6931H74.9212L75.4651 49.9392H75.0304L74.9485 49.7114ZM74.8324 49.4107L74.7118 49.0963L74.5912 49.4107H74.8324Z" fill="#90CAF9"/>
<path d="M76.5872 48.6089V49.93H76.2049V49.848C76.1702 49.8826 76.1284 49.9093 76.0825 49.9262C76.0365 49.9431 75.9874 49.9499 75.9386 49.946C75.8591 49.9449 75.781 49.9246 75.711 49.8868C75.6389 49.8444 75.5798 49.7829 75.5403 49.7091C75.4975 49.6269 75.4756 49.5353 75.4766 49.4426C75.475 49.3498 75.4969 49.2581 75.5403 49.1761C75.5798 49.1023 75.6389 49.0408 75.711 48.9984C75.7805 48.9589 75.8588 48.9377 75.9386 48.9369C76.0284 48.9314 76.1168 48.9617 76.1844 49.0212V48.6089H76.5872ZM76.148 49.5838C76.1799 49.5439 76.1961 49.4936 76.1935 49.4426C76.1967 49.3914 76.1804 49.341 76.148 49.3013C76.1335 49.2856 76.1159 49.273 76.0963 49.2645C76.0767 49.2559 76.0556 49.2514 76.0342 49.2514C76.0128 49.2514 75.9917 49.2559 75.9721 49.2645C75.9525 49.273 75.9349 49.2856 75.9204 49.3013C75.8879 49.341 75.8717 49.3914 75.8749 49.4426C75.8723 49.4936 75.8885 49.5439 75.9204 49.5838C75.9349 49.5995 75.9525 49.6121 75.9721 49.6207C75.9917 49.6293 76.0128 49.6337 76.0342 49.6337C76.0556 49.6337 76.0767 49.6293 76.0963 49.6207C76.1159 49.6121 76.1335 49.5995 76.148 49.5838Z" fill="#90CAF9"/>
<path d="M77.8343 48.6089V49.93H77.452V49.848C77.4173 49.8826 77.3755 49.9093 77.3296 49.9262C77.2836 49.9431 77.2345 49.9499 77.1857 49.946C77.1062 49.9449 77.0281 49.9246 76.9581 49.8868C76.886 49.8444 76.8269 49.7829 76.7874 49.7091C76.7446 49.6269 76.7227 49.5353 76.7237 49.4426C76.7221 49.3498 76.744 49.2581 76.7874 49.1761C76.8269 49.1023 76.886 49.0408 76.9581 48.9984C77.0276 48.9589 77.1059 48.9377 77.1857 48.9369C77.2755 48.9314 77.3639 48.9617 77.4315 49.0212V48.6089H77.8343ZM77.3951 49.5838C77.4262 49.5435 77.4415 49.4933 77.4383 49.4426C77.4422 49.3917 77.4267 49.3413 77.3951 49.3013C77.3811 49.285 77.3636 49.272 77.3439 49.2633C77.3242 49.2546 77.3028 49.2505 77.2813 49.2512C77.2598 49.2503 77.2383 49.2544 77.2186 49.2631C77.1989 49.2718 77.1814 49.2848 77.1675 49.3013C77.1351 49.341 77.1188 49.3914 77.122 49.4426C77.1194 49.4936 77.1356 49.5439 77.1675 49.5838C77.1814 49.6003 77.1989 49.6134 77.2186 49.6221C77.2383 49.6308 77.2598 49.6348 77.2813 49.6339C77.3039 49.6357 77.3267 49.6321 77.3476 49.6234C77.3686 49.6147 77.3872 49.6011 77.4019 49.5838H77.3951Z" fill="#90CAF9"/>
<path d="M78.7151 48.937V49.2946H78.6264C78.5981 49.2908 78.5693 49.2936 78.5422 49.3028C78.5152 49.312 78.4907 49.3274 78.4706 49.3477C78.4505 49.368 78.4354 49.3927 78.4265 49.4199C78.4176 49.447 78.4151 49.4759 78.4193 49.5042V49.937H78.0187V48.962H78.4011V49.0668C78.4403 49.023 78.4889 48.9885 78.5433 48.966C78.5977 48.9435 78.6564 48.9336 78.7151 48.937Z" fill="#90CAF9"/>
<path d="M79.8508 49.5359H79.168C79.1803 49.5718 79.2054 49.6018 79.2386 49.6201C79.2766 49.6419 79.3201 49.6521 79.3638 49.6498C79.4001 49.6509 79.4363 49.6455 79.4707 49.6338C79.5048 49.6199 79.537 49.6015 79.5663 49.5791L79.7757 49.791C79.7199 49.8458 79.6531 49.8879 79.5797 49.9147C79.5063 49.9414 79.428 49.952 79.3501 49.9459C79.2434 49.9484 79.1376 49.9266 79.0406 49.8821C78.9568 49.8425 78.8858 49.7802 78.8358 49.7022C78.7859 49.6249 78.7605 49.5344 78.7629 49.4425C78.7602 49.351 78.7842 49.2608 78.8319 49.1827C78.8796 49.1046 78.9489 49.0421 79.0315 49.0028C79.1189 48.9584 79.2157 48.9357 79.3137 48.9368C79.4065 48.9361 79.4983 48.9564 79.5822 48.996C79.6621 49.0337 79.7294 49.0938 79.7757 49.1691C79.8258 49.2513 79.8511 49.3462 79.8485 49.4425C79.8485 49.4425 79.8531 49.4789 79.8508 49.5359ZM79.2204 49.2466C79.1918 49.2709 79.1731 49.305 79.168 49.3422H79.4798C79.4738 49.3053 79.4553 49.2716 79.4275 49.2466C79.3979 49.2229 79.3607 49.2108 79.3228 49.2124C79.2857 49.2111 79.2493 49.2232 79.2204 49.2466Z" fill="#90CAF9"/>
<path d="M80.1102 49.9209C80.0417 49.9077 79.9757 49.8839 79.9145 49.8503L80.0237 49.586C80.0741 49.6152 80.1286 49.6367 80.1853 49.6498C80.2433 49.6649 80.3029 49.6726 80.3628 49.6726C80.3958 49.6741 80.4289 49.6703 80.4607 49.6612C80.4683 49.6592 80.4751 49.6548 80.48 49.6487C80.485 49.6425 80.4878 49.6349 80.488 49.627C80.488 49.6111 80.4766 49.5997 80.4539 49.5951C80.4164 49.5867 80.3784 49.5806 80.3401 49.5769C80.2719 49.569 80.2042 49.5568 80.1375 49.5405C80.0821 49.5253 80.0317 49.4954 79.9919 49.4539C79.9695 49.4294 79.9523 49.4006 79.9414 49.3693C79.9304 49.338 79.9259 49.3048 79.9281 49.2717C79.9271 49.2099 79.9472 49.1496 79.985 49.1008C80.0302 49.0466 80.0892 49.0057 80.1557 48.9824C80.2423 48.9503 80.3342 48.9348 80.4266 48.9368C80.4991 48.9367 80.5715 48.9436 80.6428 48.9573C80.7055 48.9684 80.7662 48.9892 80.8226 49.0188L80.7133 49.2831C80.6269 49.2355 80.5297 49.2112 80.4311 49.2124C80.3446 49.2124 80.2991 49.2284 80.2991 49.258C80.2991 49.2876 80.3128 49.2853 80.3355 49.2922L80.447 49.3104C80.5154 49.317 80.5832 49.3292 80.6496 49.3468C80.7044 49.3635 80.7544 49.3932 80.7952 49.4334C80.8397 49.4843 80.8625 49.5505 80.859 49.6179C80.8582 49.678 80.8382 49.7362 80.8021 49.7842C80.7564 49.8378 80.6976 49.8786 80.6314 49.9027C80.543 49.9337 80.4497 49.9484 80.356 49.9459C80.2734 49.9469 80.1909 49.9385 80.1102 49.9209Z" fill="#90CAF9"/>
<path d="M81.1206 49.9209C81.0522 49.9073 80.9862 49.8835 80.9249 49.8503L81.0364 49.586C81.0862 49.6149 81.1398 49.6363 81.1957 49.6498C81.2544 49.6651 81.3149 49.6727 81.3755 49.6726C81.4085 49.6738 81.4415 49.6699 81.4734 49.6612C81.481 49.6592 81.4878 49.6548 81.4927 49.6487C81.4977 49.6425 81.5004 49.6349 81.5007 49.627C81.5007 49.6111 81.4893 49.5997 81.4643 49.5951C81.4275 49.5866 81.3903 49.5805 81.3528 49.5769C81.2845 49.5692 81.2169 49.557 81.1502 49.5405C81.0941 49.5253 81.043 49.4954 81.0023 49.4539C80.9588 49.4035 80.9368 49.3381 80.9408 49.2717C80.9398 49.2099 80.9599 49.1496 80.9977 49.1008C81.0415 49.0461 81.0999 49.0051 81.1661 48.9824C81.2528 48.9505 81.3446 48.935 81.437 48.9368C81.5095 48.9367 81.5819 48.9435 81.6532 48.9573C81.7166 48.9684 81.778 48.9892 81.8352 49.0188L81.7237 49.2831C81.6381 49.2355 81.5417 49.2112 81.4438 49.2124C81.355 49.2124 81.3118 49.2284 81.3118 49.258C81.3118 49.2876 81.3232 49.2853 81.3459 49.2922L81.4597 49.3104C81.5274 49.317 81.5944 49.3292 81.66 49.3468C81.7153 49.3624 81.7655 49.3923 81.8057 49.4334C81.8282 49.4583 81.8454 49.4874 81.8564 49.5191C81.8673 49.5508 81.8718 49.5844 81.8694 49.6179C81.8698 49.6782 81.8497 49.7368 81.8125 49.7842C81.7672 49.8383 81.7083 49.8792 81.6418 49.9027C81.5535 49.9339 81.4601 49.9486 81.3664 49.9459C81.2838 49.9465 81.2014 49.9381 81.1206 49.9209Z" fill="#90CAF9"/>
<path d="M78.5125 53.2194H65.4286V54.0007H78.5125V53.2194Z" fill="#90CAF9"/>
<path d="M75.8339 54.4745H65.4286V55.2558H75.8339V54.4745Z" fill="#90CAF9"/>
<path d="M79.8007 55.7296H65.4286V56.511H79.8007V55.7296Z" fill="#90CAF9"/>
<path d="M77.4952 56.9848H65.4286V57.7661H77.4952V56.9848Z" fill="#90CAF9"/>
<path d="M82.3678 61.3265H66.81C66.1263 61.3265 65.572 61.8813 65.572 62.5657V63.0737C65.572 63.758 66.1263 64.3128 66.81 64.3128H82.3678C83.0516 64.3128 83.6059 63.758 83.6059 63.0737V62.5657C83.6059 61.8813 83.0516 61.3265 82.3678 61.3265Z" fill="#90CAF9"/>
<path d="M68.3212 62.2877C68.3687 62.3101 68.4109 62.3422 68.4451 62.382C68.4793 62.4218 68.5048 62.4684 68.5198 62.5186C68.5348 62.5689 68.5391 62.6218 68.5323 62.6739C68.5256 62.726 68.5079 62.776 68.4805 62.8208C68.4407 62.8787 68.3855 62.9244 68.3212 62.9529C68.2448 62.9843 68.1627 62.9998 68.08 62.9984H67.9343V63.2445H67.593V62.2422H68.0754C68.1596 62.2402 68.2433 62.2557 68.3212 62.2877ZM68.1619 62.7069C68.1735 62.6958 68.1825 62.6823 68.1884 62.6673C68.1943 62.6524 68.1969 62.6364 68.1961 62.6203C68.1971 62.6043 68.1945 62.5882 68.1886 62.5732C68.1827 62.5583 68.1736 62.5448 68.1619 62.5338C68.1321 62.5107 68.0948 62.4994 68.0572 62.5019H67.9343V62.7296H68.0481C68.0876 62.7371 68.1284 62.729 68.1619 62.7069Z" fill="white"/>
<path d="M69.2931 62.5383C69.3328 62.573 69.3643 62.6162 69.3852 62.6647C69.406 62.7132 69.4158 62.7657 69.4137 62.8185V63.2399H69.1133V63.1374C69.0913 63.1773 69.0579 63.2097 69.0173 63.2305C68.9767 63.2512 68.9309 63.2592 68.8857 63.2536C68.8309 63.2549 68.7764 63.244 68.7264 63.2217C68.6862 63.2031 68.6522 63.1731 68.6288 63.1355C68.6053 63.0978 68.5934 63.0542 68.5944 63.0098C68.5926 62.9754 68.5999 62.9411 68.6155 62.9103C68.631 62.8796 68.6544 62.8534 68.6831 62.8344C68.7649 62.7887 68.8583 62.7681 68.9517 62.7752H69.0814C69.0814 62.7137 69.0222 62.6818 68.9357 62.6818C68.8994 62.6823 68.8633 62.6885 68.8288 62.7C68.7952 62.7084 68.7636 62.7231 68.7355 62.7433L68.6308 62.5315C68.6819 62.5015 68.7371 62.4792 68.7946 62.4654C68.8564 62.45 68.9199 62.4423 68.9835 62.4426C69.0947 62.4371 69.2043 62.471 69.2931 62.5383ZM69.0382 63.0463C69.0577 63.0333 69.0721 63.014 69.0791 62.9916V62.9369H68.9995C68.9335 62.9369 68.9016 62.9597 68.9016 63.003C68.9013 63.0116 68.903 63.0203 68.9066 63.0281C68.9101 63.036 68.9154 63.043 68.9221 63.0486C68.9375 63.061 68.9569 63.0675 68.9767 63.0668C68.999 63.0677 69.0209 63.0604 69.0382 63.0463Z" fill="white"/>
<path d="M70.399 62.4608L70.0781 63.2603C70.0488 63.3454 69.995 63.42 69.9234 63.4745C69.8558 63.5183 69.7762 63.5398 69.6958 63.536C69.6512 63.5355 69.6069 63.5294 69.5638 63.5177C69.5258 63.5074 69.4902 63.4896 69.4591 63.4653L69.5661 63.2376C69.5827 63.2501 69.6011 63.2601 69.6207 63.2672C69.6397 63.274 69.6597 63.2779 69.6799 63.2786C69.6947 63.2793 69.7094 63.2769 69.7232 63.2714C69.7369 63.2659 69.7493 63.2574 69.7595 63.2467L69.4318 62.4539H69.7618L69.9234 62.8731L70.0895 62.4539L70.399 62.4608Z" fill="white"/>
<path d="M71.7122 62.5338C71.774 62.6073 71.8043 62.7023 71.7964 62.798V63.2536H71.4733V62.8618C71.4733 62.7729 71.4437 62.7274 71.3868 62.7274C71.3725 62.7269 71.3583 62.7298 71.3453 62.7357C71.3322 62.7416 71.3207 62.7505 71.3117 62.7615C71.2908 62.794 71.2812 62.8324 71.2844 62.8709V63.2536H70.9612V62.8618C70.9612 62.7729 70.9316 62.7274 70.8747 62.7274C70.8604 62.7269 70.8462 62.7298 70.8332 62.7357C70.8202 62.7416 70.8087 62.7505 70.7996 62.7615C70.7787 62.794 70.7691 62.8324 70.7723 62.8709V63.2536H70.4491V62.47H70.7564V62.5429C70.7864 62.5137 70.8221 62.491 70.8612 62.4761C70.9004 62.4612 70.9421 62.4545 70.984 62.4563C71.0326 62.4553 71.0809 62.4655 71.1251 62.4859C71.1674 62.5044 71.2031 62.5354 71.2275 62.5748C71.2584 62.5371 71.2973 62.5068 71.3413 62.4859C71.3879 62.4656 71.4383 62.4555 71.4892 62.4563C71.5296 62.4539 71.5702 62.4594 71.6084 62.4727C71.6467 62.486 71.682 62.5068 71.7122 62.5338Z" fill="white"/>
<path d="M72.7796 62.9278H72.2357C72.246 62.9566 72.2662 62.9808 72.2926 62.9962C72.3234 63.0124 72.3579 63.0203 72.3927 63.0189C72.4222 63.02 72.4516 63.0154 72.4792 63.0053C72.5072 62.9952 72.5334 62.9806 72.5566 62.962L72.725 63.1328C72.6803 63.1769 72.6268 63.2109 72.5679 63.2325C72.509 63.2541 72.4462 63.2628 72.3836 63.2581C72.2973 63.2596 72.2118 63.2417 72.1333 63.2057C72.0655 63.1744 72.0085 63.1237 71.9694 63.0599C71.9291 62.9985 71.9085 62.9262 71.9103 62.8526C71.9091 62.779 71.9287 62.7066 71.967 62.6437C72.0053 62.5808 72.0606 62.53 72.1265 62.4973C72.1972 62.4626 72.2753 62.4454 72.3541 62.4472C72.4285 62.4469 72.5022 62.4624 72.5703 62.4927C72.6333 62.5244 72.6867 62.5724 72.725 62.6317C72.7668 62.7001 72.7874 62.7794 72.7842 62.8595C72.7842 62.8595 72.7819 62.8823 72.7796 62.9278ZM72.2721 62.7C72.2498 62.7202 72.2352 62.7476 72.2312 62.7775H72.4815C72.4765 62.7481 72.4612 62.7214 72.4383 62.7023C72.4152 62.6836 72.386 62.6739 72.3563 62.675C72.327 62.6721 72.2976 62.6785 72.2721 62.6932V62.7Z" fill="white"/>
<path d="M73.6604 62.5337C73.6922 62.5695 73.7165 62.6114 73.7318 62.6568C73.747 62.7022 73.7529 62.7502 73.7492 62.798V63.2535H73.426V62.8617C73.426 62.7729 73.3941 62.7274 73.3304 62.7274C73.3137 62.727 73.2971 62.7303 73.2818 62.737C73.2665 62.7437 73.2528 62.7536 73.2417 62.7661C73.2159 62.7999 73.2038 62.8422 73.2075 62.8845V63.2535H72.8843V62.4699H73.1916V62.5474C73.2225 62.5179 73.2588 62.4947 73.2985 62.4791C73.34 62.4634 73.384 62.4557 73.4283 62.4563C73.5128 62.4504 73.5963 62.4782 73.6604 62.5337Z" fill="white"/>
<path d="M74.4661 63.2171C74.4037 63.2472 74.3349 63.2613 74.2658 63.2581C74.1746 63.2638 74.0846 63.2354 74.0132 63.1784C73.9833 63.1488 73.9599 63.1132 73.9446 63.0739C73.9293 63.0347 73.9224 62.9927 73.9244 62.9506V62.7501H73.8174V62.5223H73.9244V62.2946H74.2476V62.5223H74.4205V62.7501H74.259V62.946C74.2579 62.9666 74.2643 62.9869 74.2772 63.003C74.2836 63.0097 74.2914 63.0151 74.3 63.0186C74.3086 63.0221 74.3179 63.0238 74.3272 63.0235C74.3532 63.0232 74.3786 63.0153 74.4001 63.0007L74.4661 63.2171Z" fill="white"/>
<path d="M75.8794 63.2445V62.7889L75.6518 63.1557H75.5039L75.2763 62.8049V63.2468H74.9691V62.2445H75.2445L75.5722 62.7775L75.8885 62.2445H76.1662V63.2468L75.8794 63.2445Z" fill="white"/>
<path d="M77.1675 62.9278H76.6259C76.6362 62.9566 76.6564 62.9808 76.6828 62.9961C76.7134 63.0127 76.7481 63.0206 76.7829 63.0189C76.8123 63.02 76.8417 63.0154 76.8694 63.0053C76.8967 62.9951 76.922 62.9805 76.9445 62.962L77.1152 63.1328C77.0702 63.1771 77.0162 63.2111 76.9569 63.2328C76.8976 63.2544 76.8344 63.263 76.7715 63.2581C76.686 63.2595 76.6012 63.2416 76.5235 63.2057C76.455 63.1744 76.3973 63.1237 76.3573 63.0599C76.3284 63.0131 76.3096 62.9608 76.302 62.9064C76.2944 62.8519 76.2982 62.7964 76.3132 62.7435C76.3282 62.6906 76.354 62.6414 76.389 62.599C76.4241 62.5566 76.4675 62.5219 76.5166 62.4973C76.5873 62.4622 76.6654 62.445 76.7442 62.4472C76.8187 62.4464 76.8925 62.4619 76.9604 62.4927C77.0245 62.5237 77.0789 62.5718 77.1175 62.6317C77.1586 62.7003 77.1784 62.7796 77.1744 62.8595C77.1744 62.8595 77.1721 62.8823 77.1675 62.9278ZM76.6623 62.7C76.6394 62.7201 76.6241 62.7474 76.619 62.7775H76.8717C76.8667 62.7481 76.8513 62.7214 76.8284 62.7023C76.8044 62.6836 76.7746 62.6739 76.7442 62.675C76.7157 62.6724 76.6871 62.6788 76.6623 62.6932V62.7Z" fill="white"/>
<path d="M77.8502 63.2171C77.7888 63.2475 77.7206 63.2616 77.6522 63.2581C77.561 63.2638 77.471 63.2354 77.3996 63.1784C77.3697 63.1488 77.3463 63.1132 77.331 63.0739C77.3157 63.0347 77.3089 62.9927 77.3108 62.9506V62.7501H77.2039V62.5223H77.3108V62.2946H77.634V62.5223H77.7933V62.7501H77.634V62.946C77.633 62.9563 77.6341 62.9666 77.6372 62.9764C77.6403 62.9862 77.6454 62.9952 77.6522 63.003C77.6581 63.0098 77.6654 63.0152 77.6737 63.0188C77.682 63.0223 77.691 63.0239 77.7 63.0235C77.726 63.0232 77.7513 63.0153 77.7728 63.0007L77.8502 63.2171Z" fill="white"/>
<path d="M78.7083 62.5338C78.7401 62.5696 78.7644 62.6114 78.7796 62.6568C78.7949 62.7023 78.8008 62.7503 78.797 62.798V63.2536H78.4738V62.8618C78.4738 62.773 78.442 62.7274 78.3783 62.7274C78.3616 62.7271 78.345 62.7304 78.3297 62.7371C78.3143 62.7438 78.3006 62.7537 78.2895 62.7661C78.2638 62.8 78.2516 62.8422 78.2554 62.8846V63.2536H77.9322V62.1807H78.2554V62.5247C78.3192 62.4713 78.3998 62.4421 78.483 62.4421C78.5661 62.4421 78.6467 62.4713 78.7105 62.5247L78.7083 62.5338Z" fill="white"/>
<path d="M79.1293 63.2057C79.0632 63.1738 79.0072 63.1241 78.9677 63.0622C78.9284 62.9994 78.9078 62.9267 78.9085 62.8526C78.9086 62.7778 78.9301 62.7046 78.9704 62.6416C79.0108 62.5787 79.0682 62.5286 79.1361 62.4973C79.2102 62.4642 79.2905 62.4471 79.3717 62.4471C79.4528 62.4471 79.5331 62.4642 79.6072 62.4973C79.674 62.5293 79.7301 62.5799 79.7688 62.6431C79.8077 62.7059 79.8275 62.7787 79.8257 62.8526C79.8272 62.9265 79.8075 62.9992 79.7688 63.0622C79.7293 63.1241 79.6733 63.1738 79.6072 63.2057C79.5335 63.2403 79.4531 63.2582 79.3717 63.2582C79.2903 63.2582 79.2098 63.2403 79.1361 63.2057H79.1293ZM79.4547 62.9665C79.4808 62.9345 79.4938 62.8938 79.4911 62.8526C79.4942 62.8114 79.4812 62.7705 79.4547 62.7387C79.4434 62.7257 79.4294 62.7152 79.4137 62.7081C79.398 62.7009 79.381 62.6972 79.3637 62.6972C79.3464 62.6972 79.3294 62.7009 79.3137 62.7081C79.298 62.7152 79.284 62.7257 79.2727 62.7387C79.2462 62.7705 79.2332 62.8114 79.2363 62.8526C79.2336 62.8938 79.2466 62.9345 79.2727 62.9665C79.2845 62.9786 79.2987 62.9883 79.3143 62.9948C79.33 63.0014 79.3467 63.0048 79.3637 63.0048C79.3807 63.0048 79.3974 63.0014 79.4131 62.9948C79.4287 62.9883 79.4429 62.9786 79.4547 62.9665Z" fill="white"/>
<path d="M80.793 62.1807V63.2445H80.4857V63.1784C80.4579 63.207 80.424 63.2289 80.3866 63.2427C80.3492 63.2565 80.3092 63.2618 80.2695 63.2582C80.2032 63.2591 80.1378 63.2418 80.0806 63.2081C80.0227 63.1748 79.9754 63.1258 79.9441 63.0668C79.9086 63.0011 79.8906 62.9274 79.8917 62.8527C79.8904 62.778 79.9084 62.7042 79.9441 62.6386C79.9759 62.5794 80.0231 62.5298 80.0806 62.4951C80.1384 62.4631 80.2035 62.4466 80.2695 62.4472C80.3423 62.4423 80.4142 62.466 80.4698 62.5133V62.1807H80.793ZM80.4402 62.9666C80.4647 62.9339 80.4768 62.8935 80.4743 62.8527C80.477 62.8119 80.4649 62.7715 80.4402 62.7388C80.4287 62.7254 80.4143 62.7148 80.3982 62.7077C80.382 62.7006 80.3645 62.6973 80.3469 62.6978C80.3297 62.6976 80.3126 62.7011 80.2969 62.7082C80.2811 62.7153 80.2671 62.7257 80.2559 62.7388C80.2304 62.7711 80.2175 62.8116 80.2195 62.8527C80.2179 62.8938 80.2308 62.9341 80.2559 62.9666C80.2675 62.979 80.2816 62.9889 80.2973 62.9955C80.313 63.0022 80.3299 63.0055 80.3469 63.0053C80.3797 63.0043 80.4107 62.9904 80.4334 62.9666H80.4402Z" fill="white"/>
<path d="M63.9812 44.1487H41.5708V45.2923H63.9812V44.1487Z" fill="#90CAF9"/>
<path d="M46.489 45.7387H41.5708V46.8823H46.489V45.7387Z" fill="#90CAF9"/>
<path d="M48.3279 47.3309H41.5708V48.4744H48.3279V47.3309Z" fill="#90CAF9"/>
<path d="M47.1512 48.9232H41.6413V50.0667H47.1512V48.9232Z" fill="#90CAF9"/>
<path d="M39.4997 44.1487H35.3554C34.8665 44.1487 34.4701 44.5455 34.4701 45.0349V49.1829C34.4701 49.6723 34.8665 50.069 35.3554 50.069H39.4997C39.9887 50.069 40.3851 49.6723 40.3851 49.1829V45.0349C40.3851 44.5455 39.9887 44.1487 39.4997 44.1487Z" fill="#90CAF9"/>
<path opacity="0.2" d="M38.4756 45.8275H36.3773C36.2503 45.8275 36.1474 45.9305 36.1474 46.0576V48.1578C36.1474 48.2849 36.2503 48.3879 36.3773 48.3879H38.4756C38.6026 48.3879 38.7055 48.2849 38.7055 48.1578V46.0576C38.7055 45.9305 38.6026 45.8275 38.4756 45.8275Z" fill="white"/>
<path opacity="0.2" d="M38.1935 46.0713H37.3309C37.2216 46.0713 37.1329 46.16 37.1329 46.2695V47.1328C37.1329 47.2423 37.2216 47.331 37.3309 47.331H38.1935C38.3028 47.331 38.3915 47.2423 38.3915 47.1328V46.2695C38.3915 46.16 38.3028 46.0713 38.1935 46.0713Z" fill="white"/>
<path d="M31.4272 45.7387H29.2652V47.9028H31.4272V45.7387Z" fill="#90CAF9"/>
<path d="M29.4904 46.9802L30.1004 47.6704L31.3202 45.9688L30.0162 47.2353L29.4904 46.9802Z" fill="white"/>
<path d="M63.9812 53.1078H41.5708V54.2513H63.9812V53.1078Z" fill="#90CAF9"/>
<path d="M46.489 54.7H41.5708V55.8435H46.489V54.7Z" fill="#90CAF9"/>
<path d="M48.3279 56.2923H41.5708V57.4358H48.3279V56.2923Z" fill="#90CAF9"/>
<path d="M47.1512 57.8823H41.6413V59.0258H47.1512V57.8823Z" fill="#90CAF9"/>
<path d="M39.4997 53.1078H35.3554C34.8665 53.1078 34.4701 53.5045 34.4701 53.9939V58.1419C34.4701 58.6313 34.8665 59.028 35.3554 59.028H39.4997C39.9887 59.028 40.3851 58.6313 40.3851 58.1419V53.9939C40.3851 53.5045 39.9887 53.1078 39.4997 53.1078Z" fill="#90CAF9"/>
<path opacity="0.2" d="M38.4756 54.7867H36.3773C36.2503 54.7867 36.1474 54.8897 36.1474 55.0167V57.117C36.1474 57.244 36.2503 57.347 36.3773 57.347H38.4756C38.6026 57.347 38.7055 57.244 38.7055 57.117V55.0167C38.7055 54.8897 38.6026 54.7867 38.4756 54.7867Z" fill="white"/>
<path opacity="0.2" d="M38.1935 55.0326H37.3309C37.2216 55.0326 37.1329 55.1213 37.1329 55.2308V56.0941C37.1329 56.2036 37.2216 56.2923 37.3309 56.2923H38.1935C38.3028 56.2923 38.3915 56.2036 38.3915 56.0941V55.2308C38.3915 55.1213 38.3028 55.0326 38.1935 55.0326Z" fill="white"/>
<path d="M31.4272 54.7H29.2652V56.864H31.4272V54.7Z" fill="#90CAF9"/>
<path d="M29.4904 55.9415L30.1004 56.6317L31.3202 54.9301L30.0162 56.1944L29.4904 55.9415Z" fill="white"/>
<path d="M63.9812 62.0691H41.5708V63.2126H63.9812V62.0691Z" fill="#90CAF9"/>
<path d="M46.489 63.659H41.5708V64.8025H46.489V63.659Z" fill="#90CAF9"/>
<path d="M48.3279 65.2513H41.5708V66.3948H48.3279V65.2513Z" fill="#90CAF9"/>
<path d="M47.1512 66.8436H41.6413V67.9871H47.1512V66.8436Z" fill="#90CAF9"/>
<path d="M39.4997 62.0691H35.3554C34.8665 62.0691 34.4701 62.4658 34.4701 62.9552V67.1033C34.4701 67.5927 34.8665 67.9894 35.3554 67.9894H39.4997C39.9887 67.9894 40.3851 67.5927 40.3851 67.1033V62.9552C40.3851 62.4658 39.9887 62.0691 39.4997 62.0691Z" fill="#90CAF9"/>
<path opacity="0.2" d="M38.4756 63.7478H36.3773C36.2503 63.7478 36.1474 63.8508 36.1474 63.9779V66.0781C36.1474 66.2052 36.2503 66.3082 36.3773 66.3082H38.4756C38.6026 66.3082 38.7055 66.2052 38.7055 66.0781V63.9779C38.7055 63.8508 38.6026 63.7478 38.4756 63.7478Z" fill="white"/>
<path opacity="0.2" d="M38.1935 63.9915H37.3309C37.2216 63.9915 37.1329 64.0803 37.1329 64.1897V65.0531C37.1329 65.1625 37.2216 65.2512 37.3309 65.2512H38.1935C38.3028 65.2512 38.3915 65.1625 38.3915 65.0531V64.1897C38.3915 64.0803 38.3028 63.9915 38.1935 63.9915Z" fill="white"/>
<path d="M31.4272 63.659H29.2652V65.823H31.4272V63.659Z" fill="#90CAF9"/>
<path d="M29.4904 64.9005L30.1004 65.5907L31.3202 63.8891L30.0162 65.1556L29.4904 64.9005Z" fill="white"/>
<g opacity="0.2">
<path d="M61.5869 8.44482H37.2716V44.7206H61.5869V8.44482Z" fill="black"/>
</g>
<path d="M59.8823 6.51996H35.567V42.7957H59.8823V6.51996Z" fill="#90CAF9"/>
<g opacity="0.5">
<path d="M59.8822 6.51996H35.5669V42.7957H59.8822V6.51996Z" fill="white"/>
</g>
<path d="M59.8847 6.51996H35.5648V8.94821H59.8847V6.51996Z" fill="#90CAF9"/>
<path d="M59.0995 7.72269C59.1013 7.86588 59.0605 8.00638 58.9823 8.12632C58.9042 8.24626 58.7921 8.34023 58.6605 8.39628C58.5288 8.45234 58.3835 8.46794 58.2429 8.44112C58.1024 8.41429 57.973 8.34625 57.8712 8.24563C57.7694 8.14502 57.6997 8.01638 57.6712 7.87606C57.6426 7.73575 57.6563 7.59009 57.7106 7.45761C57.765 7.32514 57.8574 7.21182 57.9763 7.13206C58.0951 7.05231 58.2349 7.00972 58.378 7.0097C58.5678 7.00969 58.7499 7.08452 58.885 7.21797C59.02 7.35143 59.0971 7.53276 59.0995 7.72269Z" fill="white"/>
<path d="M55.5901 40.1967H40.128C39.7844 40.197 39.4441 40.1295 39.1265 39.9981C38.809 39.8667 38.5205 39.674 38.2774 39.4309C38.0344 39.1878 37.8415 38.8992 37.71 38.5815C37.5784 38.2638 37.5107 37.9233 37.5107 37.5794C37.5107 37.2355 37.5784 36.8949 37.71 36.5772C37.8415 36.2595 38.0344 35.9709 38.2774 35.7278C38.5205 35.4848 38.809 35.292 39.1265 35.1606C39.4441 35.0292 39.7844 34.9617 40.128 34.962H55.5901C55.9337 34.9617 56.274 35.0292 56.5915 35.1606C56.9091 35.292 57.1976 35.4848 57.4407 35.7278C57.6837 35.9709 57.8766 36.2595 58.0081 36.5772C58.1397 36.8949 58.2074 37.2355 58.2074 37.5794C58.2074 37.9233 58.1397 38.2638 58.0081 38.5815C57.8766 38.8992 57.6837 39.1878 57.4407 39.4309C57.1976 39.674 56.9091 39.8667 56.5915 39.9981C56.274 40.1295 55.9337 40.197 55.5901 40.1967Z" fill="#90CAF9"/>
<path d="M39.6182 38.4927C39.4466 38.405 39.3031 38.2708 39.204 38.1055C39.1055 37.9348 39.0536 37.7411 39.0536 37.544C39.0536 37.3469 39.1055 37.1532 39.204 36.9825C39.3025 36.8172 39.4463 36.6837 39.6182 36.5975C39.8009 36.5028 40.0042 36.455 40.2099 36.4586C40.3953 36.4555 40.5791 36.492 40.7493 36.5656C40.904 36.6328 41.0388 36.7387 41.1407 36.8731L40.6992 37.2695C40.6482 37.1956 40.5803 37.1349 40.5011 37.0925C40.4219 37.0501 40.3338 37.0272 40.244 37.0258C40.1785 37.0225 40.1131 37.0334 40.0522 37.0578C39.9913 37.0821 39.9364 37.1194 39.8913 37.167C39.7984 37.2703 39.7501 37.4063 39.757 37.5451C39.7508 37.6839 39.799 37.8195 39.8913 37.9233C39.9366 37.9704 39.9916 38.0073 40.0525 38.0312C40.1134 38.0552 40.1787 38.0658 40.244 38.0622C40.3336 38.0608 40.4215 38.0382 40.5006 37.9962C40.5797 37.9543 40.6478 37.8941 40.6992 37.8207L41.1407 38.2148C41.0388 38.3492 40.904 38.4551 40.7493 38.5223C40.5684 38.5987 40.3734 38.6356 40.1771 38.6305C39.9809 38.6254 39.788 38.5784 39.6113 38.4927H39.6182Z" fill="white"/>
<path d="M43.3869 36.5064V38.5816H42.6883V37.8162H42.0419V38.5816H41.3409V36.5064H42.0419V37.2421H42.6883V36.5064H43.3869Z" fill="white"/>
<path d="M45.4489 38.0554V38.5816H43.7238V36.5064H45.4102V37.0349H44.4111V37.2763H45.2895V37.782H44.4111V38.0554H45.4489Z" fill="white"/>
<path d="M46.1999 38.4927C46.0294 38.4042 45.8868 38.2702 45.788 38.1055C45.6895 37.9347 45.6376 37.7411 45.6376 37.544C45.6376 37.3468 45.6895 37.1532 45.788 36.9824C45.8863 36.8179 46.0291 36.6844 46.1999 36.5975C46.3835 36.503 46.5875 36.4553 46.7939 36.4585C46.9792 36.4559 47.163 36.4923 47.3333 36.5656C47.4876 36.6334 47.6222 36.7392 47.7247 36.8731L47.2832 37.2695C47.2322 37.1955 47.1642 37.1349 47.0851 37.0925C47.0059 37.0501 46.9178 37.0272 46.828 37.0257C46.7629 37.0228 46.6979 37.0339 46.6374 37.0582C46.577 37.0826 46.5224 37.1197 46.4775 37.167C46.431 37.2178 46.3951 37.2774 46.3721 37.3424C46.349 37.4073 46.3392 37.4763 46.3433 37.5451C46.3397 37.6139 46.3498 37.6827 46.3728 37.7475C46.3958 37.8124 46.4314 37.8721 46.4775 37.9232C46.5227 37.9701 46.5773 38.0068 46.6377 38.0307C46.6982 38.0547 46.7631 38.0654 46.828 38.0622C46.9175 38.0606 47.0054 38.0379 47.0845 37.996C47.1636 37.954 47.2316 37.894 47.2832 37.8207L47.7247 38.2148C47.6222 38.3487 47.4876 38.4545 47.3333 38.5223C47.1523 38.5983 46.9573 38.6349 46.7611 38.6298C46.5649 38.6247 46.3721 38.578 46.1953 38.4927H46.1999Z" fill="white"/>
<path d="M48.7671 37.8936L48.61 38.069V38.5816H47.9273V36.5064H48.61V37.2604L49.2928 36.5064H50.0529L49.2245 37.4175L50.0962 38.5793H49.286L48.7671 37.8936Z" fill="white"/>
<path d="M50.6015 38.4905C50.4728 38.4215 50.3595 38.3272 50.2684 38.2131C50.1773 38.099 50.1102 37.9676 50.0713 37.8269C50.0323 37.6861 50.0223 37.5389 50.0419 37.3942C50.0614 37.2495 50.1101 37.1102 50.185 36.9848C50.2856 36.8199 50.4297 36.6859 50.6015 36.5976C50.7888 36.5055 50.9947 36.4576 51.2034 36.4576C51.4121 36.4576 51.6181 36.5055 51.8054 36.5976C51.9773 36.6866 52.122 36.8203 52.2241 36.9848C52.3013 37.1097 52.3517 37.2492 52.3723 37.3946C52.393 37.5399 52.3833 37.688 52.344 37.8294C52.3046 37.9708 52.2365 38.1026 52.1438 38.2164C52.0511 38.3301 51.9359 38.4235 51.8054 38.4905C51.6181 38.5826 51.4121 38.6305 51.2034 38.6305C50.9947 38.6305 50.7888 38.5826 50.6015 38.4905ZM51.4344 37.9894C51.506 37.946 51.5643 37.8838 51.6028 37.8094C51.6455 37.7248 51.6666 37.6309 51.6643 37.5361C51.6666 37.4406 51.6455 37.3459 51.6028 37.2605C51.5643 37.1861 51.506 37.1238 51.4344 37.0805C51.3812 37.0486 51.3221 37.028 51.2606 37.0198C51.1992 37.0116 51.1367 37.0161 51.077 37.0329C51.0174 37.0498 50.9618 37.0787 50.9136 37.1178C50.8655 37.1569 50.8259 37.2055 50.7972 37.2605C50.7527 37.3454 50.7308 37.4403 50.7335 37.5361C50.7308 37.6312 50.7527 37.7253 50.7972 37.8094C50.8259 37.8644 50.8655 37.913 50.9136 37.9521C50.9618 37.9912 51.0174 38.0201 51.077 38.037C51.1367 38.0538 51.1992 38.0583 51.2606 38.0501C51.3221 38.0419 51.3812 38.0213 51.4344 37.9894Z" fill="white"/>
<path d="M52.8773 38.3721C52.7855 38.2762 52.7145 38.1623 52.6687 38.0377C52.6229 37.913 52.6033 37.7803 52.611 37.6477V36.5088H53.3097V37.6295C53.2999 37.7463 53.3287 37.8632 53.3916 37.9621C53.4194 37.9952 53.4543 38.0217 53.4937 38.0394C53.5331 38.0572 53.576 38.0658 53.6192 38.0646C53.6625 38.0661 53.7055 38.0576 53.745 38.0399C53.7844 38.0221 53.8193 37.9955 53.8468 37.9621C53.9098 37.8632 53.9386 37.7463 53.9288 37.6295V36.5088H54.6115V37.6477C54.6193 37.7803 54.5996 37.913 54.5538 38.0377C54.508 38.1623 54.437 38.2762 54.3452 38.3721C54.1329 38.5387 53.8709 38.6293 53.601 38.6293C53.3312 38.6293 53.0692 38.5387 52.8568 38.3721H52.8773Z" fill="white"/>
<path d="M55.3739 37.0485H54.7663V36.5064H56.6803V37.0485H56.0726V38.5816H55.3739V37.0485Z" fill="white"/>
<path d="M40.5763 16.1213H39.666V15.3013H42.5586V16.1213H41.6483V18.4402H40.59L40.5763 16.1213Z" fill="#90CAF9"/>
<path d="M43.1115 18.3218C42.9025 18.2205 42.7259 18.0627 42.6018 17.8662C42.4811 17.6683 42.4173 17.4409 42.4173 17.209C42.4173 16.9772 42.4811 16.7498 42.6018 16.5518C42.7252 16.3548 42.902 16.1968 43.1115 16.0963C43.3416 15.9897 43.592 15.9345 43.8455 15.9345C44.099 15.9345 44.3494 15.9897 44.5795 16.0963C44.7337 16.1735 44.8703 16.2819 44.9806 16.4147C45.0909 16.5474 45.1724 16.7016 45.2201 16.8675C45.2678 17.0334 45.2806 17.2074 45.2577 17.3786C45.2348 17.5497 45.1767 17.7142 45.087 17.8616C44.9643 18.0585 44.7883 18.2165 44.5795 18.3172C44.3499 18.4253 44.0992 18.4813 43.8455 18.4813C43.5918 18.4813 43.3412 18.4253 43.1115 18.3172V18.3218ZM44.1311 17.5701C44.2099 17.4681 44.2495 17.3412 44.2426 17.2124C44.2503 17.085 44.2106 16.9592 44.1311 16.8594C44.0943 16.8198 44.0497 16.7883 44.0002 16.7668C43.9507 16.7452 43.8972 16.7341 43.8432 16.7341C43.7892 16.7341 43.7358 16.7452 43.6863 16.7668C43.6367 16.7883 43.5922 16.8198 43.5553 16.8594C43.4759 16.9592 43.4362 17.085 43.4438 17.2124C43.4369 17.3412 43.4765 17.4681 43.5553 17.5701C43.5918 17.6102 43.6363 17.6423 43.6858 17.6642C43.7354 17.6862 43.789 17.6975 43.8432 17.6975C43.8974 17.6975 43.9511 17.6862 44.0006 17.6642C44.0502 17.6423 44.0947 17.6102 44.1311 17.5701Z" fill="#90CAF9"/>
<path d="M47.3924 18.356C47.199 18.4518 46.9844 18.4965 46.7688 18.4859C46.483 18.5058 46.2002 18.4172 45.9768 18.2376C45.8788 18.1404 45.8032 18.023 45.7552 17.8936C45.7072 17.7641 45.6881 17.6258 45.6992 17.4881V16.8617H45.3624V16.1214H45.6992V15.438H46.7119V16.1214H47.2126V16.8617H46.7119V17.4881C46.7075 17.5518 46.7279 17.6147 46.7688 17.6635C46.7884 17.6842 46.8121 17.7005 46.8384 17.7115C46.8646 17.7225 46.8929 17.7279 46.9213 17.7273C47.0024 17.7284 47.0818 17.7045 47.1489 17.659L47.3924 18.356Z" fill="#90CAF9"/>
<path d="M49.7321 16.233C49.8512 16.3469 49.9432 16.4859 50.0015 16.6401C50.0598 16.7942 50.0828 16.9595 50.0689 17.1237V18.4426H49.129V18.1191C49.0657 18.2423 48.9665 18.3434 48.8446 18.4088C48.7227 18.4743 48.5837 18.5012 48.4462 18.4859C48.2753 18.4916 48.1054 18.4573 47.9501 18.3857C47.8232 18.3256 47.7159 18.2308 47.6406 18.1123C47.5701 17.9956 47.5338 17.8614 47.5359 17.7251C47.5305 17.6167 47.5532 17.5087 47.6019 17.4117C47.6505 17.3147 47.7234 17.232 47.8135 17.1715C48.0703 17.0291 48.3628 16.9642 48.6556 16.9847H49.063C49.0311 16.7934 48.8764 16.6977 48.6078 16.6977C48.4937 16.6978 48.3802 16.7147 48.271 16.7478C48.1664 16.7777 48.0679 16.8254 47.9797 16.8891L47.6565 16.2216C47.815 16.1277 47.9869 16.0586 48.1663 16.0166C48.3607 15.9689 48.5601 15.9444 48.7603 15.9437C49.1082 15.9226 49.4523 16.025 49.7321 16.233ZM48.9333 17.8276C48.9935 17.7849 49.0376 17.7231 49.0584 17.6522V17.4813H48.8081C48.6033 17.4813 48.4986 17.5519 48.4986 17.6886C48.4981 17.7156 48.5038 17.7424 48.5153 17.7669C48.5267 17.7913 48.5436 17.8129 48.5646 17.8298C48.615 17.8694 48.678 17.8896 48.7421 17.8868C48.8106 17.8841 48.8766 17.8602 48.931 17.8185L48.9333 17.8276Z" fill="#90CAF9"/>
<path d="M50.5104 15.1146H51.5232V18.4426H50.5104V15.1146Z" fill="#90CAF9"/>
<path d="M45.6469 23.1009H38.5234V23.8845H45.6469V23.1009Z" fill="#90CAF9"/>
<path d="M43.6964 21.1737H38.5234V21.9573H43.6964V21.1737Z" fill="#263238"/>
<path d="M46.9873 25.1921H38.5234V25.9757H46.9873V25.1921Z" fill="#90CAF9"/>
<path d="M56.5301 25.1921H52.611V25.9757H56.5301V25.1921Z" fill="#90CAF9"/>
<path d="M44.5317 28.3538H38.5234V29.1374H44.5317V28.3538Z" fill="#90CAF9"/>
<path d="M23.1932 32.3127C22.465 32.3127 21.7663 32.9711 21.3384 34.1943C20.9105 35.4175 21.2178 37.1943 21.277 38.0326C21.3361 38.8709 20.9083 40.0827 20.9083 40.0827C21.8983 39.274 22.5719 38.2604 22.6857 36.864C22.7888 37.4235 22.7545 37.9996 22.5856 38.5428C23.1726 38.0275 23.6343 37.3847 23.9352 36.6636C24.4814 35.4107 24.4199 33.6317 24.4199 33.6317C24.4199 33.6317 23.9238 32.3127 23.1932 32.3127Z" fill="#263238"/>
<path d="M22.6674 33.8025C22.6379 34.4426 22.895 35.6248 24.4654 34.5656C26.0357 33.5064 24.1923 32.8685 23.439 33.0189C23.24 33.041 23.0547 33.1309 22.9143 33.2736C22.7738 33.4163 22.6866 33.6031 22.6674 33.8025Z" fill="#90CAF9"/>
<path d="M23.4231 33.8685C23.2228 35.1783 23.8486 36.3742 24.2287 37.9415C24.6088 39.5087 24.2879 39.8549 24.2879 39.8549C24.2879 39.8549 27.6197 39.331 29.3539 36.2512C31.0882 33.1715 27.9588 31.1442 26.0312 31.7455C25.0822 31.2694 23.6211 32.5929 23.4231 33.8685Z" fill="#263238"/>
<path d="M31.5183 41.3833C31.5365 41.5587 31.5638 41.7729 31.5888 41.971C31.6139 42.1692 31.648 42.3765 31.6799 42.577C31.7481 42.9824 31.8232 43.3856 31.9074 43.7865C31.9916 44.1874 32.0941 44.5815 32.201 44.9733C32.308 45.3651 32.4286 45.7501 32.5788 46.1237L32.6312 46.2626L32.6585 46.3332L32.679 46.3833C32.6917 46.4171 32.7069 46.4498 32.7245 46.4813C32.74 46.5176 32.7582 46.5526 32.7791 46.5861C32.8686 46.7442 32.9682 46.8964 33.0772 47.0417C33.3233 47.3556 33.5869 47.6552 33.867 47.9392C34.4382 48.5269 35.0663 49.1032 35.6876 49.6567L35.1938 50.397C34.4046 49.9865 33.6536 49.5063 32.9498 48.9619C32.584 48.6793 32.2395 48.3702 31.9188 48.0371C31.7443 47.8559 31.5838 47.6617 31.4386 47.4562C31.3986 47.4012 31.3614 47.3442 31.3271 47.2854C31.2886 47.226 31.2536 47.1644 31.2224 47.1009L31.1723 47.0052L31.1359 46.9278L31.0631 46.7706C30.6845 45.9449 30.3842 45.0854 30.1664 44.2034C30.0572 43.766 29.9616 43.3264 29.8888 42.8845C29.8523 42.6567 29.8182 42.4403 29.7886 42.2148C29.759 41.9893 29.7385 41.7751 29.7203 41.5314L31.5183 41.3833Z" fill="#FFB573"/>
<path d="M30.897 39.7045C31.5024 39.8571 31.9257 42.3514 31.9257 42.3514L30.2575 43.4904C30.2575 43.4904 28.6644 40.9847 29.1196 40.3013C29.5747 39.6179 30.014 39.479 30.897 39.7045Z" fill="#90CAF9"/>
<g opacity="0.5">
<path d="M30.897 39.7045C31.5024 39.8571 31.9257 42.3514 31.9257 42.3514L30.2575 43.4904C30.2575 43.4904 28.6644 40.9847 29.1196 40.3013C29.5747 39.6179 30.014 39.479 30.897 39.7045Z" fill="white"/>
</g>
<path opacity="0.2" d="M30.8423 40.2671L31.2975 42.7728L31.0699 42.9346V43.0917C31.0375 44.0393 30.9217 44.9822 30.724 45.9095L30.3439 44.8958L30.0071 43.5769L30.3803 43.4084L30.8423 40.2671Z" fill="black"/>
<path d="M35.9744 49.6841L37.1124 50.126L35.8333 50.8982C35.8333 50.8982 35.0163 50.4244 35.0368 49.8139L35.162 49.7433C35.2846 49.674 35.4211 49.6327 35.5616 49.6225C35.702 49.6122 35.8431 49.6333 35.9744 49.6841Z" fill="#FFB573"/>
<path d="M37.811 50.962L36.8483 51.7638L35.8287 50.8982L37.1078 50.126L37.811 50.962Z" fill="#FFB573"/>
<path d="M30.897 39.7046C30.897 39.7046 31.5957 39.9506 30.1937 48.5747H24.231C24.3311 46.1442 24.3516 44.6453 23.1932 39.659C24.0186 39.488 24.8552 39.3769 25.6966 39.3264C26.5983 39.2626 27.5033 39.2626 28.4049 39.3264C29.5861 39.4335 30.897 39.7046 30.897 39.7046Z" fill="#90CAF9"/>
<g opacity="0.4">
<path d="M30.897 39.7046C30.897 39.7046 31.5957 39.9506 30.1937 48.5747H24.231C24.3311 46.1442 24.3516 44.6453 23.1932 39.659C24.0186 39.488 24.8552 39.3769 25.6966 39.3264C26.5983 39.2626 27.5033 39.2626 28.4049 39.3264C29.5861 39.4335 30.897 39.7046 30.897 39.7046Z" fill="white"/>
</g>
<path opacity="0.2" d="M23.851 42.7227L24.4063 42.8845L24.5974 42.479C24.5974 42.479 27.6926 43.5496 29.0399 43.0348C29.9093 42.7022 30.2165 42.3674 30.2165 42.3674L23.6803 41.8867L23.851 42.7227Z" fill="black"/>
<path d="M26.1792 81.6591H27.6494L28.2502 78.2559H26.7823L26.1792 81.6591Z" fill="#FFB573"/>
<path d="M27.7654 81.4972H26.1154C26.0868 81.4964 26.0589 81.5062 26.037 81.5247C26.0152 81.5432 26.0009 81.5691 25.997 81.5975L25.8104 82.9027C25.8055 82.9354 25.8077 82.9687 25.8169 83.0004C25.8261 83.0321 25.842 83.0615 25.8637 83.0864C25.8853 83.1113 25.9121 83.1312 25.9422 83.1447C25.9723 83.1582 26.005 83.165 26.038 83.1647C26.6138 83.1647 26.8914 83.1214 27.6152 83.1214C28.0703 83.1214 29.3448 83.1669 29.9616 83.1669C30.5783 83.1669 30.6102 82.5587 30.353 82.5018C29.2014 82.2558 28.3912 81.9141 28.0021 81.5906C27.9359 81.5337 27.8525 81.5008 27.7654 81.4972Z" fill="#263238"/>
<g opacity="0.2">
<path d="M28.2502 78.2581L27.9406 80.0121H26.4704L26.7799 78.2581H28.2502Z" fill="black"/>
</g>
<path d="M25.7171 39.3287C26.6179 39.2625 27.5223 39.2625 28.4231 39.3287L28.6006 39.3446C28.8282 39.7547 28.8715 40.3856 28.3526 41.3105C28.3526 41.3105 25.9788 40.3537 25.3598 39.3515C25.469 39.3424 25.5874 39.3332 25.7171 39.3287Z" fill="#FFB573"/>
<path d="M30.1938 48.5748C30.1938 48.5748 31.3522 59.896 31.2566 64.3789C31.1565 69.0395 28.2593 79.6751 28.2593 79.6751H26.2747C26.2747 79.6751 27.7791 69.3152 27.6038 64.7366C27.4127 59.7456 25.8287 48.577 25.8287 48.577L30.1938 48.5748Z" fill="#263238"/>
<path opacity="0.3" d="M30.1938 48.5748C30.1938 48.5748 31.3522 59.896 31.2566 64.3789C31.1565 69.0395 28.2593 79.6751 28.2593 79.6751H26.2747C26.2747 79.6751 27.7791 69.3152 27.6038 64.7366C27.4127 59.7456 25.8287 48.577 25.8287 48.577L30.1938 48.5748Z" fill="#263238"/>
<path d="M26.1018 79.7434H28.4323L28.6029 79.0008L25.9948 78.9097L26.1018 79.7434Z" fill="#263238"/>
<path opacity="0.2" d="M27.622 51.3902C29.0877 54.3401 27.9156 59.7205 27.3944 61.7228C27.1282 58.716 26.6798 55.0417 26.3316 52.3424C26.5569 50.8162 26.9461 50.0325 27.622 51.3902Z" fill="black"/>
<path d="M13.3842 68.5156L13.8804 69.8983L17.2623 69.2605L16.7684 67.8755L13.3842 68.5156Z" fill="#FFB573"/>
<path d="M14.2787 69.9437L14.1626 68.2968C14.1614 68.2668 14.1499 68.2382 14.1299 68.2158C14.11 68.1934 14.083 68.1785 14.0534 68.1738L12.7265 67.9073C12.6944 67.9004 12.6611 67.9014 12.6295 67.9101C12.5978 67.9188 12.5687 67.935 12.5446 67.9574C12.5205 67.9797 12.5021 68.0075 12.491 68.0384C12.4799 68.0694 12.4764 68.1025 12.4807 68.1351C12.5308 68.7114 12.5854 68.9893 12.6355 69.7137C12.6674 70.1693 12.7083 71.4358 12.7516 72.0531C12.7948 72.6704 13.4116 72.7365 13.448 72.4836C13.6187 71.3447 13.9031 70.5588 14.2058 70.192C14.2615 70.1219 14.2876 70.0328 14.2787 69.9437Z" fill="#263238"/>
<g opacity="0.2">
<path d="M17.2623 69.2582L15.519 69.5885L15.0229 68.2058L16.7662 67.8755L17.2623 69.2582Z" fill="black"/>
</g>
<path d="M28.546 48.5748C28.546 48.5748 26.9165 60.2582 25.815 64.6545C24.677 69.2263 16.1016 69.6158 16.1016 69.6158L15.2277 67.83C15.2277 67.83 20.2346 66.4997 22.3852 63.4905C23.3206 58.5657 24.1786 48.5748 24.1786 48.5748H28.546Z" fill="#263238"/>
<path opacity="0.3" d="M28.546 48.5748C28.546 48.5748 26.9165 60.2582 25.815 64.6545C24.677 69.2263 16.1016 69.6158 16.1016 69.6158L15.2277 67.83C15.2277 67.83 20.2346 66.4997 22.3852 63.4905C23.3206 58.5657 24.1786 48.5748 24.1786 48.5748H28.546Z" fill="#263238"/>
<path d="M15.1275 67.6636L15.8922 69.8663L16.6819 69.8755L15.915 67.3903L15.1275 67.6636Z" fill="#263238"/>
<path d="M14.0579 70.4791C14.0579 70.6083 14.0985 70.7342 14.174 70.839C14.1963 70.8631 14.2234 70.882 14.2537 70.8946C14.2839 70.9072 14.3165 70.9131 14.3492 70.9119C14.3674 70.912 14.3852 70.9072 14.4009 70.898C14.4165 70.8888 14.4293 70.8755 14.438 70.8595C14.5245 70.6841 14.1831 70.0827 14.1444 70.0144C14.1407 70.008 14.1354 70.0028 14.129 69.9992C14.1226 69.9956 14.1154 69.9937 14.108 69.9939C14.101 69.9942 14.0943 69.9969 14.089 70.0014C14.0836 70.0059 14.0799 70.0121 14.0784 70.019C14.0582 70.1714 14.0513 70.3254 14.0579 70.4791ZM14.3834 70.757C14.39 70.7778 14.39 70.8 14.3834 70.8208C14.3801 70.8275 14.3749 70.8331 14.3684 70.8368C14.3619 70.8405 14.3544 70.842 14.347 70.8413C14.3258 70.8427 14.3046 70.8394 14.2849 70.8315C14.2652 70.8236 14.2475 70.8114 14.2332 70.7957C14.1279 70.5933 14.0973 70.3602 14.1467 70.1374C14.2579 70.3301 14.3378 70.5392 14.3834 70.757Z" fill="#90CAF9"/>
<path d="M14.0784 70.0258C14.0781 70.0311 14.0781 70.0364 14.0784 70.0418C14.1717 70.2194 14.5131 70.5862 14.6792 70.5679C14.7179 70.5679 14.7657 70.5383 14.768 70.4427C14.7706 70.3703 14.7444 70.2998 14.6951 70.2468C14.5286 70.1078 14.3255 70.02 14.1102 69.9939C14.1058 69.9936 14.1012 69.9942 14.097 69.9956C14.0927 69.9971 14.0888 69.9993 14.0854 70.0023C14.082 70.0053 14.0793 70.0089 14.0773 70.0129C14.0753 70.0169 14.0741 70.0213 14.0738 70.0258H14.0784ZM14.702 70.4108C14.7031 70.4176 14.7031 70.4245 14.702 70.4313C14.702 70.4951 14.6746 70.4973 14.6655 70.4996C14.5654 70.4996 14.2991 70.2604 14.1785 70.0759C14.3514 70.1016 14.5137 70.175 14.6473 70.2878C14.6786 70.3216 14.6978 70.3649 14.702 70.4108Z" fill="#90CAF9"/>
<path d="M28.3139 81.7479C28.4392 81.7594 28.5646 81.7272 28.6689 81.6568C28.6927 81.6357 28.711 81.6091 28.7221 81.5793C28.7332 81.5495 28.7368 81.5175 28.7326 81.4859C28.7313 81.467 28.7252 81.4486 28.7149 81.4327C28.7045 81.4167 28.6903 81.4037 28.6735 81.3948C28.4937 81.2946 27.9088 81.5953 27.8428 81.6226C27.8362 81.6259 27.8309 81.6313 27.8276 81.6378C27.8244 81.6444 27.8233 81.6518 27.8246 81.6591C27.8255 81.666 27.8287 81.6724 27.8336 81.6773C27.8385 81.6823 27.845 81.6855 27.8519 81.6864C28.0036 81.7214 28.1583 81.742 28.3139 81.7479ZM28.5756 81.4427C28.5977 81.4415 28.6197 81.4462 28.6393 81.4563C28.6467 81.4589 28.653 81.4639 28.6571 81.4705C28.6613 81.4772 28.663 81.485 28.6621 81.4928C28.6657 81.5131 28.6641 81.5341 28.6573 81.5537C28.6505 81.5732 28.6388 81.5907 28.6234 81.6044C28.5346 81.6841 28.2934 81.6978 27.9679 81.6454C28.1572 81.5431 28.3628 81.4745 28.5756 81.4427Z" fill="#90CAF9"/>
<path d="M27.8587 81.6955H27.8723C28.0476 81.6181 28.3935 81.3014 28.3662 81.1329C28.3662 81.0941 28.332 81.0463 28.2365 81.0349C28.2017 81.0312 28.1666 81.0348 28.1333 81.0454C28.1 81.056 28.0692 81.0733 28.043 81.0964C27.9082 81.2552 27.8284 81.4534 27.8154 81.6613C27.8141 81.6674 27.8146 81.6738 27.8171 81.6795C27.8195 81.6852 27.8237 81.69 27.8291 81.6932C27.8336 81.6957 27.8385 81.6971 27.8436 81.6975C27.8487 81.6979 27.8538 81.6972 27.8587 81.6955ZM28.2069 81.0987H28.2296C28.2933 81.0987 28.2956 81.1306 28.2979 81.1374C28.3138 81.2377 28.0703 81.4882 27.8996 81.593C27.9135 81.4251 27.9796 81.2658 28.0885 81.1374C28.1223 81.1112 28.1641 81.0975 28.2069 81.0987Z" fill="#90CAF9"/>
<path d="M25.9743 36.2763C26.145 37.1465 26.3157 38.7456 25.7057 39.3265C25.7057 39.3265 25.9333 40.2126 27.5629 40.2126C29.3449 40.2126 28.414 39.3265 28.414 39.3265C27.4422 39.0987 27.4673 38.3743 27.638 37.6955L25.9743 36.2763Z" fill="#FFB573"/>
<path opacity="0.2" d="M26.6525 36.8503L27.6357 37.6908C27.5942 37.8483 27.5668 38.0091 27.5537 38.1714C27.1828 38.119 26.6707 37.7159 26.6434 37.3218C26.6185 37.1653 26.6216 37.0056 26.6525 36.8503Z" fill="black"/>
<path d="M25.0344 34.7638C25.3666 36.1852 25.4895 36.7934 26.327 37.4061C27.6038 38.3287 29.2743 37.6089 29.3744 36.1191C29.4632 34.7774 28.9033 32.6795 27.4035 32.3469C27.073 32.2723 26.7288 32.2835 26.4038 32.3794C26.0788 32.4752 25.7836 32.6526 25.5463 32.8947C25.3089 33.1368 25.1374 33.4356 25.0478 33.7627C24.9582 34.0898 24.9536 34.4344 25.0344 34.7638Z" fill="#FFB573"/>
<path d="M25.6215 33.4836C26.1359 33.8777 25.9106 35.3059 25.2733 35.7456C24.2765 35.5064 24.0876 32.3059 25.6215 33.4836Z" fill="#263238"/>
<path d="M27.4171 32.0667C27.9929 32.1669 28.7235 33.0234 28.8782 33.3719C28.0134 33.2124 25.6306 33.9505 25.6306 33.9505C25.6306 33.9505 24.5655 33.832 25.164 33.0097C25.7626 32.1874 27.4171 32.0667 27.4171 32.0667Z" fill="#263238"/>
<path d="M27.5378 34.7551C27.5584 34.8738 27.636 34.9583 27.7136 34.9446C27.7912 34.9309 27.8369 34.8259 27.8164 34.7163C27.7958 34.6067 27.7182 34.5131 27.6405 34.5268C27.5629 34.5405 27.5104 34.6387 27.5378 34.7551Z" fill="#263238"/>
<path d="M28.8487 34.5319C28.8693 34.6484 28.9469 34.7328 29.0245 34.7191C29.1022 34.7054 29.1455 34.6004 29.1273 34.4908C29.109 34.3812 29.0291 34.2899 28.9515 34.3013C28.8738 34.3127 28.8282 34.4132 28.8487 34.5319Z" fill="#263238"/>
<path d="M28.9192 34.3085L29.1864 34.1783C29.1864 34.1783 29.079 34.4226 28.9192 34.3085Z" fill="#263238"/>
<path d="M28.3344 34.8116C28.4833 35.0635 28.6664 35.2935 28.8783 35.495C28.8262 35.5478 28.763 35.5884 28.6934 35.614C28.6238 35.6396 28.5494 35.6495 28.4755 35.6431L28.3344 34.8116Z" fill="#ED893E"/>
<path d="M27.9156 36.2012C27.9743 36.199 28.0328 36.1937 28.0909 36.1852C28.0997 36.183 28.1074 36.1776 28.1125 36.17C28.1175 36.1624 28.1196 36.1532 28.1182 36.1442C28.1165 36.1354 28.1116 36.1274 28.1045 36.122C28.0974 36.1165 28.0884 36.1139 28.0795 36.1146C27.935 36.1434 27.7858 36.1377 27.6438 36.0982C27.5019 36.0586 27.3713 35.9862 27.2624 35.8868C27.2595 35.8834 27.2558 35.8807 27.2517 35.8788C27.2475 35.877 27.2431 35.876 27.2385 35.876C27.234 35.876 27.2296 35.877 27.2254 35.8788C27.2213 35.8807 27.2176 35.8834 27.2147 35.8868C27.2083 35.8936 27.2047 35.9025 27.2047 35.9119C27.2047 35.9212 27.2083 35.9302 27.2147 35.9369C27.3084 36.025 27.4185 36.0936 27.5388 36.139C27.6591 36.1843 27.7872 36.2055 27.9156 36.2012Z" fill="#263238"/>
<path d="M24.8705 36.1464C25.0124 36.3901 25.2447 36.5678 25.5169 36.6408C25.8787 36.7319 26.0517 36.413 25.9447 36.069C25.8492 35.766 25.5442 35.3515 25.1846 35.4084C25.1062 35.4222 25.0324 35.4553 24.9701 35.5049C24.9077 35.5544 24.8587 35.6188 24.8275 35.6921C24.7963 35.7654 24.7839 35.8454 24.7914 35.9248C24.7989 36.0041 24.8261 36.0803 24.8705 36.1464Z" fill="#FFB573"/>
<path d="M26.8118 34.5724C26.8264 34.572 26.8405 34.5668 26.8519 34.5578C26.8634 34.5488 26.8717 34.5364 26.8756 34.5223C26.9232 34.4189 26.9917 34.3265 27.0767 34.2509C27.1616 34.1752 27.2613 34.118 27.3694 34.0826C27.3868 34.0764 27.4011 34.0637 27.4092 34.0471C27.4172 34.0305 27.4185 34.0113 27.4127 33.9938C27.4098 33.9853 27.4054 33.9774 27.3995 33.9706C27.3936 33.9638 27.3864 33.9582 27.3784 33.9542C27.3704 33.9502 27.3616 33.9478 27.3527 33.9472C27.3437 33.9465 27.3347 33.9477 27.3262 33.9505C27.1968 33.9921 27.0778 34.061 26.9773 34.1525C26.8767 34.2441 26.797 34.3562 26.7436 34.4813C26.7378 34.4991 26.7394 34.5185 26.7479 34.5351C26.7565 34.5518 26.7713 34.5644 26.7891 34.5701L26.8118 34.5724Z" fill="#263238"/>
<path d="M28.9989 33.8525C29.0138 33.8516 29.028 33.8461 29.0395 33.8367C29.051 33.8272 29.0593 33.8144 29.0631 33.8C29.0668 33.7856 29.066 33.7703 29.0606 33.7564C29.0552 33.7426 29.0456 33.7307 29.0331 33.7227C28.9386 33.6658 28.8319 33.6323 28.7219 33.6248C28.6119 33.6172 28.5017 33.636 28.4004 33.6794C28.3919 33.6835 28.3844 33.6893 28.3782 33.6963C28.372 33.7034 28.3673 33.7116 28.3644 33.7205C28.3614 33.7294 28.3602 33.7388 28.361 33.7482C28.3617 33.7576 28.3642 33.7667 28.3685 33.7751C28.3776 33.7907 28.3922 33.8024 28.4095 33.8079C28.4267 33.8134 28.4454 33.8122 28.4618 33.8047C28.5424 33.7709 28.6298 33.7569 28.7168 33.7636C28.8039 33.7703 28.8881 33.7977 28.9625 33.8434C28.9736 33.8496 28.9862 33.8527 28.9989 33.8525Z" fill="#263238"/>
<path d="M27.5992 34.5339L27.8664 34.4038C27.8664 34.4038 27.7659 34.6481 27.5992 34.5339Z" fill="#263238"/>
<path d="M24.1422 48.224L23.9897 48.7593C23.9693 48.8003 24.017 48.8413 24.0853 48.8413H30.2301C30.2848 48.8413 30.3303 48.8162 30.3326 48.7821L30.3872 48.2468C30.3872 48.2103 30.3439 48.1784 30.2848 48.1784H24.2378C24.2193 48.1771 24.2007 48.1805 24.184 48.1885C24.1672 48.1965 24.1528 48.2087 24.1422 48.224Z" fill="#FAFAFA"/>
<path d="M24.9525 48.9005H24.7909C24.759 48.9005 24.734 48.8823 24.7363 48.8641L24.8114 48.1693C24.8114 48.1488 24.8432 48.1329 24.8751 48.1329H25.0344C25.0663 48.1329 25.0913 48.1488 25.089 48.1693L25.0139 48.8641C25.0139 48.8823 24.9843 48.9005 24.9525 48.9005Z" fill="#90CAF9"/>
<g opacity="0.3">
<path d="M24.9525 48.9005H24.7909C24.759 48.9005 24.734 48.8823 24.7363 48.8641L24.8114 48.1693C24.8114 48.1488 24.8432 48.1329 24.8751 48.1329H25.0344C25.0663 48.1329 25.0913 48.1488 25.089 48.1693L25.0139 48.8641C25.0139 48.8823 24.9843 48.9005 24.9525 48.9005Z" fill="black"/>
</g>
<path d="M29.7704 48.9005H29.6088C29.5747 48.9005 29.5519 48.8823 29.5542 48.8641L29.6293 48.1693C29.6293 48.1488 29.6589 48.1329 29.693 48.1329H29.8546C29.8865 48.1329 29.9092 48.1488 29.9092 48.1693L29.8319 48.8641C29.8296 48.8823 29.8137 48.9005 29.7704 48.9005Z" fill="#90CAF9"/>
<path opacity="0.3" d="M29.7704 48.9005H29.6088C29.5747 48.9005 29.5519 48.8823 29.5542 48.8641L29.6293 48.1693C29.6293 48.1488 29.6589 48.1329 29.693 48.1329H29.8546C29.8865 48.1329 29.9092 48.1488 29.9092 48.1693L29.8319 48.8641C29.8296 48.8823 29.8137 48.9005 29.7704 48.9005Z" fill="black"/>
<path d="M27.3602 48.9005H27.1987C27.1668 48.9005 27.1418 48.8823 27.144 48.8641L27.2214 48.1693C27.2214 48.1488 27.251 48.1329 27.2829 48.1329H27.4444C27.4763 48.1329 27.5013 48.1488 27.4991 48.1693L27.424 48.8641C27.4217 48.8823 27.3944 48.9005 27.3602 48.9005Z" fill="#90CAF9"/>
<path opacity="0.3" d="M27.3602 48.9005H27.1987C27.1668 48.9005 27.1418 48.8823 27.144 48.8641L27.2214 48.1693C27.2214 48.1488 27.251 48.1329 27.2829 48.1329H27.4444C27.4763 48.1329 27.5013 48.1488 27.4991 48.1693L27.424 48.8641C27.4217 48.8823 27.3944 48.9005 27.3602 48.9005Z" fill="black"/>
<path d="M34.9867 36.3266L33.8525 37.4464C33.6897 37.6072 33.6879 37.8697 33.8485 38.0327L34.3088 38.4997C34.4695 38.6627 34.7317 38.6645 34.8946 38.5037L36.0287 37.3839C36.1916 37.2231 36.1934 36.9606 36.0327 36.7976L35.5724 36.3305C35.4118 36.1675 35.1495 36.1658 34.9867 36.3266Z" fill="#90CAF9"/>
<path opacity="0.4" d="M34.5042 37.6316L34.1241 38.0075C34.1211 38.0109 34.1174 38.0136 34.1133 38.0155C34.1092 38.0173 34.1047 38.0183 34.1002 38.0183C34.0957 38.0183 34.0912 38.0173 34.0871 38.0155C34.083 38.0136 34.0793 38.0109 34.0763 38.0075C34.0699 38.0007 34.0663 37.9917 34.0663 37.9824C34.0663 37.9731 34.0699 37.9641 34.0763 37.9574L34.4564 37.5838C34.4594 37.5804 34.4631 37.5777 34.4672 37.5758C34.4713 37.574 34.4758 37.573 34.4803 37.573C34.4848 37.573 34.4893 37.574 34.4934 37.5758C34.4975 37.5777 34.5012 37.5804 34.5042 37.5838C34.5076 37.5868 34.5103 37.5905 34.5121 37.5946C34.514 37.5987 34.515 37.6032 34.515 37.6077C34.515 37.6122 34.514 37.6167 34.5121 37.6208C34.5103 37.625 34.5076 37.6286 34.5042 37.6316Z" fill="white"/>
<path opacity="0.4" d="M35.3235 36.3127L34.9434 36.6863C34.937 36.6926 34.9284 36.6961 34.9195 36.6961C34.9106 36.6961 34.902 36.6926 34.8956 36.6863C34.8922 36.6833 34.8895 36.6796 34.8876 36.6755C34.8858 36.6714 34.8848 36.6669 34.8848 36.6624C34.8848 36.6579 34.8858 36.6534 34.8876 36.6493C34.8895 36.6452 34.8922 36.6415 34.8956 36.6385L35.2757 36.2626C35.2787 36.2592 35.2823 36.2565 35.2865 36.2547C35.2906 36.2528 35.2951 36.2518 35.2996 36.2518C35.3041 36.2518 35.3086 36.2528 35.3127 36.2547C35.3168 36.2565 35.3205 36.2592 35.3235 36.2626C35.3299 36.2694 35.3334 36.2784 35.3334 36.2877C35.3334 36.297 35.3299 36.306 35.3235 36.3127Z" fill="white"/>
<path opacity="0.4" d="M35.0141 38.151L34.634 38.5246C34.6276 38.5308 34.619 38.5344 34.6101 38.5344C34.6012 38.5344 34.5926 38.5308 34.5862 38.5246C34.5798 38.5178 34.5762 38.5088 34.5762 38.4995C34.5762 38.4902 34.5798 38.4812 34.5862 38.4745L34.9663 38.1009C34.9727 38.0946 34.9812 38.0911 34.9902 38.0911C34.9991 38.0911 35.0077 38.0946 35.0141 38.1009C35.0205 38.1077 35.024 38.1166 35.024 38.1259C35.024 38.1353 35.0205 38.1442 35.0141 38.151Z" fill="white"/>
<path opacity="0.4" d="M34.3452 38.0303L34.2448 38.1283C34.2381 38.1347 34.2291 38.1383 34.2198 38.1383C34.2104 38.1383 34.2015 38.1347 34.1947 38.1283C34.1884 38.1219 34.1849 38.1133 34.1849 38.1044C34.1849 38.0954 34.1884 38.0868 34.1947 38.0804L34.2927 37.9801C34.2997 37.9742 34.3086 37.9709 34.3178 37.9709C34.327 37.9709 34.3359 37.9742 34.3429 37.9801C34.3496 37.9866 34.3536 37.9954 34.354 38.0048C34.3544 38.0141 34.3513 38.0232 34.3452 38.0303Z" fill="white"/>
<path opacity="0.2" d="M36.004 37.2627L35.8857 37.3811C35.8461 37.4198 35.793 37.4414 35.7377 37.4414C35.6824 37.4414 35.6293 37.4198 35.5898 37.3811C35.5506 37.3418 35.5286 37.2886 35.5286 37.233C35.5286 37.1775 35.5506 37.1243 35.5898 37.085L35.7081 36.9665C35.7477 36.9278 35.8008 36.9062 35.8561 36.9062C35.9114 36.9062 35.9645 36.9278 36.004 36.9665C36.0432 37.0058 36.0652 37.0591 36.0652 37.1146C36.0652 37.1701 36.0432 37.2234 36.004 37.2627Z" fill="black"/>
<path d="M23.8395 40.0393C24.1923 40.1783 24.5814 40.3286 24.9592 40.4585C25.337 40.5883 25.7216 40.725 26.0972 40.8434C26.8405 41.0865 27.6014 41.2723 28.373 41.3992L28.5141 41.4197H28.5505C28.5505 41.4197 28.5665 41.4197 28.5505 41.4197C28.5943 41.42 28.6379 41.4146 28.6803 41.4038C28.8368 41.3645 28.9892 41.3103 29.1354 41.2421C29.4863 41.0798 29.8275 40.8972 30.1573 40.6954C30.84 40.2831 31.541 39.8207 32.2192 39.3628L32.8109 40.0234C32.2399 40.6696 31.6181 41.2691 30.9516 41.8161C30.6021 42.1024 30.2316 42.3621 29.8432 42.5929C29.6226 42.7258 29.3893 42.8364 29.1468 42.9232C28.9899 42.9776 28.8273 43.0136 28.6621 43.0302C28.6097 43.0302 28.5619 43.0302 28.505 43.0302H28.3867H28.216C27.9884 43.0188 27.7608 42.9892 27.5332 42.9642C27.3056 42.9391 27.0781 42.9004 26.8732 42.8548C26.4363 42.7774 26.0107 42.6703 25.5896 42.5564C25.1686 42.4425 24.7544 42.3104 24.3447 42.1692C23.9351 42.028 23.5391 41.8776 23.1203 41.6931L23.8395 40.0393Z" fill="#FFB573"/>
<path d="M32.1851 39.438L33.0818 38.1259L33.4801 39.5656C33.4801 39.5656 32.7973 40.2261 32.2238 40.0416L32.1851 39.438Z" fill="#FFB573"/>
<path d="M34.2584 37.7524L34.527 38.9756L33.4801 39.5656L33.0818 38.126L34.2584 37.7524Z" fill="#FFB573"/>
<path d="M21.9369 41.9392C22.3716 42.3948 24.2583 42.6681 24.2583 42.6681L25.4508 40.0781C25.4508 40.0781 23.7144 39.3401 23.002 39.7319C22.2897 40.1237 21.4431 41.4266 21.9369 41.9392Z" fill="#90CAF9"/>
<g opacity="0.5">
<path d="M21.9369 41.9392C22.3716 42.3948 24.2583 42.6681 24.2583 42.6681L25.4508 40.0781C25.4508 40.0781 23.7144 39.3401 23.002 39.7319C22.2897 40.1237 21.4431 41.4266 21.9369 41.9392Z" fill="white"/>
</g>
<path d="M46.2318 55.0053L45.565 55.0668C44.6546 58.0053 43.412 58.0281 43.041 57.9643C42.3583 57.8436 41.9623 57.0987 42.1603 56.306C42.4334 55.2126 43.6714 54.7661 44.4475 54.5748C43.9673 53.8481 43.7875 52.6386 44.0766 51.8413C44.1579 51.556 44.3333 51.3066 44.5742 51.1338C44.8151 50.9609 45.1073 50.8747 45.4034 50.8891C45.579 50.8775 45.7545 50.9138 45.9111 50.994C46.0678 51.0742 46.1999 51.1954 46.2932 51.3447C46.8326 52.2286 45.9792 54.1329 45.7038 54.7024L46.2318 55.0053ZM45.1644 54.347C45.5627 53.486 45.9655 52.1898 45.6765 51.7183C45.631 51.6431 45.5832 51.5657 45.3488 51.5588C45.2093 51.5471 45.0704 51.587 44.9584 51.671C44.8464 51.755 44.769 51.8772 44.7411 52.0144C44.4862 52.7229 44.7479 53.8823 45.1644 54.347ZM42.8886 56.3151C42.8772 56.3493 42.8681 56.3835 42.859 56.4176C42.7452 56.8732 42.9614 57.2582 43.2299 57.306C43.4985 57.3539 44.2245 56.9575 44.823 55.1511C44.2746 55.2513 43.1571 55.5452 42.8772 56.3151H42.8886Z" fill="#263238"/>
<path d="M70.0669 56.6226L65.5197 69.2149L43.0137 61.076L47.5449 48.5247L70.0669 56.6226Z" fill="#90CAF9"/>
<path opacity="0.6" d="M70.0669 56.6226L65.5197 69.2149L43.0137 61.076L47.5449 48.5247L70.0669 56.6226Z" fill="white"/>
<path d="M46.3978 51.7L46.0269 52.725L68.5488 60.823L68.9175 59.8002L46.3978 51.7Z" fill="#263238"/>
<path d="M66.43 66.6955L66.1569 67.4472L43.6372 59.347L43.9081 58.5975L66.43 66.6955Z" fill="#263238"/>
<path opacity="0.2" d="M67.3267 64.2126L65.5197 69.2149L43.0137 61.0759L44.8048 56.1123L67.3267 64.2126Z" fill="black"/>
<path d="M52.0488 58.2626L51.8212 57.7501C49.2336 57.8708 48.8626 56.8913 48.8034 56.5792C48.7033 56.0007 49.179 55.4745 49.8663 55.4038C50.8085 55.3082 51.5185 56.1624 51.8918 56.725C52.1402 56.4133 52.4505 56.1564 52.803 55.9706C53.1555 55.7848 53.5427 55.674 53.9401 55.6453C54.1898 55.627 54.4384 55.6941 54.6451 55.8357C54.8518 55.9772 55.0044 56.1847 55.078 56.4243C55.1371 56.5616 55.1578 56.7123 55.1377 56.8604C55.1177 57.0085 55.0577 57.1484 54.9642 57.2649C54.4203 57.9483 52.6656 57.8139 52.1376 57.7592L52.0488 58.2626ZM52.2764 57.2262C53.0707 57.2968 54.2154 57.2444 54.5045 56.8799C54.5523 56.8207 54.6001 56.7615 54.5363 56.5747C54.5062 56.4604 54.4349 56.3614 54.3362 56.2966C54.2374 56.2318 54.1182 56.2059 54.0015 56.2239C53.6556 56.2533 53.3206 56.3593 53.0207 56.5342C52.7207 56.7091 52.4634 56.9486 52.2673 57.2353L52.2764 57.2262ZM50.0506 55.9847H49.9619C49.5727 56.0257 49.3246 56.3082 49.3656 56.5337C49.4065 56.7592 49.9254 57.2171 51.5276 57.1852C51.2955 56.7888 50.7516 55.9847 50.0506 55.9847Z" fill="#263238"/>
<path d="M57.5974 65.2104H46.3182V57.4564H57.561L57.5974 65.2104Z" fill="#90CAF9"/>
<path opacity="0.4" d="M57.5974 65.2104H46.3182V57.4564H57.561L57.5974 65.2104Z" fill="white"/>
<path d="M54.7161 57.4564H53.799L53.8354 65.2104H54.7525L54.7161 57.4564Z" fill="#263238"/>
<path d="M48.5759 65.2104H47.9022L47.8658 57.4564H48.5394L48.5759 65.2104Z" fill="#263238"/>
<path opacity="0.2" d="M50.8017 65.2104H46.3182V57.4564H50.7653L50.8017 65.2104Z" fill="black"/>
<path d="M54.8049 66.5133C54.0948 66.6864 51.7188 67.1967 50.6697 66.3721C50.4978 66.2436 50.3605 66.0743 50.2704 65.8794C50.1802 65.6845 50.1399 65.4703 50.1531 65.2559C50.1735 64.5156 50.6333 64.0873 51.3911 63.9848C52.3811 63.8504 53.8491 64.3448 54.7116 65.0623C54.987 64.2309 55.6037 62.9438 56.9533 62.8983C57.9342 62.8641 58.8195 63.4883 58.931 64.2901C58.9902 64.7229 58.8878 66.1124 55.2464 66.4404L55.1349 67.1785L54.8049 66.5133ZM51.5686 64.7684C51.1749 64.8208 50.986 64.9757 50.9769 65.3516C50.9641 65.4295 50.9737 65.5096 51.0048 65.5822C51.0358 65.6548 51.0869 65.7171 51.1522 65.7616C51.712 66.199 53.3165 66.0509 54.3907 65.8072C53.8468 65.2263 52.4448 64.6409 51.5686 64.7684ZM55.3966 65.6158C57.6361 65.3698 58.1664 64.6842 58.1277 64.3311C58.0844 64.0167 57.6202 63.6796 57.0626 63.7001C57.0209 63.6978 56.9791 63.6978 56.9374 63.7001C55.9702 63.8391 55.5468 65.0304 55.3966 65.6158Z" fill="#263238"/>
<path d="M61.8769 64.6689L47.6676 66.5867L48.3681 71.7857L62.5774 69.8679L61.8769 64.6689Z" fill="#90CAF9"/>
<path opacity="0.4" d="M61.8769 64.6689L47.6676 66.5867L48.3681 71.7857L62.5774 69.8679L61.8769 64.6689Z" fill="white"/>
<path opacity="0.2" d="M61.8777 64.6701L56.2324 65.4321L56.9328 70.631L62.5782 69.8691L61.8777 64.6701Z" fill="white"/>
<path d="M52.4069 65.9467L51.2521 66.1026L51.9526 71.3015L53.1074 71.1457L52.4069 65.9467Z" fill="#263238"/>
<path d="M59.8812 64.9381L59.0332 65.0525L59.7337 70.2515L60.5817 70.137L59.8812 64.9381Z" fill="#263238"/>
<path d="M42.7701 56.7227L42.4447 57.0052C41.4547 54.5792 40.2007 52.6772 38.2616 52.1328L38.5871 51.8526C40.4351 52.34 41.7255 54.2239 42.7701 56.7227Z" fill="#263238"/>
<path opacity="0.5" d="M42.7701 56.7227L42.4447 57.0052C41.4547 54.5792 40.2007 52.6772 38.2616 52.1328L38.5871 51.8526C40.4351 52.34 41.7255 54.2239 42.7701 56.7227Z" fill="white"/>
<path d="M41.5026 56.7455L41.0474 57.069C40.1097 55.1738 40.2235 54.2011 37.8885 52.741L38.3323 52.4175C40.6673 53.987 40.6673 54.9574 41.5026 56.7455Z" fill="#263238"/>
<path opacity="0.5" d="M41.5026 56.7455L41.0474 57.069C40.1097 55.1738 40.2235 54.2011 37.8885 52.741L38.3323 52.4175C40.6673 53.987 40.6673 54.9574 41.5026 56.7455Z" fill="white"/>
<path d="M69.9439 56.7365H41.0746C40.9811 56.7364 40.8891 56.7599 40.8071 56.8047C40.725 56.8494 40.6555 56.9142 40.605 56.9929C40.5544 57.0716 40.5245 57.1617 40.5178 57.2551C40.5112 57.3484 40.5282 57.4419 40.5671 57.5269L47.2649 72.2468C47.316 72.3569 47.4011 72.4475 47.5077 72.5054C47.6143 72.5632 47.7366 72.5852 47.8567 72.568L68.9584 69.4245C69.0819 69.4057 69.1955 69.3462 69.2813 69.2554C69.367 69.1646 69.42 69.0477 69.4318 68.9233L70.4992 57.3516C70.5072 57.2738 70.4987 57.1953 70.4744 57.121C70.4501 57.0467 70.4105 56.9784 70.3582 56.9204C70.3059 56.8624 70.2419 56.8161 70.1706 56.7844C70.0992 56.7528 70.0219 56.7364 69.9439 56.7365ZM69.8665 57.6477L68.8515 68.7411C68.8405 68.8607 68.7896 68.9732 68.7071 69.0603C68.6245 69.1475 68.515 69.2044 68.3963 69.2217L48.1798 72.2331C48.0648 72.2502 47.9474 72.2294 47.8453 72.1739C47.7431 72.1185 47.6616 72.0314 47.6131 71.9256L41.1929 57.8276C41.1556 57.7462 41.1393 57.6567 41.1455 57.5673C41.1517 57.4779 41.1802 57.3914 41.2285 57.316C41.2767 57.2405 41.3431 57.1783 41.4216 57.1352C41.5001 57.092 41.5882 57.0693 41.6777 57.0691H69.3294C69.4044 57.0681 69.4788 57.083 69.5478 57.1127C69.6167 57.1424 69.6786 57.1862 69.7295 57.2415C69.7803 57.2967 69.819 57.362 69.843 57.4331C69.867 57.5043 69.8758 57.5797 69.8688 57.6545L69.8665 57.6477Z" fill="#263238"/>
<path d="M49.5181 72.24H49.0971L42.2376 56.7365H42.6564L49.5181 72.24Z" fill="#263238"/>
<path d="M51.407 71.9416H50.9882L44.4269 56.7365H44.848L51.407 71.9416Z" fill="#263238"/>
<path d="M53.1572 71.6432H52.7384L47.0715 56.7365H47.4925L53.1572 71.6432Z" fill="#263238"/>
<path d="M55.0302 71.3288H54.6115L49.5181 56.7365H49.9369L55.0302 71.3288Z" fill="#263238"/>
<path d="M56.728 71.101H56.3093L52.0739 56.7365H52.4927L56.728 71.101Z" fill="#263238"/>
<path d="M58.6443 70.8208H58.2255L54.4703 56.7365H54.8914L58.6443 70.8208Z" fill="#263238"/>
<path d="M60.4513 70.4883H60.0325L56.9396 56.7365H57.3584L60.4513 70.4883Z" fill="#263238"/>
<path d="M62.3471 70.2764H61.9261L59.4408 56.7365H59.8619L62.3471 70.2764Z" fill="#263238"/>
<path d="M64.1496 70.0486H63.7286L62.0148 56.7365H62.4336L64.1496 70.0486Z" fill="#263238"/>
<path d="M65.9521 69.7161H65.531L64.5251 56.7365H64.9462L65.9521 69.7161Z" fill="#263238"/>
<path d="M67.8069 69.5407H67.3881L67.1241 56.7365H67.5452L67.8069 69.5407Z" fill="#263238"/>
<path d="M69.8687 61.1511V61.5702L43.0591 62.7798V62.3584L69.8687 61.1511Z" fill="#263238"/>
<path d="M69.532 65.552V65.9734L45.6332 68.5862V68.1671L69.532 65.552Z" fill="#263238"/>
<path d="M49.5181 81.6339C49.519 81.9328 49.4311 82.2251 49.2657 82.4739C49.1003 82.7227 48.8648 82.9167 48.589 83.0312C48.3133 83.1458 48.0097 83.1758 47.7169 83.1174C47.4241 83.0589 47.1553 82.9148 46.9445 82.7032C46.7337 82.4915 46.5905 82.222 46.533 81.9287C46.4755 81.6355 46.5064 81.3318 46.6217 81.0561C46.737 80.7805 46.9315 80.5453 47.1806 80.3805C47.4296 80.2157 47.722 80.1287 48.0205 80.1305C48.4179 80.1323 48.7985 80.2914 49.0791 80.5731C49.3596 80.8548 49.5175 81.2362 49.5181 81.6339Z" fill="#90CAF9"/>
<path d="M49.1585 81.625C49.0921 81.8378 48.9597 82.0239 48.7804 82.1562C48.6012 82.2886 48.3844 82.3602 48.1617 82.3607C47.9491 82.3674 47.7413 82.2964 47.5772 82.161C47.413 82.0256 47.3037 81.8351 47.2695 81.625L46.8007 78.7639H50.6287L50.1735 80.3585C50.1415 80.4695 50.0856 80.5721 50.0097 80.6591L49.1585 81.625Z" fill="#263238"/>
<path opacity="0.3" d="M49.1585 81.625C49.0921 81.8378 48.9597 82.0239 48.7804 82.1562C48.6012 82.2886 48.3844 82.3602 48.1617 82.3607C47.9491 82.3674 47.7413 82.2964 47.5772 82.161C47.413 82.0256 47.3037 81.8351 47.2695 81.625L46.8007 78.7639H50.6287L50.1735 80.3585C50.1415 80.4695 50.0856 80.5721 50.0097 80.6591L49.1585 81.625Z" fill="white"/>
<path d="M63.9266 81.634C63.9257 81.9326 64.0133 82.2247 64.1784 82.4733C64.3435 82.7219 64.5787 82.9159 64.854 83.0307C65.1294 83.1455 65.4325 83.1758 65.7252 83.118C66.0178 83.0601 66.2867 82.9166 66.4977 82.7057C66.7088 82.4948 66.8526 82.2259 66.9108 81.9331C66.9691 81.6403 66.9392 81.3368 66.8249 81.061C66.7107 80.7852 66.5172 80.5496 66.269 80.384C66.0209 80.2183 65.7292 80.1302 65.4309 80.1306C65.0323 80.1306 64.65 80.2889 64.368 80.5708C64.0859 80.8527 63.9272 81.2351 63.9266 81.634Z" fill="#90CAF9"/>
<path d="M64.2838 81.625C64.3509 81.8378 64.4838 82.0238 64.6634 82.156C64.843 82.2883 65.0599 82.36 65.2829 82.3607C65.4955 82.3674 65.7032 82.2964 65.8674 82.161C66.0315 82.0256 66.1409 81.8351 66.175 81.625L66.6439 78.7639H62.8136L63.2801 80.3585C63.3112 80.4698 63.3673 80.5727 63.444 80.6591L64.2838 81.625Z" fill="#263238"/>
<path opacity="0.3" d="M64.2838 81.625C64.3509 81.8378 64.4838 82.0238 64.6634 82.156C64.843 82.2883 65.0599 82.36 65.2829 82.3607C65.4955 82.3674 65.7032 82.2964 65.8674 82.161C66.0315 82.0256 66.1409 81.8351 66.175 81.625L66.6439 78.7639H62.8136L63.2801 80.3585C63.3112 80.4698 63.3673 80.5727 63.444 80.6591L64.2838 81.625Z" fill="white"/>
<path opacity="0.6" d="M69.9439 56.7365H41.0746C40.9811 56.7364 40.8891 56.7599 40.8071 56.8047C40.725 56.8494 40.6555 56.9142 40.605 56.9929C40.5544 57.0716 40.5245 57.1617 40.5178 57.2551C40.5112 57.3484 40.5282 57.4419 40.5671 57.5269L47.2649 72.2468C47.316 72.3569 47.4011 72.4475 47.5077 72.5054C47.6143 72.5632 47.7366 72.5852 47.8567 72.568L68.9584 69.4245C69.0819 69.4057 69.1955 69.3462 69.2813 69.2554C69.367 69.1646 69.42 69.0477 69.4318 68.9233L70.4992 57.3516C70.5072 57.2738 70.4987 57.1953 70.4744 57.121C70.4501 57.0467 70.4105 56.9784 70.3582 56.9204C70.3059 56.8624 70.2419 56.8161 70.1706 56.7844C70.0992 56.7528 70.0219 56.7364 69.9439 56.7365ZM69.3339 57.0691C69.4084 57.0691 69.4821 57.0846 69.5502 57.1148C69.6183 57.1449 69.6794 57.1889 69.7295 57.244C69.7796 57.2991 69.8177 57.3641 69.8413 57.4348C69.8649 57.5055 69.8735 57.5803 69.8665 57.6545L69.5456 61.1648L67.6362 61.2513L67.552 57.0691H69.3339ZM43.4438 62.7639L44.8753 62.7001L47.2194 67.9962L45.8903 68.1397L43.4438 62.7639ZM45.2872 62.6819L46.96 62.6067L49.1903 67.7798L47.62 67.9507L45.2872 62.6819ZM63.2392 66.2354L61.6461 66.4085L60.8336 61.9712L62.6884 61.8892L63.2392 66.2354ZM63.0958 61.8686L64.9165 61.7866L65.2442 66.0144L63.6511 66.1898L63.0958 61.8686ZM61.2205 66.4632L59.5796 66.6432L58.5532 62.0873L60.4012 62.0053L61.2205 66.4632ZM59.1722 66.691L57.5791 66.8641L56.332 62.1853L58.1367 62.1033L59.1722 66.691ZM57.1763 66.9074L55.54 67.0873L54.1244 62.2855L55.9223 62.2035L57.1763 66.9074ZM55.128 67.1352L53.6123 67.3015L51.8986 62.3903L53.7033 62.3083L55.128 67.1352ZM53.2095 67.347L51.58 67.5247L49.666 62.4905L51.4866 62.4085L53.2095 67.347ZM51.1771 67.5748L49.584 67.7502L47.3719 62.5907L49.2631 62.5042L51.1771 67.5748ZM49.3564 68.1944L50.9268 71.8391L49.4224 72.0669L47.7929 68.3493L49.3564 68.1944ZM49.757 68.1511L51.3296 67.978L52.6951 71.5726L51.3296 71.7776L49.757 68.1511ZM51.7324 67.9347L53.3506 67.757L54.5841 71.2901L53.0934 71.5179L51.7324 67.9347ZM53.7557 67.7069L55.2486 67.5429L56.2864 71.019L54.9915 71.2126L53.7557 67.7069ZM55.6537 67.4996L57.281 67.322L58.1913 70.7388L56.6756 70.9666L55.6537 67.4996ZM57.6884 67.2719L59.261 67.101L60.0166 70.4678L58.5964 70.6796L57.6884 67.2719ZM59.6706 67.0555L61.2933 66.8778L61.9033 70.183L60.4262 70.4108L59.6706 67.0555ZM61.7053 66.8277L63.2824 66.6568L63.724 69.912L62.3288 70.1215L61.7053 66.8277ZM63.6966 66.5999L65.2693 66.4267L65.5264 69.6523L64.1245 69.8618L63.6966 66.5999ZM65.6857 66.3721L67.3107 66.1944L67.3744 69.3448L65.9315 69.5589L65.6857 66.3721ZM65.6539 65.9552L65.3262 61.7548L67.2174 61.6705L67.3016 65.7707L65.6539 65.9552ZM67.6362 61.65L69.4978 61.5657L69.1314 65.5748L67.7204 65.7297L67.6362 61.65ZM67.1377 57.0691L67.2242 61.2696L65.3102 61.3561L64.978 57.0691H67.1377ZM64.5592 57.0691L64.8915 61.3743L63.0412 61.4518L62.4745 57.0623L64.5592 57.0691ZM62.0557 57.0691L62.6224 61.4768L60.7449 61.5611L59.921 57.0691H62.0557ZM59.5 57.0691L60.3284 61.5816L58.4644 61.6636L57.4312 57.0691H59.5ZM57.0124 57.0691L58.0525 61.6796L56.2318 61.7616L54.9801 57.0645L57.0124 57.0691ZM54.5568 57.0691L55.8131 61.7844L54.0037 61.8664L52.5904 57.0691H54.5568ZM52.1694 57.0691L53.5895 61.8846L51.7689 61.9666L50.0597 57.0691H52.1694ZM49.6318 57.0691L51.3478 61.9848L49.5271 62.0668L47.6291 57.0691H49.6318ZM47.1967 57.0691L49.1038 62.0805L47.1921 62.1671L44.9891 57.0623L47.1967 57.0691ZM44.5703 57.0691L46.7779 62.1921L45.1029 62.2673L42.802 57.0691H44.5703ZM41.68 57.0691H42.3832L44.6909 62.2855L43.2526 62.3493L41.2043 57.8276C41.1672 57.7467 41.1508 57.6578 41.1567 57.5689C41.1626 57.4801 41.1905 57.3941 41.238 57.3188C41.2855 57.2435 41.3509 57.1812 41.4285 57.1376C41.5061 57.094 41.5933 57.0704 41.6822 57.0691H41.68ZM47.6131 71.9302L46.0724 68.5429L47.3969 68.3994L49.0378 72.1101L48.1798 72.2377C48.0648 72.2547 47.9474 72.2339 47.8453 72.1785C47.7431 72.123 47.6616 72.0359 47.6131 71.9302ZM68.8515 68.7411C68.8405 68.8607 68.7896 68.9732 68.7071 69.0603C68.6245 69.1475 68.515 69.2044 68.3963 69.2217L67.8 69.3106L67.7363 66.1785L69.1018 66.0304L68.8515 68.7411Z" fill="white"/>
<path d="M36.5639 52.0828L38.2844 53.0782L39.0423 51.7662L37.324 50.7707C37.238 50.7209 37.143 50.6886 37.0444 50.6756C36.9459 50.6627 36.8458 50.6693 36.7498 50.6951C36.6538 50.7209 36.5639 50.7654 36.4851 50.8261C36.4063 50.8868 36.3403 50.9624 36.2908 51.0486C36.2408 51.1345 36.2083 51.2293 36.195 51.3278C36.1817 51.4262 36.1879 51.5263 36.2133 51.6223C36.2387 51.7184 36.2827 51.8085 36.3428 51.8875C36.403 51.9665 36.4781 52.0328 36.5639 52.0828Z" fill="#90CAF9"/>
<path d="M45.6309 78.1489V78.9644H68.0345V78.1489H45.6309Z" fill="#263238"/>
<path d="M49.4501 72.3486L49.5749 73.1545L53.5759 72.5338L53.4511 71.7279L49.4501 72.3486Z" fill="#263238"/>
<path d="M45.0915 77.7115C44.9322 77.9142 45.178 78.2217 45.6332 78.1511V78.9666C44.1061 79.019 43.8125 77.9415 44.4953 77.1693L45.0915 77.7115Z" fill="#263238"/>
<path d="M48.8193 73.5247C49.0171 73.3117 49.2841 73.1761 49.5726 73.142L49.4497 72.3356C48.9789 72.4122 48.5454 72.6392 48.214 72.9825L48.8193 73.5247Z" fill="#263238"/>
<path d="M45.6309 78.1489V78.9644H68.0345V78.1489H45.6309Z" fill="#263238"/>
<path d="M49.4501 72.3486L49.5749 73.1545L53.5759 72.5338L53.4511 71.7279L49.4501 72.3486Z" fill="#263238"/>
<path d="M45.0915 77.7115C44.9322 77.9142 45.178 78.2217 45.6332 78.1511V78.9666C44.1061 79.019 43.8125 77.9415 44.4953 77.1693L45.0915 77.7115Z" fill="#263238"/>
<path d="M48.8193 73.5247C49.0171 73.3117 49.2841 73.1761 49.5726 73.142L49.4497 72.3356C48.9789 72.4122 48.5454 72.6392 48.214 72.9825L48.8193 73.5247Z" fill="#263238"/>
<path d="M44.4788 77.1678L45.0865 77.7111L48.8144 73.5334L48.2067 72.9902L44.4788 77.1678Z" fill="#263238"/>
<path d="M44.4788 77.1678L45.0865 77.7111L48.8144 73.5334L48.2067 72.9902L44.4788 77.1678Z" fill="#263238"/>
<path opacity="0.4" d="M45.6332 78.1511C45.178 78.2217 44.9322 77.9233 45.0916 77.7114L48.8194 73.5246C49.0172 73.3117 49.2842 73.176 49.5727 73.1419L53.576 72.5201L53.4508 71.716L49.4498 72.3356C48.979 72.4122 48.5455 72.6391 48.214 72.9825L44.4862 77.1693C43.8034 77.9415 44.1061 79.019 45.6241 78.9666H68.0254V78.1511H45.6332Z" fill="white"/>
</svg>
