<svg width="28" height="28" viewBox="0 0 28 28" fill="none" xmlns="http://www.w3.org/2000/svg">
<g id="Frame">
<path id="Vector" d="M16.0447 1.84413L16.6898 3.65705C16.786 3.92722 16.9378 4.17421 17.1353 4.38207C17.3329 4.58992 17.5719 4.75402 17.8368 4.86376C18.1018 4.9735 18.3868 5.02643 18.6735 5.01915C18.9601 5.01186 19.2421 4.94452 19.5011 4.82147L21.2394 3.99579C22.981 3.16789 24.7984 4.98527 23.9705 6.72687L23.1448 8.46514C23.0214 8.72411 22.9538 9.00613 22.9463 9.29291C22.9389 9.57969 22.9917 9.86483 23.1015 10.1299C23.2113 10.3949 23.3755 10.6339 23.5836 10.8315C23.7916 11.029 24.0388 11.1806 24.3092 11.2764L26.1221 11.9205C27.9384 12.5668 27.9384 15.1363 26.1221 15.7837L24.3092 16.4288C24.0391 16.525 23.7921 16.6768 23.5842 16.8743C23.3764 17.0719 23.2123 17.3109 23.1025 17.5758C22.9928 17.8408 22.9398 18.1258 22.9471 18.4125C22.9544 18.6992 23.0218 18.9811 23.1448 19.2402L23.9705 20.9784C24.7984 22.72 22.981 24.5374 21.2394 23.7095L19.5011 22.8838C19.2422 22.7606 18.9603 22.693 18.6736 22.6856C18.3869 22.6781 18.1019 22.731 17.8369 22.8406C17.5719 22.9502 17.3329 23.1143 17.1353 23.3221C16.9377 23.53 16.786 23.7769 16.6898 24.0471L16.0447 25.8612C15.3984 27.6774 12.8289 27.6774 12.1826 25.8612L11.5374 24.0471C11.4412 23.7771 11.2893 23.5302 11.0917 23.3224C10.8941 23.1147 10.6551 22.9507 10.3901 22.8411C10.1252 22.7315 9.84023 22.6786 9.5536 22.686C9.26698 22.6934 8.98508 22.7607 8.72612 22.8838L6.98786 23.7084C5.24625 24.5374 3.42887 22.72 4.25678 20.9784L5.08245 19.2402C5.20588 18.981 5.27353 18.6989 5.28101 18.4119C5.28849 18.125 5.23563 17.8397 5.12587 17.5745C5.01611 17.3092 4.85188 17.07 4.64382 16.8723C4.43576 16.6746 4.1885 16.5227 3.91804 16.4266L2.10512 15.7826C0.288854 15.1363 0.288854 12.5657 2.10512 11.9194L3.91804 11.2753C4.1885 11.1795 4.43584 11.028 4.64406 10.8306C4.85228 10.6332 5.01674 10.3942 5.12681 10.1292C5.23688 9.86426 5.2901 9.57913 5.28303 9.29228C5.27597 9.00544 5.20878 8.72327 5.0858 8.46402L4.25901 6.72576C3.4311 4.98304 5.24848 3.16566 6.9912 3.99356L8.72947 4.82035C8.98837 4.94324 9.27017 5.01048 9.55666 5.01775C9.84316 5.02501 10.128 4.97212 10.3928 4.86251C10.6576 4.75289 10.8965 4.58898 11.094 4.38135C11.2915 4.17372 11.4434 3.92698 11.5397 3.65705L12.1837 1.84413C12.8278 0.0278675 15.3973 0.0278675 16.0436 1.84413H16.0447Z" fill="#FF884D"/>
</g>
</svg>
