<svg width="14" height="11" viewBox="0 0 14 11" fill="none" xmlns="http://www.w3.org/2000/svg">
<g id="United Kingdom (GB)">
<g clip-path="url(#clip0_220_3053)">
<path id="Vector" d="M0.170776 0.679932H13.6913V10.8203H0.170776V0.679932Z" fill="#012169"/>
<path id="Vector_2" d="M1.75521 0.679932L6.9099 4.5037L12.0435 0.679932H13.6913V1.98973L8.62109 5.77125L13.6913 9.53164V10.8203H12.0012L6.93103 7.0388L1.88197 10.8203H0.170776V9.55276L5.21984 5.79237L0.170776 2.03198V0.679932H1.75521Z" fill="white"/>
<path id="Vector_3" d="M9.12811 6.61628L13.6913 9.97528V10.8203L7.96619 6.61628H9.12811ZM5.24097 7.0388L5.36772 7.7782L1.31157 10.8203H0.170776L5.24097 7.0388ZM13.6913 0.679932V0.743309L8.43096 4.71496L8.47321 3.78542L12.635 0.679932H13.6913ZM0.170776 0.679932L5.21984 4.39807H3.95229L0.170776 1.56721V0.679932Z" fill="#C8102E"/>
<path id="Vector_4" d="M5.26209 0.679932V10.8203H8.64222V0.679932H5.26209ZM0.170776 4.06006V7.44019H13.6913V4.06006H0.170776Z" fill="white"/>
<path id="Vector_5" d="M0.170776 4.75721V6.78529H13.6913V4.75721H0.170776ZM5.93812 0.679932V10.8203H7.96619V0.679932H5.93812Z" fill="#C8102E"/>
</g>
</g>
<defs>
<clipPath id="clip0_220_3053">
<rect x="0.170776" y="0.679932" width="13.5205" height="10.1404" rx="1" fill="white"/>
</clipPath>
</defs>
</svg>
